G04 #@! TF.GenerationSoftware,KiCad,Pcbnew,(5.0.0)*
G04 #@! TF.CreationDate,2019-12-04T20:43:09-05:00*
G04 #@! TF.ProjectId,10W White LED,313057205768697465204C45442E6B69,rev?*
G04 #@! TF.SameCoordinates,Original*
G04 #@! TF.FileFunction,Legend,Top*
G04 #@! TF.FilePolarity,Positive*
%FSLAX46Y46*%
G04 Gerber Fmt 4.6, Leading zero omitted, Abs format (unit mm)*
G04 Created by KiCad (PCBNEW (5.0.0)) date 12/04/19 20:43:09*
%MOMM*%
%LPD*%
G01*
G04 APERTURE LIST*
%ADD10C,0.120000*%
%ADD11C,0.100000*%
%ADD12C,0.150000*%
%ADD13C,0.200000*%
G04 APERTURE END LIST*
D10*
G04 #@! TO.C,F1*
X188120000Y-119170000D02*
X188120000Y-115710000D01*
X191880000Y-119170000D02*
X191880000Y-115710000D01*
D11*
G04 #@! TO.C,FAN1*
X199500000Y-79500000D02*
X200150000Y-79500000D01*
X199500000Y-78750000D02*
X199500000Y-79500000D01*
X202000000Y-76000000D02*
X203300000Y-76000000D01*
X200000000Y-76000000D02*
X199800000Y-76000000D01*
X202000000Y-77500000D02*
X203300000Y-77500000D01*
X199800000Y-77500000D02*
X200000000Y-77500000D01*
D12*
X199800000Y-74300000D02*
X199800000Y-76250000D01*
X203300000Y-74300000D02*
X199800000Y-74300000D01*
X203300000Y-79200000D02*
X203300000Y-74300000D01*
X199800000Y-79200000D02*
X203300000Y-79200000D01*
X199800000Y-76250000D02*
X199800000Y-79200000D01*
D11*
G04 #@! TO.C,HEATSINK1*
X127500000Y-77500000D02*
X124000000Y-77500000D01*
X127500000Y-77500000D02*
X127500000Y-74000000D01*
X177500000Y-117500000D02*
G75*
G02X167500000Y-127500000I-10000000J0D01*
G01*
X177500000Y-117500000D02*
X177500000Y-82500000D01*
X132500000Y-127500000D02*
G75*
G02X122500000Y-117500000I0J10000000D01*
G01*
X122500000Y-82500000D02*
G75*
G02X132500000Y-72500000I10000000J0D01*
G01*
X167500000Y-72500000D02*
G75*
G02X177500000Y-82500000I0J-10000000D01*
G01*
X132500000Y-127500000D02*
X167500000Y-127500000D01*
X167500000Y-72500000D02*
X132500000Y-72500000D01*
X122500000Y-82500000D02*
X122500000Y-117500000D01*
X172500000Y-122500000D02*
X172500000Y-126000000D01*
X172500000Y-122500000D02*
X176000000Y-122500000D01*
X172500000Y-77500000D02*
X172500000Y-74000000D01*
X127500000Y-122500000D02*
X127500000Y-126000000D01*
X172500000Y-77500000D02*
X176000000Y-77500000D01*
X127500000Y-122500000D02*
X124000000Y-122500000D01*
D13*
G04 #@! TO.C,LENSE1*
X182500000Y-94250000D02*
G75*
G02X188000000Y-100005679I0J-5505679D01*
G01*
X188000000Y-100000000D02*
G75*
G02X182244321Y-105500000I-5505679J0D01*
G01*
X182500000Y-94250000D02*
X176000000Y-94250000D01*
X182250000Y-105500000D02*
X176000000Y-105500000D01*
X155500000Y-132500000D02*
G75*
G02X149744321Y-138000000I-5505679J0D01*
G01*
X149750000Y-138000000D02*
G75*
G02X144250000Y-132244321I0J5505679D01*
G01*
X155500000Y-132500000D02*
X155500000Y-126000000D01*
X144250000Y-132250000D02*
X144250000Y-126000000D01*
X117500000Y-105750000D02*
G75*
G02X112000000Y-99994321I0J5505679D01*
G01*
X112000000Y-100000000D02*
G75*
G02X117755679Y-94500000I5505679J0D01*
G01*
X117500000Y-105750000D02*
X124000000Y-105750000D01*
X117750000Y-94500000D02*
X124000000Y-94500000D01*
X144250000Y-67500000D02*
X144250000Y-74000000D01*
X155500000Y-67750000D02*
X155500000Y-74000000D01*
X144250000Y-67500000D02*
G75*
G02X150005679Y-62000000I5505679J0D01*
G01*
X150000000Y-62000000D02*
G75*
G02X155500000Y-67755679I0J-5505679D01*
G01*
X176500000Y-100000000D02*
G75*
G03X176500000Y-100000000I-26500000J0D01*
G01*
X163000000Y-100000000D02*
G75*
G03X163000000Y-100000000I-13000000J0D01*
G01*
X161000000Y-100000000D02*
G75*
G03X161000000Y-100000000I-11000000J0D01*
G01*
D11*
G04 #@! TO.C,SW1*
X200000000Y-113400000D02*
X201600000Y-113400000D01*
X202050000Y-113400000D02*
X201600000Y-113400000D01*
X201600000Y-113400000D02*
X202050000Y-113400000D01*
X202050000Y-113400000D02*
X202050000Y-123850000D01*
X197950000Y-113400000D02*
X200000000Y-113400000D01*
X197950000Y-113400000D02*
X197950000Y-123450000D01*
X200000000Y-124200000D02*
X202050000Y-124200000D01*
X202050000Y-124200000D02*
X202050000Y-123850000D01*
X200000000Y-124200000D02*
X198000000Y-124200000D01*
X198000000Y-124200000D02*
X197950000Y-124200000D01*
X197950000Y-124200000D02*
X197950000Y-123400000D01*
G04 #@! TO.C,SW2*
X198950000Y-93200000D02*
X198950000Y-92400000D01*
X199000000Y-93200000D02*
X198950000Y-93200000D01*
X201000000Y-93200000D02*
X199000000Y-93200000D01*
X203050000Y-93200000D02*
X203050000Y-92850000D01*
X201000000Y-93200000D02*
X203050000Y-93200000D01*
X198950000Y-82400000D02*
X198950000Y-92450000D01*
X198950000Y-82400000D02*
X201000000Y-82400000D01*
X203050000Y-82400000D02*
X203050000Y-92850000D01*
X202600000Y-82400000D02*
X203050000Y-82400000D01*
X203050000Y-82400000D02*
X202600000Y-82400000D01*
X201000000Y-82400000D02*
X202600000Y-82400000D01*
D13*
G04 #@! TO.C,U1*
X195750000Y-67250000D02*
X195750000Y-67500000D01*
X180250000Y-67250000D02*
X180250000Y-67500000D01*
X180250000Y-93000000D02*
X180250000Y-92500000D01*
X195750000Y-93000000D02*
X195750000Y-92500000D01*
X195750000Y-67000000D02*
X195750000Y-67250000D01*
X179250000Y-80000000D02*
X179250000Y-93000000D01*
X179250000Y-93000000D02*
X188000000Y-93000000D01*
X196750000Y-80000000D02*
X196750000Y-93000000D01*
X188000000Y-93000000D02*
X196750000Y-93000000D01*
X196750000Y-67000000D02*
X196750000Y-80000000D01*
X188000000Y-67000000D02*
X196750000Y-67000000D01*
X180250000Y-67000000D02*
X180250000Y-67250000D01*
X179250000Y-67000000D02*
X188000000Y-67000000D01*
X179250000Y-67000000D02*
X179250000Y-80000000D01*
X179250000Y-80000000D02*
X179250000Y-79500000D01*
D10*
G04 #@! TO.C,BARREL1*
X197000000Y-98900000D02*
X205800000Y-98900000D01*
X205800000Y-98900000D02*
X205800000Y-108100000D01*
X191100000Y-101600000D02*
X191100000Y-98900000D01*
X191100000Y-98900000D02*
X193000000Y-98900000D01*
X205800000Y-108100000D02*
X191100000Y-108100000D01*
X191100000Y-108100000D02*
X191100000Y-105500000D01*
G04 #@! TO.C,F1*
D12*
X187208571Y-117773333D02*
X187208571Y-118106666D01*
X187732380Y-118106666D02*
X186732380Y-118106666D01*
X186732380Y-117630476D01*
X187732380Y-116725714D02*
X187732380Y-117297142D01*
X187732380Y-117011428D02*
X186732380Y-117011428D01*
X186875238Y-117106666D01*
X186970476Y-117201904D01*
X187018095Y-117297142D01*
G04 #@! TO.C,FAN1*
X198128571Y-77535714D02*
X198128571Y-77869047D01*
X198652380Y-77869047D02*
X197652380Y-77869047D01*
X197652380Y-77392857D01*
X198366666Y-77059523D02*
X198366666Y-76583333D01*
X198652380Y-77154761D02*
X197652380Y-76821428D01*
X198652380Y-76488095D01*
X198652380Y-76154761D02*
X197652380Y-76154761D01*
X198652380Y-75583333D01*
X197652380Y-75583333D01*
X198652380Y-74583333D02*
X198652380Y-75154761D01*
X198652380Y-74869047D02*
X197652380Y-74869047D01*
X197795238Y-74964285D01*
X197890476Y-75059523D01*
X197938095Y-75154761D01*
G04 #@! TO.C,LENSE1*
X117678571Y-93202380D02*
X117202380Y-93202380D01*
X117202380Y-92202380D01*
X118011904Y-92678571D02*
X118345238Y-92678571D01*
X118488095Y-93202380D02*
X118011904Y-93202380D01*
X118011904Y-92202380D01*
X118488095Y-92202380D01*
X118916666Y-93202380D02*
X118916666Y-92202380D01*
X119488095Y-93202380D01*
X119488095Y-92202380D01*
X119916666Y-93154761D02*
X120059523Y-93202380D01*
X120297619Y-93202380D01*
X120392857Y-93154761D01*
X120440476Y-93107142D01*
X120488095Y-93011904D01*
X120488095Y-92916666D01*
X120440476Y-92821428D01*
X120392857Y-92773809D01*
X120297619Y-92726190D01*
X120107142Y-92678571D01*
X120011904Y-92630952D01*
X119964285Y-92583333D01*
X119916666Y-92488095D01*
X119916666Y-92392857D01*
X119964285Y-92297619D01*
X120011904Y-92250000D01*
X120107142Y-92202380D01*
X120345238Y-92202380D01*
X120488095Y-92250000D01*
X120916666Y-92678571D02*
X121250000Y-92678571D01*
X121392857Y-93202380D02*
X120916666Y-93202380D01*
X120916666Y-92202380D01*
X121392857Y-92202380D01*
X122345238Y-93202380D02*
X121773809Y-93202380D01*
X122059523Y-93202380D02*
X122059523Y-92202380D01*
X121964285Y-92345238D01*
X121869047Y-92440476D01*
X121773809Y-92488095D01*
G04 #@! TO.C,SW1*
X198666666Y-113074761D02*
X198809523Y-113122380D01*
X199047619Y-113122380D01*
X199142857Y-113074761D01*
X199190476Y-113027142D01*
X199238095Y-112931904D01*
X199238095Y-112836666D01*
X199190476Y-112741428D01*
X199142857Y-112693809D01*
X199047619Y-112646190D01*
X198857142Y-112598571D01*
X198761904Y-112550952D01*
X198714285Y-112503333D01*
X198666666Y-112408095D01*
X198666666Y-112312857D01*
X198714285Y-112217619D01*
X198761904Y-112170000D01*
X198857142Y-112122380D01*
X199095238Y-112122380D01*
X199238095Y-112170000D01*
X199571428Y-112122380D02*
X199809523Y-113122380D01*
X200000000Y-112408095D01*
X200190476Y-113122380D01*
X200428571Y-112122380D01*
X201333333Y-113122380D02*
X200761904Y-113122380D01*
X201047619Y-113122380D02*
X201047619Y-112122380D01*
X200952380Y-112265238D01*
X200857142Y-112360476D01*
X200761904Y-112408095D01*
G04 #@! TO.C,SW2*
X199666666Y-82074761D02*
X199809523Y-82122380D01*
X200047619Y-82122380D01*
X200142857Y-82074761D01*
X200190476Y-82027142D01*
X200238095Y-81931904D01*
X200238095Y-81836666D01*
X200190476Y-81741428D01*
X200142857Y-81693809D01*
X200047619Y-81646190D01*
X199857142Y-81598571D01*
X199761904Y-81550952D01*
X199714285Y-81503333D01*
X199666666Y-81408095D01*
X199666666Y-81312857D01*
X199714285Y-81217619D01*
X199761904Y-81170000D01*
X199857142Y-81122380D01*
X200095238Y-81122380D01*
X200238095Y-81170000D01*
X200571428Y-81122380D02*
X200809523Y-82122380D01*
X201000000Y-81408095D01*
X201190476Y-82122380D01*
X201428571Y-81122380D01*
X201761904Y-81217619D02*
X201809523Y-81170000D01*
X201904761Y-81122380D01*
X202142857Y-81122380D01*
X202238095Y-81170000D01*
X202285714Y-81217619D01*
X202333333Y-81312857D01*
X202333333Y-81408095D01*
X202285714Y-81550952D01*
X201714285Y-82122380D01*
X202333333Y-82122380D01*
G04 #@! TO.C,MNT1*
X124285714Y-71452380D02*
X124285714Y-70452380D01*
X124619047Y-71166666D01*
X124952380Y-70452380D01*
X124952380Y-71452380D01*
X125428571Y-71452380D02*
X125428571Y-70452380D01*
X126000000Y-71452380D01*
X126000000Y-70452380D01*
X126333333Y-70452380D02*
X126904761Y-70452380D01*
X126619047Y-71452380D02*
X126619047Y-70452380D01*
X127761904Y-71452380D02*
X127190476Y-71452380D01*
X127476190Y-71452380D02*
X127476190Y-70452380D01*
X127380952Y-70595238D01*
X127285714Y-70690476D01*
X127190476Y-70738095D01*
G04 #@! TO.C,MNT2*
X198785714Y-73952380D02*
X198785714Y-72952380D01*
X199119047Y-73666666D01*
X199452380Y-72952380D01*
X199452380Y-73952380D01*
X199928571Y-73952380D02*
X199928571Y-72952380D01*
X200500000Y-73952380D01*
X200500000Y-72952380D01*
X200833333Y-72952380D02*
X201404761Y-72952380D01*
X201119047Y-73952380D02*
X201119047Y-72952380D01*
X201690476Y-73047619D02*
X201738095Y-73000000D01*
X201833333Y-72952380D01*
X202071428Y-72952380D01*
X202166666Y-73000000D01*
X202214285Y-73047619D01*
X202261904Y-73142857D01*
X202261904Y-73238095D01*
X202214285Y-73380952D01*
X201642857Y-73952380D01*
X202261904Y-73952380D01*
G04 #@! TO.C,MNT3*
X192785714Y-130452380D02*
X192785714Y-129452380D01*
X193119047Y-130166666D01*
X193452380Y-129452380D01*
X193452380Y-130452380D01*
X193928571Y-130452380D02*
X193928571Y-129452380D01*
X194500000Y-130452380D01*
X194500000Y-129452380D01*
X194833333Y-129452380D02*
X195404761Y-129452380D01*
X195119047Y-130452380D02*
X195119047Y-129452380D01*
X195642857Y-129452380D02*
X196261904Y-129452380D01*
X195928571Y-129833333D01*
X196071428Y-129833333D01*
X196166666Y-129880952D01*
X196214285Y-129928571D01*
X196261904Y-130023809D01*
X196261904Y-130261904D01*
X196214285Y-130357142D01*
X196166666Y-130404761D01*
X196071428Y-130452380D01*
X195785714Y-130452380D01*
X195690476Y-130404761D01*
X195642857Y-130357142D01*
G04 #@! TO.C,MNT4*
X125285714Y-129452380D02*
X125285714Y-128452380D01*
X125619047Y-129166666D01*
X125952380Y-128452380D01*
X125952380Y-129452380D01*
X126428571Y-129452380D02*
X126428571Y-128452380D01*
X127000000Y-129452380D01*
X127000000Y-128452380D01*
X127333333Y-128452380D02*
X127904761Y-128452380D01*
X127619047Y-129452380D02*
X127619047Y-128452380D01*
X128666666Y-128785714D02*
X128666666Y-129452380D01*
X128428571Y-128404761D02*
X128190476Y-129119047D01*
X128809523Y-129119047D01*
G04 #@! TO.C,U1*
X177702380Y-80761904D02*
X178511904Y-80761904D01*
X178607142Y-80714285D01*
X178654761Y-80666666D01*
X178702380Y-80571428D01*
X178702380Y-80380952D01*
X178654761Y-80285714D01*
X178607142Y-80238095D01*
X178511904Y-80190476D01*
X177702380Y-80190476D01*
X178702380Y-79190476D02*
X178702380Y-79761904D01*
X178702380Y-79476190D02*
X177702380Y-79476190D01*
X177845238Y-79571428D01*
X177940476Y-79666666D01*
X177988095Y-79761904D01*
X192452380Y-72619047D02*
X192452380Y-72428571D01*
X192500000Y-72333333D01*
X192595238Y-72238095D01*
X192785714Y-72190476D01*
X193119047Y-72190476D01*
X193309523Y-72238095D01*
X193404761Y-72333333D01*
X193452380Y-72428571D01*
X193452380Y-72619047D01*
X193404761Y-72714285D01*
X193309523Y-72809523D01*
X193119047Y-72857142D01*
X192785714Y-72857142D01*
X192595238Y-72809523D01*
X192500000Y-72714285D01*
X192452380Y-72619047D01*
X192452380Y-71761904D02*
X193261904Y-71761904D01*
X193357142Y-71714285D01*
X193404761Y-71666666D01*
X193452380Y-71571428D01*
X193452380Y-71380952D01*
X193404761Y-71285714D01*
X193357142Y-71238095D01*
X193261904Y-71190476D01*
X192452380Y-71190476D01*
X192452380Y-70857142D02*
X192452380Y-70285714D01*
X193452380Y-70571428D02*
X192452380Y-70571428D01*
X193071428Y-69952380D02*
X193071428Y-69190476D01*
X193452380Y-69571428D02*
X192690476Y-69571428D01*
X182452380Y-71869047D02*
X182452380Y-71678571D01*
X182500000Y-71583333D01*
X182595238Y-71488095D01*
X182785714Y-71440476D01*
X183119047Y-71440476D01*
X183309523Y-71488095D01*
X183404761Y-71583333D01*
X183452380Y-71678571D01*
X183452380Y-71869047D01*
X183404761Y-71964285D01*
X183309523Y-72059523D01*
X183119047Y-72107142D01*
X182785714Y-72107142D01*
X182595238Y-72059523D01*
X182500000Y-71964285D01*
X182452380Y-71869047D01*
X182452380Y-71011904D02*
X183261904Y-71011904D01*
X183357142Y-70964285D01*
X183404761Y-70916666D01*
X183452380Y-70821428D01*
X183452380Y-70630952D01*
X183404761Y-70535714D01*
X183357142Y-70488095D01*
X183261904Y-70440476D01*
X182452380Y-70440476D01*
X182452380Y-70107142D02*
X182452380Y-69535714D01*
X183452380Y-69821428D02*
X182452380Y-69821428D01*
X183071428Y-69202380D02*
X183071428Y-68440476D01*
X182500000Y-90761904D02*
X182452380Y-90857142D01*
X182452380Y-91000000D01*
X182500000Y-91142857D01*
X182595238Y-91238095D01*
X182690476Y-91285714D01*
X182880952Y-91333333D01*
X183023809Y-91333333D01*
X183214285Y-91285714D01*
X183309523Y-91238095D01*
X183404761Y-91142857D01*
X183452380Y-91000000D01*
X183452380Y-90904761D01*
X183404761Y-90761904D01*
X183357142Y-90714285D01*
X183023809Y-90714285D01*
X183023809Y-90904761D01*
X183452380Y-90285714D02*
X182452380Y-90285714D01*
X183452380Y-89714285D01*
X182452380Y-89714285D01*
X183452380Y-89238095D02*
X182452380Y-89238095D01*
X182452380Y-89000000D01*
X182500000Y-88857142D01*
X182595238Y-88761904D01*
X182690476Y-88714285D01*
X182880952Y-88666666D01*
X183023809Y-88666666D01*
X183214285Y-88714285D01*
X183309523Y-88761904D01*
X183404761Y-88857142D01*
X183452380Y-89000000D01*
X183452380Y-89238095D01*
X193452380Y-91142857D02*
X192452380Y-91142857D01*
X193452380Y-90666666D02*
X192452380Y-90666666D01*
X193452380Y-90095238D01*
X192452380Y-90095238D01*
X193071428Y-89619047D02*
X193071428Y-88857142D01*
X193452380Y-89238095D02*
X192690476Y-89238095D01*
G04 #@! TO.C,BARREL1*
X197759523Y-97678571D02*
X197902380Y-97726190D01*
X197950000Y-97773809D01*
X197997619Y-97869047D01*
X197997619Y-98011904D01*
X197950000Y-98107142D01*
X197902380Y-98154761D01*
X197807142Y-98202380D01*
X197426190Y-98202380D01*
X197426190Y-97202380D01*
X197759523Y-97202380D01*
X197854761Y-97250000D01*
X197902380Y-97297619D01*
X197950000Y-97392857D01*
X197950000Y-97488095D01*
X197902380Y-97583333D01*
X197854761Y-97630952D01*
X197759523Y-97678571D01*
X197426190Y-97678571D01*
X198378571Y-97916666D02*
X198854761Y-97916666D01*
X198283333Y-98202380D02*
X198616666Y-97202380D01*
X198950000Y-98202380D01*
X199854761Y-98202380D02*
X199521428Y-97726190D01*
X199283333Y-98202380D02*
X199283333Y-97202380D01*
X199664285Y-97202380D01*
X199759523Y-97250000D01*
X199807142Y-97297619D01*
X199854761Y-97392857D01*
X199854761Y-97535714D01*
X199807142Y-97630952D01*
X199759523Y-97678571D01*
X199664285Y-97726190D01*
X199283333Y-97726190D01*
X200854761Y-98202380D02*
X200521428Y-97726190D01*
X200283333Y-98202380D02*
X200283333Y-97202380D01*
X200664285Y-97202380D01*
X200759523Y-97250000D01*
X200807142Y-97297619D01*
X200854761Y-97392857D01*
X200854761Y-97535714D01*
X200807142Y-97630952D01*
X200759523Y-97678571D01*
X200664285Y-97726190D01*
X200283333Y-97726190D01*
X201283333Y-97678571D02*
X201616666Y-97678571D01*
X201759523Y-98202380D02*
X201283333Y-98202380D01*
X201283333Y-97202380D01*
X201759523Y-97202380D01*
X202664285Y-98202380D02*
X202188095Y-98202380D01*
X202188095Y-97202380D01*
X203521428Y-98202380D02*
X202950000Y-98202380D01*
X203235714Y-98202380D02*
X203235714Y-97202380D01*
X203140476Y-97345238D01*
X203045238Y-97440476D01*
X202950000Y-97488095D01*
G04 #@! TD*
M02*
