G04 #@! TF.GenerationSoftware,KiCad,Pcbnew,(5.0.0)*
G04 #@! TF.CreationDate,2019-12-04T20:43:09-05:00*
G04 #@! TF.ProjectId,10W White LED,313057205768697465204C45442E6B69,rev?*
G04 #@! TF.SameCoordinates,Original*
G04 #@! TF.FileFunction,Copper,L2,Bot,Signal*
G04 #@! TF.FilePolarity,Positive*
%FSLAX46Y46*%
G04 Gerber Fmt 4.6, Leading zero omitted, Abs format (unit mm)*
G04 Created by KiCad (PCBNEW (5.0.0)) date 12/04/19 20:43:09*
%MOMM*%
%LPD*%
G01*
G04 APERTURE LIST*
G04 #@! TA.AperFunction,ComponentPad*
%ADD10O,1.700000X1.200000*%
G04 #@! TD*
G04 #@! TA.AperFunction,ComponentPad*
%ADD11R,1.700000X1.200000*%
G04 #@! TD*
G04 #@! TA.AperFunction,ComponentPad*
%ADD12C,5.000000*%
G04 #@! TD*
G04 #@! TA.AperFunction,ComponentPad*
%ADD13O,9.000000X7.000000*%
G04 #@! TD*
G04 #@! TA.AperFunction,ComponentPad*
%ADD14O,7.000000X9.000000*%
G04 #@! TD*
G04 #@! TA.AperFunction,ComponentPad*
%ADD15O,2.200000X2.200000*%
G04 #@! TD*
G04 #@! TA.AperFunction,ComponentPad*
%ADD16R,2.200000X2.200000*%
G04 #@! TD*
G04 #@! TA.AperFunction,SMDPad,CuDef*
%ADD17R,8.000000X5.000000*%
G04 #@! TD*
G04 #@! TA.AperFunction,ComponentPad*
%ADD18C,5.500000*%
G04 #@! TD*
G04 #@! TA.AperFunction,ComponentPad*
%ADD19C,2.000000*%
G04 #@! TD*
G04 #@! TA.AperFunction,ComponentPad*
%ADD20R,3.500000X3.500000*%
G04 #@! TD*
G04 #@! TA.AperFunction,Conductor*
%ADD21C,2.000000*%
G04 #@! TD*
G04 #@! TA.AperFunction,Conductor*
%ADD22C,0.500000*%
G04 #@! TD*
G04 APERTURE END LIST*
D10*
G04 #@! TO.P,FAN1,2*
G04 #@! TO.N,GND*
X201000000Y-76000000D03*
D11*
G04 #@! TO.P,FAN1,1*
G04 #@! TO.N,Net-(FAN1-Pad1)*
X201000000Y-77500000D03*
G04 #@! TD*
D12*
G04 #@! TO.P,HEATSINK1,1*
G04 #@! TO.N,GND*
X176000000Y-110500000D03*
G04 #@! TO.P,HEATSINK1,2*
X124000000Y-89500000D03*
G04 #@! TO.P,HEATSINK1,3*
X172500000Y-77500000D03*
X127500000Y-77500000D03*
X127500000Y-122500000D03*
X172500000Y-122500000D03*
G04 #@! TD*
D13*
G04 #@! TO.P,LENSE1,1*
G04 #@! TO.N,GND*
X181750000Y-100000000D03*
D14*
X149750000Y-131750000D03*
D13*
X118250000Y-100000000D03*
D14*
X150000000Y-68250000D03*
G04 #@! TD*
D15*
G04 #@! TO.P,SW1,2*
G04 #@! TO.N,Net-(F1-Pad1)*
X200000000Y-122620000D03*
D16*
G04 #@! TO.P,SW1,1*
G04 #@! TO.N,Net-(BARREL1-Pad1)*
X200000000Y-115000000D03*
G04 #@! TD*
G04 #@! TO.P,SW2,1*
G04 #@! TO.N,Net-(FAN1-Pad1)*
X201000000Y-84000000D03*
D15*
G04 #@! TO.P,SW2,2*
G04 #@! TO.N,+12V*
X201000000Y-91620000D03*
G04 #@! TD*
D17*
G04 #@! TO.P,D1,2*
G04 #@! TO.N,Net-(D1-Pad2)*
X150000000Y-87000000D03*
G04 #@! TO.P,D1,1*
G04 #@! TO.N,Net-(D1-Pad1)*
X150000000Y-113000000D03*
G04 #@! TD*
D18*
G04 #@! TO.P,MNT1,1*
G04 #@! TO.N,GND*
X121000000Y-71000000D03*
G04 #@! TD*
G04 #@! TO.P,MNT2,1*
G04 #@! TO.N,GND*
X200000000Y-70000000D03*
G04 #@! TD*
G04 #@! TO.P,MNT3,1*
G04 #@! TO.N,GND*
X200000000Y-130000000D03*
G04 #@! TD*
G04 #@! TO.P,MNT4,1*
G04 #@! TO.N,GND*
X122000000Y-129000000D03*
G04 #@! TD*
D19*
G04 #@! TO.P,U1,4*
G04 #@! TO.N,Net-(D1-Pad1)*
X180250000Y-66000000D03*
G04 #@! TO.P,U1,3*
G04 #@! TO.N,Net-(D1-Pad2)*
X195750000Y-66000000D03*
G04 #@! TO.P,U1,2*
G04 #@! TO.N,+12V*
X195750000Y-94000000D03*
G04 #@! TO.P,U1,1*
G04 #@! TO.N,GND*
X180250000Y-94000000D03*
G04 #@! TD*
D20*
G04 #@! TO.P,BARREL1,1*
G04 #@! TO.N,Net-(BARREL1-Pad1)*
X192000000Y-103500000D03*
G04 #@! TO.P,BARREL1,2*
G04 #@! TO.N,GND*
X198000000Y-103500000D03*
G04 #@! TO.P,BARREL1,3*
G04 #@! TO.N,N/C*
X195000000Y-98800000D03*
G04 #@! TD*
D21*
G04 #@! TO.N,Net-(D1-Pad2)*
X154250000Y-87000000D02*
X156250000Y-85000000D01*
X150000000Y-87000000D02*
X154250000Y-87000000D01*
X156250000Y-85000000D02*
X185000000Y-85000000D01*
X191000000Y-79000000D02*
X191000000Y-67000000D01*
X185000000Y-85000000D02*
X191000000Y-79000000D01*
X192000000Y-66000000D02*
X195750000Y-66000000D01*
X191000000Y-67000000D02*
X192000000Y-66000000D01*
G04 #@! TO.N,Net-(D1-Pad1)*
X179000000Y-70000000D02*
X180250000Y-68750000D01*
X168000000Y-70000000D02*
X179000000Y-70000000D01*
X180250000Y-68750000D02*
X180250000Y-66000000D01*
X150000000Y-113000000D02*
X136000000Y-113000000D01*
X136000000Y-113000000D02*
X133000000Y-110000000D01*
X133000000Y-110000000D02*
X133000000Y-89000000D01*
X133000000Y-89000000D02*
X142000000Y-80000000D01*
X142000000Y-80000000D02*
X158000000Y-80000000D01*
X158000000Y-80000000D02*
X168000000Y-70000000D01*
G04 #@! TD*
D22*
G04 #@! TO.N,GND*
G36*
X150849311Y-62212920D02*
X152203316Y-62375574D01*
X153532364Y-62681187D01*
X154821407Y-63126299D01*
X156055860Y-63705873D01*
X157221732Y-64413342D01*
X158312727Y-65245962D01*
X158985759Y-65867019D01*
X159044728Y-65955272D01*
X159483011Y-66248122D01*
X159869501Y-66325000D01*
X159999980Y-66325000D01*
X159999999Y-66325001D01*
X160000018Y-66325000D01*
X176869502Y-66325000D01*
X177000000Y-66350958D01*
X177130498Y-66325000D01*
X177130499Y-66325000D01*
X177516989Y-66248122D01*
X177955272Y-65955272D01*
X178000000Y-65888332D01*
X178000000Y-67750000D01*
X168221605Y-67750000D01*
X168000000Y-67705920D01*
X167778395Y-67750000D01*
X167778394Y-67750000D01*
X167122094Y-67880546D01*
X166377840Y-68377840D01*
X166252308Y-68565712D01*
X157068020Y-77750000D01*
X142221604Y-77750000D01*
X141999999Y-77705920D01*
X141778394Y-77750000D01*
X141122094Y-77880546D01*
X141122093Y-77880547D01*
X141122092Y-77880547D01*
X140908000Y-78023599D01*
X140377840Y-78377840D01*
X140252310Y-78565709D01*
X131565710Y-87252310D01*
X131377841Y-87377840D01*
X131252311Y-87565709D01*
X130880547Y-88122093D01*
X130705920Y-89000000D01*
X130750001Y-89221609D01*
X130750000Y-109778395D01*
X130705920Y-110000000D01*
X130750000Y-110221605D01*
X130880546Y-110877905D01*
X130880547Y-110877906D01*
X130880547Y-110877907D01*
X130885779Y-110885737D01*
X131377840Y-111622160D01*
X131565712Y-111747692D01*
X134252308Y-114434288D01*
X134377840Y-114622160D01*
X135122094Y-115119454D01*
X135778394Y-115250000D01*
X135778395Y-115250000D01*
X136000000Y-115294080D01*
X136221605Y-115250000D01*
X144725512Y-115250000D01*
X144725512Y-115500000D01*
X144822527Y-115987725D01*
X145098801Y-116401199D01*
X145512275Y-116677473D01*
X146000000Y-116774488D01*
X154000000Y-116774488D01*
X154487725Y-116677473D01*
X154901199Y-116401199D01*
X155177473Y-115987725D01*
X155274488Y-115500000D01*
X155274488Y-113900000D01*
X197625512Y-113900000D01*
X197625512Y-116100000D01*
X197722527Y-116587725D01*
X197998801Y-117001199D01*
X198412275Y-117277473D01*
X198900000Y-117374488D01*
X201100000Y-117374488D01*
X201587725Y-117277473D01*
X202001199Y-117001199D01*
X202277473Y-116587725D01*
X202374488Y-116100000D01*
X202374488Y-113900000D01*
X202277473Y-113412275D01*
X202001199Y-112998801D01*
X201587725Y-112722527D01*
X201100000Y-112625512D01*
X198900000Y-112625512D01*
X198412275Y-112722527D01*
X197998801Y-112998801D01*
X197722527Y-113412275D01*
X197625512Y-113900000D01*
X155274488Y-113900000D01*
X155274488Y-112717717D01*
X173787940Y-112717717D01*
X174050716Y-113189765D01*
X175228425Y-113730977D01*
X176523599Y-113780303D01*
X177739061Y-113330232D01*
X177949284Y-113189765D01*
X178212060Y-112717717D01*
X176000000Y-110505657D01*
X173787940Y-112717717D01*
X155274488Y-112717717D01*
X155274488Y-111825000D01*
X160369501Y-111825000D01*
X160500000Y-111850958D01*
X160630499Y-111825000D01*
X161016989Y-111748122D01*
X161455272Y-111455272D01*
X161743705Y-111023599D01*
X172719697Y-111023599D01*
X173169768Y-112239061D01*
X173310235Y-112449284D01*
X173782283Y-112712060D01*
X175994343Y-110500000D01*
X176005657Y-110500000D01*
X178217717Y-112712060D01*
X178689765Y-112449284D01*
X179230977Y-111271575D01*
X179280303Y-109976401D01*
X178830232Y-108760939D01*
X178689765Y-108550716D01*
X178217717Y-108287940D01*
X176005657Y-110500000D01*
X175994343Y-110500000D01*
X173782283Y-108287940D01*
X173310235Y-108550716D01*
X172769023Y-109728425D01*
X172719697Y-111023599D01*
X161743705Y-111023599D01*
X161748122Y-111016989D01*
X161850958Y-110500000D01*
X161825000Y-110369501D01*
X161825000Y-108282283D01*
X173787940Y-108282283D01*
X176000000Y-110494343D01*
X178212060Y-108282283D01*
X177949284Y-107810235D01*
X176771575Y-107269023D01*
X175476401Y-107219697D01*
X174260939Y-107669768D01*
X174050716Y-107810235D01*
X173787940Y-108282283D01*
X161825000Y-108282283D01*
X161825000Y-100670048D01*
X176545051Y-100670048D01*
X176814590Y-101625770D01*
X177736311Y-103008032D01*
X179116838Y-103932348D01*
X180746000Y-104258000D01*
X181746000Y-104258000D01*
X181746000Y-100004000D01*
X181754000Y-100004000D01*
X181754000Y-104258000D01*
X182754000Y-104258000D01*
X184383162Y-103932348D01*
X185763689Y-103008032D01*
X186602570Y-101750000D01*
X188975512Y-101750000D01*
X188975512Y-105250000D01*
X189072527Y-105737725D01*
X189348801Y-106151199D01*
X189762275Y-106427473D01*
X190250000Y-106524488D01*
X193750000Y-106524488D01*
X194237725Y-106427473D01*
X194651199Y-106151199D01*
X194927473Y-105737725D01*
X195024488Y-105250000D01*
X195024488Y-103693500D01*
X195492000Y-103693500D01*
X195492000Y-105400775D01*
X195607398Y-105679372D01*
X195820627Y-105892601D01*
X196099224Y-106008000D01*
X197806500Y-106008000D01*
X197996000Y-105818500D01*
X197996000Y-103504000D01*
X198004000Y-103504000D01*
X198004000Y-105818500D01*
X198193500Y-106008000D01*
X199900776Y-106008000D01*
X200179373Y-105892601D01*
X200392602Y-105679372D01*
X200508000Y-105400775D01*
X200508000Y-103693500D01*
X200318500Y-103504000D01*
X198004000Y-103504000D01*
X197996000Y-103504000D01*
X195681500Y-103504000D01*
X195492000Y-103693500D01*
X195024488Y-103693500D01*
X195024488Y-101824488D01*
X195492000Y-101824488D01*
X195492000Y-103306500D01*
X195681500Y-103496000D01*
X197996000Y-103496000D01*
X197996000Y-101181500D01*
X198004000Y-101181500D01*
X198004000Y-103496000D01*
X200318500Y-103496000D01*
X200508000Y-103306500D01*
X200508000Y-101599225D01*
X200392602Y-101320628D01*
X200179373Y-101107399D01*
X199900776Y-100992000D01*
X198193500Y-100992000D01*
X198004000Y-101181500D01*
X197996000Y-101181500D01*
X197897333Y-101082833D01*
X197927473Y-101037725D01*
X198024488Y-100550000D01*
X198024488Y-97050000D01*
X197927473Y-96562275D01*
X197651199Y-96148801D01*
X197237725Y-95872527D01*
X197089031Y-95842950D01*
X197657458Y-95274523D01*
X198000000Y-94447553D01*
X198000000Y-93552447D01*
X197657458Y-92725477D01*
X197024523Y-92092542D01*
X196197553Y-91750000D01*
X195302447Y-91750000D01*
X194475477Y-92092542D01*
X193842542Y-92725477D01*
X193500000Y-93552447D01*
X193500000Y-94447553D01*
X193842542Y-95274523D01*
X194343531Y-95775512D01*
X193250000Y-95775512D01*
X192762275Y-95872527D01*
X192348801Y-96148801D01*
X192072527Y-96562275D01*
X191975512Y-97050000D01*
X191975512Y-100475512D01*
X190250000Y-100475512D01*
X189762275Y-100572527D01*
X189348801Y-100848801D01*
X189072527Y-101262275D01*
X188975512Y-101750000D01*
X186602570Y-101750000D01*
X186685410Y-101625770D01*
X186954949Y-100670048D01*
X186818498Y-100004000D01*
X181754000Y-100004000D01*
X181746000Y-100004000D01*
X176681502Y-100004000D01*
X176545051Y-100670048D01*
X161825000Y-100670048D01*
X161825000Y-99329952D01*
X176545051Y-99329952D01*
X176681502Y-99996000D01*
X181746000Y-99996000D01*
X181746000Y-95742000D01*
X181754000Y-95742000D01*
X181754000Y-99996000D01*
X186818498Y-99996000D01*
X186954949Y-99329952D01*
X186685410Y-98374230D01*
X185763689Y-96991968D01*
X184383162Y-96067652D01*
X182754000Y-95742000D01*
X181754000Y-95742000D01*
X181746000Y-95742000D01*
X180746000Y-95742000D01*
X179116838Y-96067652D01*
X177736311Y-96991968D01*
X176814590Y-98374230D01*
X176545051Y-99329952D01*
X161825000Y-99329952D01*
X161825000Y-95136275D01*
X179119382Y-95136275D01*
X179199669Y-95452463D01*
X179835454Y-95743845D01*
X180534350Y-95769743D01*
X181189956Y-95526213D01*
X181300331Y-95452463D01*
X181380618Y-95136275D01*
X180250000Y-94005657D01*
X179119382Y-95136275D01*
X161825000Y-95136275D01*
X161825000Y-94284350D01*
X178480257Y-94284350D01*
X178723787Y-94939956D01*
X178797537Y-95050331D01*
X179113725Y-95130618D01*
X180244343Y-94000000D01*
X180255657Y-94000000D01*
X181386275Y-95130618D01*
X181702463Y-95050331D01*
X181993845Y-94414546D01*
X182019743Y-93715650D01*
X181776213Y-93060044D01*
X181702463Y-92949669D01*
X181386275Y-92869382D01*
X180255657Y-94000000D01*
X180244343Y-94000000D01*
X179113725Y-92869382D01*
X178797537Y-92949669D01*
X178506155Y-93585454D01*
X178480257Y-94284350D01*
X161825000Y-94284350D01*
X161825000Y-92863725D01*
X179119382Y-92863725D01*
X180250000Y-93994343D01*
X181380618Y-92863725D01*
X181300331Y-92547537D01*
X180664546Y-92256155D01*
X179965650Y-92230257D01*
X179310044Y-92473787D01*
X179199669Y-92547537D01*
X179119382Y-92863725D01*
X161825000Y-92863725D01*
X161825000Y-91620000D01*
X198603961Y-91620000D01*
X198786349Y-92536924D01*
X199305745Y-93314255D01*
X200083076Y-93833651D01*
X200768547Y-93970000D01*
X201231453Y-93970000D01*
X201916924Y-93833651D01*
X202694255Y-93314255D01*
X203213651Y-92536924D01*
X203396039Y-91620000D01*
X203213651Y-90703076D01*
X202694255Y-89925745D01*
X201916924Y-89406349D01*
X201231453Y-89270000D01*
X200768547Y-89270000D01*
X200083076Y-89406349D01*
X199305745Y-89925745D01*
X198786349Y-90703076D01*
X198603961Y-91620000D01*
X161825000Y-91620000D01*
X161825000Y-89630499D01*
X161850958Y-89500000D01*
X161748122Y-88983011D01*
X161455272Y-88544728D01*
X161016989Y-88251878D01*
X160630499Y-88175000D01*
X160500000Y-88149042D01*
X160369501Y-88175000D01*
X156256980Y-88175000D01*
X157181981Y-87250000D01*
X184778395Y-87250000D01*
X185000000Y-87294080D01*
X185221605Y-87250000D01*
X185221606Y-87250000D01*
X185877906Y-87119454D01*
X186622160Y-86622160D01*
X186747692Y-86434288D01*
X190281980Y-82900000D01*
X198625512Y-82900000D01*
X198625512Y-85100000D01*
X198722527Y-85587725D01*
X198998801Y-86001199D01*
X199412275Y-86277473D01*
X199900000Y-86374488D01*
X202100000Y-86374488D01*
X202587725Y-86277473D01*
X203001199Y-86001199D01*
X203277473Y-85587725D01*
X203374488Y-85100000D01*
X203374488Y-82900000D01*
X203277473Y-82412275D01*
X203001199Y-81998801D01*
X202587725Y-81722527D01*
X202100000Y-81625512D01*
X199900000Y-81625512D01*
X199412275Y-81722527D01*
X198998801Y-81998801D01*
X198722527Y-82412275D01*
X198625512Y-82900000D01*
X190281980Y-82900000D01*
X192434292Y-80747689D01*
X192622160Y-80622160D01*
X193037873Y-80000001D01*
X193119453Y-79877908D01*
X193119453Y-79877907D01*
X193119454Y-79877906D01*
X193250000Y-79221606D01*
X193250000Y-79221605D01*
X193294080Y-79000001D01*
X193250000Y-78778396D01*
X193250000Y-76900000D01*
X198875512Y-76900000D01*
X198875512Y-78100000D01*
X198972527Y-78587725D01*
X199248801Y-79001199D01*
X199662275Y-79277473D01*
X200150000Y-79374488D01*
X201850000Y-79374488D01*
X202337725Y-79277473D01*
X202751199Y-79001199D01*
X203027473Y-78587725D01*
X203124488Y-78100000D01*
X203124488Y-76900000D01*
X203027473Y-76412275D01*
X202751199Y-75998801D01*
X202533909Y-75853612D01*
X202590649Y-75783612D01*
X202506160Y-75484011D01*
X202213080Y-75042577D01*
X201773380Y-74746902D01*
X201254000Y-74642000D01*
X201004000Y-74642000D01*
X201004000Y-75625512D01*
X200996000Y-75625512D01*
X200996000Y-74642000D01*
X200746000Y-74642000D01*
X200226620Y-74746902D01*
X199786920Y-75042577D01*
X199493840Y-75484011D01*
X199409351Y-75783612D01*
X199466091Y-75853612D01*
X199248801Y-75998801D01*
X198972527Y-76412275D01*
X198875512Y-76900000D01*
X193250000Y-76900000D01*
X193250000Y-72397957D01*
X197607699Y-72397957D01*
X197900891Y-72895982D01*
X199168920Y-73478833D01*
X200563474Y-73532063D01*
X201872244Y-73047569D01*
X202099109Y-72895982D01*
X202392301Y-72397957D01*
X200000000Y-70005657D01*
X197607699Y-72397957D01*
X193250000Y-72397957D01*
X193250000Y-70563474D01*
X196467937Y-70563474D01*
X196952431Y-71872244D01*
X197104018Y-72099109D01*
X197602043Y-72392301D01*
X199994343Y-70000000D01*
X197602043Y-67607699D01*
X197104018Y-67900891D01*
X196521167Y-69168920D01*
X196467937Y-70563474D01*
X193250000Y-70563474D01*
X193250000Y-68250000D01*
X196197553Y-68250000D01*
X196406300Y-68163534D01*
X196627906Y-68119454D01*
X196815775Y-67993924D01*
X197024523Y-67907458D01*
X197184291Y-67747690D01*
X197372160Y-67622160D01*
X197497691Y-67434290D01*
X197657458Y-67274523D01*
X197743924Y-67065775D01*
X197869454Y-66877906D01*
X197913534Y-66656301D01*
X198000000Y-66447553D01*
X198000000Y-66221606D01*
X198044080Y-66000000D01*
X198000000Y-65778394D01*
X198000000Y-65570180D01*
X198156734Y-65600079D01*
X199192514Y-65936624D01*
X200177954Y-66400337D01*
X200338740Y-66502374D01*
X199436526Y-66467937D01*
X198127756Y-66952431D01*
X197900891Y-67104018D01*
X197607699Y-67602043D01*
X200000000Y-69994343D01*
X200014142Y-69980201D01*
X200019799Y-69985858D01*
X200005657Y-70000000D01*
X202397957Y-72392301D01*
X202895982Y-72099109D01*
X203478833Y-70831080D01*
X203521424Y-69715252D01*
X203847005Y-70307481D01*
X204247922Y-71320082D01*
X204518769Y-72374955D01*
X204657884Y-73476169D01*
X204675000Y-74020810D01*
X204675001Y-124958351D01*
X204603997Y-126086931D01*
X204399921Y-127156734D01*
X204063374Y-128192519D01*
X203599663Y-129177954D01*
X203496513Y-129340494D01*
X203047569Y-128127756D01*
X202895982Y-127900891D01*
X202397957Y-127607699D01*
X200005657Y-130000000D01*
X200019799Y-130014142D01*
X200014142Y-130019799D01*
X200000000Y-130005657D01*
X197607699Y-132397957D01*
X197900891Y-132895982D01*
X198671347Y-133250123D01*
X197625038Y-133518770D01*
X196523830Y-133657884D01*
X195979190Y-133675000D01*
X159869501Y-133675000D01*
X159483011Y-133751878D01*
X159044728Y-134044728D01*
X158990648Y-134125664D01*
X158047509Y-134973382D01*
X156942133Y-135772072D01*
X155758139Y-136448782D01*
X154508944Y-136995840D01*
X153208679Y-137407060D01*
X151872095Y-137677776D01*
X150514294Y-137804931D01*
X149150690Y-137787080D01*
X147796684Y-137624426D01*
X146467636Y-137318813D01*
X145178593Y-136873701D01*
X143944140Y-136294127D01*
X142778268Y-135586658D01*
X141687273Y-134754038D01*
X141014241Y-134132981D01*
X140955272Y-134044728D01*
X140516989Y-133751878D01*
X140130499Y-133675000D01*
X140000020Y-133675000D01*
X140000001Y-133674999D01*
X139999982Y-133675000D01*
X125041633Y-133675000D01*
X123913069Y-133603997D01*
X122843266Y-133399921D01*
X121807481Y-133063374D01*
X120822046Y-132599663D01*
X119902504Y-132016104D01*
X119155294Y-131397957D01*
X119607699Y-131397957D01*
X119900891Y-131895982D01*
X121168920Y-132478833D01*
X122563474Y-132532063D01*
X123872244Y-132047569D01*
X124099109Y-131895982D01*
X124182695Y-131754000D01*
X145492000Y-131754000D01*
X145492000Y-132754000D01*
X145817652Y-134383162D01*
X146741968Y-135763689D01*
X148124230Y-136685410D01*
X149079952Y-136954949D01*
X149746000Y-136818498D01*
X149746000Y-131754000D01*
X149754000Y-131754000D01*
X149754000Y-136818498D01*
X150420048Y-136954949D01*
X151375770Y-136685410D01*
X152758032Y-135763689D01*
X153682348Y-134383162D01*
X154008000Y-132754000D01*
X154008000Y-131754000D01*
X149754000Y-131754000D01*
X149746000Y-131754000D01*
X145492000Y-131754000D01*
X124182695Y-131754000D01*
X124392301Y-131397957D01*
X122000000Y-129005657D01*
X119607699Y-131397957D01*
X119155294Y-131397957D01*
X119063350Y-131321895D01*
X118317818Y-130527985D01*
X117677667Y-129646893D01*
X117631807Y-129563474D01*
X118467937Y-129563474D01*
X118952431Y-130872244D01*
X119104018Y-131099109D01*
X119602043Y-131392301D01*
X121994343Y-129000000D01*
X122005657Y-129000000D01*
X124397957Y-131392301D01*
X124895982Y-131099109D01*
X125058288Y-130746000D01*
X145492000Y-130746000D01*
X145492000Y-131746000D01*
X149746000Y-131746000D01*
X149746000Y-126681502D01*
X149754000Y-126681502D01*
X149754000Y-131746000D01*
X154008000Y-131746000D01*
X154008000Y-130746000D01*
X153971516Y-130563474D01*
X196467937Y-130563474D01*
X196952431Y-131872244D01*
X197104018Y-132099109D01*
X197602043Y-132392301D01*
X199994343Y-130000000D01*
X197602043Y-127607699D01*
X197104018Y-127900891D01*
X196521167Y-129168920D01*
X196467937Y-130563474D01*
X153971516Y-130563474D01*
X153682348Y-129116838D01*
X152758032Y-127736311D01*
X152556677Y-127602043D01*
X197607699Y-127602043D01*
X200000000Y-129994343D01*
X202392301Y-127602043D01*
X202099109Y-127104018D01*
X200831080Y-126521167D01*
X199436526Y-126467937D01*
X198127756Y-126952431D01*
X197900891Y-127104018D01*
X197607699Y-127602043D01*
X152556677Y-127602043D01*
X151375770Y-126814590D01*
X150420048Y-126545051D01*
X149754000Y-126681502D01*
X149746000Y-126681502D01*
X149079952Y-126545051D01*
X148124230Y-126814590D01*
X146741968Y-127736311D01*
X145817652Y-129116838D01*
X145492000Y-130746000D01*
X125058288Y-130746000D01*
X125478833Y-129831080D01*
X125532063Y-128436526D01*
X125047569Y-127127756D01*
X124895982Y-126900891D01*
X124397957Y-126607699D01*
X122005657Y-129000000D01*
X121994343Y-129000000D01*
X119602043Y-126607699D01*
X119104018Y-126900891D01*
X118521167Y-128168920D01*
X118467937Y-129563474D01*
X117631807Y-129563474D01*
X117152996Y-128692522D01*
X116752078Y-127679917D01*
X116481230Y-126625038D01*
X116478326Y-126602043D01*
X119607699Y-126602043D01*
X122000000Y-128994343D01*
X124392301Y-126602043D01*
X124099109Y-126104018D01*
X122831080Y-125521167D01*
X121436526Y-125467937D01*
X120127756Y-125952431D01*
X119900891Y-126104018D01*
X119607699Y-126602043D01*
X116478326Y-126602043D01*
X116342116Y-125523830D01*
X116325000Y-124979190D01*
X116325000Y-124717717D01*
X125287940Y-124717717D01*
X125550716Y-125189765D01*
X126728425Y-125730977D01*
X128023599Y-125780303D01*
X129239061Y-125330232D01*
X129449284Y-125189765D01*
X129712060Y-124717717D01*
X170287940Y-124717717D01*
X170550716Y-125189765D01*
X171728425Y-125730977D01*
X173023599Y-125780303D01*
X174239061Y-125330232D01*
X174449284Y-125189765D01*
X174712060Y-124717717D01*
X172500000Y-122505657D01*
X170287940Y-124717717D01*
X129712060Y-124717717D01*
X127500000Y-122505657D01*
X125287940Y-124717717D01*
X116325000Y-124717717D01*
X116325000Y-123023599D01*
X124219697Y-123023599D01*
X124669768Y-124239061D01*
X124810235Y-124449284D01*
X125282283Y-124712060D01*
X127494343Y-122500000D01*
X127505657Y-122500000D01*
X129717717Y-124712060D01*
X130189765Y-124449284D01*
X130730977Y-123271575D01*
X130740421Y-123023599D01*
X169219697Y-123023599D01*
X169669768Y-124239061D01*
X169810235Y-124449284D01*
X170282283Y-124712060D01*
X172494343Y-122500000D01*
X172505657Y-122500000D01*
X174717717Y-124712060D01*
X175189765Y-124449284D01*
X175730977Y-123271575D01*
X175755791Y-122620000D01*
X197603961Y-122620000D01*
X197786349Y-123536924D01*
X198305745Y-124314255D01*
X199083076Y-124833651D01*
X199768547Y-124970000D01*
X200231453Y-124970000D01*
X200916924Y-124833651D01*
X201694255Y-124314255D01*
X202213651Y-123536924D01*
X202396039Y-122620000D01*
X202213651Y-121703076D01*
X201694255Y-120925745D01*
X200916924Y-120406349D01*
X200231453Y-120270000D01*
X199768547Y-120270000D01*
X199083076Y-120406349D01*
X198305745Y-120925745D01*
X197786349Y-121703076D01*
X197603961Y-122620000D01*
X175755791Y-122620000D01*
X175780303Y-121976401D01*
X175330232Y-120760939D01*
X175189765Y-120550716D01*
X174717717Y-120287940D01*
X172505657Y-122500000D01*
X172494343Y-122500000D01*
X170282283Y-120287940D01*
X169810235Y-120550716D01*
X169269023Y-121728425D01*
X169219697Y-123023599D01*
X130740421Y-123023599D01*
X130780303Y-121976401D01*
X130330232Y-120760939D01*
X130189765Y-120550716D01*
X129717717Y-120287940D01*
X127505657Y-122500000D01*
X127494343Y-122500000D01*
X125282283Y-120287940D01*
X124810235Y-120550716D01*
X124269023Y-121728425D01*
X124219697Y-123023599D01*
X116325000Y-123023599D01*
X116325000Y-120282283D01*
X125287940Y-120282283D01*
X127500000Y-122494343D01*
X129712060Y-120282283D01*
X170287940Y-120282283D01*
X172500000Y-122494343D01*
X174712060Y-120282283D01*
X174449284Y-119810235D01*
X173271575Y-119269023D01*
X171976401Y-119219697D01*
X170760939Y-119669768D01*
X170550716Y-119810235D01*
X170287940Y-120282283D01*
X129712060Y-120282283D01*
X129449284Y-119810235D01*
X128271575Y-119269023D01*
X126976401Y-119219697D01*
X125760939Y-119669768D01*
X125550716Y-119810235D01*
X125287940Y-120282283D01*
X116325000Y-120282283D01*
X116325000Y-109869501D01*
X116248122Y-109483011D01*
X115955272Y-109044728D01*
X115874336Y-108990648D01*
X115026618Y-108047509D01*
X114227928Y-106942133D01*
X113551218Y-105758139D01*
X113004160Y-104508944D01*
X112592940Y-103208679D01*
X112322224Y-101872095D01*
X112209656Y-100670048D01*
X113045051Y-100670048D01*
X113314590Y-101625770D01*
X114236311Y-103008032D01*
X115616838Y-103932348D01*
X117246000Y-104258000D01*
X118246000Y-104258000D01*
X118246000Y-100004000D01*
X118254000Y-100004000D01*
X118254000Y-104258000D01*
X119254000Y-104258000D01*
X120883162Y-103932348D01*
X122263689Y-103008032D01*
X123185410Y-101625770D01*
X123454949Y-100670048D01*
X123318498Y-100004000D01*
X118254000Y-100004000D01*
X118246000Y-100004000D01*
X113181502Y-100004000D01*
X113045051Y-100670048D01*
X112209656Y-100670048D01*
X112195069Y-100514294D01*
X112210573Y-99329952D01*
X113045051Y-99329952D01*
X113181502Y-99996000D01*
X118246000Y-99996000D01*
X118246000Y-95742000D01*
X118254000Y-95742000D01*
X118254000Y-99996000D01*
X123318498Y-99996000D01*
X123454949Y-99329952D01*
X123185410Y-98374230D01*
X122263689Y-96991968D01*
X120883162Y-96067652D01*
X119254000Y-95742000D01*
X118254000Y-95742000D01*
X118246000Y-95742000D01*
X117246000Y-95742000D01*
X115616838Y-96067652D01*
X114236311Y-96991968D01*
X113314590Y-98374230D01*
X113045051Y-99329952D01*
X112210573Y-99329952D01*
X112212920Y-99150689D01*
X112375574Y-97796684D01*
X112681187Y-96467636D01*
X113126299Y-95178593D01*
X113705873Y-93944140D01*
X114413342Y-92778268D01*
X115222727Y-91717717D01*
X121787940Y-91717717D01*
X122050716Y-92189765D01*
X123228425Y-92730977D01*
X124523599Y-92780303D01*
X125739061Y-92330232D01*
X125949284Y-92189765D01*
X126212060Y-91717717D01*
X124000000Y-89505657D01*
X121787940Y-91717717D01*
X115222727Y-91717717D01*
X115245962Y-91687273D01*
X115867019Y-91014241D01*
X115955272Y-90955272D01*
X116248122Y-90516989D01*
X116325000Y-90130499D01*
X116325000Y-90023599D01*
X120719697Y-90023599D01*
X121169768Y-91239061D01*
X121310235Y-91449284D01*
X121782283Y-91712060D01*
X123994343Y-89500000D01*
X124005657Y-89500000D01*
X126217717Y-91712060D01*
X126689765Y-91449284D01*
X127230977Y-90271575D01*
X127280303Y-88976401D01*
X126830232Y-87760939D01*
X126689765Y-87550716D01*
X126217717Y-87287940D01*
X124005657Y-89500000D01*
X123994343Y-89500000D01*
X121782283Y-87287940D01*
X121310235Y-87550716D01*
X120769023Y-88728425D01*
X120719697Y-90023599D01*
X116325000Y-90023599D01*
X116325000Y-90000020D01*
X116325001Y-90000001D01*
X116325000Y-89999982D01*
X116325000Y-87282283D01*
X121787940Y-87282283D01*
X124000000Y-89494343D01*
X126212060Y-87282283D01*
X125949284Y-86810235D01*
X124771575Y-86269023D01*
X123476401Y-86219697D01*
X122260939Y-86669768D01*
X122050716Y-86810235D01*
X121787940Y-87282283D01*
X116325000Y-87282283D01*
X116325000Y-79717717D01*
X125287940Y-79717717D01*
X125550716Y-80189765D01*
X126728425Y-80730977D01*
X128023599Y-80780303D01*
X129239061Y-80330232D01*
X129449284Y-80189765D01*
X129712060Y-79717717D01*
X127500000Y-77505657D01*
X125287940Y-79717717D01*
X116325000Y-79717717D01*
X116325000Y-78023599D01*
X124219697Y-78023599D01*
X124669768Y-79239061D01*
X124810235Y-79449284D01*
X125282283Y-79712060D01*
X127494343Y-77500000D01*
X127505657Y-77500000D01*
X129717717Y-79712060D01*
X130189765Y-79449284D01*
X130730977Y-78271575D01*
X130780303Y-76976401D01*
X130330232Y-75760939D01*
X130189765Y-75550716D01*
X129717717Y-75287940D01*
X127505657Y-77500000D01*
X127494343Y-77500000D01*
X125282283Y-75287940D01*
X124810235Y-75550716D01*
X124269023Y-76728425D01*
X124219697Y-78023599D01*
X116325000Y-78023599D01*
X116325000Y-75282283D01*
X125287940Y-75282283D01*
X127500000Y-77494343D01*
X129712060Y-75282283D01*
X129449284Y-74810235D01*
X128271575Y-74269023D01*
X126976401Y-74219697D01*
X125760939Y-74669768D01*
X125550716Y-74810235D01*
X125287940Y-75282283D01*
X116325000Y-75282283D01*
X116325000Y-75041633D01*
X116396003Y-73913068D01*
X116494265Y-73397957D01*
X118607699Y-73397957D01*
X118900891Y-73895982D01*
X120168920Y-74478833D01*
X121563474Y-74532063D01*
X122872244Y-74047569D01*
X123099109Y-73895982D01*
X123392301Y-73397957D01*
X121000000Y-71005657D01*
X118607699Y-73397957D01*
X116494265Y-73397957D01*
X116600079Y-72843266D01*
X116936624Y-71807486D01*
X117400337Y-70822046D01*
X117502374Y-70661260D01*
X117467937Y-71563474D01*
X117952431Y-72872244D01*
X118104018Y-73099109D01*
X118602043Y-73392301D01*
X120994343Y-71000000D01*
X121005657Y-71000000D01*
X123397957Y-73392301D01*
X123895982Y-73099109D01*
X124478833Y-71831080D01*
X124532063Y-70436526D01*
X124047569Y-69127756D01*
X123895982Y-68900891D01*
X123397957Y-68607699D01*
X121005657Y-71000000D01*
X120994343Y-71000000D01*
X120980201Y-70985858D01*
X120985858Y-70980201D01*
X121000000Y-70994343D01*
X123392301Y-68602043D01*
X123187405Y-68254000D01*
X145742000Y-68254000D01*
X145742000Y-69254000D01*
X146067652Y-70883162D01*
X146991968Y-72263689D01*
X148374230Y-73185410D01*
X149329952Y-73454949D01*
X149996000Y-73318498D01*
X149996000Y-68254000D01*
X150004000Y-68254000D01*
X150004000Y-73318498D01*
X150670048Y-73454949D01*
X151625770Y-73185410D01*
X153008032Y-72263689D01*
X153932348Y-70883162D01*
X154258000Y-69254000D01*
X154258000Y-68254000D01*
X150004000Y-68254000D01*
X149996000Y-68254000D01*
X145742000Y-68254000D01*
X123187405Y-68254000D01*
X123099109Y-68104018D01*
X121831080Y-67521167D01*
X120715252Y-67478576D01*
X121138305Y-67246000D01*
X145742000Y-67246000D01*
X145742000Y-68246000D01*
X149996000Y-68246000D01*
X149996000Y-63181502D01*
X150004000Y-63181502D01*
X150004000Y-68246000D01*
X154258000Y-68246000D01*
X154258000Y-67246000D01*
X153932348Y-65616838D01*
X153008032Y-64236311D01*
X151625770Y-63314590D01*
X150670048Y-63045051D01*
X150004000Y-63181502D01*
X149996000Y-63181502D01*
X149329952Y-63045051D01*
X148374230Y-63314590D01*
X146991968Y-64236311D01*
X146067652Y-65616838D01*
X145742000Y-67246000D01*
X121138305Y-67246000D01*
X121307481Y-67152995D01*
X122320082Y-66752078D01*
X123374955Y-66481231D01*
X124476169Y-66342116D01*
X125020810Y-66325000D01*
X140130499Y-66325000D01*
X140516989Y-66248122D01*
X140955272Y-65955272D01*
X141009353Y-65874334D01*
X141952490Y-65026618D01*
X143057873Y-64227923D01*
X144241861Y-63551219D01*
X145491056Y-63004160D01*
X146791319Y-62592940D01*
X148127905Y-62322224D01*
X149485706Y-62195069D01*
X150849311Y-62212920D01*
X150849311Y-62212920D01*
G37*
X150849311Y-62212920D02*
X152203316Y-62375574D01*
X153532364Y-62681187D01*
X154821407Y-63126299D01*
X156055860Y-63705873D01*
X157221732Y-64413342D01*
X158312727Y-65245962D01*
X158985759Y-65867019D01*
X159044728Y-65955272D01*
X159483011Y-66248122D01*
X159869501Y-66325000D01*
X159999980Y-66325000D01*
X159999999Y-66325001D01*
X160000018Y-66325000D01*
X176869502Y-66325000D01*
X177000000Y-66350958D01*
X177130498Y-66325000D01*
X177130499Y-66325000D01*
X177516989Y-66248122D01*
X177955272Y-65955272D01*
X178000000Y-65888332D01*
X178000000Y-67750000D01*
X168221605Y-67750000D01*
X168000000Y-67705920D01*
X167778395Y-67750000D01*
X167778394Y-67750000D01*
X167122094Y-67880546D01*
X166377840Y-68377840D01*
X166252308Y-68565712D01*
X157068020Y-77750000D01*
X142221604Y-77750000D01*
X141999999Y-77705920D01*
X141778394Y-77750000D01*
X141122094Y-77880546D01*
X141122093Y-77880547D01*
X141122092Y-77880547D01*
X140908000Y-78023599D01*
X140377840Y-78377840D01*
X140252310Y-78565709D01*
X131565710Y-87252310D01*
X131377841Y-87377840D01*
X131252311Y-87565709D01*
X130880547Y-88122093D01*
X130705920Y-89000000D01*
X130750001Y-89221609D01*
X130750000Y-109778395D01*
X130705920Y-110000000D01*
X130750000Y-110221605D01*
X130880546Y-110877905D01*
X130880547Y-110877906D01*
X130880547Y-110877907D01*
X130885779Y-110885737D01*
X131377840Y-111622160D01*
X131565712Y-111747692D01*
X134252308Y-114434288D01*
X134377840Y-114622160D01*
X135122094Y-115119454D01*
X135778394Y-115250000D01*
X135778395Y-115250000D01*
X136000000Y-115294080D01*
X136221605Y-115250000D01*
X144725512Y-115250000D01*
X144725512Y-115500000D01*
X144822527Y-115987725D01*
X145098801Y-116401199D01*
X145512275Y-116677473D01*
X146000000Y-116774488D01*
X154000000Y-116774488D01*
X154487725Y-116677473D01*
X154901199Y-116401199D01*
X155177473Y-115987725D01*
X155274488Y-115500000D01*
X155274488Y-113900000D01*
X197625512Y-113900000D01*
X197625512Y-116100000D01*
X197722527Y-116587725D01*
X197998801Y-117001199D01*
X198412275Y-117277473D01*
X198900000Y-117374488D01*
X201100000Y-117374488D01*
X201587725Y-117277473D01*
X202001199Y-117001199D01*
X202277473Y-116587725D01*
X202374488Y-116100000D01*
X202374488Y-113900000D01*
X202277473Y-113412275D01*
X202001199Y-112998801D01*
X201587725Y-112722527D01*
X201100000Y-112625512D01*
X198900000Y-112625512D01*
X198412275Y-112722527D01*
X197998801Y-112998801D01*
X197722527Y-113412275D01*
X197625512Y-113900000D01*
X155274488Y-113900000D01*
X155274488Y-112717717D01*
X173787940Y-112717717D01*
X174050716Y-113189765D01*
X175228425Y-113730977D01*
X176523599Y-113780303D01*
X177739061Y-113330232D01*
X177949284Y-113189765D01*
X178212060Y-112717717D01*
X176000000Y-110505657D01*
X173787940Y-112717717D01*
X155274488Y-112717717D01*
X155274488Y-111825000D01*
X160369501Y-111825000D01*
X160500000Y-111850958D01*
X160630499Y-111825000D01*
X161016989Y-111748122D01*
X161455272Y-111455272D01*
X161743705Y-111023599D01*
X172719697Y-111023599D01*
X173169768Y-112239061D01*
X173310235Y-112449284D01*
X173782283Y-112712060D01*
X175994343Y-110500000D01*
X176005657Y-110500000D01*
X178217717Y-112712060D01*
X178689765Y-112449284D01*
X179230977Y-111271575D01*
X179280303Y-109976401D01*
X178830232Y-108760939D01*
X178689765Y-108550716D01*
X178217717Y-108287940D01*
X176005657Y-110500000D01*
X175994343Y-110500000D01*
X173782283Y-108287940D01*
X173310235Y-108550716D01*
X172769023Y-109728425D01*
X172719697Y-111023599D01*
X161743705Y-111023599D01*
X161748122Y-111016989D01*
X161850958Y-110500000D01*
X161825000Y-110369501D01*
X161825000Y-108282283D01*
X173787940Y-108282283D01*
X176000000Y-110494343D01*
X178212060Y-108282283D01*
X177949284Y-107810235D01*
X176771575Y-107269023D01*
X175476401Y-107219697D01*
X174260939Y-107669768D01*
X174050716Y-107810235D01*
X173787940Y-108282283D01*
X161825000Y-108282283D01*
X161825000Y-100670048D01*
X176545051Y-100670048D01*
X176814590Y-101625770D01*
X177736311Y-103008032D01*
X179116838Y-103932348D01*
X180746000Y-104258000D01*
X181746000Y-104258000D01*
X181746000Y-100004000D01*
X181754000Y-100004000D01*
X181754000Y-104258000D01*
X182754000Y-104258000D01*
X184383162Y-103932348D01*
X185763689Y-103008032D01*
X186602570Y-101750000D01*
X188975512Y-101750000D01*
X188975512Y-105250000D01*
X189072527Y-105737725D01*
X189348801Y-106151199D01*
X189762275Y-106427473D01*
X190250000Y-106524488D01*
X193750000Y-106524488D01*
X194237725Y-106427473D01*
X194651199Y-106151199D01*
X194927473Y-105737725D01*
X195024488Y-105250000D01*
X195024488Y-103693500D01*
X195492000Y-103693500D01*
X195492000Y-105400775D01*
X195607398Y-105679372D01*
X195820627Y-105892601D01*
X196099224Y-106008000D01*
X197806500Y-106008000D01*
X197996000Y-105818500D01*
X197996000Y-103504000D01*
X198004000Y-103504000D01*
X198004000Y-105818500D01*
X198193500Y-106008000D01*
X199900776Y-106008000D01*
X200179373Y-105892601D01*
X200392602Y-105679372D01*
X200508000Y-105400775D01*
X200508000Y-103693500D01*
X200318500Y-103504000D01*
X198004000Y-103504000D01*
X197996000Y-103504000D01*
X195681500Y-103504000D01*
X195492000Y-103693500D01*
X195024488Y-103693500D01*
X195024488Y-101824488D01*
X195492000Y-101824488D01*
X195492000Y-103306500D01*
X195681500Y-103496000D01*
X197996000Y-103496000D01*
X197996000Y-101181500D01*
X198004000Y-101181500D01*
X198004000Y-103496000D01*
X200318500Y-103496000D01*
X200508000Y-103306500D01*
X200508000Y-101599225D01*
X200392602Y-101320628D01*
X200179373Y-101107399D01*
X199900776Y-100992000D01*
X198193500Y-100992000D01*
X198004000Y-101181500D01*
X197996000Y-101181500D01*
X197897333Y-101082833D01*
X197927473Y-101037725D01*
X198024488Y-100550000D01*
X198024488Y-97050000D01*
X197927473Y-96562275D01*
X197651199Y-96148801D01*
X197237725Y-95872527D01*
X197089031Y-95842950D01*
X197657458Y-95274523D01*
X198000000Y-94447553D01*
X198000000Y-93552447D01*
X197657458Y-92725477D01*
X197024523Y-92092542D01*
X196197553Y-91750000D01*
X195302447Y-91750000D01*
X194475477Y-92092542D01*
X193842542Y-92725477D01*
X193500000Y-93552447D01*
X193500000Y-94447553D01*
X193842542Y-95274523D01*
X194343531Y-95775512D01*
X193250000Y-95775512D01*
X192762275Y-95872527D01*
X192348801Y-96148801D01*
X192072527Y-96562275D01*
X191975512Y-97050000D01*
X191975512Y-100475512D01*
X190250000Y-100475512D01*
X189762275Y-100572527D01*
X189348801Y-100848801D01*
X189072527Y-101262275D01*
X188975512Y-101750000D01*
X186602570Y-101750000D01*
X186685410Y-101625770D01*
X186954949Y-100670048D01*
X186818498Y-100004000D01*
X181754000Y-100004000D01*
X181746000Y-100004000D01*
X176681502Y-100004000D01*
X176545051Y-100670048D01*
X161825000Y-100670048D01*
X161825000Y-99329952D01*
X176545051Y-99329952D01*
X176681502Y-99996000D01*
X181746000Y-99996000D01*
X181746000Y-95742000D01*
X181754000Y-95742000D01*
X181754000Y-99996000D01*
X186818498Y-99996000D01*
X186954949Y-99329952D01*
X186685410Y-98374230D01*
X185763689Y-96991968D01*
X184383162Y-96067652D01*
X182754000Y-95742000D01*
X181754000Y-95742000D01*
X181746000Y-95742000D01*
X180746000Y-95742000D01*
X179116838Y-96067652D01*
X177736311Y-96991968D01*
X176814590Y-98374230D01*
X176545051Y-99329952D01*
X161825000Y-99329952D01*
X161825000Y-95136275D01*
X179119382Y-95136275D01*
X179199669Y-95452463D01*
X179835454Y-95743845D01*
X180534350Y-95769743D01*
X181189956Y-95526213D01*
X181300331Y-95452463D01*
X181380618Y-95136275D01*
X180250000Y-94005657D01*
X179119382Y-95136275D01*
X161825000Y-95136275D01*
X161825000Y-94284350D01*
X178480257Y-94284350D01*
X178723787Y-94939956D01*
X178797537Y-95050331D01*
X179113725Y-95130618D01*
X180244343Y-94000000D01*
X180255657Y-94000000D01*
X181386275Y-95130618D01*
X181702463Y-95050331D01*
X181993845Y-94414546D01*
X182019743Y-93715650D01*
X181776213Y-93060044D01*
X181702463Y-92949669D01*
X181386275Y-92869382D01*
X180255657Y-94000000D01*
X180244343Y-94000000D01*
X179113725Y-92869382D01*
X178797537Y-92949669D01*
X178506155Y-93585454D01*
X178480257Y-94284350D01*
X161825000Y-94284350D01*
X161825000Y-92863725D01*
X179119382Y-92863725D01*
X180250000Y-93994343D01*
X181380618Y-92863725D01*
X181300331Y-92547537D01*
X180664546Y-92256155D01*
X179965650Y-92230257D01*
X179310044Y-92473787D01*
X179199669Y-92547537D01*
X179119382Y-92863725D01*
X161825000Y-92863725D01*
X161825000Y-91620000D01*
X198603961Y-91620000D01*
X198786349Y-92536924D01*
X199305745Y-93314255D01*
X200083076Y-93833651D01*
X200768547Y-93970000D01*
X201231453Y-93970000D01*
X201916924Y-93833651D01*
X202694255Y-93314255D01*
X203213651Y-92536924D01*
X203396039Y-91620000D01*
X203213651Y-90703076D01*
X202694255Y-89925745D01*
X201916924Y-89406349D01*
X201231453Y-89270000D01*
X200768547Y-89270000D01*
X200083076Y-89406349D01*
X199305745Y-89925745D01*
X198786349Y-90703076D01*
X198603961Y-91620000D01*
X161825000Y-91620000D01*
X161825000Y-89630499D01*
X161850958Y-89500000D01*
X161748122Y-88983011D01*
X161455272Y-88544728D01*
X161016989Y-88251878D01*
X160630499Y-88175000D01*
X160500000Y-88149042D01*
X160369501Y-88175000D01*
X156256980Y-88175000D01*
X157181981Y-87250000D01*
X184778395Y-87250000D01*
X185000000Y-87294080D01*
X185221605Y-87250000D01*
X185221606Y-87250000D01*
X185877906Y-87119454D01*
X186622160Y-86622160D01*
X186747692Y-86434288D01*
X190281980Y-82900000D01*
X198625512Y-82900000D01*
X198625512Y-85100000D01*
X198722527Y-85587725D01*
X198998801Y-86001199D01*
X199412275Y-86277473D01*
X199900000Y-86374488D01*
X202100000Y-86374488D01*
X202587725Y-86277473D01*
X203001199Y-86001199D01*
X203277473Y-85587725D01*
X203374488Y-85100000D01*
X203374488Y-82900000D01*
X203277473Y-82412275D01*
X203001199Y-81998801D01*
X202587725Y-81722527D01*
X202100000Y-81625512D01*
X199900000Y-81625512D01*
X199412275Y-81722527D01*
X198998801Y-81998801D01*
X198722527Y-82412275D01*
X198625512Y-82900000D01*
X190281980Y-82900000D01*
X192434292Y-80747689D01*
X192622160Y-80622160D01*
X193037873Y-80000001D01*
X193119453Y-79877908D01*
X193119453Y-79877907D01*
X193119454Y-79877906D01*
X193250000Y-79221606D01*
X193250000Y-79221605D01*
X193294080Y-79000001D01*
X193250000Y-78778396D01*
X193250000Y-76900000D01*
X198875512Y-76900000D01*
X198875512Y-78100000D01*
X198972527Y-78587725D01*
X199248801Y-79001199D01*
X199662275Y-79277473D01*
X200150000Y-79374488D01*
X201850000Y-79374488D01*
X202337725Y-79277473D01*
X202751199Y-79001199D01*
X203027473Y-78587725D01*
X203124488Y-78100000D01*
X203124488Y-76900000D01*
X203027473Y-76412275D01*
X202751199Y-75998801D01*
X202533909Y-75853612D01*
X202590649Y-75783612D01*
X202506160Y-75484011D01*
X202213080Y-75042577D01*
X201773380Y-74746902D01*
X201254000Y-74642000D01*
X201004000Y-74642000D01*
X201004000Y-75625512D01*
X200996000Y-75625512D01*
X200996000Y-74642000D01*
X200746000Y-74642000D01*
X200226620Y-74746902D01*
X199786920Y-75042577D01*
X199493840Y-75484011D01*
X199409351Y-75783612D01*
X199466091Y-75853612D01*
X199248801Y-75998801D01*
X198972527Y-76412275D01*
X198875512Y-76900000D01*
X193250000Y-76900000D01*
X193250000Y-72397957D01*
X197607699Y-72397957D01*
X197900891Y-72895982D01*
X199168920Y-73478833D01*
X200563474Y-73532063D01*
X201872244Y-73047569D01*
X202099109Y-72895982D01*
X202392301Y-72397957D01*
X200000000Y-70005657D01*
X197607699Y-72397957D01*
X193250000Y-72397957D01*
X193250000Y-70563474D01*
X196467937Y-70563474D01*
X196952431Y-71872244D01*
X197104018Y-72099109D01*
X197602043Y-72392301D01*
X199994343Y-70000000D01*
X197602043Y-67607699D01*
X197104018Y-67900891D01*
X196521167Y-69168920D01*
X196467937Y-70563474D01*
X193250000Y-70563474D01*
X193250000Y-68250000D01*
X196197553Y-68250000D01*
X196406300Y-68163534D01*
X196627906Y-68119454D01*
X196815775Y-67993924D01*
X197024523Y-67907458D01*
X197184291Y-67747690D01*
X197372160Y-67622160D01*
X197497691Y-67434290D01*
X197657458Y-67274523D01*
X197743924Y-67065775D01*
X197869454Y-66877906D01*
X197913534Y-66656301D01*
X198000000Y-66447553D01*
X198000000Y-66221606D01*
X198044080Y-66000000D01*
X198000000Y-65778394D01*
X198000000Y-65570180D01*
X198156734Y-65600079D01*
X199192514Y-65936624D01*
X200177954Y-66400337D01*
X200338740Y-66502374D01*
X199436526Y-66467937D01*
X198127756Y-66952431D01*
X197900891Y-67104018D01*
X197607699Y-67602043D01*
X200000000Y-69994343D01*
X200014142Y-69980201D01*
X200019799Y-69985858D01*
X200005657Y-70000000D01*
X202397957Y-72392301D01*
X202895982Y-72099109D01*
X203478833Y-70831080D01*
X203521424Y-69715252D01*
X203847005Y-70307481D01*
X204247922Y-71320082D01*
X204518769Y-72374955D01*
X204657884Y-73476169D01*
X204675000Y-74020810D01*
X204675001Y-124958351D01*
X204603997Y-126086931D01*
X204399921Y-127156734D01*
X204063374Y-128192519D01*
X203599663Y-129177954D01*
X203496513Y-129340494D01*
X203047569Y-128127756D01*
X202895982Y-127900891D01*
X202397957Y-127607699D01*
X200005657Y-130000000D01*
X200019799Y-130014142D01*
X200014142Y-130019799D01*
X200000000Y-130005657D01*
X197607699Y-132397957D01*
X197900891Y-132895982D01*
X198671347Y-133250123D01*
X197625038Y-133518770D01*
X196523830Y-133657884D01*
X195979190Y-133675000D01*
X159869501Y-133675000D01*
X159483011Y-133751878D01*
X159044728Y-134044728D01*
X158990648Y-134125664D01*
X158047509Y-134973382D01*
X156942133Y-135772072D01*
X155758139Y-136448782D01*
X154508944Y-136995840D01*
X153208679Y-137407060D01*
X151872095Y-137677776D01*
X150514294Y-137804931D01*
X149150690Y-137787080D01*
X147796684Y-137624426D01*
X146467636Y-137318813D01*
X145178593Y-136873701D01*
X143944140Y-136294127D01*
X142778268Y-135586658D01*
X141687273Y-134754038D01*
X141014241Y-134132981D01*
X140955272Y-134044728D01*
X140516989Y-133751878D01*
X140130499Y-133675000D01*
X140000020Y-133675000D01*
X140000001Y-133674999D01*
X139999982Y-133675000D01*
X125041633Y-133675000D01*
X123913069Y-133603997D01*
X122843266Y-133399921D01*
X121807481Y-133063374D01*
X120822046Y-132599663D01*
X119902504Y-132016104D01*
X119155294Y-131397957D01*
X119607699Y-131397957D01*
X119900891Y-131895982D01*
X121168920Y-132478833D01*
X122563474Y-132532063D01*
X123872244Y-132047569D01*
X124099109Y-131895982D01*
X124182695Y-131754000D01*
X145492000Y-131754000D01*
X145492000Y-132754000D01*
X145817652Y-134383162D01*
X146741968Y-135763689D01*
X148124230Y-136685410D01*
X149079952Y-136954949D01*
X149746000Y-136818498D01*
X149746000Y-131754000D01*
X149754000Y-131754000D01*
X149754000Y-136818498D01*
X150420048Y-136954949D01*
X151375770Y-136685410D01*
X152758032Y-135763689D01*
X153682348Y-134383162D01*
X154008000Y-132754000D01*
X154008000Y-131754000D01*
X149754000Y-131754000D01*
X149746000Y-131754000D01*
X145492000Y-131754000D01*
X124182695Y-131754000D01*
X124392301Y-131397957D01*
X122000000Y-129005657D01*
X119607699Y-131397957D01*
X119155294Y-131397957D01*
X119063350Y-131321895D01*
X118317818Y-130527985D01*
X117677667Y-129646893D01*
X117631807Y-129563474D01*
X118467937Y-129563474D01*
X118952431Y-130872244D01*
X119104018Y-131099109D01*
X119602043Y-131392301D01*
X121994343Y-129000000D01*
X122005657Y-129000000D01*
X124397957Y-131392301D01*
X124895982Y-131099109D01*
X125058288Y-130746000D01*
X145492000Y-130746000D01*
X145492000Y-131746000D01*
X149746000Y-131746000D01*
X149746000Y-126681502D01*
X149754000Y-126681502D01*
X149754000Y-131746000D01*
X154008000Y-131746000D01*
X154008000Y-130746000D01*
X153971516Y-130563474D01*
X196467937Y-130563474D01*
X196952431Y-131872244D01*
X197104018Y-132099109D01*
X197602043Y-132392301D01*
X199994343Y-130000000D01*
X197602043Y-127607699D01*
X197104018Y-127900891D01*
X196521167Y-129168920D01*
X196467937Y-130563474D01*
X153971516Y-130563474D01*
X153682348Y-129116838D01*
X152758032Y-127736311D01*
X152556677Y-127602043D01*
X197607699Y-127602043D01*
X200000000Y-129994343D01*
X202392301Y-127602043D01*
X202099109Y-127104018D01*
X200831080Y-126521167D01*
X199436526Y-126467937D01*
X198127756Y-126952431D01*
X197900891Y-127104018D01*
X197607699Y-127602043D01*
X152556677Y-127602043D01*
X151375770Y-126814590D01*
X150420048Y-126545051D01*
X149754000Y-126681502D01*
X149746000Y-126681502D01*
X149079952Y-126545051D01*
X148124230Y-126814590D01*
X146741968Y-127736311D01*
X145817652Y-129116838D01*
X145492000Y-130746000D01*
X125058288Y-130746000D01*
X125478833Y-129831080D01*
X125532063Y-128436526D01*
X125047569Y-127127756D01*
X124895982Y-126900891D01*
X124397957Y-126607699D01*
X122005657Y-129000000D01*
X121994343Y-129000000D01*
X119602043Y-126607699D01*
X119104018Y-126900891D01*
X118521167Y-128168920D01*
X118467937Y-129563474D01*
X117631807Y-129563474D01*
X117152996Y-128692522D01*
X116752078Y-127679917D01*
X116481230Y-126625038D01*
X116478326Y-126602043D01*
X119607699Y-126602043D01*
X122000000Y-128994343D01*
X124392301Y-126602043D01*
X124099109Y-126104018D01*
X122831080Y-125521167D01*
X121436526Y-125467937D01*
X120127756Y-125952431D01*
X119900891Y-126104018D01*
X119607699Y-126602043D01*
X116478326Y-126602043D01*
X116342116Y-125523830D01*
X116325000Y-124979190D01*
X116325000Y-124717717D01*
X125287940Y-124717717D01*
X125550716Y-125189765D01*
X126728425Y-125730977D01*
X128023599Y-125780303D01*
X129239061Y-125330232D01*
X129449284Y-125189765D01*
X129712060Y-124717717D01*
X170287940Y-124717717D01*
X170550716Y-125189765D01*
X171728425Y-125730977D01*
X173023599Y-125780303D01*
X174239061Y-125330232D01*
X174449284Y-125189765D01*
X174712060Y-124717717D01*
X172500000Y-122505657D01*
X170287940Y-124717717D01*
X129712060Y-124717717D01*
X127500000Y-122505657D01*
X125287940Y-124717717D01*
X116325000Y-124717717D01*
X116325000Y-123023599D01*
X124219697Y-123023599D01*
X124669768Y-124239061D01*
X124810235Y-124449284D01*
X125282283Y-124712060D01*
X127494343Y-122500000D01*
X127505657Y-122500000D01*
X129717717Y-124712060D01*
X130189765Y-124449284D01*
X130730977Y-123271575D01*
X130740421Y-123023599D01*
X169219697Y-123023599D01*
X169669768Y-124239061D01*
X169810235Y-124449284D01*
X170282283Y-124712060D01*
X172494343Y-122500000D01*
X172505657Y-122500000D01*
X174717717Y-124712060D01*
X175189765Y-124449284D01*
X175730977Y-123271575D01*
X175755791Y-122620000D01*
X197603961Y-122620000D01*
X197786349Y-123536924D01*
X198305745Y-124314255D01*
X199083076Y-124833651D01*
X199768547Y-124970000D01*
X200231453Y-124970000D01*
X200916924Y-124833651D01*
X201694255Y-124314255D01*
X202213651Y-123536924D01*
X202396039Y-122620000D01*
X202213651Y-121703076D01*
X201694255Y-120925745D01*
X200916924Y-120406349D01*
X200231453Y-120270000D01*
X199768547Y-120270000D01*
X199083076Y-120406349D01*
X198305745Y-120925745D01*
X197786349Y-121703076D01*
X197603961Y-122620000D01*
X175755791Y-122620000D01*
X175780303Y-121976401D01*
X175330232Y-120760939D01*
X175189765Y-120550716D01*
X174717717Y-120287940D01*
X172505657Y-122500000D01*
X172494343Y-122500000D01*
X170282283Y-120287940D01*
X169810235Y-120550716D01*
X169269023Y-121728425D01*
X169219697Y-123023599D01*
X130740421Y-123023599D01*
X130780303Y-121976401D01*
X130330232Y-120760939D01*
X130189765Y-120550716D01*
X129717717Y-120287940D01*
X127505657Y-122500000D01*
X127494343Y-122500000D01*
X125282283Y-120287940D01*
X124810235Y-120550716D01*
X124269023Y-121728425D01*
X124219697Y-123023599D01*
X116325000Y-123023599D01*
X116325000Y-120282283D01*
X125287940Y-120282283D01*
X127500000Y-122494343D01*
X129712060Y-120282283D01*
X170287940Y-120282283D01*
X172500000Y-122494343D01*
X174712060Y-120282283D01*
X174449284Y-119810235D01*
X173271575Y-119269023D01*
X171976401Y-119219697D01*
X170760939Y-119669768D01*
X170550716Y-119810235D01*
X170287940Y-120282283D01*
X129712060Y-120282283D01*
X129449284Y-119810235D01*
X128271575Y-119269023D01*
X126976401Y-119219697D01*
X125760939Y-119669768D01*
X125550716Y-119810235D01*
X125287940Y-120282283D01*
X116325000Y-120282283D01*
X116325000Y-109869501D01*
X116248122Y-109483011D01*
X115955272Y-109044728D01*
X115874336Y-108990648D01*
X115026618Y-108047509D01*
X114227928Y-106942133D01*
X113551218Y-105758139D01*
X113004160Y-104508944D01*
X112592940Y-103208679D01*
X112322224Y-101872095D01*
X112209656Y-100670048D01*
X113045051Y-100670048D01*
X113314590Y-101625770D01*
X114236311Y-103008032D01*
X115616838Y-103932348D01*
X117246000Y-104258000D01*
X118246000Y-104258000D01*
X118246000Y-100004000D01*
X118254000Y-100004000D01*
X118254000Y-104258000D01*
X119254000Y-104258000D01*
X120883162Y-103932348D01*
X122263689Y-103008032D01*
X123185410Y-101625770D01*
X123454949Y-100670048D01*
X123318498Y-100004000D01*
X118254000Y-100004000D01*
X118246000Y-100004000D01*
X113181502Y-100004000D01*
X113045051Y-100670048D01*
X112209656Y-100670048D01*
X112195069Y-100514294D01*
X112210573Y-99329952D01*
X113045051Y-99329952D01*
X113181502Y-99996000D01*
X118246000Y-99996000D01*
X118246000Y-95742000D01*
X118254000Y-95742000D01*
X118254000Y-99996000D01*
X123318498Y-99996000D01*
X123454949Y-99329952D01*
X123185410Y-98374230D01*
X122263689Y-96991968D01*
X120883162Y-96067652D01*
X119254000Y-95742000D01*
X118254000Y-95742000D01*
X118246000Y-95742000D01*
X117246000Y-95742000D01*
X115616838Y-96067652D01*
X114236311Y-96991968D01*
X113314590Y-98374230D01*
X113045051Y-99329952D01*
X112210573Y-99329952D01*
X112212920Y-99150689D01*
X112375574Y-97796684D01*
X112681187Y-96467636D01*
X113126299Y-95178593D01*
X113705873Y-93944140D01*
X114413342Y-92778268D01*
X115222727Y-91717717D01*
X121787940Y-91717717D01*
X122050716Y-92189765D01*
X123228425Y-92730977D01*
X124523599Y-92780303D01*
X125739061Y-92330232D01*
X125949284Y-92189765D01*
X126212060Y-91717717D01*
X124000000Y-89505657D01*
X121787940Y-91717717D01*
X115222727Y-91717717D01*
X115245962Y-91687273D01*
X115867019Y-91014241D01*
X115955272Y-90955272D01*
X116248122Y-90516989D01*
X116325000Y-90130499D01*
X116325000Y-90023599D01*
X120719697Y-90023599D01*
X121169768Y-91239061D01*
X121310235Y-91449284D01*
X121782283Y-91712060D01*
X123994343Y-89500000D01*
X124005657Y-89500000D01*
X126217717Y-91712060D01*
X126689765Y-91449284D01*
X127230977Y-90271575D01*
X127280303Y-88976401D01*
X126830232Y-87760939D01*
X126689765Y-87550716D01*
X126217717Y-87287940D01*
X124005657Y-89500000D01*
X123994343Y-89500000D01*
X121782283Y-87287940D01*
X121310235Y-87550716D01*
X120769023Y-88728425D01*
X120719697Y-90023599D01*
X116325000Y-90023599D01*
X116325000Y-90000020D01*
X116325001Y-90000001D01*
X116325000Y-89999982D01*
X116325000Y-87282283D01*
X121787940Y-87282283D01*
X124000000Y-89494343D01*
X126212060Y-87282283D01*
X125949284Y-86810235D01*
X124771575Y-86269023D01*
X123476401Y-86219697D01*
X122260939Y-86669768D01*
X122050716Y-86810235D01*
X121787940Y-87282283D01*
X116325000Y-87282283D01*
X116325000Y-79717717D01*
X125287940Y-79717717D01*
X125550716Y-80189765D01*
X126728425Y-80730977D01*
X128023599Y-80780303D01*
X129239061Y-80330232D01*
X129449284Y-80189765D01*
X129712060Y-79717717D01*
X127500000Y-77505657D01*
X125287940Y-79717717D01*
X116325000Y-79717717D01*
X116325000Y-78023599D01*
X124219697Y-78023599D01*
X124669768Y-79239061D01*
X124810235Y-79449284D01*
X125282283Y-79712060D01*
X127494343Y-77500000D01*
X127505657Y-77500000D01*
X129717717Y-79712060D01*
X130189765Y-79449284D01*
X130730977Y-78271575D01*
X130780303Y-76976401D01*
X130330232Y-75760939D01*
X130189765Y-75550716D01*
X129717717Y-75287940D01*
X127505657Y-77500000D01*
X127494343Y-77500000D01*
X125282283Y-75287940D01*
X124810235Y-75550716D01*
X124269023Y-76728425D01*
X124219697Y-78023599D01*
X116325000Y-78023599D01*
X116325000Y-75282283D01*
X125287940Y-75282283D01*
X127500000Y-77494343D01*
X129712060Y-75282283D01*
X129449284Y-74810235D01*
X128271575Y-74269023D01*
X126976401Y-74219697D01*
X125760939Y-74669768D01*
X125550716Y-74810235D01*
X125287940Y-75282283D01*
X116325000Y-75282283D01*
X116325000Y-75041633D01*
X116396003Y-73913068D01*
X116494265Y-73397957D01*
X118607699Y-73397957D01*
X118900891Y-73895982D01*
X120168920Y-74478833D01*
X121563474Y-74532063D01*
X122872244Y-74047569D01*
X123099109Y-73895982D01*
X123392301Y-73397957D01*
X121000000Y-71005657D01*
X118607699Y-73397957D01*
X116494265Y-73397957D01*
X116600079Y-72843266D01*
X116936624Y-71807486D01*
X117400337Y-70822046D01*
X117502374Y-70661260D01*
X117467937Y-71563474D01*
X117952431Y-72872244D01*
X118104018Y-73099109D01*
X118602043Y-73392301D01*
X120994343Y-71000000D01*
X121005657Y-71000000D01*
X123397957Y-73392301D01*
X123895982Y-73099109D01*
X124478833Y-71831080D01*
X124532063Y-70436526D01*
X124047569Y-69127756D01*
X123895982Y-68900891D01*
X123397957Y-68607699D01*
X121005657Y-71000000D01*
X120994343Y-71000000D01*
X120980201Y-70985858D01*
X120985858Y-70980201D01*
X121000000Y-70994343D01*
X123392301Y-68602043D01*
X123187405Y-68254000D01*
X145742000Y-68254000D01*
X145742000Y-69254000D01*
X146067652Y-70883162D01*
X146991968Y-72263689D01*
X148374230Y-73185410D01*
X149329952Y-73454949D01*
X149996000Y-73318498D01*
X149996000Y-68254000D01*
X150004000Y-68254000D01*
X150004000Y-73318498D01*
X150670048Y-73454949D01*
X151625770Y-73185410D01*
X153008032Y-72263689D01*
X153932348Y-70883162D01*
X154258000Y-69254000D01*
X154258000Y-68254000D01*
X150004000Y-68254000D01*
X149996000Y-68254000D01*
X145742000Y-68254000D01*
X123187405Y-68254000D01*
X123099109Y-68104018D01*
X121831080Y-67521167D01*
X120715252Y-67478576D01*
X121138305Y-67246000D01*
X145742000Y-67246000D01*
X145742000Y-68246000D01*
X149996000Y-68246000D01*
X149996000Y-63181502D01*
X150004000Y-63181502D01*
X150004000Y-68246000D01*
X154258000Y-68246000D01*
X154258000Y-67246000D01*
X153932348Y-65616838D01*
X153008032Y-64236311D01*
X151625770Y-63314590D01*
X150670048Y-63045051D01*
X150004000Y-63181502D01*
X149996000Y-63181502D01*
X149329952Y-63045051D01*
X148374230Y-63314590D01*
X146991968Y-64236311D01*
X146067652Y-65616838D01*
X145742000Y-67246000D01*
X121138305Y-67246000D01*
X121307481Y-67152995D01*
X122320082Y-66752078D01*
X123374955Y-66481231D01*
X124476169Y-66342116D01*
X125020810Y-66325000D01*
X140130499Y-66325000D01*
X140516989Y-66248122D01*
X140955272Y-65955272D01*
X141009353Y-65874334D01*
X141952490Y-65026618D01*
X143057873Y-64227923D01*
X144241861Y-63551219D01*
X145491056Y-63004160D01*
X146791319Y-62592940D01*
X148127905Y-62322224D01*
X149485706Y-62195069D01*
X150849311Y-62212920D01*
G36*
X189377841Y-65377840D02*
X189252311Y-65565709D01*
X188880547Y-66122093D01*
X188705920Y-67000000D01*
X188750001Y-67221609D01*
X188750000Y-78068019D01*
X184068020Y-82750000D01*
X156471604Y-82750000D01*
X156249999Y-82705920D01*
X156028394Y-82750000D01*
X155372094Y-82880546D01*
X155372093Y-82880547D01*
X155372092Y-82880547D01*
X155342979Y-82900000D01*
X154627840Y-83377840D01*
X154610144Y-83404324D01*
X154487725Y-83322527D01*
X154000000Y-83225512D01*
X146000000Y-83225512D01*
X145512275Y-83322527D01*
X145098801Y-83598801D01*
X144822527Y-84012275D01*
X144725512Y-84500000D01*
X144725512Y-88175000D01*
X139630499Y-88175000D01*
X139500000Y-88149042D01*
X139369501Y-88175000D01*
X138983011Y-88251878D01*
X138544728Y-88544728D01*
X138251878Y-88983011D01*
X138149042Y-89500000D01*
X138175000Y-89630499D01*
X138175001Y-110369496D01*
X138149042Y-110500000D01*
X138198770Y-110750000D01*
X136931980Y-110750000D01*
X135250000Y-109068020D01*
X135250000Y-89931980D01*
X142931981Y-82250000D01*
X157778395Y-82250000D01*
X158000000Y-82294080D01*
X158221605Y-82250000D01*
X158221606Y-82250000D01*
X158877906Y-82119454D01*
X159622160Y-81622160D01*
X159747692Y-81434288D01*
X161464263Y-79717717D01*
X170287940Y-79717717D01*
X170550716Y-80189765D01*
X171728425Y-80730977D01*
X173023599Y-80780303D01*
X174239061Y-80330232D01*
X174449284Y-80189765D01*
X174712060Y-79717717D01*
X172500000Y-77505657D01*
X170287940Y-79717717D01*
X161464263Y-79717717D01*
X163158381Y-78023599D01*
X169219697Y-78023599D01*
X169669768Y-79239061D01*
X169810235Y-79449284D01*
X170282283Y-79712060D01*
X172494343Y-77500000D01*
X172505657Y-77500000D01*
X174717717Y-79712060D01*
X175189765Y-79449284D01*
X175730977Y-78271575D01*
X175780303Y-76976401D01*
X175330232Y-75760939D01*
X175189765Y-75550716D01*
X174717717Y-75287940D01*
X172505657Y-77500000D01*
X172494343Y-77500000D01*
X170282283Y-75287940D01*
X169810235Y-75550716D01*
X169269023Y-76728425D01*
X169219697Y-78023599D01*
X163158381Y-78023599D01*
X165899697Y-75282283D01*
X170287940Y-75282283D01*
X172500000Y-77494343D01*
X174712060Y-75282283D01*
X174449284Y-74810235D01*
X173271575Y-74269023D01*
X171976401Y-74219697D01*
X170760939Y-74669768D01*
X170550716Y-74810235D01*
X170287940Y-75282283D01*
X165899697Y-75282283D01*
X168931980Y-72250000D01*
X178778395Y-72250000D01*
X179000000Y-72294080D01*
X179221605Y-72250000D01*
X179221606Y-72250000D01*
X179877906Y-72119454D01*
X180622160Y-71622160D01*
X180747692Y-71434288D01*
X181684289Y-70497691D01*
X181872160Y-70372160D01*
X182369454Y-69627906D01*
X182500000Y-68971606D01*
X182500000Y-68971605D01*
X182544080Y-68750000D01*
X182500000Y-68528395D01*
X182500000Y-65552447D01*
X182413534Y-65343700D01*
X182409814Y-65325000D01*
X189456922Y-65325000D01*
X189377841Y-65377840D01*
X189377841Y-65377840D01*
G37*
X189377841Y-65377840D02*
X189252311Y-65565709D01*
X188880547Y-66122093D01*
X188705920Y-67000000D01*
X188750001Y-67221609D01*
X188750000Y-78068019D01*
X184068020Y-82750000D01*
X156471604Y-82750000D01*
X156249999Y-82705920D01*
X156028394Y-82750000D01*
X155372094Y-82880546D01*
X155372093Y-82880547D01*
X155372092Y-82880547D01*
X155342979Y-82900000D01*
X154627840Y-83377840D01*
X154610144Y-83404324D01*
X154487725Y-83322527D01*
X154000000Y-83225512D01*
X146000000Y-83225512D01*
X145512275Y-83322527D01*
X145098801Y-83598801D01*
X144822527Y-84012275D01*
X144725512Y-84500000D01*
X144725512Y-88175000D01*
X139630499Y-88175000D01*
X139500000Y-88149042D01*
X139369501Y-88175000D01*
X138983011Y-88251878D01*
X138544728Y-88544728D01*
X138251878Y-88983011D01*
X138149042Y-89500000D01*
X138175000Y-89630499D01*
X138175001Y-110369496D01*
X138149042Y-110500000D01*
X138198770Y-110750000D01*
X136931980Y-110750000D01*
X135250000Y-109068020D01*
X135250000Y-89931980D01*
X142931981Y-82250000D01*
X157778395Y-82250000D01*
X158000000Y-82294080D01*
X158221605Y-82250000D01*
X158221606Y-82250000D01*
X158877906Y-82119454D01*
X159622160Y-81622160D01*
X159747692Y-81434288D01*
X161464263Y-79717717D01*
X170287940Y-79717717D01*
X170550716Y-80189765D01*
X171728425Y-80730977D01*
X173023599Y-80780303D01*
X174239061Y-80330232D01*
X174449284Y-80189765D01*
X174712060Y-79717717D01*
X172500000Y-77505657D01*
X170287940Y-79717717D01*
X161464263Y-79717717D01*
X163158381Y-78023599D01*
X169219697Y-78023599D01*
X169669768Y-79239061D01*
X169810235Y-79449284D01*
X170282283Y-79712060D01*
X172494343Y-77500000D01*
X172505657Y-77500000D01*
X174717717Y-79712060D01*
X175189765Y-79449284D01*
X175730977Y-78271575D01*
X175780303Y-76976401D01*
X175330232Y-75760939D01*
X175189765Y-75550716D01*
X174717717Y-75287940D01*
X172505657Y-77500000D01*
X172494343Y-77500000D01*
X170282283Y-75287940D01*
X169810235Y-75550716D01*
X169269023Y-76728425D01*
X169219697Y-78023599D01*
X163158381Y-78023599D01*
X165899697Y-75282283D01*
X170287940Y-75282283D01*
X172500000Y-77494343D01*
X174712060Y-75282283D01*
X174449284Y-74810235D01*
X173271575Y-74269023D01*
X171976401Y-74219697D01*
X170760939Y-74669768D01*
X170550716Y-74810235D01*
X170287940Y-75282283D01*
X165899697Y-75282283D01*
X168931980Y-72250000D01*
X178778395Y-72250000D01*
X179000000Y-72294080D01*
X179221605Y-72250000D01*
X179221606Y-72250000D01*
X179877906Y-72119454D01*
X180622160Y-71622160D01*
X180747692Y-71434288D01*
X181684289Y-70497691D01*
X181872160Y-70372160D01*
X182369454Y-69627906D01*
X182500000Y-68971606D01*
X182500000Y-68971605D01*
X182544080Y-68750000D01*
X182500000Y-68528395D01*
X182500000Y-65552447D01*
X182413534Y-65343700D01*
X182409814Y-65325000D01*
X189456922Y-65325000D01*
X189377841Y-65377840D01*
G04 #@! TD*
M02*
