G04 #@! TF.GenerationSoftware,KiCad,Pcbnew,(5.0.0)*
G04 #@! TF.CreationDate,2019-12-04T20:43:09-05:00*
G04 #@! TF.ProjectId,10W White LED,313057205768697465204C45442E6B69,rev?*
G04 #@! TF.SameCoordinates,Original*
G04 #@! TF.FileFunction,Legend,Bot*
G04 #@! TF.FilePolarity,Positive*
%FSLAX46Y46*%
G04 Gerber Fmt 4.6, Leading zero omitted, Abs format (unit mm)*
G04 Created by KiCad (PCBNEW (5.0.0)) date 12/04/19 20:43:09*
%MOMM*%
%LPD*%
G01*
G04 APERTURE LIST*
%ADD10C,0.100000*%
%ADD11C,0.200000*%
%ADD12C,0.150000*%
G04 APERTURE END LIST*
D10*
G04 #@! TO.C,FAN1*
X203300000Y-79200000D02*
X203300000Y-74300000D01*
X199800000Y-79200000D02*
X203300000Y-79200000D01*
X199800000Y-74300000D02*
X199800000Y-79200000D01*
X203300000Y-74300000D02*
X199800000Y-74300000D01*
G04 #@! TO.C,HEATSINK1*
X167500000Y-127500000D02*
G75*
G03X177500000Y-117500000I0J10000000D01*
G01*
X177500000Y-82500000D02*
G75*
G03X167500000Y-72500000I-10000000J0D01*
G01*
X132500000Y-72500000D02*
G75*
G03X122500000Y-82500000I0J-10000000D01*
G01*
X122500000Y-117500000D02*
G75*
G03X132500000Y-127500000I10000000J0D01*
G01*
X177500000Y-82500000D02*
X177500000Y-117500000D01*
X167250000Y-127500000D02*
X132250000Y-127500000D01*
X122500000Y-117500000D02*
X122500000Y-82500000D01*
X132500000Y-72500000D02*
X167500000Y-72500000D01*
X122500000Y-89500000D02*
X124500000Y-89500000D01*
X177500000Y-110500000D02*
X176000000Y-110500000D01*
X172500000Y-77500000D02*
X172500000Y-74000000D01*
X172500000Y-77500000D02*
X176000000Y-77500000D01*
X127500000Y-77500000D02*
X127500000Y-74000000D01*
X127500000Y-77500000D02*
X124000000Y-77500000D01*
X127500000Y-122500000D02*
X124000000Y-122500000D01*
X127500000Y-122500000D02*
X127500000Y-126000000D01*
X172500000Y-122500000D02*
X172500000Y-126000000D01*
X172500000Y-122500000D02*
X176000000Y-122500000D01*
D11*
G04 #@! TO.C,D1*
X154500000Y-84000000D02*
X154500000Y-89000000D01*
X146750000Y-84000000D02*
X154500000Y-84000000D01*
X145500000Y-84000000D02*
X146750000Y-84000000D01*
X145500000Y-88500000D02*
X145500000Y-84000000D01*
X145500000Y-89000000D02*
X145500000Y-88500000D01*
X140000000Y-89000000D02*
X145500000Y-89000000D01*
X139000000Y-89000000D02*
X140000000Y-89000000D01*
X139000000Y-110250000D02*
X139000000Y-89000000D01*
X139000000Y-111000000D02*
X139000000Y-110250000D01*
X145500000Y-111000000D02*
X139000000Y-111000000D01*
X145500000Y-115000000D02*
X145500000Y-111000000D01*
X145500000Y-116000000D02*
X145500000Y-115000000D01*
X154500000Y-116000000D02*
X145500000Y-116000000D01*
X154500000Y-111000000D02*
X154500000Y-116000000D01*
X161000000Y-111000000D02*
X154500000Y-111000000D01*
X161000000Y-89000000D02*
X161000000Y-111000000D01*
X154500000Y-89000000D02*
X161000000Y-89000000D01*
D10*
X153750000Y-84000000D02*
X154500000Y-84000000D01*
G04 #@! TO.C,FAN1*
D12*
X202521428Y-75619047D02*
X202521428Y-76380952D01*
X202521428Y-77119047D02*
X202521428Y-77880952D01*
X202902380Y-77500000D02*
X202140476Y-77500000D01*
G04 #@! TO.C,HEATSINK1*
X153761904Y-99952380D02*
X153761904Y-98952380D01*
X153761904Y-99428571D02*
X153190476Y-99428571D01*
X153190476Y-99952380D02*
X153190476Y-98952380D01*
X152714285Y-99428571D02*
X152380952Y-99428571D01*
X152238095Y-99952380D02*
X152714285Y-99952380D01*
X152714285Y-98952380D01*
X152238095Y-98952380D01*
X151857142Y-99666666D02*
X151380952Y-99666666D01*
X151952380Y-99952380D02*
X151619047Y-98952380D01*
X151285714Y-99952380D01*
X151095238Y-98952380D02*
X150523809Y-98952380D01*
X150809523Y-99952380D02*
X150809523Y-98952380D01*
X150238095Y-99904761D02*
X150095238Y-99952380D01*
X149857142Y-99952380D01*
X149761904Y-99904761D01*
X149714285Y-99857142D01*
X149666666Y-99761904D01*
X149666666Y-99666666D01*
X149714285Y-99571428D01*
X149761904Y-99523809D01*
X149857142Y-99476190D01*
X150047619Y-99428571D01*
X150142857Y-99380952D01*
X150190476Y-99333333D01*
X150238095Y-99238095D01*
X150238095Y-99142857D01*
X150190476Y-99047619D01*
X150142857Y-99000000D01*
X150047619Y-98952380D01*
X149809523Y-98952380D01*
X149666666Y-99000000D01*
X149238095Y-99952380D02*
X149238095Y-98952380D01*
X148761904Y-99952380D02*
X148761904Y-98952380D01*
X148190476Y-99952380D01*
X148190476Y-98952380D01*
X147714285Y-99952380D02*
X147714285Y-98952380D01*
X147142857Y-99952380D02*
X147571428Y-99380952D01*
X147142857Y-98952380D02*
X147714285Y-99523809D01*
X146190476Y-99952380D02*
X146761904Y-99952380D01*
X146476190Y-99952380D02*
X146476190Y-98952380D01*
X146571428Y-99095238D01*
X146666666Y-99190476D01*
X146761904Y-99238095D01*
G04 #@! TO.C,D1*
X141738095Y-112702380D02*
X141738095Y-111702380D01*
X141500000Y-111702380D01*
X141357142Y-111750000D01*
X141261904Y-111845238D01*
X141214285Y-111940476D01*
X141166666Y-112130952D01*
X141166666Y-112273809D01*
X141214285Y-112464285D01*
X141261904Y-112559523D01*
X141357142Y-112654761D01*
X141500000Y-112702380D01*
X141738095Y-112702380D01*
X140214285Y-112702380D02*
X140785714Y-112702380D01*
X140500000Y-112702380D02*
X140500000Y-111702380D01*
X140595238Y-111845238D01*
X140690476Y-111940476D01*
X140785714Y-111988095D01*
X157392857Y-87464285D02*
X155107142Y-87464285D01*
X157642857Y-113464285D02*
X155357142Y-113464285D01*
X156500000Y-114607142D02*
X156500000Y-112321428D01*
G04 #@! TD*
M02*
