M48
;DRILL file {KiCad (5.0.0)} date 12/04/19 20:43:19
;FORMAT={-:-/ absolute / metric / decimal}
FMAT,2
METRIC,TZ
T1C0.600
T2C1.000
T3C3.500
T4C4.000
T5C4.500
%
G90
G05
M71
T1
X201.Y-76.
X201.Y-77.5
T2
X200.Y-115.
X200.Y-122.62
X180.25Y-66.
X180.25Y-94.
X195.75Y-66.
X195.75Y-94.
X201.Y-84.
X201.Y-91.62
T3
X124.Y-89.5
X127.5Y-77.5
X127.5Y-122.5
X172.5Y-77.5
X172.5Y-122.5
X176.Y-110.5
T5
X200.Y-70.
X200.Y-130.
X121.Y-71.
X122.Y-129.
T2
X192.Y-104.5G85X192.Y-102.5
G05
X196.Y-98.8G85X194.Y-98.8
G05
X198.Y-104.5G85X198.Y-102.5
G05
T4
X117.25Y-100.G85X119.25Y-100.
G05
X149.75Y-132.75G85X149.75Y-130.75
G05
X150.Y-67.25G85X150.Y-69.25
G05
X182.75Y-100.G85X180.75Y-100.
G05
T0
M30
