M48
;DRILL file {KiCad (5.0.0)} date 03/30/20 15:35:43
;FORMAT={-:-/ absolute / metric / decimal}
FMAT,2
METRIC,TZ
T1C0.800
T2C1.000
T3C3.500
T4C4.000
%
G90
G05
M71
T1
X177.5Y-86.5
X177.5Y-88.3
T2
X169.Y-83.38
X169.Y-91.
X160.Y-71.
X121.12Y-109.081
X132.081Y-98.12
X140.919Y-128.88
X151.88Y-117.919
X140.Y-71.
X169.Y-106.38
X169.Y-114.
T3
X177.Y-127.
X123.Y-73.
X123.Y-127.
X177.Y-73.
T2
X160.Y-117.G85X162.Y-117.
G05
X160.Y-123.G85X162.Y-123.
G05
X165.7Y-121.G85X165.7Y-119.
G05
T4
X119.25Y-100.G85X117.25Y-100.
G05
X149.75Y-69.25G85X149.75Y-67.25
G05
X150.Y-130.75G85X150.Y-132.75
G05
X180.75Y-100.G85X182.75Y-100.
G05
T0
M30
