G04 #@! TF.GenerationSoftware,KiCad,Pcbnew,(5.0.0)*
G04 #@! TF.CreationDate,2020-03-30T15:35:39-04:00*
G04 #@! TF.ProjectId,10W White LED,313057205768697465204C45442E6B69,rev?*
G04 #@! TF.SameCoordinates,Original*
G04 #@! TF.FileFunction,Profile,NP*
%FSLAX46Y46*%
G04 Gerber Fmt 4.6, Leading zero omitted, Abs format (unit mm)*
G04 Created by KiCad (PCBNEW (5.0.0)) date 03/30/20 15:35:39*
%MOMM*%
%LPD*%
G01*
G04 APERTURE LIST*
%ADD10C,0.150000*%
%ADD11C,0.200000*%
G04 APERTURE END LIST*
D10*
X178541381Y-111000000D02*
G75*
G03X178541381Y-111000000I-3041381J0D01*
G01*
X126541381Y-90000000D02*
G75*
G03X126541381Y-90000000I-3041381J0D01*
G01*
D11*
X165524175Y-100000000D02*
G75*
G03X165524175Y-100000000I-15524175J0D01*
G01*
D10*
X181000000Y-108000000D02*
X181000000Y-125000000D01*
X158000000Y-131000000D02*
X175000000Y-131000000D01*
X181000000Y-125000000D02*
G75*
G02X175000000Y-131000000I-6000000J0D01*
G01*
X181000000Y-108000000D02*
G75*
G02X183000000Y-106000000I2000000J0D01*
G01*
X183000000Y-94000000D02*
G75*
G02X181000000Y-92000000I0J2000000D01*
G01*
X183000000Y-94000000D02*
G75*
G02X189000000Y-100000000I0J-6000000D01*
G01*
X189000000Y-100000000D02*
G75*
G02X183000000Y-106000000I-6000000J0D01*
G01*
X158000000Y-69000000D02*
X175000000Y-69000000D01*
X181000000Y-92000000D02*
X181000000Y-75000000D01*
X175000000Y-69000000D02*
G75*
G02X181000000Y-75000000I0J-6000000D01*
G01*
X158000000Y-69000000D02*
G75*
G02X156000000Y-67000000I0J2000000D01*
G01*
X144000000Y-67000000D02*
G75*
G02X142000000Y-69000000I-2000000J0D01*
G01*
X144000000Y-67000000D02*
G75*
G02X150000000Y-61000000I6000000J0D01*
G01*
X150000000Y-61000000D02*
G75*
G02X156000000Y-67000000I0J-6000000D01*
G01*
X119000000Y-92000000D02*
X119000000Y-75000000D01*
X142000000Y-69000000D02*
X125000000Y-69000000D01*
X119000000Y-75000000D02*
G75*
G02X125000000Y-69000000I6000000J0D01*
G01*
X119000000Y-92000000D02*
G75*
G02X117000000Y-94000000I-2000000J0D01*
G01*
X117000000Y-106000000D02*
G75*
G02X119000000Y-108000000I0J-2000000D01*
G01*
X117000000Y-106000000D02*
G75*
G02X111000000Y-100000000I0J6000000D01*
G01*
X111000000Y-100000000D02*
G75*
G02X117000000Y-94000000I6000000J0D01*
G01*
X119000000Y-108000000D02*
X119000000Y-125000000D01*
X125000000Y-131000000D02*
G75*
G02X119000000Y-125000000I0J6000000D01*
G01*
X156000000Y-133000000D02*
G75*
G02X158000000Y-131000000I2000000J0D01*
G01*
X156000000Y-133000000D02*
G75*
G02X150000000Y-139000000I-6000000J0D01*
G01*
X142000000Y-131000000D02*
G75*
G02X144000000Y-133000000I0J-2000000D01*
G01*
X150000000Y-139000000D02*
G75*
G02X144000000Y-133000000I0J6000000D01*
G01*
X142000000Y-131000000D02*
X125000000Y-131000000D01*
M02*
