G04 #@! TF.GenerationSoftware,KiCad,Pcbnew,(5.0.0)*
G04 #@! TF.CreationDate,2020-03-30T15:38:54-04:00*
G04 #@! TF.ProjectId,10W White LED,313057205768697465204C45442E6B69,rev?*
G04 #@! TF.SameCoordinates,Original*
G04 #@! TF.FileFunction,Copper,L1,Top,Signal*
G04 #@! TF.FilePolarity,Positive*
%FSLAX46Y46*%
G04 Gerber Fmt 4.6, Leading zero omitted, Abs format (unit mm)*
G04 Created by KiCad (PCBNEW (5.0.0)) date 03/30/20 15:38:54*
%MOMM*%
%LPD*%
G01*
G04 APERTURE LIST*
G04 #@! TA.AperFunction,ComponentPad*
%ADD10O,9.000000X7.000000*%
G04 #@! TD*
G04 #@! TA.AperFunction,ComponentPad*
%ADD11O,7.000000X9.000000*%
G04 #@! TD*
G04 #@! TA.AperFunction,ComponentPad*
%ADD12C,5.000000*%
G04 #@! TD*
G04 #@! TA.AperFunction,ComponentPad*
%ADD13R,1.700000X1.700000*%
G04 #@! TD*
G04 #@! TA.AperFunction,Conductor*
%ADD14C,0.500000*%
G04 #@! TD*
G04 APERTURE END LIST*
D10*
G04 #@! TO.P,LENSE1,1*
G04 #@! TO.N,GND*
X181750000Y-100000000D03*
D11*
X149750000Y-68250000D03*
D10*
X118250000Y-100000000D03*
D11*
X150000000Y-131750000D03*
G04 #@! TD*
D12*
G04 #@! TO.P,HEATSINK1,3*
G04 #@! TO.N,GND*
X172500000Y-122500000D03*
X127500000Y-122500000D03*
X127500000Y-77500000D03*
X172500000Y-77500000D03*
G04 #@! TO.P,HEATSINK1,2*
X124000000Y-89500000D03*
G04 #@! TO.P,HEATSINK1,1*
X176000000Y-110500000D03*
G04 #@! TD*
G04 #@! TO.P,MNT1,1*
G04 #@! TO.N,GND*
X123000000Y-73000000D03*
G04 #@! TD*
G04 #@! TO.P,MNT2,1*
G04 #@! TO.N,GND*
X177000000Y-73000000D03*
G04 #@! TD*
G04 #@! TO.P,MNT3,1*
G04 #@! TO.N,GND*
X177000000Y-127000000D03*
G04 #@! TD*
G04 #@! TO.P,MNT4,1*
G04 #@! TO.N,GND*
X123000000Y-127000000D03*
G04 #@! TD*
D13*
G04 #@! TO.P,NEG1,1*
G04 #@! TO.N,Net-(D1-Pad1)*
X160000000Y-71000000D03*
G04 #@! TD*
G04 #@! TO.P,POS1,1*
G04 #@! TO.N,Net-(D1-Pad2)*
X140000000Y-71000000D03*
G04 #@! TD*
D14*
G04 #@! TO.N,GND*
G36*
X150762820Y-62392186D02*
X151505152Y-62578647D01*
X152207063Y-62883846D01*
X152849699Y-63299586D01*
X153415809Y-63814707D01*
X153890183Y-64415370D01*
X154260084Y-65085443D01*
X154515576Y-65806928D01*
X154653879Y-66583359D01*
X154676471Y-67062416D01*
X154678107Y-67075015D01*
X154677542Y-67082042D01*
X154678643Y-67098192D01*
X154700611Y-67393811D01*
X154729634Y-67525818D01*
X154747978Y-67659727D01*
X154752522Y-67675265D01*
X154914999Y-68218549D01*
X154990428Y-68381794D01*
X155063856Y-68545943D01*
X155072577Y-68559581D01*
X155381005Y-69035427D01*
X155499195Y-69170910D01*
X155615766Y-69307881D01*
X155627965Y-69318523D01*
X156057550Y-69688678D01*
X156209067Y-69785577D01*
X156359347Y-69884293D01*
X156374042Y-69891083D01*
X156890251Y-70125789D01*
X157062872Y-70176267D01*
X157234819Y-70228836D01*
X157250827Y-70231229D01*
X157250829Y-70231229D01*
X157776679Y-70306536D01*
X157869501Y-70325000D01*
X157875512Y-70325000D01*
X157875512Y-71850000D01*
X157972527Y-72337725D01*
X158248801Y-72751199D01*
X158662275Y-73027473D01*
X159150000Y-73124488D01*
X160850000Y-73124488D01*
X161337725Y-73027473D01*
X161751199Y-72751199D01*
X162027473Y-72337725D01*
X162124488Y-71850000D01*
X162124488Y-70325000D01*
X174945619Y-70325000D01*
X175038257Y-70332616D01*
X174787940Y-70782283D01*
X177000000Y-72994343D01*
X177014142Y-72980201D01*
X177019799Y-72985858D01*
X177005657Y-73000000D01*
X179217717Y-75212060D01*
X179671612Y-74959389D01*
X179675001Y-75031244D01*
X179675000Y-92130498D01*
X179684648Y-92179002D01*
X179700611Y-92393811D01*
X179729634Y-92525818D01*
X179747978Y-92659727D01*
X179752522Y-92675265D01*
X179914999Y-93218549D01*
X179990428Y-93381794D01*
X180063856Y-93545943D01*
X180072577Y-93559581D01*
X180381005Y-94035427D01*
X180499195Y-94170910D01*
X180615766Y-94307881D01*
X180627965Y-94318523D01*
X181057550Y-94688678D01*
X181209067Y-94785577D01*
X181359347Y-94884293D01*
X181374042Y-94891083D01*
X181890251Y-95125789D01*
X182062872Y-95176267D01*
X182234819Y-95228836D01*
X182250827Y-95231229D01*
X182250829Y-95231229D01*
X182812162Y-95311618D01*
X182828380Y-95311618D01*
X182859200Y-95317497D01*
X182891432Y-95320545D01*
X183762820Y-95392186D01*
X184505152Y-95578647D01*
X185207063Y-95883846D01*
X185849699Y-96299586D01*
X186415809Y-96814707D01*
X186890183Y-97415370D01*
X187260084Y-98085443D01*
X187515576Y-98806928D01*
X187653879Y-99583359D01*
X187672435Y-99976823D01*
X187607814Y-100762824D01*
X187421354Y-101505150D01*
X187116154Y-102207063D01*
X186700412Y-102849701D01*
X186185293Y-103415809D01*
X185584630Y-103890183D01*
X184914557Y-104260084D01*
X184193069Y-104515576D01*
X183416641Y-104653879D01*
X182937584Y-104676471D01*
X182924985Y-104678107D01*
X182917958Y-104677542D01*
X182901807Y-104678643D01*
X182606189Y-104700611D01*
X182474183Y-104729634D01*
X182340273Y-104747978D01*
X182324735Y-104752522D01*
X181781450Y-104914999D01*
X181618190Y-104990435D01*
X181454057Y-105063856D01*
X181440419Y-105072577D01*
X180964573Y-105381005D01*
X180829090Y-105499195D01*
X180692119Y-105615766D01*
X180681478Y-105627965D01*
X180311322Y-106057550D01*
X180214440Y-106209040D01*
X180115707Y-106359347D01*
X180108917Y-106374043D01*
X179874211Y-106890251D01*
X179823733Y-107062872D01*
X179771164Y-107234819D01*
X179768771Y-107250829D01*
X179693463Y-107776682D01*
X179675000Y-107869502D01*
X179675001Y-124945607D01*
X179667384Y-125038257D01*
X179217717Y-124787940D01*
X177005657Y-127000000D01*
X177019799Y-127014142D01*
X177014142Y-127019799D01*
X177000000Y-127005657D01*
X174787940Y-129217717D01*
X175040611Y-129671612D01*
X174968777Y-129675000D01*
X157869501Y-129675000D01*
X157820996Y-129684648D01*
X157606189Y-129700611D01*
X157474183Y-129729634D01*
X157340273Y-129747978D01*
X157324735Y-129752522D01*
X156781450Y-129914999D01*
X156618190Y-129990435D01*
X156454057Y-130063856D01*
X156440419Y-130072577D01*
X155964573Y-130381005D01*
X155829090Y-130499195D01*
X155692119Y-130615766D01*
X155681478Y-130627965D01*
X155311322Y-131057550D01*
X155214440Y-131209040D01*
X155115707Y-131359347D01*
X155108917Y-131374043D01*
X154874211Y-131890251D01*
X154823733Y-132062872D01*
X154771164Y-132234819D01*
X154768771Y-132250829D01*
X154688382Y-132812162D01*
X154688382Y-132828380D01*
X154682503Y-132859200D01*
X154679455Y-132891432D01*
X154607814Y-133762824D01*
X154421354Y-134505150D01*
X154116154Y-135207063D01*
X153700412Y-135849701D01*
X153185293Y-136415809D01*
X152584630Y-136890183D01*
X151914557Y-137260084D01*
X151193069Y-137515576D01*
X150416641Y-137653879D01*
X150023177Y-137672435D01*
X149237176Y-137607814D01*
X148494850Y-137421354D01*
X147792937Y-137116154D01*
X147150299Y-136700412D01*
X146584191Y-136185293D01*
X146109817Y-135584630D01*
X145739916Y-134914557D01*
X145484424Y-134193069D01*
X145346121Y-133416641D01*
X145323529Y-132937584D01*
X145321893Y-132924985D01*
X145322458Y-132917958D01*
X145321357Y-132901807D01*
X145299389Y-132606189D01*
X145270366Y-132474183D01*
X145252022Y-132340273D01*
X145247478Y-132324735D01*
X145085001Y-131781450D01*
X145072318Y-131754000D01*
X145742000Y-131754000D01*
X145742000Y-132754000D01*
X146067652Y-134383162D01*
X146991968Y-135763689D01*
X148374230Y-136685410D01*
X149329952Y-136954949D01*
X149996000Y-136818498D01*
X149996000Y-131754000D01*
X150004000Y-131754000D01*
X150004000Y-136818498D01*
X150670048Y-136954949D01*
X151625770Y-136685410D01*
X153008032Y-135763689D01*
X153932348Y-134383162D01*
X154258000Y-132754000D01*
X154258000Y-131754000D01*
X150004000Y-131754000D01*
X149996000Y-131754000D01*
X145742000Y-131754000D01*
X145072318Y-131754000D01*
X145009565Y-131618190D01*
X144936144Y-131454057D01*
X144927423Y-131440419D01*
X144618995Y-130964573D01*
X144500805Y-130829090D01*
X144430091Y-130746000D01*
X145742000Y-130746000D01*
X145742000Y-131746000D01*
X149996000Y-131746000D01*
X149996000Y-126681502D01*
X150004000Y-126681502D01*
X150004000Y-131746000D01*
X154258000Y-131746000D01*
X154258000Y-130746000D01*
X153932348Y-129116838D01*
X153008032Y-127736311D01*
X151625770Y-126814590D01*
X150670048Y-126545051D01*
X150004000Y-126681502D01*
X149996000Y-126681502D01*
X149329952Y-126545051D01*
X148374230Y-126814590D01*
X146991968Y-127736311D01*
X146067652Y-129116838D01*
X145742000Y-130746000D01*
X144430091Y-130746000D01*
X144384234Y-130692119D01*
X144372035Y-130681478D01*
X143942450Y-130311322D01*
X143790960Y-130214440D01*
X143640653Y-130115707D01*
X143625962Y-130108919D01*
X143625958Y-130108917D01*
X143109749Y-129874211D01*
X142937128Y-129823733D01*
X142765181Y-129771164D01*
X142749173Y-129768771D01*
X142749171Y-129768771D01*
X142223321Y-129693464D01*
X142130499Y-129675000D01*
X125054381Y-129675000D01*
X124961743Y-129667384D01*
X125212060Y-129217717D01*
X123000000Y-127005657D01*
X122985858Y-127019799D01*
X122980201Y-127014142D01*
X122994343Y-127000000D01*
X123005657Y-127000000D01*
X125217717Y-129212060D01*
X125689765Y-128949284D01*
X126230977Y-127771575D01*
X126280303Y-126476401D01*
X125855790Y-125329961D01*
X126728425Y-125730977D01*
X128023599Y-125780303D01*
X129239061Y-125330232D01*
X129449284Y-125189765D01*
X129712060Y-124717717D01*
X170287940Y-124717717D01*
X170550716Y-125189765D01*
X171728425Y-125730977D01*
X173023599Y-125780303D01*
X174170039Y-125355790D01*
X173769023Y-126228425D01*
X173719697Y-127523599D01*
X174169768Y-128739061D01*
X174310235Y-128949284D01*
X174782283Y-129212060D01*
X176994343Y-127000000D01*
X174782283Y-124787940D01*
X174623883Y-124876117D01*
X174712060Y-124717717D01*
X172500000Y-122505657D01*
X170287940Y-124717717D01*
X129712060Y-124717717D01*
X127500000Y-122505657D01*
X125287940Y-124717717D01*
X125376117Y-124876117D01*
X125217717Y-124787940D01*
X123005657Y-127000000D01*
X122994343Y-127000000D01*
X120782283Y-124787940D01*
X120328388Y-125040611D01*
X120325000Y-124968777D01*
X120325000Y-124782283D01*
X120787940Y-124782283D01*
X123000000Y-126994343D01*
X125212060Y-124782283D01*
X125123883Y-124623883D01*
X125282283Y-124712060D01*
X127494343Y-122500000D01*
X127505657Y-122500000D01*
X129717717Y-124712060D01*
X130189765Y-124449284D01*
X130730977Y-123271575D01*
X130740421Y-123023599D01*
X169219697Y-123023599D01*
X169669768Y-124239061D01*
X169810235Y-124449284D01*
X170282283Y-124712060D01*
X172494343Y-122500000D01*
X172505657Y-122500000D01*
X174717717Y-124712060D01*
X174876117Y-124623883D01*
X174787940Y-124782283D01*
X177000000Y-126994343D01*
X179212060Y-124782283D01*
X178949284Y-124310235D01*
X177771575Y-123769023D01*
X176476401Y-123719697D01*
X175329961Y-124144210D01*
X175730977Y-123271575D01*
X175780303Y-121976401D01*
X175330232Y-120760939D01*
X175189765Y-120550716D01*
X174717717Y-120287940D01*
X172505657Y-122500000D01*
X172494343Y-122500000D01*
X170282283Y-120287940D01*
X169810235Y-120550716D01*
X169269023Y-121728425D01*
X169219697Y-123023599D01*
X130740421Y-123023599D01*
X130780303Y-121976401D01*
X130330232Y-120760939D01*
X130189765Y-120550716D01*
X129717717Y-120287940D01*
X127505657Y-122500000D01*
X127494343Y-122500000D01*
X125282283Y-120287940D01*
X124810235Y-120550716D01*
X124269023Y-121728425D01*
X124219697Y-123023599D01*
X124644210Y-124170039D01*
X123771575Y-123769023D01*
X122476401Y-123719697D01*
X121260939Y-124169768D01*
X121050716Y-124310235D01*
X120787940Y-124782283D01*
X120325000Y-124782283D01*
X120325000Y-120282283D01*
X125287940Y-120282283D01*
X127500000Y-122494343D01*
X129712060Y-120282283D01*
X170287940Y-120282283D01*
X172500000Y-122494343D01*
X174712060Y-120282283D01*
X174449284Y-119810235D01*
X173271575Y-119269023D01*
X171976401Y-119219697D01*
X170760939Y-119669768D01*
X170550716Y-119810235D01*
X170287940Y-120282283D01*
X129712060Y-120282283D01*
X129449284Y-119810235D01*
X128271575Y-119269023D01*
X126976401Y-119219697D01*
X125760939Y-119669768D01*
X125550716Y-119810235D01*
X125287940Y-120282283D01*
X120325000Y-120282283D01*
X120325000Y-112717717D01*
X173787940Y-112717717D01*
X174050716Y-113189765D01*
X175228425Y-113730977D01*
X176523599Y-113780303D01*
X177739061Y-113330232D01*
X177949284Y-113189765D01*
X178212060Y-112717717D01*
X176000000Y-110505657D01*
X173787940Y-112717717D01*
X120325000Y-112717717D01*
X120325000Y-107869501D01*
X120315352Y-107820996D01*
X120299389Y-107606189D01*
X120270366Y-107474183D01*
X120252022Y-107340273D01*
X120247478Y-107324735D01*
X120085001Y-106781450D01*
X120009565Y-106618190D01*
X119936144Y-106454057D01*
X119927423Y-106440419D01*
X119618995Y-105964573D01*
X119500805Y-105829090D01*
X119384234Y-105692119D01*
X119372035Y-105681478D01*
X118942450Y-105311322D01*
X118790960Y-105214440D01*
X118640653Y-105115707D01*
X118625962Y-105108919D01*
X118625958Y-105108917D01*
X118109749Y-104874211D01*
X117937128Y-104823733D01*
X117765181Y-104771164D01*
X117749173Y-104768771D01*
X117749171Y-104768771D01*
X117187838Y-104688382D01*
X117171620Y-104688382D01*
X117140800Y-104682503D01*
X117108568Y-104679455D01*
X116237176Y-104607814D01*
X115494850Y-104421354D01*
X114792937Y-104116154D01*
X114150299Y-103700412D01*
X113584191Y-103185293D01*
X113109817Y-102584630D01*
X112739916Y-101914557D01*
X112484424Y-101193069D01*
X112391260Y-100670048D01*
X113045051Y-100670048D01*
X113314590Y-101625770D01*
X114236311Y-103008032D01*
X115616838Y-103932348D01*
X117246000Y-104258000D01*
X118246000Y-104258000D01*
X118246000Y-100004000D01*
X118254000Y-100004000D01*
X118254000Y-104258000D01*
X119254000Y-104258000D01*
X120883162Y-103932348D01*
X122263689Y-103008032D01*
X123185410Y-101625770D01*
X123454949Y-100670048D01*
X123318498Y-100004000D01*
X118254000Y-100004000D01*
X118246000Y-100004000D01*
X113181502Y-100004000D01*
X113045051Y-100670048D01*
X112391260Y-100670048D01*
X112346121Y-100416641D01*
X112327565Y-100023177D01*
X112384558Y-99329952D01*
X113045051Y-99329952D01*
X113181502Y-99996000D01*
X118246000Y-99996000D01*
X118246000Y-95742000D01*
X118254000Y-95742000D01*
X118254000Y-99996000D01*
X123318498Y-99996000D01*
X123454949Y-99329952D01*
X123185410Y-98374230D01*
X122263689Y-96991968D01*
X120883162Y-96067652D01*
X119254000Y-95742000D01*
X118254000Y-95742000D01*
X118246000Y-95742000D01*
X117246000Y-95742000D01*
X115616838Y-96067652D01*
X114236311Y-96991968D01*
X113314590Y-98374230D01*
X113045051Y-99329952D01*
X112384558Y-99329952D01*
X112392186Y-99237180D01*
X112578647Y-98494848D01*
X112883846Y-97792937D01*
X113299586Y-97150301D01*
X113814707Y-96584191D01*
X114415370Y-96109817D01*
X115085443Y-95739916D01*
X115806928Y-95484424D01*
X116583359Y-95346121D01*
X117062416Y-95323529D01*
X117075015Y-95321893D01*
X117082042Y-95322458D01*
X117098192Y-95321357D01*
X117393811Y-95299389D01*
X117525818Y-95270366D01*
X117659727Y-95252022D01*
X117675265Y-95247478D01*
X118218549Y-95085001D01*
X118381794Y-95009572D01*
X118545943Y-94936144D01*
X118559581Y-94927423D01*
X119035427Y-94618995D01*
X119170910Y-94500805D01*
X119307881Y-94384234D01*
X119318523Y-94372035D01*
X119688678Y-93942450D01*
X119785577Y-93790933D01*
X119884293Y-93640653D01*
X119891083Y-93625958D01*
X120125789Y-93109749D01*
X120176267Y-92937128D01*
X120228836Y-92765181D01*
X120231229Y-92749171D01*
X120306536Y-92223321D01*
X120325000Y-92130499D01*
X120325000Y-91717717D01*
X121787940Y-91717717D01*
X122050716Y-92189765D01*
X123228425Y-92730977D01*
X124523599Y-92780303D01*
X125739061Y-92330232D01*
X125949284Y-92189765D01*
X126212060Y-91717717D01*
X124000000Y-89505657D01*
X121787940Y-91717717D01*
X120325000Y-91717717D01*
X120325000Y-90023599D01*
X120719697Y-90023599D01*
X121169768Y-91239061D01*
X121310235Y-91449284D01*
X121782283Y-91712060D01*
X123994343Y-89500000D01*
X124005657Y-89500000D01*
X126217717Y-91712060D01*
X126689765Y-91449284D01*
X127230977Y-90271575D01*
X127260362Y-89500000D01*
X138149042Y-89500000D01*
X138175000Y-89630499D01*
X138175001Y-110369496D01*
X138149042Y-110500000D01*
X138251878Y-111016989D01*
X138544728Y-111455272D01*
X138983011Y-111748122D01*
X139369501Y-111825000D01*
X139500000Y-111850958D01*
X139630499Y-111825000D01*
X160369501Y-111825000D01*
X160500000Y-111850958D01*
X160630499Y-111825000D01*
X161016989Y-111748122D01*
X161455272Y-111455272D01*
X161743705Y-111023599D01*
X172719697Y-111023599D01*
X173169768Y-112239061D01*
X173310235Y-112449284D01*
X173782283Y-112712060D01*
X175994343Y-110500000D01*
X176005657Y-110500000D01*
X178217717Y-112712060D01*
X178689765Y-112449284D01*
X179230977Y-111271575D01*
X179280303Y-109976401D01*
X178830232Y-108760939D01*
X178689765Y-108550716D01*
X178217717Y-108287940D01*
X176005657Y-110500000D01*
X175994343Y-110500000D01*
X173782283Y-108287940D01*
X173310235Y-108550716D01*
X172769023Y-109728425D01*
X172719697Y-111023599D01*
X161743705Y-111023599D01*
X161748122Y-111016989D01*
X161850958Y-110500000D01*
X161825000Y-110369501D01*
X161825000Y-108282283D01*
X173787940Y-108282283D01*
X176000000Y-110494343D01*
X178212060Y-108282283D01*
X177949284Y-107810235D01*
X176771575Y-107269023D01*
X175476401Y-107219697D01*
X174260939Y-107669768D01*
X174050716Y-107810235D01*
X173787940Y-108282283D01*
X161825000Y-108282283D01*
X161825000Y-100670048D01*
X176545051Y-100670048D01*
X176814590Y-101625770D01*
X177736311Y-103008032D01*
X179116838Y-103932348D01*
X180746000Y-104258000D01*
X181746000Y-104258000D01*
X181746000Y-100004000D01*
X181754000Y-100004000D01*
X181754000Y-104258000D01*
X182754000Y-104258000D01*
X184383162Y-103932348D01*
X185763689Y-103008032D01*
X186685410Y-101625770D01*
X186954949Y-100670048D01*
X186818498Y-100004000D01*
X181754000Y-100004000D01*
X181746000Y-100004000D01*
X176681502Y-100004000D01*
X176545051Y-100670048D01*
X161825000Y-100670048D01*
X161825000Y-99329952D01*
X176545051Y-99329952D01*
X176681502Y-99996000D01*
X181746000Y-99996000D01*
X181746000Y-95742000D01*
X181754000Y-95742000D01*
X181754000Y-99996000D01*
X186818498Y-99996000D01*
X186954949Y-99329952D01*
X186685410Y-98374230D01*
X185763689Y-96991968D01*
X184383162Y-96067652D01*
X182754000Y-95742000D01*
X181754000Y-95742000D01*
X181746000Y-95742000D01*
X180746000Y-95742000D01*
X179116838Y-96067652D01*
X177736311Y-96991968D01*
X176814590Y-98374230D01*
X176545051Y-99329952D01*
X161825000Y-99329952D01*
X161825000Y-89630499D01*
X161850958Y-89500000D01*
X161748122Y-88983011D01*
X161455272Y-88544728D01*
X161016989Y-88251878D01*
X160630499Y-88175000D01*
X160500000Y-88149042D01*
X160369501Y-88175000D01*
X139630499Y-88175000D01*
X139500000Y-88149042D01*
X139369501Y-88175000D01*
X138983011Y-88251878D01*
X138544728Y-88544728D01*
X138251878Y-88983011D01*
X138149042Y-89500000D01*
X127260362Y-89500000D01*
X127280303Y-88976401D01*
X126830232Y-87760939D01*
X126689765Y-87550716D01*
X126217717Y-87287940D01*
X124005657Y-89500000D01*
X123994343Y-89500000D01*
X121782283Y-87287940D01*
X121310235Y-87550716D01*
X120769023Y-88728425D01*
X120719697Y-90023599D01*
X120325000Y-90023599D01*
X120325000Y-87282283D01*
X121787940Y-87282283D01*
X124000000Y-89494343D01*
X126212060Y-87282283D01*
X125949284Y-86810235D01*
X124771575Y-86269023D01*
X123476401Y-86219697D01*
X122260939Y-86669768D01*
X122050716Y-86810235D01*
X121787940Y-87282283D01*
X120325000Y-87282283D01*
X120325000Y-79717717D01*
X125287940Y-79717717D01*
X125550716Y-80189765D01*
X126728425Y-80730977D01*
X128023599Y-80780303D01*
X129239061Y-80330232D01*
X129449284Y-80189765D01*
X129712060Y-79717717D01*
X170287940Y-79717717D01*
X170550716Y-80189765D01*
X171728425Y-80730977D01*
X173023599Y-80780303D01*
X174239061Y-80330232D01*
X174449284Y-80189765D01*
X174712060Y-79717717D01*
X172500000Y-77505657D01*
X170287940Y-79717717D01*
X129712060Y-79717717D01*
X127500000Y-77505657D01*
X125287940Y-79717717D01*
X120325000Y-79717717D01*
X120325000Y-75217717D01*
X120787940Y-75217717D01*
X121050716Y-75689765D01*
X122228425Y-76230977D01*
X123523599Y-76280303D01*
X124670039Y-75855790D01*
X124269023Y-76728425D01*
X124219697Y-78023599D01*
X124669768Y-79239061D01*
X124810235Y-79449284D01*
X125282283Y-79712060D01*
X127494343Y-77500000D01*
X127505657Y-77500000D01*
X129717717Y-79712060D01*
X130189765Y-79449284D01*
X130730977Y-78271575D01*
X130740421Y-78023599D01*
X169219697Y-78023599D01*
X169669768Y-79239061D01*
X169810235Y-79449284D01*
X170282283Y-79712060D01*
X172494343Y-77500000D01*
X172505657Y-77500000D01*
X174717717Y-79712060D01*
X175189765Y-79449284D01*
X175730977Y-78271575D01*
X175780303Y-76976401D01*
X175355790Y-75829961D01*
X176228425Y-76230977D01*
X177523599Y-76280303D01*
X178739061Y-75830232D01*
X178949284Y-75689765D01*
X179212060Y-75217717D01*
X177000000Y-73005657D01*
X174787940Y-75217717D01*
X174876117Y-75376117D01*
X174717717Y-75287940D01*
X172505657Y-77500000D01*
X172494343Y-77500000D01*
X170282283Y-75287940D01*
X169810235Y-75550716D01*
X169269023Y-76728425D01*
X169219697Y-78023599D01*
X130740421Y-78023599D01*
X130780303Y-76976401D01*
X130330232Y-75760939D01*
X130189765Y-75550716D01*
X129717717Y-75287940D01*
X127505657Y-77500000D01*
X127494343Y-77500000D01*
X125282283Y-75287940D01*
X125123883Y-75376117D01*
X125212060Y-75217717D01*
X123000000Y-73005657D01*
X120787940Y-75217717D01*
X120325000Y-75217717D01*
X120325000Y-75054381D01*
X120332616Y-74961743D01*
X120782283Y-75212060D01*
X122994343Y-73000000D01*
X123005657Y-73000000D01*
X125217717Y-75212060D01*
X125376117Y-75123883D01*
X125287940Y-75282283D01*
X127500000Y-77494343D01*
X129712060Y-75282283D01*
X170287940Y-75282283D01*
X172500000Y-77494343D01*
X174712060Y-75282283D01*
X174623883Y-75123883D01*
X174782283Y-75212060D01*
X176994343Y-73000000D01*
X174782283Y-70787940D01*
X174310235Y-71050716D01*
X173769023Y-72228425D01*
X173719697Y-73523599D01*
X174144210Y-74670039D01*
X173271575Y-74269023D01*
X171976401Y-74219697D01*
X170760939Y-74669768D01*
X170550716Y-74810235D01*
X170287940Y-75282283D01*
X129712060Y-75282283D01*
X129449284Y-74810235D01*
X128271575Y-74269023D01*
X126976401Y-74219697D01*
X125829961Y-74644210D01*
X126230977Y-73771575D01*
X126280303Y-72476401D01*
X125830232Y-71260939D01*
X125689765Y-71050716D01*
X125217717Y-70787940D01*
X123005657Y-73000000D01*
X122994343Y-73000000D01*
X122980201Y-72985858D01*
X122985858Y-72980201D01*
X123000000Y-72994343D01*
X125212060Y-70782283D01*
X124959389Y-70328388D01*
X125031223Y-70325000D01*
X137875512Y-70325000D01*
X137875512Y-71850000D01*
X137972527Y-72337725D01*
X138248801Y-72751199D01*
X138662275Y-73027473D01*
X139150000Y-73124488D01*
X140850000Y-73124488D01*
X141337725Y-73027473D01*
X141751199Y-72751199D01*
X142027473Y-72337725D01*
X142124488Y-71850000D01*
X142124488Y-70325000D01*
X142130499Y-70325000D01*
X142179004Y-70315352D01*
X142393811Y-70299389D01*
X142525818Y-70270366D01*
X142659727Y-70252022D01*
X142675265Y-70247478D01*
X143218549Y-70085001D01*
X143381794Y-70009572D01*
X143545943Y-69936144D01*
X143559581Y-69927423D01*
X144035427Y-69618995D01*
X144170910Y-69500805D01*
X144307881Y-69384234D01*
X144318523Y-69372035D01*
X144688678Y-68942450D01*
X144785577Y-68790933D01*
X144884293Y-68640653D01*
X144891083Y-68625958D01*
X145060202Y-68254000D01*
X145492000Y-68254000D01*
X145492000Y-69254000D01*
X145817652Y-70883162D01*
X146741968Y-72263689D01*
X148124230Y-73185410D01*
X149079952Y-73454949D01*
X149746000Y-73318498D01*
X149746000Y-68254000D01*
X149754000Y-68254000D01*
X149754000Y-73318498D01*
X150420048Y-73454949D01*
X151375770Y-73185410D01*
X152758032Y-72263689D01*
X153682348Y-70883162D01*
X154008000Y-69254000D01*
X154008000Y-68254000D01*
X149754000Y-68254000D01*
X149746000Y-68254000D01*
X145492000Y-68254000D01*
X145060202Y-68254000D01*
X145125789Y-68109749D01*
X145176267Y-67937128D01*
X145228836Y-67765181D01*
X145231229Y-67749171D01*
X145303288Y-67246000D01*
X145492000Y-67246000D01*
X145492000Y-68246000D01*
X149746000Y-68246000D01*
X149746000Y-63181502D01*
X149754000Y-63181502D01*
X149754000Y-68246000D01*
X154008000Y-68246000D01*
X154008000Y-67246000D01*
X153682348Y-65616838D01*
X152758032Y-64236311D01*
X151375770Y-63314590D01*
X150420048Y-63045051D01*
X149754000Y-63181502D01*
X149746000Y-63181502D01*
X149079952Y-63045051D01*
X148124230Y-63314590D01*
X146741968Y-64236311D01*
X145817652Y-65616838D01*
X145492000Y-67246000D01*
X145303288Y-67246000D01*
X145311618Y-67187838D01*
X145311618Y-67171620D01*
X145317497Y-67140800D01*
X145320545Y-67108568D01*
X145392186Y-66237180D01*
X145578647Y-65494848D01*
X145883846Y-64792937D01*
X146299586Y-64150301D01*
X146814707Y-63584191D01*
X147415370Y-63109817D01*
X148085443Y-62739916D01*
X148806928Y-62484424D01*
X149583359Y-62346121D01*
X149976823Y-62327565D01*
X150762820Y-62392186D01*
X150762820Y-62392186D01*
G37*
X150762820Y-62392186D02*
X151505152Y-62578647D01*
X152207063Y-62883846D01*
X152849699Y-63299586D01*
X153415809Y-63814707D01*
X153890183Y-64415370D01*
X154260084Y-65085443D01*
X154515576Y-65806928D01*
X154653879Y-66583359D01*
X154676471Y-67062416D01*
X154678107Y-67075015D01*
X154677542Y-67082042D01*
X154678643Y-67098192D01*
X154700611Y-67393811D01*
X154729634Y-67525818D01*
X154747978Y-67659727D01*
X154752522Y-67675265D01*
X154914999Y-68218549D01*
X154990428Y-68381794D01*
X155063856Y-68545943D01*
X155072577Y-68559581D01*
X155381005Y-69035427D01*
X155499195Y-69170910D01*
X155615766Y-69307881D01*
X155627965Y-69318523D01*
X156057550Y-69688678D01*
X156209067Y-69785577D01*
X156359347Y-69884293D01*
X156374042Y-69891083D01*
X156890251Y-70125789D01*
X157062872Y-70176267D01*
X157234819Y-70228836D01*
X157250827Y-70231229D01*
X157250829Y-70231229D01*
X157776679Y-70306536D01*
X157869501Y-70325000D01*
X157875512Y-70325000D01*
X157875512Y-71850000D01*
X157972527Y-72337725D01*
X158248801Y-72751199D01*
X158662275Y-73027473D01*
X159150000Y-73124488D01*
X160850000Y-73124488D01*
X161337725Y-73027473D01*
X161751199Y-72751199D01*
X162027473Y-72337725D01*
X162124488Y-71850000D01*
X162124488Y-70325000D01*
X174945619Y-70325000D01*
X175038257Y-70332616D01*
X174787940Y-70782283D01*
X177000000Y-72994343D01*
X177014142Y-72980201D01*
X177019799Y-72985858D01*
X177005657Y-73000000D01*
X179217717Y-75212060D01*
X179671612Y-74959389D01*
X179675001Y-75031244D01*
X179675000Y-92130498D01*
X179684648Y-92179002D01*
X179700611Y-92393811D01*
X179729634Y-92525818D01*
X179747978Y-92659727D01*
X179752522Y-92675265D01*
X179914999Y-93218549D01*
X179990428Y-93381794D01*
X180063856Y-93545943D01*
X180072577Y-93559581D01*
X180381005Y-94035427D01*
X180499195Y-94170910D01*
X180615766Y-94307881D01*
X180627965Y-94318523D01*
X181057550Y-94688678D01*
X181209067Y-94785577D01*
X181359347Y-94884293D01*
X181374042Y-94891083D01*
X181890251Y-95125789D01*
X182062872Y-95176267D01*
X182234819Y-95228836D01*
X182250827Y-95231229D01*
X182250829Y-95231229D01*
X182812162Y-95311618D01*
X182828380Y-95311618D01*
X182859200Y-95317497D01*
X182891432Y-95320545D01*
X183762820Y-95392186D01*
X184505152Y-95578647D01*
X185207063Y-95883846D01*
X185849699Y-96299586D01*
X186415809Y-96814707D01*
X186890183Y-97415370D01*
X187260084Y-98085443D01*
X187515576Y-98806928D01*
X187653879Y-99583359D01*
X187672435Y-99976823D01*
X187607814Y-100762824D01*
X187421354Y-101505150D01*
X187116154Y-102207063D01*
X186700412Y-102849701D01*
X186185293Y-103415809D01*
X185584630Y-103890183D01*
X184914557Y-104260084D01*
X184193069Y-104515576D01*
X183416641Y-104653879D01*
X182937584Y-104676471D01*
X182924985Y-104678107D01*
X182917958Y-104677542D01*
X182901807Y-104678643D01*
X182606189Y-104700611D01*
X182474183Y-104729634D01*
X182340273Y-104747978D01*
X182324735Y-104752522D01*
X181781450Y-104914999D01*
X181618190Y-104990435D01*
X181454057Y-105063856D01*
X181440419Y-105072577D01*
X180964573Y-105381005D01*
X180829090Y-105499195D01*
X180692119Y-105615766D01*
X180681478Y-105627965D01*
X180311322Y-106057550D01*
X180214440Y-106209040D01*
X180115707Y-106359347D01*
X180108917Y-106374043D01*
X179874211Y-106890251D01*
X179823733Y-107062872D01*
X179771164Y-107234819D01*
X179768771Y-107250829D01*
X179693463Y-107776682D01*
X179675000Y-107869502D01*
X179675001Y-124945607D01*
X179667384Y-125038257D01*
X179217717Y-124787940D01*
X177005657Y-127000000D01*
X177019799Y-127014142D01*
X177014142Y-127019799D01*
X177000000Y-127005657D01*
X174787940Y-129217717D01*
X175040611Y-129671612D01*
X174968777Y-129675000D01*
X157869501Y-129675000D01*
X157820996Y-129684648D01*
X157606189Y-129700611D01*
X157474183Y-129729634D01*
X157340273Y-129747978D01*
X157324735Y-129752522D01*
X156781450Y-129914999D01*
X156618190Y-129990435D01*
X156454057Y-130063856D01*
X156440419Y-130072577D01*
X155964573Y-130381005D01*
X155829090Y-130499195D01*
X155692119Y-130615766D01*
X155681478Y-130627965D01*
X155311322Y-131057550D01*
X155214440Y-131209040D01*
X155115707Y-131359347D01*
X155108917Y-131374043D01*
X154874211Y-131890251D01*
X154823733Y-132062872D01*
X154771164Y-132234819D01*
X154768771Y-132250829D01*
X154688382Y-132812162D01*
X154688382Y-132828380D01*
X154682503Y-132859200D01*
X154679455Y-132891432D01*
X154607814Y-133762824D01*
X154421354Y-134505150D01*
X154116154Y-135207063D01*
X153700412Y-135849701D01*
X153185293Y-136415809D01*
X152584630Y-136890183D01*
X151914557Y-137260084D01*
X151193069Y-137515576D01*
X150416641Y-137653879D01*
X150023177Y-137672435D01*
X149237176Y-137607814D01*
X148494850Y-137421354D01*
X147792937Y-137116154D01*
X147150299Y-136700412D01*
X146584191Y-136185293D01*
X146109817Y-135584630D01*
X145739916Y-134914557D01*
X145484424Y-134193069D01*
X145346121Y-133416641D01*
X145323529Y-132937584D01*
X145321893Y-132924985D01*
X145322458Y-132917958D01*
X145321357Y-132901807D01*
X145299389Y-132606189D01*
X145270366Y-132474183D01*
X145252022Y-132340273D01*
X145247478Y-132324735D01*
X145085001Y-131781450D01*
X145072318Y-131754000D01*
X145742000Y-131754000D01*
X145742000Y-132754000D01*
X146067652Y-134383162D01*
X146991968Y-135763689D01*
X148374230Y-136685410D01*
X149329952Y-136954949D01*
X149996000Y-136818498D01*
X149996000Y-131754000D01*
X150004000Y-131754000D01*
X150004000Y-136818498D01*
X150670048Y-136954949D01*
X151625770Y-136685410D01*
X153008032Y-135763689D01*
X153932348Y-134383162D01*
X154258000Y-132754000D01*
X154258000Y-131754000D01*
X150004000Y-131754000D01*
X149996000Y-131754000D01*
X145742000Y-131754000D01*
X145072318Y-131754000D01*
X145009565Y-131618190D01*
X144936144Y-131454057D01*
X144927423Y-131440419D01*
X144618995Y-130964573D01*
X144500805Y-130829090D01*
X144430091Y-130746000D01*
X145742000Y-130746000D01*
X145742000Y-131746000D01*
X149996000Y-131746000D01*
X149996000Y-126681502D01*
X150004000Y-126681502D01*
X150004000Y-131746000D01*
X154258000Y-131746000D01*
X154258000Y-130746000D01*
X153932348Y-129116838D01*
X153008032Y-127736311D01*
X151625770Y-126814590D01*
X150670048Y-126545051D01*
X150004000Y-126681502D01*
X149996000Y-126681502D01*
X149329952Y-126545051D01*
X148374230Y-126814590D01*
X146991968Y-127736311D01*
X146067652Y-129116838D01*
X145742000Y-130746000D01*
X144430091Y-130746000D01*
X144384234Y-130692119D01*
X144372035Y-130681478D01*
X143942450Y-130311322D01*
X143790960Y-130214440D01*
X143640653Y-130115707D01*
X143625962Y-130108919D01*
X143625958Y-130108917D01*
X143109749Y-129874211D01*
X142937128Y-129823733D01*
X142765181Y-129771164D01*
X142749173Y-129768771D01*
X142749171Y-129768771D01*
X142223321Y-129693464D01*
X142130499Y-129675000D01*
X125054381Y-129675000D01*
X124961743Y-129667384D01*
X125212060Y-129217717D01*
X123000000Y-127005657D01*
X122985858Y-127019799D01*
X122980201Y-127014142D01*
X122994343Y-127000000D01*
X123005657Y-127000000D01*
X125217717Y-129212060D01*
X125689765Y-128949284D01*
X126230977Y-127771575D01*
X126280303Y-126476401D01*
X125855790Y-125329961D01*
X126728425Y-125730977D01*
X128023599Y-125780303D01*
X129239061Y-125330232D01*
X129449284Y-125189765D01*
X129712060Y-124717717D01*
X170287940Y-124717717D01*
X170550716Y-125189765D01*
X171728425Y-125730977D01*
X173023599Y-125780303D01*
X174170039Y-125355790D01*
X173769023Y-126228425D01*
X173719697Y-127523599D01*
X174169768Y-128739061D01*
X174310235Y-128949284D01*
X174782283Y-129212060D01*
X176994343Y-127000000D01*
X174782283Y-124787940D01*
X174623883Y-124876117D01*
X174712060Y-124717717D01*
X172500000Y-122505657D01*
X170287940Y-124717717D01*
X129712060Y-124717717D01*
X127500000Y-122505657D01*
X125287940Y-124717717D01*
X125376117Y-124876117D01*
X125217717Y-124787940D01*
X123005657Y-127000000D01*
X122994343Y-127000000D01*
X120782283Y-124787940D01*
X120328388Y-125040611D01*
X120325000Y-124968777D01*
X120325000Y-124782283D01*
X120787940Y-124782283D01*
X123000000Y-126994343D01*
X125212060Y-124782283D01*
X125123883Y-124623883D01*
X125282283Y-124712060D01*
X127494343Y-122500000D01*
X127505657Y-122500000D01*
X129717717Y-124712060D01*
X130189765Y-124449284D01*
X130730977Y-123271575D01*
X130740421Y-123023599D01*
X169219697Y-123023599D01*
X169669768Y-124239061D01*
X169810235Y-124449284D01*
X170282283Y-124712060D01*
X172494343Y-122500000D01*
X172505657Y-122500000D01*
X174717717Y-124712060D01*
X174876117Y-124623883D01*
X174787940Y-124782283D01*
X177000000Y-126994343D01*
X179212060Y-124782283D01*
X178949284Y-124310235D01*
X177771575Y-123769023D01*
X176476401Y-123719697D01*
X175329961Y-124144210D01*
X175730977Y-123271575D01*
X175780303Y-121976401D01*
X175330232Y-120760939D01*
X175189765Y-120550716D01*
X174717717Y-120287940D01*
X172505657Y-122500000D01*
X172494343Y-122500000D01*
X170282283Y-120287940D01*
X169810235Y-120550716D01*
X169269023Y-121728425D01*
X169219697Y-123023599D01*
X130740421Y-123023599D01*
X130780303Y-121976401D01*
X130330232Y-120760939D01*
X130189765Y-120550716D01*
X129717717Y-120287940D01*
X127505657Y-122500000D01*
X127494343Y-122500000D01*
X125282283Y-120287940D01*
X124810235Y-120550716D01*
X124269023Y-121728425D01*
X124219697Y-123023599D01*
X124644210Y-124170039D01*
X123771575Y-123769023D01*
X122476401Y-123719697D01*
X121260939Y-124169768D01*
X121050716Y-124310235D01*
X120787940Y-124782283D01*
X120325000Y-124782283D01*
X120325000Y-120282283D01*
X125287940Y-120282283D01*
X127500000Y-122494343D01*
X129712060Y-120282283D01*
X170287940Y-120282283D01*
X172500000Y-122494343D01*
X174712060Y-120282283D01*
X174449284Y-119810235D01*
X173271575Y-119269023D01*
X171976401Y-119219697D01*
X170760939Y-119669768D01*
X170550716Y-119810235D01*
X170287940Y-120282283D01*
X129712060Y-120282283D01*
X129449284Y-119810235D01*
X128271575Y-119269023D01*
X126976401Y-119219697D01*
X125760939Y-119669768D01*
X125550716Y-119810235D01*
X125287940Y-120282283D01*
X120325000Y-120282283D01*
X120325000Y-112717717D01*
X173787940Y-112717717D01*
X174050716Y-113189765D01*
X175228425Y-113730977D01*
X176523599Y-113780303D01*
X177739061Y-113330232D01*
X177949284Y-113189765D01*
X178212060Y-112717717D01*
X176000000Y-110505657D01*
X173787940Y-112717717D01*
X120325000Y-112717717D01*
X120325000Y-107869501D01*
X120315352Y-107820996D01*
X120299389Y-107606189D01*
X120270366Y-107474183D01*
X120252022Y-107340273D01*
X120247478Y-107324735D01*
X120085001Y-106781450D01*
X120009565Y-106618190D01*
X119936144Y-106454057D01*
X119927423Y-106440419D01*
X119618995Y-105964573D01*
X119500805Y-105829090D01*
X119384234Y-105692119D01*
X119372035Y-105681478D01*
X118942450Y-105311322D01*
X118790960Y-105214440D01*
X118640653Y-105115707D01*
X118625962Y-105108919D01*
X118625958Y-105108917D01*
X118109749Y-104874211D01*
X117937128Y-104823733D01*
X117765181Y-104771164D01*
X117749173Y-104768771D01*
X117749171Y-104768771D01*
X117187838Y-104688382D01*
X117171620Y-104688382D01*
X117140800Y-104682503D01*
X117108568Y-104679455D01*
X116237176Y-104607814D01*
X115494850Y-104421354D01*
X114792937Y-104116154D01*
X114150299Y-103700412D01*
X113584191Y-103185293D01*
X113109817Y-102584630D01*
X112739916Y-101914557D01*
X112484424Y-101193069D01*
X112391260Y-100670048D01*
X113045051Y-100670048D01*
X113314590Y-101625770D01*
X114236311Y-103008032D01*
X115616838Y-103932348D01*
X117246000Y-104258000D01*
X118246000Y-104258000D01*
X118246000Y-100004000D01*
X118254000Y-100004000D01*
X118254000Y-104258000D01*
X119254000Y-104258000D01*
X120883162Y-103932348D01*
X122263689Y-103008032D01*
X123185410Y-101625770D01*
X123454949Y-100670048D01*
X123318498Y-100004000D01*
X118254000Y-100004000D01*
X118246000Y-100004000D01*
X113181502Y-100004000D01*
X113045051Y-100670048D01*
X112391260Y-100670048D01*
X112346121Y-100416641D01*
X112327565Y-100023177D01*
X112384558Y-99329952D01*
X113045051Y-99329952D01*
X113181502Y-99996000D01*
X118246000Y-99996000D01*
X118246000Y-95742000D01*
X118254000Y-95742000D01*
X118254000Y-99996000D01*
X123318498Y-99996000D01*
X123454949Y-99329952D01*
X123185410Y-98374230D01*
X122263689Y-96991968D01*
X120883162Y-96067652D01*
X119254000Y-95742000D01*
X118254000Y-95742000D01*
X118246000Y-95742000D01*
X117246000Y-95742000D01*
X115616838Y-96067652D01*
X114236311Y-96991968D01*
X113314590Y-98374230D01*
X113045051Y-99329952D01*
X112384558Y-99329952D01*
X112392186Y-99237180D01*
X112578647Y-98494848D01*
X112883846Y-97792937D01*
X113299586Y-97150301D01*
X113814707Y-96584191D01*
X114415370Y-96109817D01*
X115085443Y-95739916D01*
X115806928Y-95484424D01*
X116583359Y-95346121D01*
X117062416Y-95323529D01*
X117075015Y-95321893D01*
X117082042Y-95322458D01*
X117098192Y-95321357D01*
X117393811Y-95299389D01*
X117525818Y-95270366D01*
X117659727Y-95252022D01*
X117675265Y-95247478D01*
X118218549Y-95085001D01*
X118381794Y-95009572D01*
X118545943Y-94936144D01*
X118559581Y-94927423D01*
X119035427Y-94618995D01*
X119170910Y-94500805D01*
X119307881Y-94384234D01*
X119318523Y-94372035D01*
X119688678Y-93942450D01*
X119785577Y-93790933D01*
X119884293Y-93640653D01*
X119891083Y-93625958D01*
X120125789Y-93109749D01*
X120176267Y-92937128D01*
X120228836Y-92765181D01*
X120231229Y-92749171D01*
X120306536Y-92223321D01*
X120325000Y-92130499D01*
X120325000Y-91717717D01*
X121787940Y-91717717D01*
X122050716Y-92189765D01*
X123228425Y-92730977D01*
X124523599Y-92780303D01*
X125739061Y-92330232D01*
X125949284Y-92189765D01*
X126212060Y-91717717D01*
X124000000Y-89505657D01*
X121787940Y-91717717D01*
X120325000Y-91717717D01*
X120325000Y-90023599D01*
X120719697Y-90023599D01*
X121169768Y-91239061D01*
X121310235Y-91449284D01*
X121782283Y-91712060D01*
X123994343Y-89500000D01*
X124005657Y-89500000D01*
X126217717Y-91712060D01*
X126689765Y-91449284D01*
X127230977Y-90271575D01*
X127260362Y-89500000D01*
X138149042Y-89500000D01*
X138175000Y-89630499D01*
X138175001Y-110369496D01*
X138149042Y-110500000D01*
X138251878Y-111016989D01*
X138544728Y-111455272D01*
X138983011Y-111748122D01*
X139369501Y-111825000D01*
X139500000Y-111850958D01*
X139630499Y-111825000D01*
X160369501Y-111825000D01*
X160500000Y-111850958D01*
X160630499Y-111825000D01*
X161016989Y-111748122D01*
X161455272Y-111455272D01*
X161743705Y-111023599D01*
X172719697Y-111023599D01*
X173169768Y-112239061D01*
X173310235Y-112449284D01*
X173782283Y-112712060D01*
X175994343Y-110500000D01*
X176005657Y-110500000D01*
X178217717Y-112712060D01*
X178689765Y-112449284D01*
X179230977Y-111271575D01*
X179280303Y-109976401D01*
X178830232Y-108760939D01*
X178689765Y-108550716D01*
X178217717Y-108287940D01*
X176005657Y-110500000D01*
X175994343Y-110500000D01*
X173782283Y-108287940D01*
X173310235Y-108550716D01*
X172769023Y-109728425D01*
X172719697Y-111023599D01*
X161743705Y-111023599D01*
X161748122Y-111016989D01*
X161850958Y-110500000D01*
X161825000Y-110369501D01*
X161825000Y-108282283D01*
X173787940Y-108282283D01*
X176000000Y-110494343D01*
X178212060Y-108282283D01*
X177949284Y-107810235D01*
X176771575Y-107269023D01*
X175476401Y-107219697D01*
X174260939Y-107669768D01*
X174050716Y-107810235D01*
X173787940Y-108282283D01*
X161825000Y-108282283D01*
X161825000Y-100670048D01*
X176545051Y-100670048D01*
X176814590Y-101625770D01*
X177736311Y-103008032D01*
X179116838Y-103932348D01*
X180746000Y-104258000D01*
X181746000Y-104258000D01*
X181746000Y-100004000D01*
X181754000Y-100004000D01*
X181754000Y-104258000D01*
X182754000Y-104258000D01*
X184383162Y-103932348D01*
X185763689Y-103008032D01*
X186685410Y-101625770D01*
X186954949Y-100670048D01*
X186818498Y-100004000D01*
X181754000Y-100004000D01*
X181746000Y-100004000D01*
X176681502Y-100004000D01*
X176545051Y-100670048D01*
X161825000Y-100670048D01*
X161825000Y-99329952D01*
X176545051Y-99329952D01*
X176681502Y-99996000D01*
X181746000Y-99996000D01*
X181746000Y-95742000D01*
X181754000Y-95742000D01*
X181754000Y-99996000D01*
X186818498Y-99996000D01*
X186954949Y-99329952D01*
X186685410Y-98374230D01*
X185763689Y-96991968D01*
X184383162Y-96067652D01*
X182754000Y-95742000D01*
X181754000Y-95742000D01*
X181746000Y-95742000D01*
X180746000Y-95742000D01*
X179116838Y-96067652D01*
X177736311Y-96991968D01*
X176814590Y-98374230D01*
X176545051Y-99329952D01*
X161825000Y-99329952D01*
X161825000Y-89630499D01*
X161850958Y-89500000D01*
X161748122Y-88983011D01*
X161455272Y-88544728D01*
X161016989Y-88251878D01*
X160630499Y-88175000D01*
X160500000Y-88149042D01*
X160369501Y-88175000D01*
X139630499Y-88175000D01*
X139500000Y-88149042D01*
X139369501Y-88175000D01*
X138983011Y-88251878D01*
X138544728Y-88544728D01*
X138251878Y-88983011D01*
X138149042Y-89500000D01*
X127260362Y-89500000D01*
X127280303Y-88976401D01*
X126830232Y-87760939D01*
X126689765Y-87550716D01*
X126217717Y-87287940D01*
X124005657Y-89500000D01*
X123994343Y-89500000D01*
X121782283Y-87287940D01*
X121310235Y-87550716D01*
X120769023Y-88728425D01*
X120719697Y-90023599D01*
X120325000Y-90023599D01*
X120325000Y-87282283D01*
X121787940Y-87282283D01*
X124000000Y-89494343D01*
X126212060Y-87282283D01*
X125949284Y-86810235D01*
X124771575Y-86269023D01*
X123476401Y-86219697D01*
X122260939Y-86669768D01*
X122050716Y-86810235D01*
X121787940Y-87282283D01*
X120325000Y-87282283D01*
X120325000Y-79717717D01*
X125287940Y-79717717D01*
X125550716Y-80189765D01*
X126728425Y-80730977D01*
X128023599Y-80780303D01*
X129239061Y-80330232D01*
X129449284Y-80189765D01*
X129712060Y-79717717D01*
X170287940Y-79717717D01*
X170550716Y-80189765D01*
X171728425Y-80730977D01*
X173023599Y-80780303D01*
X174239061Y-80330232D01*
X174449284Y-80189765D01*
X174712060Y-79717717D01*
X172500000Y-77505657D01*
X170287940Y-79717717D01*
X129712060Y-79717717D01*
X127500000Y-77505657D01*
X125287940Y-79717717D01*
X120325000Y-79717717D01*
X120325000Y-75217717D01*
X120787940Y-75217717D01*
X121050716Y-75689765D01*
X122228425Y-76230977D01*
X123523599Y-76280303D01*
X124670039Y-75855790D01*
X124269023Y-76728425D01*
X124219697Y-78023599D01*
X124669768Y-79239061D01*
X124810235Y-79449284D01*
X125282283Y-79712060D01*
X127494343Y-77500000D01*
X127505657Y-77500000D01*
X129717717Y-79712060D01*
X130189765Y-79449284D01*
X130730977Y-78271575D01*
X130740421Y-78023599D01*
X169219697Y-78023599D01*
X169669768Y-79239061D01*
X169810235Y-79449284D01*
X170282283Y-79712060D01*
X172494343Y-77500000D01*
X172505657Y-77500000D01*
X174717717Y-79712060D01*
X175189765Y-79449284D01*
X175730977Y-78271575D01*
X175780303Y-76976401D01*
X175355790Y-75829961D01*
X176228425Y-76230977D01*
X177523599Y-76280303D01*
X178739061Y-75830232D01*
X178949284Y-75689765D01*
X179212060Y-75217717D01*
X177000000Y-73005657D01*
X174787940Y-75217717D01*
X174876117Y-75376117D01*
X174717717Y-75287940D01*
X172505657Y-77500000D01*
X172494343Y-77500000D01*
X170282283Y-75287940D01*
X169810235Y-75550716D01*
X169269023Y-76728425D01*
X169219697Y-78023599D01*
X130740421Y-78023599D01*
X130780303Y-76976401D01*
X130330232Y-75760939D01*
X130189765Y-75550716D01*
X129717717Y-75287940D01*
X127505657Y-77500000D01*
X127494343Y-77500000D01*
X125282283Y-75287940D01*
X125123883Y-75376117D01*
X125212060Y-75217717D01*
X123000000Y-73005657D01*
X120787940Y-75217717D01*
X120325000Y-75217717D01*
X120325000Y-75054381D01*
X120332616Y-74961743D01*
X120782283Y-75212060D01*
X122994343Y-73000000D01*
X123005657Y-73000000D01*
X125217717Y-75212060D01*
X125376117Y-75123883D01*
X125287940Y-75282283D01*
X127500000Y-77494343D01*
X129712060Y-75282283D01*
X170287940Y-75282283D01*
X172500000Y-77494343D01*
X174712060Y-75282283D01*
X174623883Y-75123883D01*
X174782283Y-75212060D01*
X176994343Y-73000000D01*
X174782283Y-70787940D01*
X174310235Y-71050716D01*
X173769023Y-72228425D01*
X173719697Y-73523599D01*
X174144210Y-74670039D01*
X173271575Y-74269023D01*
X171976401Y-74219697D01*
X170760939Y-74669768D01*
X170550716Y-74810235D01*
X170287940Y-75282283D01*
X129712060Y-75282283D01*
X129449284Y-74810235D01*
X128271575Y-74269023D01*
X126976401Y-74219697D01*
X125829961Y-74644210D01*
X126230977Y-73771575D01*
X126280303Y-72476401D01*
X125830232Y-71260939D01*
X125689765Y-71050716D01*
X125217717Y-70787940D01*
X123005657Y-73000000D01*
X122994343Y-73000000D01*
X122980201Y-72985858D01*
X122985858Y-72980201D01*
X123000000Y-72994343D01*
X125212060Y-70782283D01*
X124959389Y-70328388D01*
X125031223Y-70325000D01*
X137875512Y-70325000D01*
X137875512Y-71850000D01*
X137972527Y-72337725D01*
X138248801Y-72751199D01*
X138662275Y-73027473D01*
X139150000Y-73124488D01*
X140850000Y-73124488D01*
X141337725Y-73027473D01*
X141751199Y-72751199D01*
X142027473Y-72337725D01*
X142124488Y-71850000D01*
X142124488Y-70325000D01*
X142130499Y-70325000D01*
X142179004Y-70315352D01*
X142393811Y-70299389D01*
X142525818Y-70270366D01*
X142659727Y-70252022D01*
X142675265Y-70247478D01*
X143218549Y-70085001D01*
X143381794Y-70009572D01*
X143545943Y-69936144D01*
X143559581Y-69927423D01*
X144035427Y-69618995D01*
X144170910Y-69500805D01*
X144307881Y-69384234D01*
X144318523Y-69372035D01*
X144688678Y-68942450D01*
X144785577Y-68790933D01*
X144884293Y-68640653D01*
X144891083Y-68625958D01*
X145060202Y-68254000D01*
X145492000Y-68254000D01*
X145492000Y-69254000D01*
X145817652Y-70883162D01*
X146741968Y-72263689D01*
X148124230Y-73185410D01*
X149079952Y-73454949D01*
X149746000Y-73318498D01*
X149746000Y-68254000D01*
X149754000Y-68254000D01*
X149754000Y-73318498D01*
X150420048Y-73454949D01*
X151375770Y-73185410D01*
X152758032Y-72263689D01*
X153682348Y-70883162D01*
X154008000Y-69254000D01*
X154008000Y-68254000D01*
X149754000Y-68254000D01*
X149746000Y-68254000D01*
X145492000Y-68254000D01*
X145060202Y-68254000D01*
X145125789Y-68109749D01*
X145176267Y-67937128D01*
X145228836Y-67765181D01*
X145231229Y-67749171D01*
X145303288Y-67246000D01*
X145492000Y-67246000D01*
X145492000Y-68246000D01*
X149746000Y-68246000D01*
X149746000Y-63181502D01*
X149754000Y-63181502D01*
X149754000Y-68246000D01*
X154008000Y-68246000D01*
X154008000Y-67246000D01*
X153682348Y-65616838D01*
X152758032Y-64236311D01*
X151375770Y-63314590D01*
X150420048Y-63045051D01*
X149754000Y-63181502D01*
X149746000Y-63181502D01*
X149079952Y-63045051D01*
X148124230Y-63314590D01*
X146741968Y-64236311D01*
X145817652Y-65616838D01*
X145492000Y-67246000D01*
X145303288Y-67246000D01*
X145311618Y-67187838D01*
X145311618Y-67171620D01*
X145317497Y-67140800D01*
X145320545Y-67108568D01*
X145392186Y-66237180D01*
X145578647Y-65494848D01*
X145883846Y-64792937D01*
X146299586Y-64150301D01*
X146814707Y-63584191D01*
X147415370Y-63109817D01*
X148085443Y-62739916D01*
X148806928Y-62484424D01*
X149583359Y-62346121D01*
X149976823Y-62327565D01*
X150762820Y-62392186D01*
G04 #@! TD*
M02*
