G04 #@! TF.GenerationSoftware,KiCad,Pcbnew,(5.0.0)*
G04 #@! TF.CreationDate,2020-03-30T15:38:54-04:00*
G04 #@! TF.ProjectId,10W White LED,313057205768697465204C45442E6B69,rev?*
G04 #@! TF.SameCoordinates,Original*
G04 #@! TF.FileFunction,Legend,Bot*
G04 #@! TF.FilePolarity,Positive*
%FSLAX46Y46*%
G04 Gerber Fmt 4.6, Leading zero omitted, Abs format (unit mm)*
G04 Created by KiCad (PCBNEW (5.0.0)) date 03/30/20 15:38:54*
%MOMM*%
%LPD*%
G01*
G04 APERTURE LIST*
%ADD10C,0.200000*%
%ADD11C,0.100000*%
%ADD12C,0.150000*%
G04 APERTURE END LIST*
D10*
G04 #@! TO.C,LENSE1*
X182500000Y-105750000D02*
G75*
G03X188000000Y-99994321I0J5505679D01*
G01*
X188000000Y-100000000D02*
G75*
G03X182244321Y-94500000I-5505679J0D01*
G01*
X182500000Y-105750000D02*
X176000000Y-105750000D01*
X182250000Y-94500000D02*
X176000000Y-94500000D01*
X155500000Y-67500000D02*
G75*
G03X149744321Y-62000000I-5505679J0D01*
G01*
X149750000Y-62000000D02*
G75*
G03X144250000Y-67755679I0J-5505679D01*
G01*
X155500000Y-67500000D02*
X155500000Y-74000000D01*
X144250000Y-67750000D02*
X144250000Y-74000000D01*
X117500000Y-94250000D02*
G75*
G03X112000000Y-100005679I0J-5505679D01*
G01*
X112000000Y-100000000D02*
G75*
G03X117755679Y-105500000I5505679J0D01*
G01*
X117500000Y-94250000D02*
X124000000Y-94250000D01*
X117750000Y-105500000D02*
X124000000Y-105500000D01*
X144250000Y-132500000D02*
X144250000Y-126000000D01*
X155500000Y-132250000D02*
X155500000Y-126000000D01*
X144250000Y-132500000D02*
G75*
G03X150005679Y-138000000I5505679J0D01*
G01*
X150000000Y-138000000D02*
G75*
G03X155500000Y-132244321I0J5505679D01*
G01*
X176500000Y-100000000D02*
G75*
G03X176500000Y-100000000I-26500000J0D01*
G01*
X163000000Y-100000000D02*
G75*
G03X163000000Y-100000000I-13000000J0D01*
G01*
X161000000Y-100000000D02*
G75*
G03X161000000Y-100000000I-11000000J0D01*
G01*
D11*
G04 #@! TO.C,HEATSINK1*
X172500000Y-122500000D02*
X176000000Y-122500000D01*
X172500000Y-122500000D02*
X172500000Y-126000000D01*
X127500000Y-122500000D02*
X127500000Y-126000000D01*
X127500000Y-122500000D02*
X124000000Y-122500000D01*
X127500000Y-77500000D02*
X124000000Y-77500000D01*
X127500000Y-77500000D02*
X127500000Y-74000000D01*
X172500000Y-77500000D02*
X176000000Y-77500000D01*
X172500000Y-77500000D02*
X172500000Y-74000000D01*
X177500000Y-110500000D02*
X176000000Y-110500000D01*
X122500000Y-89500000D02*
X124500000Y-89500000D01*
X132500000Y-72500000D02*
X167500000Y-72500000D01*
X122500000Y-117500000D02*
X122500000Y-82500000D01*
X167250000Y-127500000D02*
X132250000Y-127500000D01*
X177500000Y-82500000D02*
X177500000Y-117500000D01*
X122500000Y-117500000D02*
G75*
G03X132500000Y-127500000I10000000J0D01*
G01*
X132500000Y-72500000D02*
G75*
G03X122500000Y-82500000I0J-10000000D01*
G01*
X177500000Y-82500000D02*
G75*
G03X167500000Y-72500000I-10000000J0D01*
G01*
X167500000Y-127500000D02*
G75*
G03X177500000Y-117500000I0J10000000D01*
G01*
G04 #@! TO.C,D1*
X153750000Y-84000000D02*
X154500000Y-84000000D01*
D10*
X154500000Y-89000000D02*
X161000000Y-89000000D01*
X161000000Y-89000000D02*
X161000000Y-111000000D01*
X161000000Y-111000000D02*
X154500000Y-111000000D01*
X154500000Y-111000000D02*
X154500000Y-116000000D01*
X154500000Y-116000000D02*
X145500000Y-116000000D01*
X145500000Y-116000000D02*
X145500000Y-115000000D01*
X145500000Y-115000000D02*
X145500000Y-111000000D01*
X145500000Y-111000000D02*
X139000000Y-111000000D01*
X139000000Y-111000000D02*
X139000000Y-110250000D01*
X139000000Y-110250000D02*
X139000000Y-89000000D01*
X139000000Y-89000000D02*
X140000000Y-89000000D01*
X140000000Y-89000000D02*
X145500000Y-89000000D01*
X145500000Y-89000000D02*
X145500000Y-88500000D01*
X145500000Y-88500000D02*
X145500000Y-84000000D01*
X145500000Y-84000000D02*
X146750000Y-84000000D01*
X146750000Y-84000000D02*
X154500000Y-84000000D01*
X154500000Y-84000000D02*
X154500000Y-89000000D01*
G04 #@! TO.C,LENSE1*
D12*
X121821428Y-107702380D02*
X122297619Y-107702380D01*
X122297619Y-106702380D01*
X121488095Y-107178571D02*
X121154761Y-107178571D01*
X121011904Y-107702380D02*
X121488095Y-107702380D01*
X121488095Y-106702380D01*
X121011904Y-106702380D01*
X120583333Y-107702380D02*
X120583333Y-106702380D01*
X120011904Y-107702380D01*
X120011904Y-106702380D01*
X119583333Y-107654761D02*
X119440476Y-107702380D01*
X119202380Y-107702380D01*
X119107142Y-107654761D01*
X119059523Y-107607142D01*
X119011904Y-107511904D01*
X119011904Y-107416666D01*
X119059523Y-107321428D01*
X119107142Y-107273809D01*
X119202380Y-107226190D01*
X119392857Y-107178571D01*
X119488095Y-107130952D01*
X119535714Y-107083333D01*
X119583333Y-106988095D01*
X119583333Y-106892857D01*
X119535714Y-106797619D01*
X119488095Y-106750000D01*
X119392857Y-106702380D01*
X119154761Y-106702380D01*
X119011904Y-106750000D01*
X118583333Y-107178571D02*
X118250000Y-107178571D01*
X118107142Y-107702380D02*
X118583333Y-107702380D01*
X118583333Y-106702380D01*
X118107142Y-106702380D01*
X117154761Y-107702380D02*
X117726190Y-107702380D01*
X117440476Y-107702380D02*
X117440476Y-106702380D01*
X117535714Y-106845238D01*
X117630952Y-106940476D01*
X117726190Y-106988095D01*
G04 #@! TO.C,HEATSINK1*
X153761904Y-99952380D02*
X153761904Y-98952380D01*
X153761904Y-99428571D02*
X153190476Y-99428571D01*
X153190476Y-99952380D02*
X153190476Y-98952380D01*
X152714285Y-99428571D02*
X152380952Y-99428571D01*
X152238095Y-99952380D02*
X152714285Y-99952380D01*
X152714285Y-98952380D01*
X152238095Y-98952380D01*
X151857142Y-99666666D02*
X151380952Y-99666666D01*
X151952380Y-99952380D02*
X151619047Y-98952380D01*
X151285714Y-99952380D01*
X151095238Y-98952380D02*
X150523809Y-98952380D01*
X150809523Y-99952380D02*
X150809523Y-98952380D01*
X150238095Y-99904761D02*
X150095238Y-99952380D01*
X149857142Y-99952380D01*
X149761904Y-99904761D01*
X149714285Y-99857142D01*
X149666666Y-99761904D01*
X149666666Y-99666666D01*
X149714285Y-99571428D01*
X149761904Y-99523809D01*
X149857142Y-99476190D01*
X150047619Y-99428571D01*
X150142857Y-99380952D01*
X150190476Y-99333333D01*
X150238095Y-99238095D01*
X150238095Y-99142857D01*
X150190476Y-99047619D01*
X150142857Y-99000000D01*
X150047619Y-98952380D01*
X149809523Y-98952380D01*
X149666666Y-99000000D01*
X149238095Y-99952380D02*
X149238095Y-98952380D01*
X148761904Y-99952380D02*
X148761904Y-98952380D01*
X148190476Y-99952380D01*
X148190476Y-98952380D01*
X147714285Y-99952380D02*
X147714285Y-98952380D01*
X147142857Y-99952380D02*
X147571428Y-99380952D01*
X147142857Y-98952380D02*
X147714285Y-99523809D01*
X146190476Y-99952380D02*
X146761904Y-99952380D01*
X146476190Y-99952380D02*
X146476190Y-98952380D01*
X146571428Y-99095238D01*
X146666666Y-99190476D01*
X146761904Y-99238095D01*
G04 #@! TO.C,D1*
X141738095Y-112702380D02*
X141738095Y-111702380D01*
X141500000Y-111702380D01*
X141357142Y-111750000D01*
X141261904Y-111845238D01*
X141214285Y-111940476D01*
X141166666Y-112130952D01*
X141166666Y-112273809D01*
X141214285Y-112464285D01*
X141261904Y-112559523D01*
X141357142Y-112654761D01*
X141500000Y-112702380D01*
X141738095Y-112702380D01*
X140214285Y-112702380D02*
X140785714Y-112702380D01*
X140500000Y-112702380D02*
X140500000Y-111702380D01*
X140595238Y-111845238D01*
X140690476Y-111940476D01*
X140785714Y-111988095D01*
X157892857Y-87464285D02*
X155607142Y-87464285D01*
X156750000Y-88607142D02*
X156750000Y-86321428D01*
X157892857Y-113714285D02*
X155607142Y-113714285D01*
G04 #@! TD*
M02*
