M48
;DRILL file {KiCad (5.0.0)} date 03/19/20 16:58:21
;FORMAT={-:-/ absolute / metric / decimal}
FMAT,2
METRIC,TZ
T1C0.400
T2C1.000
T3C1.500
T4C3.500
%
G90
G05
M71
T1
X97.Y-85.5
X97.Y-86.5
X97.Y-87.5
X100.5Y-95.
X102.Y-95.
X103.Y-95.
X121.5Y-82.
X122.5Y-82.
X123.5Y-82.
T2
X171.75Y-121.
X171.75Y-149.
X187.25Y-121.
X187.25Y-149.
X92.25Y-121.
X92.25Y-149.
X107.75Y-121.
X107.75Y-149.
X152.25Y-123.5
X152.25Y-151.5
X167.75Y-123.5
X167.75Y-151.5
X132.25Y-121.
X132.25Y-149.
X147.75Y-121.
X147.75Y-149.
X112.25Y-123.5
X112.25Y-151.5
X127.75Y-123.5
X127.75Y-151.5
T3
X179.5Y-95.5
X179.5Y-117.5
T4
X100.5Y-152.
X120.5Y-58.5
X158.Y-58.5
X180.Y-152.
T2
X98.Y-104.G85X98.Y-106.
G05
X100.Y-109.7G85X102.Y-109.7
G05
X104.Y-104.G85X104.Y-106.
G05
T0
M30
