G04 #@! TF.GenerationSoftware,KiCad,Pcbnew,(5.0.0)*
G04 #@! TF.CreationDate,2020-03-19T16:58:16-04:00*
G04 #@! TF.ProjectId,Grow_Lamp,47726F775F4C616D702E6B696361645F,rev?*
G04 #@! TF.SameCoordinates,Original*
G04 #@! TF.FileFunction,Copper,L2,Bot,Signal*
G04 #@! TF.FilePolarity,Positive*
%FSLAX46Y46*%
G04 Gerber Fmt 4.6, Leading zero omitted, Abs format (unit mm)*
G04 Created by KiCad (PCBNEW (5.0.0)) date 03/19/20 16:58:16*
%MOMM*%
%LPD*%
G01*
G04 APERTURE LIST*
G04 #@! TA.AperFunction,EtchedComponent*
%ADD10C,0.010000*%
G04 #@! TD*
G04 #@! TA.AperFunction,ComponentPad*
%ADD11C,2.000000*%
G04 #@! TD*
G04 #@! TA.AperFunction,ComponentPad*
%ADD12O,2.500000X4.000000*%
G04 #@! TD*
G04 #@! TA.AperFunction,ComponentPad*
%ADD13R,3.500000X3.500000*%
G04 #@! TD*
G04 #@! TA.AperFunction,ComponentPad*
%ADD14C,5.000000*%
G04 #@! TD*
G04 #@! TA.AperFunction,BGAPad,CuDef*
%ADD15C,1.524000*%
G04 #@! TD*
G04 #@! TA.AperFunction,ViaPad*
%ADD16C,0.800000*%
G04 #@! TD*
G04 #@! TA.AperFunction,Conductor*
%ADD17C,1.000000*%
G04 #@! TD*
G04 #@! TA.AperFunction,Conductor*
%ADD18C,0.254000*%
G04 #@! TD*
G04 APERTURE END LIST*
D10*
G04 #@! TO.C,G\002A\002A\002A*
G36*
X114790563Y-133299139D02*
X114612125Y-133410814D01*
X114553407Y-133489624D01*
X114504838Y-133654713D01*
X114562779Y-133793972D01*
X114726430Y-133912613D01*
X114838403Y-133943882D01*
X115018060Y-133966421D01*
X115238561Y-133980074D01*
X115473066Y-133984686D01*
X115694736Y-133980100D01*
X115876732Y-133966160D01*
X115992214Y-133942710D01*
X116019111Y-133920129D01*
X115974812Y-133823003D01*
X115859905Y-133692189D01*
X115701376Y-133550738D01*
X115526213Y-133421702D01*
X115361402Y-133328130D01*
X115297296Y-133303582D01*
X115026669Y-133261465D01*
X114790563Y-133299139D01*
X114790563Y-133299139D01*
G37*
X114790563Y-133299139D02*
X114612125Y-133410814D01*
X114553407Y-133489624D01*
X114504838Y-133654713D01*
X114562779Y-133793972D01*
X114726430Y-133912613D01*
X114838403Y-133943882D01*
X115018060Y-133966421D01*
X115238561Y-133980074D01*
X115473066Y-133984686D01*
X115694736Y-133980100D01*
X115876732Y-133966160D01*
X115992214Y-133942710D01*
X116019111Y-133920129D01*
X115974812Y-133823003D01*
X115859905Y-133692189D01*
X115701376Y-133550738D01*
X115526213Y-133421702D01*
X115361402Y-133328130D01*
X115297296Y-133303582D01*
X115026669Y-133261465D01*
X114790563Y-133299139D01*
G36*
X120773674Y-133299139D02*
X120595236Y-133410814D01*
X120536518Y-133489624D01*
X120487949Y-133654713D01*
X120545890Y-133793972D01*
X120709541Y-133912613D01*
X120821514Y-133943882D01*
X121001171Y-133966421D01*
X121221672Y-133980074D01*
X121456177Y-133984686D01*
X121677847Y-133980100D01*
X121859843Y-133966160D01*
X121975325Y-133942710D01*
X122002222Y-133920129D01*
X121957923Y-133823003D01*
X121843016Y-133692189D01*
X121684487Y-133550738D01*
X121509324Y-133421702D01*
X121344513Y-133328130D01*
X121280408Y-133303582D01*
X121009780Y-133261465D01*
X120773674Y-133299139D01*
X120773674Y-133299139D01*
G37*
X120773674Y-133299139D02*
X120595236Y-133410814D01*
X120536518Y-133489624D01*
X120487949Y-133654713D01*
X120545890Y-133793972D01*
X120709541Y-133912613D01*
X120821514Y-133943882D01*
X121001171Y-133966421D01*
X121221672Y-133980074D01*
X121456177Y-133984686D01*
X121677847Y-133980100D01*
X121859843Y-133966160D01*
X121975325Y-133942710D01*
X122002222Y-133920129D01*
X121957923Y-133823003D01*
X121843016Y-133692189D01*
X121684487Y-133550738D01*
X121509324Y-133421702D01*
X121344513Y-133328130D01*
X121280408Y-133303582D01*
X121009780Y-133261465D01*
X120773674Y-133299139D01*
G36*
X144433928Y-133389887D02*
X144272286Y-133442999D01*
X144107132Y-133538489D01*
X144003910Y-133668646D01*
X143962498Y-133844886D01*
X143982771Y-134078626D01*
X144064606Y-134381280D01*
X144207879Y-134764266D01*
X144256708Y-134882042D01*
X144403247Y-135217394D01*
X144527756Y-135461328D01*
X144645492Y-135628976D01*
X144771718Y-135735471D01*
X144921691Y-135795947D01*
X145110672Y-135825537D01*
X145215608Y-135832984D01*
X145444238Y-135835763D01*
X145606162Y-135807819D01*
X145745199Y-135741407D01*
X145749708Y-135738593D01*
X145893392Y-135608695D01*
X145966089Y-135467418D01*
X145999081Y-135326608D01*
X146022179Y-135240144D01*
X146026312Y-135121428D01*
X145999990Y-134933402D01*
X145951445Y-134712808D01*
X145888908Y-134496388D01*
X145820610Y-134320885D01*
X145812630Y-134304735D01*
X145660007Y-134065537D01*
X145454939Y-133823313D01*
X145230820Y-133613275D01*
X145022230Y-133471243D01*
X144728350Y-133374865D01*
X144433928Y-133389887D01*
X144433928Y-133389887D01*
G37*
X144433928Y-133389887D02*
X144272286Y-133442999D01*
X144107132Y-133538489D01*
X144003910Y-133668646D01*
X143962498Y-133844886D01*
X143982771Y-134078626D01*
X144064606Y-134381280D01*
X144207879Y-134764266D01*
X144256708Y-134882042D01*
X144403247Y-135217394D01*
X144527756Y-135461328D01*
X144645492Y-135628976D01*
X144771718Y-135735471D01*
X144921691Y-135795947D01*
X145110672Y-135825537D01*
X145215608Y-135832984D01*
X145444238Y-135835763D01*
X145606162Y-135807819D01*
X145745199Y-135741407D01*
X145749708Y-135738593D01*
X145893392Y-135608695D01*
X145966089Y-135467418D01*
X145999081Y-135326608D01*
X146022179Y-135240144D01*
X146026312Y-135121428D01*
X145999990Y-134933402D01*
X145951445Y-134712808D01*
X145888908Y-134496388D01*
X145820610Y-134320885D01*
X145812630Y-134304735D01*
X145660007Y-134065537D01*
X145454939Y-133823313D01*
X145230820Y-133613275D01*
X145022230Y-133471243D01*
X144728350Y-133374865D01*
X144433928Y-133389887D01*
G36*
X162563775Y-139517113D02*
X162254997Y-139521463D01*
X162004429Y-139528127D01*
X161828631Y-139536623D01*
X161744165Y-139546473D01*
X161739111Y-139549635D01*
X161771089Y-139653899D01*
X161856834Y-139823285D01*
X161981061Y-140033605D01*
X162128486Y-140260673D01*
X162283824Y-140480302D01*
X162431793Y-140668307D01*
X162482430Y-140725903D01*
X162814837Y-141031050D01*
X163178589Y-141263997D01*
X163555076Y-141417672D01*
X163925689Y-141485008D01*
X164271821Y-141458933D01*
X164353337Y-141436676D01*
X164644506Y-141292756D01*
X164863808Y-141081880D01*
X165005569Y-140824347D01*
X165064117Y-140540458D01*
X165033778Y-140250512D01*
X164908879Y-139974810D01*
X164799911Y-139838784D01*
X164687901Y-139739568D01*
X164553918Y-139662190D01*
X164383444Y-139604160D01*
X164161962Y-139562990D01*
X163874954Y-139536193D01*
X163507902Y-139521278D01*
X163046288Y-139515759D01*
X162914200Y-139515556D01*
X162563775Y-139517113D01*
X162563775Y-139517113D01*
G37*
X162563775Y-139517113D02*
X162254997Y-139521463D01*
X162004429Y-139528127D01*
X161828631Y-139536623D01*
X161744165Y-139546473D01*
X161739111Y-139549635D01*
X161771089Y-139653899D01*
X161856834Y-139823285D01*
X161981061Y-140033605D01*
X162128486Y-140260673D01*
X162283824Y-140480302D01*
X162431793Y-140668307D01*
X162482430Y-140725903D01*
X162814837Y-141031050D01*
X163178589Y-141263997D01*
X163555076Y-141417672D01*
X163925689Y-141485008D01*
X164271821Y-141458933D01*
X164353337Y-141436676D01*
X164644506Y-141292756D01*
X164863808Y-141081880D01*
X165005569Y-140824347D01*
X165064117Y-140540458D01*
X165033778Y-140250512D01*
X164908879Y-139974810D01*
X164799911Y-139838784D01*
X164687901Y-139739568D01*
X164553918Y-139662190D01*
X164383444Y-139604160D01*
X164161962Y-139562990D01*
X163874954Y-139536193D01*
X163507902Y-139521278D01*
X163046288Y-139515759D01*
X162914200Y-139515556D01*
X162563775Y-139517113D01*
G36*
X110261778Y-143466667D02*
X168738222Y-143466667D01*
X168738222Y-140630773D01*
X167072443Y-140630773D01*
X167018023Y-141131595D01*
X166875094Y-141612789D01*
X166645388Y-142060230D01*
X166330639Y-142459795D01*
X165932582Y-142797359D01*
X165863557Y-142843210D01*
X165419804Y-143066954D01*
X164909932Y-143219450D01*
X164357373Y-143298187D01*
X163785561Y-143300651D01*
X163217928Y-143224331D01*
X162944393Y-143156246D01*
X162344454Y-142923427D01*
X161770831Y-142582195D01*
X161226877Y-142134666D01*
X161052940Y-141962450D01*
X160823174Y-141706459D01*
X160614609Y-141430683D01*
X160413627Y-141113514D01*
X160206609Y-140733346D01*
X159979936Y-140268569D01*
X159964420Y-140235392D01*
X159631031Y-139521001D01*
X156635182Y-139504167D01*
X153639334Y-139487334D01*
X153374911Y-139331894D01*
X153099696Y-139126616D01*
X152924693Y-138886758D01*
X152838708Y-138595990D01*
X152832095Y-138539879D01*
X152845621Y-138244768D01*
X152942240Y-138004316D01*
X153114658Y-137835119D01*
X153150757Y-137814751D01*
X153207374Y-137796297D01*
X153305714Y-137780528D01*
X153454373Y-137767167D01*
X153661944Y-137755939D01*
X153937023Y-137746570D01*
X154288204Y-137738783D01*
X154724081Y-137732305D01*
X155253249Y-137726860D01*
X155884303Y-137722172D01*
X156080556Y-137720957D01*
X156628741Y-137717130D01*
X157141071Y-137712483D01*
X157606779Y-137707189D01*
X158015098Y-137701421D01*
X158355258Y-137695352D01*
X158616493Y-137689157D01*
X158788033Y-137683008D01*
X158859112Y-137677079D01*
X158860445Y-137676197D01*
X158840005Y-137619305D01*
X158781773Y-137469418D01*
X158690380Y-137238157D01*
X158570457Y-136937142D01*
X158521522Y-136814942D01*
X153226312Y-136814942D01*
X153179862Y-137074308D01*
X153039520Y-137277541D01*
X152815602Y-137409814D01*
X152670029Y-137438688D01*
X152434647Y-137460159D01*
X152132284Y-137474327D01*
X151785773Y-137481288D01*
X151417942Y-137481140D01*
X151051621Y-137473981D01*
X150709641Y-137459908D01*
X150414832Y-137439020D01*
X150190023Y-137411414D01*
X150123890Y-137398295D01*
X149754453Y-137288589D01*
X149446937Y-137138959D01*
X149151265Y-136923630D01*
X149076223Y-136859065D01*
X148786217Y-136560942D01*
X148582996Y-136243748D01*
X148451203Y-135901526D01*
X148397231Y-135617352D01*
X147787934Y-135617352D01*
X147770906Y-135903312D01*
X147741439Y-136115407D01*
X147691490Y-136292576D01*
X147613014Y-136473758D01*
X147609543Y-136480873D01*
X147380143Y-136839357D01*
X147087823Y-137124089D01*
X146749241Y-137328672D01*
X146381054Y-137446710D01*
X145999917Y-137471804D01*
X145622489Y-137397558D01*
X145432298Y-137317095D01*
X145197745Y-137197435D01*
X145288421Y-137411051D01*
X145330672Y-137513008D01*
X145409628Y-137705889D01*
X145519701Y-137975953D01*
X145655302Y-138309458D01*
X145810841Y-138692661D01*
X145980731Y-139111821D01*
X146121321Y-139459111D01*
X146319745Y-139950715D01*
X146479431Y-140350359D01*
X146604564Y-140670495D01*
X146699331Y-140923575D01*
X146767916Y-141122049D01*
X146814505Y-141278368D01*
X146843285Y-141404983D01*
X146858439Y-141514347D01*
X146864155Y-141618908D01*
X146864774Y-141670699D01*
X146860449Y-141881698D01*
X146837812Y-142019451D01*
X146784914Y-142123425D01*
X146696667Y-142225890D01*
X146569322Y-142350308D01*
X146442981Y-142445093D01*
X146300407Y-142513945D01*
X146124363Y-142560564D01*
X145897611Y-142588651D01*
X145602913Y-142601904D01*
X145223032Y-142604026D01*
X144946889Y-142601493D01*
X144591244Y-142596153D01*
X144327560Y-142588383D01*
X144134909Y-142575619D01*
X143992363Y-142555297D01*
X143878993Y-142524850D01*
X143773873Y-142481715D01*
X143708045Y-142449677D01*
X143449706Y-142289426D01*
X143289057Y-142106903D01*
X143210897Y-141879484D01*
X143197111Y-141689075D01*
X143225797Y-141447031D01*
X143318053Y-141261877D01*
X143483178Y-141128282D01*
X143730469Y-141040914D01*
X144069224Y-140994443D01*
X144428309Y-140983111D01*
X144903962Y-140983111D01*
X144314337Y-139529667D01*
X143959790Y-138655440D01*
X143645506Y-137879096D01*
X143369281Y-137193920D01*
X143128911Y-136593200D01*
X142937049Y-136107803D01*
X141626078Y-136107803D01*
X141558530Y-136483798D01*
X141396508Y-136823098D01*
X141149144Y-137110261D01*
X140825570Y-137329842D01*
X140572810Y-137430817D01*
X140466677Y-137446557D01*
X140272341Y-137460244D01*
X140014486Y-137470678D01*
X139717795Y-137476660D01*
X139612889Y-137477465D01*
X139277345Y-137476954D01*
X139031269Y-137470375D01*
X138851302Y-137455301D01*
X138714083Y-137429300D01*
X138596250Y-137389943D01*
X138540445Y-137365924D01*
X138361066Y-137272352D01*
X138207326Y-137171796D01*
X138164270Y-137136080D01*
X138042096Y-137021389D01*
X137978938Y-137139399D01*
X137889931Y-137238635D01*
X137744677Y-137342576D01*
X137694139Y-137370482D01*
X137596963Y-137413805D01*
X137488782Y-137444575D01*
X137348903Y-137464865D01*
X137156633Y-137476743D01*
X136891276Y-137482281D01*
X136563910Y-137483556D01*
X136232726Y-137479547D01*
X135921070Y-137468497D01*
X135655506Y-137451871D01*
X135462593Y-137431136D01*
X135400341Y-137419350D01*
X135139385Y-137309975D01*
X134928292Y-137138122D01*
X134774606Y-136924141D01*
X134685874Y-136688380D01*
X134677682Y-136568681D01*
X134376682Y-136568681D01*
X134366016Y-136691166D01*
X134334809Y-136799625D01*
X134290027Y-136897572D01*
X134170129Y-137083168D01*
X134016147Y-137227293D01*
X133814266Y-137334380D01*
X133550672Y-137408858D01*
X133211550Y-137455160D01*
X132783086Y-137477715D01*
X132468801Y-137481713D01*
X132035166Y-137477660D01*
X131700298Y-137462891D01*
X131450497Y-137436468D01*
X131281188Y-137400216D01*
X130994508Y-137268629D01*
X130776734Y-137075191D01*
X130637725Y-136838715D01*
X130587343Y-136578013D01*
X130635448Y-136311899D01*
X130670194Y-136234528D01*
X130767928Y-136100026D01*
X130911122Y-136004841D01*
X131116610Y-135943773D01*
X131401228Y-135911622D01*
X131743115Y-135903111D01*
X132020874Y-135899894D01*
X132199811Y-135889097D01*
X132293840Y-135869005D01*
X132316875Y-135837902D01*
X132315221Y-135832556D01*
X132050479Y-135173916D01*
X131825655Y-134611290D01*
X131700472Y-134294793D01*
X130356665Y-134294793D01*
X130342808Y-134431003D01*
X130298914Y-134543268D01*
X130267907Y-134592652D01*
X130082737Y-134762633D01*
X129824633Y-134863270D01*
X129596966Y-134887111D01*
X129364234Y-134849360D01*
X129157924Y-134730271D01*
X128969207Y-134521086D01*
X128789250Y-134213052D01*
X128683727Y-133981682D01*
X128469601Y-133476000D01*
X128107667Y-133476000D01*
X127910735Y-133480779D01*
X127810418Y-133497560D01*
X127790754Y-133530012D01*
X127800590Y-133546556D01*
X127859395Y-133622254D01*
X127967021Y-133760852D01*
X128103063Y-133936073D01*
X128143498Y-133988157D01*
X128451342Y-134428853D01*
X128663250Y-134840706D01*
X128785892Y-135241947D01*
X128825939Y-135650807D01*
X128819297Y-135835288D01*
X128739418Y-136276047D01*
X128573091Y-136668649D01*
X128330013Y-136998723D01*
X128019880Y-137251897D01*
X127784130Y-137369510D01*
X127665819Y-137409796D01*
X127534942Y-137439099D01*
X127371425Y-137459140D01*
X127155197Y-137471643D01*
X126866186Y-137478328D01*
X126485689Y-137480916D01*
X126049245Y-137478540D01*
X125710328Y-137468249D01*
X125453793Y-137449103D01*
X125264494Y-137420162D01*
X125185188Y-137400216D01*
X124898508Y-137268629D01*
X124680734Y-137075191D01*
X124541725Y-136838715D01*
X124491343Y-136578013D01*
X124539448Y-136311899D01*
X124574194Y-136234528D01*
X124664856Y-136106038D01*
X124794867Y-136013621D01*
X124981129Y-135952347D01*
X125240545Y-135917288D01*
X125590017Y-135903514D01*
X125711632Y-135902796D01*
X126103999Y-135895453D01*
X126401248Y-135871355D01*
X126620394Y-135826764D01*
X126778453Y-135757944D01*
X126892444Y-135661157D01*
X126910322Y-135639555D01*
X127009280Y-135438950D01*
X127017064Y-135200686D01*
X126962076Y-135019390D01*
X124134821Y-135019390D01*
X124125356Y-135594385D01*
X124034820Y-136091144D01*
X123862534Y-136510682D01*
X123607820Y-136854015D01*
X123270002Y-137122158D01*
X122848401Y-137316125D01*
X122545864Y-137399312D01*
X122370005Y-137424341D01*
X122106203Y-137444970D01*
X121775081Y-137461075D01*
X121397264Y-137472532D01*
X120993372Y-137479217D01*
X120584031Y-137481008D01*
X120189862Y-137477780D01*
X119831489Y-137469410D01*
X119529534Y-137455774D01*
X119304622Y-137436750D01*
X119200785Y-137419350D01*
X118938142Y-137310494D01*
X118728265Y-137141527D01*
X118576860Y-136931954D01*
X118489629Y-136701280D01*
X118472278Y-136469011D01*
X118530509Y-136254651D01*
X118670028Y-136077705D01*
X118786290Y-136001977D01*
X118864260Y-135969360D01*
X118961849Y-135944671D01*
X119094795Y-135926855D01*
X119278838Y-135914855D01*
X119529718Y-135907617D01*
X119863174Y-135904084D01*
X120258852Y-135903199D01*
X120778167Y-135900535D01*
X121197061Y-135891570D01*
X121527901Y-135874723D01*
X121783055Y-135848412D01*
X121974892Y-135811058D01*
X122115779Y-135761081D01*
X122218085Y-135696899D01*
X122270334Y-135646156D01*
X122358286Y-135539487D01*
X122400252Y-135460773D01*
X122385342Y-135405765D01*
X122302668Y-135370210D01*
X122141341Y-135349860D01*
X121890475Y-135340464D01*
X121539179Y-135337772D01*
X121480111Y-135337687D01*
X120966220Y-135329454D01*
X120547285Y-135303885D01*
X120206273Y-135257862D01*
X119926149Y-135188263D01*
X119689879Y-135091969D01*
X119568285Y-135019390D01*
X118149624Y-135019390D01*
X118141950Y-135593267D01*
X118052433Y-136089634D01*
X117880536Y-136509298D01*
X117625721Y-136853064D01*
X117287450Y-137121740D01*
X116865187Y-137316130D01*
X116562753Y-137399312D01*
X116386893Y-137424341D01*
X116123092Y-137444970D01*
X115791970Y-137461075D01*
X115414152Y-137472532D01*
X115010261Y-137479217D01*
X114600920Y-137481008D01*
X114206751Y-137477780D01*
X113848378Y-137469410D01*
X113546423Y-137455774D01*
X113321511Y-137436750D01*
X113217674Y-137419350D01*
X112933645Y-137299054D01*
X112710279Y-137108130D01*
X112560461Y-136867300D01*
X112497075Y-136597285D01*
X112533004Y-136318806D01*
X112533130Y-136318419D01*
X112580148Y-136196834D01*
X112641383Y-136101477D01*
X112730068Y-136029194D01*
X112859434Y-135976833D01*
X113042715Y-135941240D01*
X113293141Y-135919263D01*
X113623946Y-135907750D01*
X114048362Y-135903546D01*
X114275741Y-135903199D01*
X114795056Y-135900535D01*
X115213950Y-135891570D01*
X115544790Y-135874723D01*
X115799944Y-135848412D01*
X115991781Y-135811058D01*
X116132668Y-135761081D01*
X116234974Y-135696899D01*
X116287222Y-135646156D01*
X116375175Y-135539487D01*
X116417141Y-135460773D01*
X116402231Y-135405765D01*
X116319556Y-135370210D01*
X116158230Y-135349860D01*
X115907364Y-135340464D01*
X115556068Y-135337772D01*
X115497000Y-135337687D01*
X115006237Y-135329502D01*
X114594927Y-135306664D01*
X114276877Y-135270064D01*
X114185360Y-135253161D01*
X113750997Y-135110518D01*
X113391294Y-134888353D01*
X113112406Y-134596869D01*
X112920486Y-134246272D01*
X112821691Y-133846767D01*
X112822176Y-133408558D01*
X112882515Y-133093071D01*
X113041276Y-132709558D01*
X113294259Y-132377871D01*
X113630786Y-132108124D01*
X114040178Y-131910434D01*
X114177869Y-131866037D01*
X114465812Y-131812791D01*
X114820393Y-131790972D01*
X115200213Y-131799272D01*
X115563874Y-131836378D01*
X115869975Y-131900982D01*
X115933568Y-131921601D01*
X116439551Y-132160607D01*
X116910001Y-132500734D01*
X117333905Y-132932909D01*
X117606576Y-133299707D01*
X117852802Y-133731373D01*
X118019439Y-134172463D01*
X118117330Y-134657319D01*
X118149624Y-135019390D01*
X119568285Y-135019390D01*
X119491138Y-134973342D01*
X119190450Y-134715461D01*
X118981007Y-134413212D01*
X118865404Y-134120699D01*
X118790190Y-133689044D01*
X118819134Y-133261317D01*
X118948811Y-132858100D01*
X119124422Y-132564812D01*
X119415250Y-132248644D01*
X119753193Y-132018336D01*
X120149112Y-131869611D01*
X120613869Y-131798196D01*
X121079169Y-131795458D01*
X121494665Y-131831472D01*
X121840262Y-131904014D01*
X122156428Y-132025875D01*
X122483628Y-132209844D01*
X122572531Y-132267461D01*
X123069191Y-132660493D01*
X123476125Y-133120064D01*
X123789561Y-133639529D01*
X124005726Y-134212246D01*
X124120850Y-134831569D01*
X124134821Y-135019390D01*
X126962076Y-135019390D01*
X126932154Y-134920739D01*
X126753034Y-134595085D01*
X126478183Y-134219700D01*
X126290101Y-133995673D01*
X126102498Y-133782152D01*
X125967318Y-133638444D01*
X125862940Y-133549148D01*
X125767746Y-133498859D01*
X125660116Y-133472176D01*
X125531518Y-133455235D01*
X125210522Y-133388069D01*
X124942860Y-133274129D01*
X124751548Y-133124868D01*
X124689336Y-133036051D01*
X124582768Y-132742646D01*
X124567067Y-132467328D01*
X124638334Y-132228085D01*
X124792671Y-132042909D01*
X124921191Y-131966265D01*
X125015569Y-131933578D01*
X125144150Y-131907496D01*
X125321917Y-131886770D01*
X125563855Y-131870152D01*
X125884945Y-131856393D01*
X126300173Y-131844245D01*
X126421181Y-131841296D01*
X126852824Y-131830235D01*
X127184699Y-131818338D01*
X127429912Y-131803073D01*
X127601571Y-131781910D01*
X127712785Y-131752317D01*
X127776659Y-131711765D01*
X127806302Y-131657721D01*
X127814821Y-131587656D01*
X127815136Y-131572142D01*
X127852115Y-131400470D01*
X127942123Y-131209527D01*
X128059249Y-131045305D01*
X128158860Y-130962054D01*
X128409930Y-130884820D01*
X128675971Y-130888530D01*
X128915374Y-130969931D01*
X128999478Y-131027767D01*
X129072929Y-131094150D01*
X129140034Y-131169276D01*
X129207066Y-131265812D01*
X129280300Y-131396427D01*
X129366008Y-131573790D01*
X129470464Y-131810569D01*
X129599942Y-132119432D01*
X129760715Y-132513047D01*
X129875184Y-132796093D01*
X130054461Y-133248517D01*
X130189384Y-133611500D01*
X130282816Y-133898141D01*
X130337622Y-134121539D01*
X130356665Y-134294793D01*
X131700472Y-134294793D01*
X131637771Y-134136269D01*
X131483850Y-133740447D01*
X131360913Y-133415416D01*
X131265983Y-133152767D01*
X131196082Y-132944093D01*
X131148232Y-132780986D01*
X131119455Y-132655038D01*
X131106773Y-132557842D01*
X131107209Y-132480990D01*
X131113051Y-132438306D01*
X131202169Y-132233147D01*
X131370954Y-132049045D01*
X131586794Y-131918781D01*
X131652540Y-131896038D01*
X131874972Y-131874167D01*
X132135066Y-131908660D01*
X132378822Y-131989986D01*
X132470419Y-132040384D01*
X132549088Y-132101254D01*
X132627287Y-132184991D01*
X132710009Y-132301656D01*
X132802245Y-132461308D01*
X132908990Y-132674010D01*
X133035235Y-132949822D01*
X133185974Y-133298805D01*
X133366198Y-133731020D01*
X133580901Y-134256527D01*
X133628816Y-134374689D01*
X133844396Y-134909979D01*
X134018821Y-135352587D01*
X134155035Y-135713750D01*
X134255983Y-136004705D01*
X134324610Y-136236687D01*
X134363861Y-136420933D01*
X134376682Y-136568681D01*
X134677682Y-136568681D01*
X134669639Y-136451188D01*
X134733448Y-136232914D01*
X134884845Y-136053905D01*
X134892021Y-136048454D01*
X134981639Y-135994530D01*
X135096832Y-135956841D01*
X135261874Y-135930960D01*
X135501039Y-135912462D01*
X135689180Y-135903111D01*
X135947658Y-135888653D01*
X136163351Y-135870815D01*
X136312012Y-135851983D01*
X136368278Y-135836337D01*
X136357943Y-135776095D01*
X136309683Y-135624997D01*
X136228480Y-135396604D01*
X136119315Y-135104477D01*
X135987168Y-134762178D01*
X135837021Y-134383267D01*
X135808514Y-134312337D01*
X135613141Y-133822652D01*
X135459739Y-133424397D01*
X135345535Y-133105355D01*
X135267758Y-132853314D01*
X135223636Y-132656059D01*
X135210395Y-132501376D01*
X135225265Y-132377049D01*
X135265472Y-132270865D01*
X135323825Y-132176776D01*
X135511250Y-132003322D01*
X135759005Y-131897162D01*
X136028401Y-131871368D01*
X136162084Y-131893484D01*
X136439311Y-132020003D01*
X136699662Y-132234866D01*
X136914657Y-132514122D01*
X136928911Y-132538297D01*
X136987600Y-132655535D01*
X137080397Y-132859930D01*
X137199655Y-133133757D01*
X137337729Y-133459291D01*
X137486972Y-133818805D01*
X137586922Y-134063732D01*
X137774023Y-134520062D01*
X137929959Y-134882976D01*
X138063202Y-135164758D01*
X138182223Y-135377694D01*
X138295493Y-135534068D01*
X138411484Y-135646166D01*
X138538667Y-135726272D01*
X138685514Y-135786672D01*
X138799634Y-135822382D01*
X139093104Y-135879157D01*
X139338722Y-135871189D01*
X139522648Y-135803817D01*
X139631042Y-135682385D01*
X139650064Y-135512232D01*
X139647043Y-135495324D01*
X139615016Y-135388347D01*
X139547787Y-135199003D01*
X139453525Y-134949147D01*
X139340403Y-134660638D01*
X139265403Y-134474452D01*
X139056190Y-133958658D01*
X138887271Y-133535804D01*
X138755605Y-133194590D01*
X138658149Y-132923716D01*
X138591863Y-132711882D01*
X138553707Y-132547787D01*
X138540639Y-132420132D01*
X138549618Y-132317616D01*
X138577603Y-132228940D01*
X138621554Y-132142803D01*
X138632762Y-132123582D01*
X138812596Y-131923979D01*
X139064556Y-131810660D01*
X139316918Y-131782667D01*
X139594235Y-131822705D01*
X139841157Y-131950010D01*
X140076220Y-132175367D01*
X140149986Y-132267354D01*
X140217098Y-132380258D01*
X140317541Y-132581571D01*
X140444209Y-132854305D01*
X140589997Y-133181471D01*
X140747800Y-133546080D01*
X140910512Y-133931143D01*
X141071029Y-134319672D01*
X141222245Y-134694676D01*
X141357055Y-135039168D01*
X141468353Y-135336158D01*
X141549036Y-135568658D01*
X141590018Y-135710560D01*
X141626078Y-136107803D01*
X142937049Y-136107803D01*
X142922193Y-136070219D01*
X142746923Y-135618266D01*
X142600897Y-135230624D01*
X142481911Y-134900581D01*
X142387763Y-134621422D01*
X142316248Y-134386434D01*
X142265162Y-134188901D01*
X142232302Y-134022111D01*
X142215464Y-133879349D01*
X142212444Y-133753900D01*
X142221039Y-133639052D01*
X142239045Y-133528089D01*
X142264257Y-133414298D01*
X142282542Y-133339384D01*
X142445970Y-132893758D01*
X142695881Y-132516813D01*
X143025964Y-132212941D01*
X143429906Y-131986536D01*
X143901395Y-131841991D01*
X144434118Y-131783700D01*
X144519257Y-131782667D01*
X145031474Y-131816084D01*
X145484741Y-131922727D01*
X145901072Y-132112180D01*
X146302481Y-132394027D01*
X146642011Y-132706941D01*
X147067874Y-133214550D01*
X147400046Y-133776031D01*
X147633681Y-134379073D01*
X147763932Y-135011367D01*
X147787934Y-135617352D01*
X148397231Y-135617352D01*
X148372816Y-135488805D01*
X148383334Y-135066206D01*
X148485338Y-134624829D01*
X148681409Y-134155775D01*
X148974126Y-133650143D01*
X149198851Y-133323250D01*
X149405885Y-133030747D01*
X149552637Y-132799696D01*
X149648856Y-132603008D01*
X149704291Y-132413594D01*
X149728691Y-132204366D01*
X149731805Y-131948234D01*
X149729802Y-131847929D01*
X149715742Y-131264081D01*
X149914891Y-131064932D01*
X150038011Y-130950497D01*
X150140551Y-130894830D01*
X150269784Y-130881883D01*
X150425467Y-130891609D01*
X150577588Y-130911790D01*
X150711203Y-130952081D01*
X150834624Y-131022937D01*
X150956161Y-131134812D01*
X151084126Y-131298162D01*
X151226831Y-131523442D01*
X151392586Y-131821108D01*
X151589703Y-132201614D01*
X151798369Y-132618651D01*
X152023543Y-133076905D01*
X152199257Y-133447611D01*
X152328694Y-133743083D01*
X152415043Y-133975634D01*
X152461488Y-134157577D01*
X152471217Y-134301224D01*
X152447414Y-134418889D01*
X152393268Y-134522885D01*
X152316377Y-134620515D01*
X152077926Y-134823389D01*
X151821239Y-134920448D01*
X151557891Y-134914763D01*
X151299456Y-134809401D01*
X151057506Y-134607430D01*
X150843616Y-134311920D01*
X150792126Y-134216389D01*
X150633409Y-133902508D01*
X150391555Y-134380699D01*
X150229543Y-134748384D01*
X150150426Y-135052594D01*
X150152716Y-135304839D01*
X150234923Y-135516632D01*
X150242946Y-135529195D01*
X150333249Y-135639142D01*
X150452454Y-135723847D01*
X150616479Y-135787460D01*
X150841243Y-135834129D01*
X151142664Y-135868003D01*
X151536659Y-135893230D01*
X151662416Y-135899162D01*
X152061888Y-135920863D01*
X152361062Y-135946508D01*
X152572504Y-135977610D01*
X152708778Y-136015680D01*
X152736356Y-136028410D01*
X152994867Y-136220476D01*
X153159191Y-136473016D01*
X153225239Y-136779465D01*
X153226312Y-136814942D01*
X158521522Y-136814942D01*
X158426634Y-136577992D01*
X158263545Y-136172329D01*
X158085818Y-135731771D01*
X158062837Y-135674907D01*
X157265228Y-133701778D01*
X156367255Y-133701778D01*
X156015948Y-133700076D01*
X155756991Y-133693640D01*
X155569881Y-133680475D01*
X155434112Y-133658587D01*
X155329179Y-133625982D01*
X155259863Y-133594058D01*
X154969210Y-133395206D01*
X154763973Y-133149822D01*
X154650935Y-132873730D01*
X154636873Y-132582757D01*
X154714498Y-132321129D01*
X154789336Y-132196945D01*
X154890538Y-132105718D01*
X155036231Y-132041445D01*
X155244543Y-131998122D01*
X155533602Y-131969745D01*
X155821981Y-131954328D01*
X156537073Y-131923778D01*
X155986707Y-130569111D01*
X155977471Y-130546376D01*
X132388000Y-130546376D01*
X132338248Y-130869876D01*
X132200700Y-131142275D01*
X131992920Y-131353013D01*
X131732473Y-131491528D01*
X131436920Y-131547258D01*
X131123827Y-131509642D01*
X130918749Y-131429889D01*
X130654486Y-131240954D01*
X130474884Y-130997437D01*
X130380230Y-130719751D01*
X130370808Y-130428311D01*
X130446906Y-130143531D01*
X130608809Y-129885827D01*
X130856801Y-129675612D01*
X130893892Y-129653677D01*
X131194893Y-129540691D01*
X131496727Y-129528224D01*
X131781353Y-129605496D01*
X132030726Y-129761725D01*
X132226802Y-129986132D01*
X132351540Y-130267936D01*
X132388000Y-130546376D01*
X155977471Y-130546376D01*
X155436342Y-129214445D01*
X153545802Y-129186222D01*
X151655261Y-129158000D01*
X151426469Y-129006502D01*
X151210981Y-128809520D01*
X151056839Y-128559552D01*
X150973850Y-128285569D01*
X150971822Y-128016541D01*
X151029737Y-127834646D01*
X151124536Y-127715231D01*
X151268260Y-127598521D01*
X151297016Y-127580646D01*
X151348461Y-127552575D01*
X151405475Y-127529438D01*
X151478830Y-127510759D01*
X151579301Y-127496062D01*
X151717664Y-127484870D01*
X151904692Y-127476707D01*
X152151160Y-127471097D01*
X152467842Y-127467564D01*
X152865514Y-127465633D01*
X153354950Y-127464825D01*
X153921556Y-127464667D01*
X154546262Y-127464777D01*
X155068365Y-127466174D01*
X155498147Y-127470462D01*
X155845894Y-127479242D01*
X156121889Y-127494118D01*
X156336417Y-127516692D01*
X156499761Y-127548565D01*
X156622207Y-127591342D01*
X156714039Y-127646623D01*
X156785540Y-127716012D01*
X156846995Y-127801112D01*
X156908688Y-127903524D01*
X156925804Y-127932788D01*
X156982248Y-128044496D01*
X157075179Y-128246825D01*
X157198556Y-128525826D01*
X157346337Y-128867550D01*
X157512481Y-129258047D01*
X157690945Y-129683366D01*
X157845494Y-130056221D01*
X158615231Y-131923778D01*
X159125249Y-131960004D01*
X159426855Y-131988335D01*
X159646962Y-132030400D01*
X159816922Y-132096991D01*
X159968086Y-132198900D01*
X160064928Y-132283452D01*
X160260357Y-132513456D01*
X160361204Y-132768792D01*
X160384445Y-133020751D01*
X160370358Y-133220704D01*
X160315222Y-133365596D01*
X160223502Y-133485012D01*
X160117106Y-133588658D01*
X160005392Y-133647614D01*
X159847002Y-133678499D01*
X159712159Y-133690484D01*
X159519622Y-133709000D01*
X159418807Y-133734252D01*
X159388550Y-133774060D01*
X159395240Y-133807582D01*
X159423537Y-133879539D01*
X159489261Y-134043753D01*
X159587430Y-134287863D01*
X159713061Y-134599507D01*
X159861170Y-134966323D01*
X160026774Y-135375948D01*
X160200156Y-135804334D01*
X160971591Y-137709334D01*
X162244351Y-137709381D01*
X163001724Y-137717272D01*
X163657634Y-137742581D01*
X164222523Y-137787848D01*
X164706833Y-137855616D01*
X165121005Y-137948425D01*
X165475480Y-138068818D01*
X165780702Y-138219336D01*
X166047110Y-138402521D01*
X166285147Y-138620915D01*
X166370360Y-138713693D01*
X166687312Y-139151784D01*
X166908821Y-139626743D01*
X167036620Y-140124448D01*
X167072443Y-140630773D01*
X168738222Y-140630773D01*
X168738222Y-126533334D01*
X110261778Y-126533334D01*
X110261778Y-143466667D01*
X110261778Y-143466667D01*
G37*
X110261778Y-143466667D02*
X168738222Y-143466667D01*
X168738222Y-140630773D01*
X167072443Y-140630773D01*
X167018023Y-141131595D01*
X166875094Y-141612789D01*
X166645388Y-142060230D01*
X166330639Y-142459795D01*
X165932582Y-142797359D01*
X165863557Y-142843210D01*
X165419804Y-143066954D01*
X164909932Y-143219450D01*
X164357373Y-143298187D01*
X163785561Y-143300651D01*
X163217928Y-143224331D01*
X162944393Y-143156246D01*
X162344454Y-142923427D01*
X161770831Y-142582195D01*
X161226877Y-142134666D01*
X161052940Y-141962450D01*
X160823174Y-141706459D01*
X160614609Y-141430683D01*
X160413627Y-141113514D01*
X160206609Y-140733346D01*
X159979936Y-140268569D01*
X159964420Y-140235392D01*
X159631031Y-139521001D01*
X156635182Y-139504167D01*
X153639334Y-139487334D01*
X153374911Y-139331894D01*
X153099696Y-139126616D01*
X152924693Y-138886758D01*
X152838708Y-138595990D01*
X152832095Y-138539879D01*
X152845621Y-138244768D01*
X152942240Y-138004316D01*
X153114658Y-137835119D01*
X153150757Y-137814751D01*
X153207374Y-137796297D01*
X153305714Y-137780528D01*
X153454373Y-137767167D01*
X153661944Y-137755939D01*
X153937023Y-137746570D01*
X154288204Y-137738783D01*
X154724081Y-137732305D01*
X155253249Y-137726860D01*
X155884303Y-137722172D01*
X156080556Y-137720957D01*
X156628741Y-137717130D01*
X157141071Y-137712483D01*
X157606779Y-137707189D01*
X158015098Y-137701421D01*
X158355258Y-137695352D01*
X158616493Y-137689157D01*
X158788033Y-137683008D01*
X158859112Y-137677079D01*
X158860445Y-137676197D01*
X158840005Y-137619305D01*
X158781773Y-137469418D01*
X158690380Y-137238157D01*
X158570457Y-136937142D01*
X158521522Y-136814942D01*
X153226312Y-136814942D01*
X153179862Y-137074308D01*
X153039520Y-137277541D01*
X152815602Y-137409814D01*
X152670029Y-137438688D01*
X152434647Y-137460159D01*
X152132284Y-137474327D01*
X151785773Y-137481288D01*
X151417942Y-137481140D01*
X151051621Y-137473981D01*
X150709641Y-137459908D01*
X150414832Y-137439020D01*
X150190023Y-137411414D01*
X150123890Y-137398295D01*
X149754453Y-137288589D01*
X149446937Y-137138959D01*
X149151265Y-136923630D01*
X149076223Y-136859065D01*
X148786217Y-136560942D01*
X148582996Y-136243748D01*
X148451203Y-135901526D01*
X148397231Y-135617352D01*
X147787934Y-135617352D01*
X147770906Y-135903312D01*
X147741439Y-136115407D01*
X147691490Y-136292576D01*
X147613014Y-136473758D01*
X147609543Y-136480873D01*
X147380143Y-136839357D01*
X147087823Y-137124089D01*
X146749241Y-137328672D01*
X146381054Y-137446710D01*
X145999917Y-137471804D01*
X145622489Y-137397558D01*
X145432298Y-137317095D01*
X145197745Y-137197435D01*
X145288421Y-137411051D01*
X145330672Y-137513008D01*
X145409628Y-137705889D01*
X145519701Y-137975953D01*
X145655302Y-138309458D01*
X145810841Y-138692661D01*
X145980731Y-139111821D01*
X146121321Y-139459111D01*
X146319745Y-139950715D01*
X146479431Y-140350359D01*
X146604564Y-140670495D01*
X146699331Y-140923575D01*
X146767916Y-141122049D01*
X146814505Y-141278368D01*
X146843285Y-141404983D01*
X146858439Y-141514347D01*
X146864155Y-141618908D01*
X146864774Y-141670699D01*
X146860449Y-141881698D01*
X146837812Y-142019451D01*
X146784914Y-142123425D01*
X146696667Y-142225890D01*
X146569322Y-142350308D01*
X146442981Y-142445093D01*
X146300407Y-142513945D01*
X146124363Y-142560564D01*
X145897611Y-142588651D01*
X145602913Y-142601904D01*
X145223032Y-142604026D01*
X144946889Y-142601493D01*
X144591244Y-142596153D01*
X144327560Y-142588383D01*
X144134909Y-142575619D01*
X143992363Y-142555297D01*
X143878993Y-142524850D01*
X143773873Y-142481715D01*
X143708045Y-142449677D01*
X143449706Y-142289426D01*
X143289057Y-142106903D01*
X143210897Y-141879484D01*
X143197111Y-141689075D01*
X143225797Y-141447031D01*
X143318053Y-141261877D01*
X143483178Y-141128282D01*
X143730469Y-141040914D01*
X144069224Y-140994443D01*
X144428309Y-140983111D01*
X144903962Y-140983111D01*
X144314337Y-139529667D01*
X143959790Y-138655440D01*
X143645506Y-137879096D01*
X143369281Y-137193920D01*
X143128911Y-136593200D01*
X142937049Y-136107803D01*
X141626078Y-136107803D01*
X141558530Y-136483798D01*
X141396508Y-136823098D01*
X141149144Y-137110261D01*
X140825570Y-137329842D01*
X140572810Y-137430817D01*
X140466677Y-137446557D01*
X140272341Y-137460244D01*
X140014486Y-137470678D01*
X139717795Y-137476660D01*
X139612889Y-137477465D01*
X139277345Y-137476954D01*
X139031269Y-137470375D01*
X138851302Y-137455301D01*
X138714083Y-137429300D01*
X138596250Y-137389943D01*
X138540445Y-137365924D01*
X138361066Y-137272352D01*
X138207326Y-137171796D01*
X138164270Y-137136080D01*
X138042096Y-137021389D01*
X137978938Y-137139399D01*
X137889931Y-137238635D01*
X137744677Y-137342576D01*
X137694139Y-137370482D01*
X137596963Y-137413805D01*
X137488782Y-137444575D01*
X137348903Y-137464865D01*
X137156633Y-137476743D01*
X136891276Y-137482281D01*
X136563910Y-137483556D01*
X136232726Y-137479547D01*
X135921070Y-137468497D01*
X135655506Y-137451871D01*
X135462593Y-137431136D01*
X135400341Y-137419350D01*
X135139385Y-137309975D01*
X134928292Y-137138122D01*
X134774606Y-136924141D01*
X134685874Y-136688380D01*
X134677682Y-136568681D01*
X134376682Y-136568681D01*
X134366016Y-136691166D01*
X134334809Y-136799625D01*
X134290027Y-136897572D01*
X134170129Y-137083168D01*
X134016147Y-137227293D01*
X133814266Y-137334380D01*
X133550672Y-137408858D01*
X133211550Y-137455160D01*
X132783086Y-137477715D01*
X132468801Y-137481713D01*
X132035166Y-137477660D01*
X131700298Y-137462891D01*
X131450497Y-137436468D01*
X131281188Y-137400216D01*
X130994508Y-137268629D01*
X130776734Y-137075191D01*
X130637725Y-136838715D01*
X130587343Y-136578013D01*
X130635448Y-136311899D01*
X130670194Y-136234528D01*
X130767928Y-136100026D01*
X130911122Y-136004841D01*
X131116610Y-135943773D01*
X131401228Y-135911622D01*
X131743115Y-135903111D01*
X132020874Y-135899894D01*
X132199811Y-135889097D01*
X132293840Y-135869005D01*
X132316875Y-135837902D01*
X132315221Y-135832556D01*
X132050479Y-135173916D01*
X131825655Y-134611290D01*
X131700472Y-134294793D01*
X130356665Y-134294793D01*
X130342808Y-134431003D01*
X130298914Y-134543268D01*
X130267907Y-134592652D01*
X130082737Y-134762633D01*
X129824633Y-134863270D01*
X129596966Y-134887111D01*
X129364234Y-134849360D01*
X129157924Y-134730271D01*
X128969207Y-134521086D01*
X128789250Y-134213052D01*
X128683727Y-133981682D01*
X128469601Y-133476000D01*
X128107667Y-133476000D01*
X127910735Y-133480779D01*
X127810418Y-133497560D01*
X127790754Y-133530012D01*
X127800590Y-133546556D01*
X127859395Y-133622254D01*
X127967021Y-133760852D01*
X128103063Y-133936073D01*
X128143498Y-133988157D01*
X128451342Y-134428853D01*
X128663250Y-134840706D01*
X128785892Y-135241947D01*
X128825939Y-135650807D01*
X128819297Y-135835288D01*
X128739418Y-136276047D01*
X128573091Y-136668649D01*
X128330013Y-136998723D01*
X128019880Y-137251897D01*
X127784130Y-137369510D01*
X127665819Y-137409796D01*
X127534942Y-137439099D01*
X127371425Y-137459140D01*
X127155197Y-137471643D01*
X126866186Y-137478328D01*
X126485689Y-137480916D01*
X126049245Y-137478540D01*
X125710328Y-137468249D01*
X125453793Y-137449103D01*
X125264494Y-137420162D01*
X125185188Y-137400216D01*
X124898508Y-137268629D01*
X124680734Y-137075191D01*
X124541725Y-136838715D01*
X124491343Y-136578013D01*
X124539448Y-136311899D01*
X124574194Y-136234528D01*
X124664856Y-136106038D01*
X124794867Y-136013621D01*
X124981129Y-135952347D01*
X125240545Y-135917288D01*
X125590017Y-135903514D01*
X125711632Y-135902796D01*
X126103999Y-135895453D01*
X126401248Y-135871355D01*
X126620394Y-135826764D01*
X126778453Y-135757944D01*
X126892444Y-135661157D01*
X126910322Y-135639555D01*
X127009280Y-135438950D01*
X127017064Y-135200686D01*
X126962076Y-135019390D01*
X124134821Y-135019390D01*
X124125356Y-135594385D01*
X124034820Y-136091144D01*
X123862534Y-136510682D01*
X123607820Y-136854015D01*
X123270002Y-137122158D01*
X122848401Y-137316125D01*
X122545864Y-137399312D01*
X122370005Y-137424341D01*
X122106203Y-137444970D01*
X121775081Y-137461075D01*
X121397264Y-137472532D01*
X120993372Y-137479217D01*
X120584031Y-137481008D01*
X120189862Y-137477780D01*
X119831489Y-137469410D01*
X119529534Y-137455774D01*
X119304622Y-137436750D01*
X119200785Y-137419350D01*
X118938142Y-137310494D01*
X118728265Y-137141527D01*
X118576860Y-136931954D01*
X118489629Y-136701280D01*
X118472278Y-136469011D01*
X118530509Y-136254651D01*
X118670028Y-136077705D01*
X118786290Y-136001977D01*
X118864260Y-135969360D01*
X118961849Y-135944671D01*
X119094795Y-135926855D01*
X119278838Y-135914855D01*
X119529718Y-135907617D01*
X119863174Y-135904084D01*
X120258852Y-135903199D01*
X120778167Y-135900535D01*
X121197061Y-135891570D01*
X121527901Y-135874723D01*
X121783055Y-135848412D01*
X121974892Y-135811058D01*
X122115779Y-135761081D01*
X122218085Y-135696899D01*
X122270334Y-135646156D01*
X122358286Y-135539487D01*
X122400252Y-135460773D01*
X122385342Y-135405765D01*
X122302668Y-135370210D01*
X122141341Y-135349860D01*
X121890475Y-135340464D01*
X121539179Y-135337772D01*
X121480111Y-135337687D01*
X120966220Y-135329454D01*
X120547285Y-135303885D01*
X120206273Y-135257862D01*
X119926149Y-135188263D01*
X119689879Y-135091969D01*
X119568285Y-135019390D01*
X118149624Y-135019390D01*
X118141950Y-135593267D01*
X118052433Y-136089634D01*
X117880536Y-136509298D01*
X117625721Y-136853064D01*
X117287450Y-137121740D01*
X116865187Y-137316130D01*
X116562753Y-137399312D01*
X116386893Y-137424341D01*
X116123092Y-137444970D01*
X115791970Y-137461075D01*
X115414152Y-137472532D01*
X115010261Y-137479217D01*
X114600920Y-137481008D01*
X114206751Y-137477780D01*
X113848378Y-137469410D01*
X113546423Y-137455774D01*
X113321511Y-137436750D01*
X113217674Y-137419350D01*
X112933645Y-137299054D01*
X112710279Y-137108130D01*
X112560461Y-136867300D01*
X112497075Y-136597285D01*
X112533004Y-136318806D01*
X112533130Y-136318419D01*
X112580148Y-136196834D01*
X112641383Y-136101477D01*
X112730068Y-136029194D01*
X112859434Y-135976833D01*
X113042715Y-135941240D01*
X113293141Y-135919263D01*
X113623946Y-135907750D01*
X114048362Y-135903546D01*
X114275741Y-135903199D01*
X114795056Y-135900535D01*
X115213950Y-135891570D01*
X115544790Y-135874723D01*
X115799944Y-135848412D01*
X115991781Y-135811058D01*
X116132668Y-135761081D01*
X116234974Y-135696899D01*
X116287222Y-135646156D01*
X116375175Y-135539487D01*
X116417141Y-135460773D01*
X116402231Y-135405765D01*
X116319556Y-135370210D01*
X116158230Y-135349860D01*
X115907364Y-135340464D01*
X115556068Y-135337772D01*
X115497000Y-135337687D01*
X115006237Y-135329502D01*
X114594927Y-135306664D01*
X114276877Y-135270064D01*
X114185360Y-135253161D01*
X113750997Y-135110518D01*
X113391294Y-134888353D01*
X113112406Y-134596869D01*
X112920486Y-134246272D01*
X112821691Y-133846767D01*
X112822176Y-133408558D01*
X112882515Y-133093071D01*
X113041276Y-132709558D01*
X113294259Y-132377871D01*
X113630786Y-132108124D01*
X114040178Y-131910434D01*
X114177869Y-131866037D01*
X114465812Y-131812791D01*
X114820393Y-131790972D01*
X115200213Y-131799272D01*
X115563874Y-131836378D01*
X115869975Y-131900982D01*
X115933568Y-131921601D01*
X116439551Y-132160607D01*
X116910001Y-132500734D01*
X117333905Y-132932909D01*
X117606576Y-133299707D01*
X117852802Y-133731373D01*
X118019439Y-134172463D01*
X118117330Y-134657319D01*
X118149624Y-135019390D01*
X119568285Y-135019390D01*
X119491138Y-134973342D01*
X119190450Y-134715461D01*
X118981007Y-134413212D01*
X118865404Y-134120699D01*
X118790190Y-133689044D01*
X118819134Y-133261317D01*
X118948811Y-132858100D01*
X119124422Y-132564812D01*
X119415250Y-132248644D01*
X119753193Y-132018336D01*
X120149112Y-131869611D01*
X120613869Y-131798196D01*
X121079169Y-131795458D01*
X121494665Y-131831472D01*
X121840262Y-131904014D01*
X122156428Y-132025875D01*
X122483628Y-132209844D01*
X122572531Y-132267461D01*
X123069191Y-132660493D01*
X123476125Y-133120064D01*
X123789561Y-133639529D01*
X124005726Y-134212246D01*
X124120850Y-134831569D01*
X124134821Y-135019390D01*
X126962076Y-135019390D01*
X126932154Y-134920739D01*
X126753034Y-134595085D01*
X126478183Y-134219700D01*
X126290101Y-133995673D01*
X126102498Y-133782152D01*
X125967318Y-133638444D01*
X125862940Y-133549148D01*
X125767746Y-133498859D01*
X125660116Y-133472176D01*
X125531518Y-133455235D01*
X125210522Y-133388069D01*
X124942860Y-133274129D01*
X124751548Y-133124868D01*
X124689336Y-133036051D01*
X124582768Y-132742646D01*
X124567067Y-132467328D01*
X124638334Y-132228085D01*
X124792671Y-132042909D01*
X124921191Y-131966265D01*
X125015569Y-131933578D01*
X125144150Y-131907496D01*
X125321917Y-131886770D01*
X125563855Y-131870152D01*
X125884945Y-131856393D01*
X126300173Y-131844245D01*
X126421181Y-131841296D01*
X126852824Y-131830235D01*
X127184699Y-131818338D01*
X127429912Y-131803073D01*
X127601571Y-131781910D01*
X127712785Y-131752317D01*
X127776659Y-131711765D01*
X127806302Y-131657721D01*
X127814821Y-131587656D01*
X127815136Y-131572142D01*
X127852115Y-131400470D01*
X127942123Y-131209527D01*
X128059249Y-131045305D01*
X128158860Y-130962054D01*
X128409930Y-130884820D01*
X128675971Y-130888530D01*
X128915374Y-130969931D01*
X128999478Y-131027767D01*
X129072929Y-131094150D01*
X129140034Y-131169276D01*
X129207066Y-131265812D01*
X129280300Y-131396427D01*
X129366008Y-131573790D01*
X129470464Y-131810569D01*
X129599942Y-132119432D01*
X129760715Y-132513047D01*
X129875184Y-132796093D01*
X130054461Y-133248517D01*
X130189384Y-133611500D01*
X130282816Y-133898141D01*
X130337622Y-134121539D01*
X130356665Y-134294793D01*
X131700472Y-134294793D01*
X131637771Y-134136269D01*
X131483850Y-133740447D01*
X131360913Y-133415416D01*
X131265983Y-133152767D01*
X131196082Y-132944093D01*
X131148232Y-132780986D01*
X131119455Y-132655038D01*
X131106773Y-132557842D01*
X131107209Y-132480990D01*
X131113051Y-132438306D01*
X131202169Y-132233147D01*
X131370954Y-132049045D01*
X131586794Y-131918781D01*
X131652540Y-131896038D01*
X131874972Y-131874167D01*
X132135066Y-131908660D01*
X132378822Y-131989986D01*
X132470419Y-132040384D01*
X132549088Y-132101254D01*
X132627287Y-132184991D01*
X132710009Y-132301656D01*
X132802245Y-132461308D01*
X132908990Y-132674010D01*
X133035235Y-132949822D01*
X133185974Y-133298805D01*
X133366198Y-133731020D01*
X133580901Y-134256527D01*
X133628816Y-134374689D01*
X133844396Y-134909979D01*
X134018821Y-135352587D01*
X134155035Y-135713750D01*
X134255983Y-136004705D01*
X134324610Y-136236687D01*
X134363861Y-136420933D01*
X134376682Y-136568681D01*
X134677682Y-136568681D01*
X134669639Y-136451188D01*
X134733448Y-136232914D01*
X134884845Y-136053905D01*
X134892021Y-136048454D01*
X134981639Y-135994530D01*
X135096832Y-135956841D01*
X135261874Y-135930960D01*
X135501039Y-135912462D01*
X135689180Y-135903111D01*
X135947658Y-135888653D01*
X136163351Y-135870815D01*
X136312012Y-135851983D01*
X136368278Y-135836337D01*
X136357943Y-135776095D01*
X136309683Y-135624997D01*
X136228480Y-135396604D01*
X136119315Y-135104477D01*
X135987168Y-134762178D01*
X135837021Y-134383267D01*
X135808514Y-134312337D01*
X135613141Y-133822652D01*
X135459739Y-133424397D01*
X135345535Y-133105355D01*
X135267758Y-132853314D01*
X135223636Y-132656059D01*
X135210395Y-132501376D01*
X135225265Y-132377049D01*
X135265472Y-132270865D01*
X135323825Y-132176776D01*
X135511250Y-132003322D01*
X135759005Y-131897162D01*
X136028401Y-131871368D01*
X136162084Y-131893484D01*
X136439311Y-132020003D01*
X136699662Y-132234866D01*
X136914657Y-132514122D01*
X136928911Y-132538297D01*
X136987600Y-132655535D01*
X137080397Y-132859930D01*
X137199655Y-133133757D01*
X137337729Y-133459291D01*
X137486972Y-133818805D01*
X137586922Y-134063732D01*
X137774023Y-134520062D01*
X137929959Y-134882976D01*
X138063202Y-135164758D01*
X138182223Y-135377694D01*
X138295493Y-135534068D01*
X138411484Y-135646166D01*
X138538667Y-135726272D01*
X138685514Y-135786672D01*
X138799634Y-135822382D01*
X139093104Y-135879157D01*
X139338722Y-135871189D01*
X139522648Y-135803817D01*
X139631042Y-135682385D01*
X139650064Y-135512232D01*
X139647043Y-135495324D01*
X139615016Y-135388347D01*
X139547787Y-135199003D01*
X139453525Y-134949147D01*
X139340403Y-134660638D01*
X139265403Y-134474452D01*
X139056190Y-133958658D01*
X138887271Y-133535804D01*
X138755605Y-133194590D01*
X138658149Y-132923716D01*
X138591863Y-132711882D01*
X138553707Y-132547787D01*
X138540639Y-132420132D01*
X138549618Y-132317616D01*
X138577603Y-132228940D01*
X138621554Y-132142803D01*
X138632762Y-132123582D01*
X138812596Y-131923979D01*
X139064556Y-131810660D01*
X139316918Y-131782667D01*
X139594235Y-131822705D01*
X139841157Y-131950010D01*
X140076220Y-132175367D01*
X140149986Y-132267354D01*
X140217098Y-132380258D01*
X140317541Y-132581571D01*
X140444209Y-132854305D01*
X140589997Y-133181471D01*
X140747800Y-133546080D01*
X140910512Y-133931143D01*
X141071029Y-134319672D01*
X141222245Y-134694676D01*
X141357055Y-135039168D01*
X141468353Y-135336158D01*
X141549036Y-135568658D01*
X141590018Y-135710560D01*
X141626078Y-136107803D01*
X142937049Y-136107803D01*
X142922193Y-136070219D01*
X142746923Y-135618266D01*
X142600897Y-135230624D01*
X142481911Y-134900581D01*
X142387763Y-134621422D01*
X142316248Y-134386434D01*
X142265162Y-134188901D01*
X142232302Y-134022111D01*
X142215464Y-133879349D01*
X142212444Y-133753900D01*
X142221039Y-133639052D01*
X142239045Y-133528089D01*
X142264257Y-133414298D01*
X142282542Y-133339384D01*
X142445970Y-132893758D01*
X142695881Y-132516813D01*
X143025964Y-132212941D01*
X143429906Y-131986536D01*
X143901395Y-131841991D01*
X144434118Y-131783700D01*
X144519257Y-131782667D01*
X145031474Y-131816084D01*
X145484741Y-131922727D01*
X145901072Y-132112180D01*
X146302481Y-132394027D01*
X146642011Y-132706941D01*
X147067874Y-133214550D01*
X147400046Y-133776031D01*
X147633681Y-134379073D01*
X147763932Y-135011367D01*
X147787934Y-135617352D01*
X148397231Y-135617352D01*
X148372816Y-135488805D01*
X148383334Y-135066206D01*
X148485338Y-134624829D01*
X148681409Y-134155775D01*
X148974126Y-133650143D01*
X149198851Y-133323250D01*
X149405885Y-133030747D01*
X149552637Y-132799696D01*
X149648856Y-132603008D01*
X149704291Y-132413594D01*
X149728691Y-132204366D01*
X149731805Y-131948234D01*
X149729802Y-131847929D01*
X149715742Y-131264081D01*
X149914891Y-131064932D01*
X150038011Y-130950497D01*
X150140551Y-130894830D01*
X150269784Y-130881883D01*
X150425467Y-130891609D01*
X150577588Y-130911790D01*
X150711203Y-130952081D01*
X150834624Y-131022937D01*
X150956161Y-131134812D01*
X151084126Y-131298162D01*
X151226831Y-131523442D01*
X151392586Y-131821108D01*
X151589703Y-132201614D01*
X151798369Y-132618651D01*
X152023543Y-133076905D01*
X152199257Y-133447611D01*
X152328694Y-133743083D01*
X152415043Y-133975634D01*
X152461488Y-134157577D01*
X152471217Y-134301224D01*
X152447414Y-134418889D01*
X152393268Y-134522885D01*
X152316377Y-134620515D01*
X152077926Y-134823389D01*
X151821239Y-134920448D01*
X151557891Y-134914763D01*
X151299456Y-134809401D01*
X151057506Y-134607430D01*
X150843616Y-134311920D01*
X150792126Y-134216389D01*
X150633409Y-133902508D01*
X150391555Y-134380699D01*
X150229543Y-134748384D01*
X150150426Y-135052594D01*
X150152716Y-135304839D01*
X150234923Y-135516632D01*
X150242946Y-135529195D01*
X150333249Y-135639142D01*
X150452454Y-135723847D01*
X150616479Y-135787460D01*
X150841243Y-135834129D01*
X151142664Y-135868003D01*
X151536659Y-135893230D01*
X151662416Y-135899162D01*
X152061888Y-135920863D01*
X152361062Y-135946508D01*
X152572504Y-135977610D01*
X152708778Y-136015680D01*
X152736356Y-136028410D01*
X152994867Y-136220476D01*
X153159191Y-136473016D01*
X153225239Y-136779465D01*
X153226312Y-136814942D01*
X158521522Y-136814942D01*
X158426634Y-136577992D01*
X158263545Y-136172329D01*
X158085818Y-135731771D01*
X158062837Y-135674907D01*
X157265228Y-133701778D01*
X156367255Y-133701778D01*
X156015948Y-133700076D01*
X155756991Y-133693640D01*
X155569881Y-133680475D01*
X155434112Y-133658587D01*
X155329179Y-133625982D01*
X155259863Y-133594058D01*
X154969210Y-133395206D01*
X154763973Y-133149822D01*
X154650935Y-132873730D01*
X154636873Y-132582757D01*
X154714498Y-132321129D01*
X154789336Y-132196945D01*
X154890538Y-132105718D01*
X155036231Y-132041445D01*
X155244543Y-131998122D01*
X155533602Y-131969745D01*
X155821981Y-131954328D01*
X156537073Y-131923778D01*
X155986707Y-130569111D01*
X155977471Y-130546376D01*
X132388000Y-130546376D01*
X132338248Y-130869876D01*
X132200700Y-131142275D01*
X131992920Y-131353013D01*
X131732473Y-131491528D01*
X131436920Y-131547258D01*
X131123827Y-131509642D01*
X130918749Y-131429889D01*
X130654486Y-131240954D01*
X130474884Y-130997437D01*
X130380230Y-130719751D01*
X130370808Y-130428311D01*
X130446906Y-130143531D01*
X130608809Y-129885827D01*
X130856801Y-129675612D01*
X130893892Y-129653677D01*
X131194893Y-129540691D01*
X131496727Y-129528224D01*
X131781353Y-129605496D01*
X132030726Y-129761725D01*
X132226802Y-129986132D01*
X132351540Y-130267936D01*
X132388000Y-130546376D01*
X155977471Y-130546376D01*
X155436342Y-129214445D01*
X153545802Y-129186222D01*
X151655261Y-129158000D01*
X151426469Y-129006502D01*
X151210981Y-128809520D01*
X151056839Y-128559552D01*
X150973850Y-128285569D01*
X150971822Y-128016541D01*
X151029737Y-127834646D01*
X151124536Y-127715231D01*
X151268260Y-127598521D01*
X151297016Y-127580646D01*
X151348461Y-127552575D01*
X151405475Y-127529438D01*
X151478830Y-127510759D01*
X151579301Y-127496062D01*
X151717664Y-127484870D01*
X151904692Y-127476707D01*
X152151160Y-127471097D01*
X152467842Y-127467564D01*
X152865514Y-127465633D01*
X153354950Y-127464825D01*
X153921556Y-127464667D01*
X154546262Y-127464777D01*
X155068365Y-127466174D01*
X155498147Y-127470462D01*
X155845894Y-127479242D01*
X156121889Y-127494118D01*
X156336417Y-127516692D01*
X156499761Y-127548565D01*
X156622207Y-127591342D01*
X156714039Y-127646623D01*
X156785540Y-127716012D01*
X156846995Y-127801112D01*
X156908688Y-127903524D01*
X156925804Y-127932788D01*
X156982248Y-128044496D01*
X157075179Y-128246825D01*
X157198556Y-128525826D01*
X157346337Y-128867550D01*
X157512481Y-129258047D01*
X157690945Y-129683366D01*
X157845494Y-130056221D01*
X158615231Y-131923778D01*
X159125249Y-131960004D01*
X159426855Y-131988335D01*
X159646962Y-132030400D01*
X159816922Y-132096991D01*
X159968086Y-132198900D01*
X160064928Y-132283452D01*
X160260357Y-132513456D01*
X160361204Y-132768792D01*
X160384445Y-133020751D01*
X160370358Y-133220704D01*
X160315222Y-133365596D01*
X160223502Y-133485012D01*
X160117106Y-133588658D01*
X160005392Y-133647614D01*
X159847002Y-133678499D01*
X159712159Y-133690484D01*
X159519622Y-133709000D01*
X159418807Y-133734252D01*
X159388550Y-133774060D01*
X159395240Y-133807582D01*
X159423537Y-133879539D01*
X159489261Y-134043753D01*
X159587430Y-134287863D01*
X159713061Y-134599507D01*
X159861170Y-134966323D01*
X160026774Y-135375948D01*
X160200156Y-135804334D01*
X160971591Y-137709334D01*
X162244351Y-137709381D01*
X163001724Y-137717272D01*
X163657634Y-137742581D01*
X164222523Y-137787848D01*
X164706833Y-137855616D01*
X165121005Y-137948425D01*
X165475480Y-138068818D01*
X165780702Y-138219336D01*
X166047110Y-138402521D01*
X166285147Y-138620915D01*
X166370360Y-138713693D01*
X166687312Y-139151784D01*
X166908821Y-139626743D01*
X167036620Y-140124448D01*
X167072443Y-140630773D01*
X168738222Y-140630773D01*
X168738222Y-126533334D01*
X110261778Y-126533334D01*
X110261778Y-143466667D01*
G04 #@! TD*
D11*
G04 #@! TO.P,U1,4*
G04 #@! TO.N,Net-(D1-Pad1)*
X92250000Y-121000000D03*
G04 #@! TO.P,U1,3*
G04 #@! TO.N,Net-(D1-Pad2)*
X107750000Y-121000000D03*
G04 #@! TO.P,U1,2*
G04 #@! TO.N,+12V*
X107750000Y-149000000D03*
G04 #@! TO.P,U1,1*
G04 #@! TO.N,GND*
X92250000Y-149000000D03*
G04 #@! TD*
G04 #@! TO.P,U2,1*
G04 #@! TO.N,GND*
X112250000Y-151500000D03*
G04 #@! TO.P,U2,2*
G04 #@! TO.N,+12V*
X127750000Y-151500000D03*
G04 #@! TO.P,U2,3*
G04 #@! TO.N,Net-(D2-Pad2)*
X127750000Y-123500000D03*
G04 #@! TO.P,U2,4*
G04 #@! TO.N,Net-(D2-Pad1)*
X112250000Y-123500000D03*
G04 #@! TD*
G04 #@! TO.P,U3,4*
G04 #@! TO.N,Net-(D3-Pad1)*
X132250000Y-121000000D03*
G04 #@! TO.P,U3,3*
G04 #@! TO.N,Net-(D3-Pad2)*
X147750000Y-121000000D03*
G04 #@! TO.P,U3,2*
G04 #@! TO.N,+12V*
X147750000Y-149000000D03*
G04 #@! TO.P,U3,1*
G04 #@! TO.N,GND*
X132250000Y-149000000D03*
G04 #@! TD*
G04 #@! TO.P,U4,1*
G04 #@! TO.N,GND*
X152250000Y-151500000D03*
G04 #@! TO.P,U4,2*
G04 #@! TO.N,+12V*
X167750000Y-151500000D03*
G04 #@! TO.P,U4,3*
G04 #@! TO.N,Net-(D4-Pad2)*
X167750000Y-123500000D03*
G04 #@! TO.P,U4,4*
G04 #@! TO.N,Net-(D4-Pad1)*
X152250000Y-123500000D03*
G04 #@! TD*
D12*
G04 #@! TO.P,F1,1*
G04 #@! TO.N,+12V*
X179500000Y-117500000D03*
G04 #@! TO.P,F1,2*
G04 #@! TO.N,Net-(F1-Pad2)*
X179500000Y-95500000D03*
G04 #@! TD*
D13*
G04 #@! TO.P,J1,3*
G04 #@! TO.N,N/C*
X101000000Y-109700000D03*
G04 #@! TO.P,J1,2*
G04 #@! TO.N,GND*
X98000000Y-105000000D03*
G04 #@! TO.P,J1,1*
G04 #@! TO.N,Net-(F1-Pad2)*
X104000000Y-105000000D03*
G04 #@! TD*
D11*
G04 #@! TO.P,U5,4*
G04 #@! TO.N,Net-(D5-Pad1)*
X171750000Y-121000000D03*
G04 #@! TO.P,U5,3*
G04 #@! TO.N,Net-(D5-Pad2)*
X187250000Y-121000000D03*
G04 #@! TO.P,U5,2*
G04 #@! TO.N,+12V*
X187250000Y-149000000D03*
G04 #@! TO.P,U5,1*
G04 #@! TO.N,GND*
X171750000Y-149000000D03*
G04 #@! TD*
D14*
G04 #@! TO.P,MNT1,1*
G04 #@! TO.N,GND*
X100500000Y-152000000D03*
G04 #@! TD*
G04 #@! TO.P,MNT2,1*
G04 #@! TO.N,GND*
X180000000Y-152000000D03*
G04 #@! TD*
G04 #@! TO.P,MNT3,1*
G04 #@! TO.N,GND*
X158000000Y-58500000D03*
G04 #@! TD*
G04 #@! TO.P,MNT4,1*
G04 #@! TO.N,GND*
X120500000Y-58500000D03*
G04 #@! TD*
D15*
G04 #@! TO.P,G\002A\002A\002A,1*
G04 #@! TO.N,N/C*
X113000000Y-128000000D03*
G04 #@! TD*
D16*
G04 #@! TO.N,Net-(D1-Pad2)*
X100500000Y-95000000D03*
X97000000Y-85500000D03*
X103000000Y-95000000D03*
X102000000Y-95000000D03*
X97000000Y-86500000D03*
X97000000Y-87500000D03*
G04 #@! TO.N,Net-(D2-Pad1)*
X123500000Y-82000000D03*
X122500000Y-82000000D03*
X121500000Y-82000000D03*
G04 #@! TD*
D17*
G04 #@! TO.N,Net-(D1-Pad2)*
X100500000Y-95000000D02*
X100500000Y-92000000D01*
X100500000Y-92000000D02*
X97000000Y-88500000D01*
X97000000Y-88500000D02*
X97000000Y-87500000D01*
X97000000Y-86500000D02*
X97000000Y-85500000D01*
X97000000Y-87500000D02*
X97000000Y-86500000D01*
X103000000Y-95000000D02*
X100500000Y-95000000D01*
G04 #@! TO.N,Net-(D2-Pad1)*
X112250000Y-122085787D02*
X112500000Y-121835787D01*
X112250000Y-123500000D02*
X112250000Y-122085787D01*
X112500000Y-121835787D02*
X112500000Y-117500000D01*
X112500000Y-117500000D02*
X108500000Y-113500000D01*
X108500000Y-113500000D02*
X108500000Y-90500000D01*
X108500000Y-90500000D02*
X112000000Y-87000000D01*
X112000000Y-87000000D02*
X117000000Y-82000000D01*
X117000000Y-82000000D02*
X121500000Y-82000000D01*
X123500000Y-82000000D02*
X123500000Y-82000000D01*
X122500000Y-82000000D02*
X123500000Y-82000000D01*
X121500000Y-82000000D02*
X122500000Y-82000000D01*
G04 #@! TD*
D18*
G04 #@! TO.N,GND*
G36*
X118725421Y-55841436D02*
X118443725Y-56264120D01*
X120500000Y-58320395D01*
X122556275Y-56264120D01*
X122274579Y-55841436D01*
X121956839Y-55710000D01*
X156542736Y-55710000D01*
X156225421Y-55841436D01*
X155943725Y-56264120D01*
X158000000Y-58320395D01*
X160056275Y-56264120D01*
X159774579Y-55841436D01*
X159456839Y-55710000D01*
X189290001Y-55710000D01*
X189290000Y-154290000D01*
X182020207Y-154290000D01*
X182056275Y-154235880D01*
X180000000Y-152179605D01*
X177943725Y-154235880D01*
X177979793Y-154290000D01*
X102520207Y-154290000D01*
X102556275Y-154235880D01*
X100500000Y-152179605D01*
X98443725Y-154235880D01*
X98479793Y-154290000D01*
X90710000Y-154290000D01*
X90710000Y-151377892D01*
X97364706Y-151377892D01*
X97365295Y-152625072D01*
X97841436Y-153774579D01*
X98264120Y-154056275D01*
X100320395Y-152000000D01*
X100679605Y-152000000D01*
X102735880Y-154056275D01*
X103158564Y-153774579D01*
X103622708Y-152652532D01*
X111277073Y-152652532D01*
X111375736Y-152919387D01*
X111985461Y-153145908D01*
X112635460Y-153121856D01*
X113124264Y-152919387D01*
X113222927Y-152652532D01*
X112250000Y-151679605D01*
X111277073Y-152652532D01*
X103622708Y-152652532D01*
X103635294Y-152622108D01*
X103634705Y-151374928D01*
X103576936Y-151235461D01*
X110604092Y-151235461D01*
X110628144Y-151885460D01*
X110830613Y-152374264D01*
X111097468Y-152472927D01*
X112070395Y-151500000D01*
X112429605Y-151500000D01*
X113402532Y-152472927D01*
X113669387Y-152374264D01*
X113895908Y-151764539D01*
X113874085Y-151174778D01*
X126115000Y-151174778D01*
X126115000Y-151825222D01*
X126363914Y-152426153D01*
X126823847Y-152886086D01*
X127424778Y-153135000D01*
X128075222Y-153135000D01*
X128676153Y-152886086D01*
X128909707Y-152652532D01*
X151277073Y-152652532D01*
X151375736Y-152919387D01*
X151985461Y-153145908D01*
X152635460Y-153121856D01*
X153124264Y-152919387D01*
X153222927Y-152652532D01*
X152250000Y-151679605D01*
X151277073Y-152652532D01*
X128909707Y-152652532D01*
X129136086Y-152426153D01*
X129385000Y-151825222D01*
X129385000Y-151235461D01*
X150604092Y-151235461D01*
X150628144Y-151885460D01*
X150830613Y-152374264D01*
X151097468Y-152472927D01*
X152070395Y-151500000D01*
X152429605Y-151500000D01*
X153402532Y-152472927D01*
X153669387Y-152374264D01*
X153895908Y-151764539D01*
X153874085Y-151174778D01*
X166115000Y-151174778D01*
X166115000Y-151825222D01*
X166363914Y-152426153D01*
X166823847Y-152886086D01*
X167424778Y-153135000D01*
X168075222Y-153135000D01*
X168676153Y-152886086D01*
X169136086Y-152426153D01*
X169385000Y-151825222D01*
X169385000Y-151377892D01*
X176864706Y-151377892D01*
X176865295Y-152625072D01*
X177341436Y-153774579D01*
X177764120Y-154056275D01*
X179820395Y-152000000D01*
X180179605Y-152000000D01*
X182235880Y-154056275D01*
X182658564Y-153774579D01*
X183135294Y-152622108D01*
X183134705Y-151374928D01*
X182658564Y-150225421D01*
X182235880Y-149943725D01*
X180179605Y-152000000D01*
X179820395Y-152000000D01*
X177764120Y-149943725D01*
X177341436Y-150225421D01*
X176864706Y-151377892D01*
X169385000Y-151377892D01*
X169385000Y-151174778D01*
X169136086Y-150573847D01*
X168714771Y-150152532D01*
X170777073Y-150152532D01*
X170875736Y-150419387D01*
X171485461Y-150645908D01*
X172135460Y-150621856D01*
X172624264Y-150419387D01*
X172722927Y-150152532D01*
X171750000Y-149179605D01*
X170777073Y-150152532D01*
X168714771Y-150152532D01*
X168676153Y-150113914D01*
X168075222Y-149865000D01*
X167424778Y-149865000D01*
X166823847Y-150113914D01*
X166363914Y-150573847D01*
X166115000Y-151174778D01*
X153874085Y-151174778D01*
X153871856Y-151114540D01*
X153669387Y-150625736D01*
X153402532Y-150527073D01*
X152429605Y-151500000D01*
X152070395Y-151500000D01*
X151097468Y-150527073D01*
X150830613Y-150625736D01*
X150604092Y-151235461D01*
X129385000Y-151235461D01*
X129385000Y-151174778D01*
X129136086Y-150573847D01*
X128714771Y-150152532D01*
X131277073Y-150152532D01*
X131375736Y-150419387D01*
X131985461Y-150645908D01*
X132635460Y-150621856D01*
X133124264Y-150419387D01*
X133222927Y-150152532D01*
X132250000Y-149179605D01*
X131277073Y-150152532D01*
X128714771Y-150152532D01*
X128676153Y-150113914D01*
X128075222Y-149865000D01*
X127424778Y-149865000D01*
X126823847Y-150113914D01*
X126363914Y-150573847D01*
X126115000Y-151174778D01*
X113874085Y-151174778D01*
X113871856Y-151114540D01*
X113669387Y-150625736D01*
X113402532Y-150527073D01*
X112429605Y-151500000D01*
X112070395Y-151500000D01*
X111097468Y-150527073D01*
X110830613Y-150625736D01*
X110604092Y-151235461D01*
X103576936Y-151235461D01*
X103158564Y-150225421D01*
X102735880Y-149943725D01*
X100679605Y-152000000D01*
X100320395Y-152000000D01*
X98264120Y-149943725D01*
X97841436Y-150225421D01*
X97364706Y-151377892D01*
X90710000Y-151377892D01*
X90710000Y-150152532D01*
X91277073Y-150152532D01*
X91375736Y-150419387D01*
X91985461Y-150645908D01*
X92635460Y-150621856D01*
X93124264Y-150419387D01*
X93222927Y-150152532D01*
X92250000Y-149179605D01*
X91277073Y-150152532D01*
X90710000Y-150152532D01*
X90710000Y-149583078D01*
X90830613Y-149874264D01*
X91097468Y-149972927D01*
X92070395Y-149000000D01*
X92429605Y-149000000D01*
X93402532Y-149972927D01*
X93669387Y-149874264D01*
X93710306Y-149764120D01*
X98443725Y-149764120D01*
X100500000Y-151820395D01*
X102556275Y-149764120D01*
X102274579Y-149341436D01*
X101122108Y-148864706D01*
X99874928Y-148865295D01*
X98725421Y-149341436D01*
X98443725Y-149764120D01*
X93710306Y-149764120D01*
X93895908Y-149264539D01*
X93874085Y-148674778D01*
X106115000Y-148674778D01*
X106115000Y-149325222D01*
X106363914Y-149926153D01*
X106823847Y-150386086D01*
X107424778Y-150635000D01*
X108075222Y-150635000D01*
X108676153Y-150386086D01*
X108714771Y-150347468D01*
X111277073Y-150347468D01*
X112250000Y-151320395D01*
X113222927Y-150347468D01*
X113124264Y-150080613D01*
X112514539Y-149854092D01*
X111864540Y-149878144D01*
X111375736Y-150080613D01*
X111277073Y-150347468D01*
X108714771Y-150347468D01*
X109136086Y-149926153D01*
X109385000Y-149325222D01*
X109385000Y-148735461D01*
X130604092Y-148735461D01*
X130628144Y-149385460D01*
X130830613Y-149874264D01*
X131097468Y-149972927D01*
X132070395Y-149000000D01*
X132429605Y-149000000D01*
X133402532Y-149972927D01*
X133669387Y-149874264D01*
X133895908Y-149264539D01*
X133874085Y-148674778D01*
X146115000Y-148674778D01*
X146115000Y-149325222D01*
X146363914Y-149926153D01*
X146823847Y-150386086D01*
X147424778Y-150635000D01*
X148075222Y-150635000D01*
X148676153Y-150386086D01*
X148714771Y-150347468D01*
X151277073Y-150347468D01*
X152250000Y-151320395D01*
X153222927Y-150347468D01*
X153124264Y-150080613D01*
X152514539Y-149854092D01*
X151864540Y-149878144D01*
X151375736Y-150080613D01*
X151277073Y-150347468D01*
X148714771Y-150347468D01*
X149136086Y-149926153D01*
X149385000Y-149325222D01*
X149385000Y-148735461D01*
X170104092Y-148735461D01*
X170128144Y-149385460D01*
X170330613Y-149874264D01*
X170597468Y-149972927D01*
X171570395Y-149000000D01*
X171929605Y-149000000D01*
X172902532Y-149972927D01*
X173169387Y-149874264D01*
X173210306Y-149764120D01*
X177943725Y-149764120D01*
X180000000Y-151820395D01*
X182056275Y-149764120D01*
X181774579Y-149341436D01*
X180622108Y-148864706D01*
X179374928Y-148865295D01*
X178225421Y-149341436D01*
X177943725Y-149764120D01*
X173210306Y-149764120D01*
X173395908Y-149264539D01*
X173374085Y-148674778D01*
X185615000Y-148674778D01*
X185615000Y-149325222D01*
X185863914Y-149926153D01*
X186323847Y-150386086D01*
X186924778Y-150635000D01*
X187575222Y-150635000D01*
X188176153Y-150386086D01*
X188636086Y-149926153D01*
X188885000Y-149325222D01*
X188885000Y-148674778D01*
X188636086Y-148073847D01*
X188176153Y-147613914D01*
X187575222Y-147365000D01*
X186924778Y-147365000D01*
X186323847Y-147613914D01*
X185863914Y-148073847D01*
X185615000Y-148674778D01*
X173374085Y-148674778D01*
X173371856Y-148614540D01*
X173169387Y-148125736D01*
X172902532Y-148027073D01*
X171929605Y-149000000D01*
X171570395Y-149000000D01*
X170597468Y-148027073D01*
X170330613Y-148125736D01*
X170104092Y-148735461D01*
X149385000Y-148735461D01*
X149385000Y-148674778D01*
X149136086Y-148073847D01*
X148909707Y-147847468D01*
X170777073Y-147847468D01*
X171750000Y-148820395D01*
X172722927Y-147847468D01*
X172624264Y-147580613D01*
X172014539Y-147354092D01*
X171364540Y-147378144D01*
X170875736Y-147580613D01*
X170777073Y-147847468D01*
X148909707Y-147847468D01*
X148676153Y-147613914D01*
X148075222Y-147365000D01*
X147424778Y-147365000D01*
X146823847Y-147613914D01*
X146363914Y-148073847D01*
X146115000Y-148674778D01*
X133874085Y-148674778D01*
X133871856Y-148614540D01*
X133669387Y-148125736D01*
X133402532Y-148027073D01*
X132429605Y-149000000D01*
X132070395Y-149000000D01*
X131097468Y-148027073D01*
X130830613Y-148125736D01*
X130604092Y-148735461D01*
X109385000Y-148735461D01*
X109385000Y-148674778D01*
X109136086Y-148073847D01*
X108909707Y-147847468D01*
X131277073Y-147847468D01*
X132250000Y-148820395D01*
X133222927Y-147847468D01*
X133124264Y-147580613D01*
X132514539Y-147354092D01*
X131864540Y-147378144D01*
X131375736Y-147580613D01*
X131277073Y-147847468D01*
X108909707Y-147847468D01*
X108676153Y-147613914D01*
X108075222Y-147365000D01*
X107424778Y-147365000D01*
X106823847Y-147613914D01*
X106363914Y-148073847D01*
X106115000Y-148674778D01*
X93874085Y-148674778D01*
X93871856Y-148614540D01*
X93669387Y-148125736D01*
X93402532Y-148027073D01*
X92429605Y-149000000D01*
X92070395Y-149000000D01*
X91097468Y-148027073D01*
X90830613Y-148125736D01*
X90710000Y-148450389D01*
X90710000Y-147847468D01*
X91277073Y-147847468D01*
X92250000Y-148820395D01*
X93222927Y-147847468D01*
X93124264Y-147580613D01*
X92514539Y-147354092D01*
X91864540Y-147378144D01*
X91375736Y-147580613D01*
X91277073Y-147847468D01*
X90710000Y-147847468D01*
X90710000Y-126533334D01*
X109621778Y-126533334D01*
X109621778Y-143466667D01*
X109670495Y-143711584D01*
X109809230Y-143919215D01*
X110016861Y-144057950D01*
X110261778Y-144106667D01*
X168738222Y-144106667D01*
X168983139Y-144057950D01*
X169190770Y-143919215D01*
X169329505Y-143711584D01*
X169378222Y-143466667D01*
X169378222Y-126533334D01*
X169329505Y-126288417D01*
X169190770Y-126080786D01*
X168983139Y-125942051D01*
X168738222Y-125893334D01*
X110261778Y-125893334D01*
X110016861Y-125942051D01*
X109809230Y-126080786D01*
X109670495Y-126288417D01*
X109621778Y-126533334D01*
X90710000Y-126533334D01*
X90710000Y-121554572D01*
X90863914Y-121926153D01*
X91323847Y-122386086D01*
X91924778Y-122635000D01*
X92575222Y-122635000D01*
X93176153Y-122386086D01*
X93636086Y-121926153D01*
X93885000Y-121325222D01*
X93885000Y-120674778D01*
X106115000Y-120674778D01*
X106115000Y-121325222D01*
X106363914Y-121926153D01*
X106823847Y-122386086D01*
X107424778Y-122635000D01*
X108075222Y-122635000D01*
X108676153Y-122386086D01*
X109136086Y-121926153D01*
X109385000Y-121325222D01*
X109385000Y-120674778D01*
X109136086Y-120073847D01*
X108676153Y-119613914D01*
X108075222Y-119365000D01*
X107424778Y-119365000D01*
X106823847Y-119613914D01*
X106363914Y-120073847D01*
X106115000Y-120674778D01*
X93885000Y-120674778D01*
X93636086Y-120073847D01*
X93176153Y-119613914D01*
X92575222Y-119365000D01*
X91924778Y-119365000D01*
X91323847Y-119613914D01*
X90863914Y-120073847D01*
X90710000Y-120445428D01*
X90710000Y-105285750D01*
X95615000Y-105285750D01*
X95615000Y-106876310D01*
X95711673Y-107109699D01*
X95890302Y-107288327D01*
X96123691Y-107385000D01*
X97714250Y-107385000D01*
X97873000Y-107226250D01*
X97873000Y-105127000D01*
X98127000Y-105127000D01*
X98127000Y-107226250D01*
X98285750Y-107385000D01*
X98952612Y-107385000D01*
X98792191Y-107492191D01*
X98651843Y-107702235D01*
X98602560Y-107950000D01*
X98602560Y-111450000D01*
X98651843Y-111697765D01*
X98792191Y-111907809D01*
X99002235Y-112048157D01*
X99250000Y-112097440D01*
X102750000Y-112097440D01*
X102997765Y-112048157D01*
X103207809Y-111907809D01*
X103348157Y-111697765D01*
X103397440Y-111450000D01*
X103397440Y-107950000D01*
X103348157Y-107702235D01*
X103207809Y-107492191D01*
X103066005Y-107397440D01*
X105750000Y-107397440D01*
X105997765Y-107348157D01*
X106207809Y-107207809D01*
X106348157Y-106997765D01*
X106397440Y-106750000D01*
X106397440Y-103250000D01*
X106348157Y-103002235D01*
X106207809Y-102792191D01*
X105997765Y-102651843D01*
X105750000Y-102602560D01*
X102250000Y-102602560D01*
X102002235Y-102651843D01*
X101792191Y-102792191D01*
X101651843Y-103002235D01*
X101602560Y-103250000D01*
X101602560Y-106750000D01*
X101651843Y-106997765D01*
X101792191Y-107207809D01*
X101933995Y-107302560D01*
X100075337Y-107302560D01*
X100109698Y-107288327D01*
X100288327Y-107109699D01*
X100385000Y-106876310D01*
X100385000Y-105285750D01*
X100226250Y-105127000D01*
X98127000Y-105127000D01*
X97873000Y-105127000D01*
X95773750Y-105127000D01*
X95615000Y-105285750D01*
X90710000Y-105285750D01*
X90710000Y-103123690D01*
X95615000Y-103123690D01*
X95615000Y-104714250D01*
X95773750Y-104873000D01*
X97873000Y-104873000D01*
X97873000Y-102773750D01*
X98127000Y-102773750D01*
X98127000Y-104873000D01*
X100226250Y-104873000D01*
X100385000Y-104714250D01*
X100385000Y-103123690D01*
X100288327Y-102890301D01*
X100109698Y-102711673D01*
X99876309Y-102615000D01*
X98285750Y-102615000D01*
X98127000Y-102773750D01*
X97873000Y-102773750D01*
X97714250Y-102615000D01*
X96123691Y-102615000D01*
X95890302Y-102711673D01*
X95711673Y-102890301D01*
X95615000Y-103123690D01*
X90710000Y-103123690D01*
X90710000Y-88500000D01*
X95842765Y-88500000D01*
X95865000Y-88611782D01*
X95930854Y-88942854D01*
X96181711Y-89318289D01*
X96276482Y-89381613D01*
X99365001Y-92470134D01*
X99365000Y-94888216D01*
X99342765Y-95000000D01*
X99430854Y-95442855D01*
X99526688Y-95586280D01*
X99681711Y-95818289D01*
X100057145Y-96069146D01*
X100500000Y-96157235D01*
X100611783Y-96135000D01*
X103111783Y-96135000D01*
X103442855Y-96069146D01*
X103818289Y-95818289D01*
X104069146Y-95442855D01*
X104157235Y-95000000D01*
X104069146Y-94557145D01*
X103818289Y-94181711D01*
X103442855Y-93930854D01*
X103111783Y-93865000D01*
X101635000Y-93865000D01*
X101635000Y-92111781D01*
X101657235Y-91999999D01*
X101635000Y-91888217D01*
X101569146Y-91557145D01*
X101318289Y-91181711D01*
X101223524Y-91118391D01*
X98135000Y-88029869D01*
X98135000Y-85388217D01*
X98069146Y-85057145D01*
X97818289Y-84681711D01*
X97442855Y-84430854D01*
X97000000Y-84342765D01*
X96557146Y-84430854D01*
X96181712Y-84681711D01*
X95930854Y-85057145D01*
X95865000Y-85388217D01*
X95865000Y-88388217D01*
X95842765Y-88500000D01*
X90710000Y-88500000D01*
X90710000Y-62000000D01*
X91776091Y-62000000D01*
X91790001Y-62069931D01*
X91790000Y-82930074D01*
X91776091Y-83000000D01*
X91831195Y-83277028D01*
X91988119Y-83511881D01*
X92222972Y-83668805D01*
X92500000Y-83723909D01*
X92569925Y-83710000D01*
X113430075Y-83710000D01*
X113500000Y-83723909D01*
X113713409Y-83681460D01*
X111276481Y-86118388D01*
X111276475Y-86118392D01*
X107776480Y-89618389D01*
X107681712Y-89681711D01*
X107609356Y-89790000D01*
X107430854Y-90057146D01*
X107342765Y-90500000D01*
X107365001Y-90611788D01*
X107365000Y-113388217D01*
X107342765Y-113500000D01*
X107365000Y-113611782D01*
X107430854Y-113942854D01*
X107681711Y-114318289D01*
X107776482Y-114381613D01*
X111365001Y-117970133D01*
X111365000Y-121367339D01*
X111180854Y-121642932D01*
X111180854Y-121642933D01*
X111092765Y-122085787D01*
X111115000Y-122197570D01*
X111115000Y-122322761D01*
X110863914Y-122573847D01*
X110615000Y-123174778D01*
X110615000Y-123825222D01*
X110863914Y-124426153D01*
X111323847Y-124886086D01*
X111924778Y-125135000D01*
X112575222Y-125135000D01*
X113176153Y-124886086D01*
X113636086Y-124426153D01*
X113885000Y-123825222D01*
X113885000Y-123174778D01*
X126115000Y-123174778D01*
X126115000Y-123825222D01*
X126363914Y-124426153D01*
X126823847Y-124886086D01*
X127424778Y-125135000D01*
X128075222Y-125135000D01*
X128676153Y-124886086D01*
X129136086Y-124426153D01*
X129385000Y-123825222D01*
X129385000Y-123174778D01*
X150615000Y-123174778D01*
X150615000Y-123825222D01*
X150863914Y-124426153D01*
X151323847Y-124886086D01*
X151924778Y-125135000D01*
X152575222Y-125135000D01*
X153176153Y-124886086D01*
X153636086Y-124426153D01*
X153885000Y-123825222D01*
X153885000Y-123174778D01*
X166115000Y-123174778D01*
X166115000Y-123825222D01*
X166363914Y-124426153D01*
X166823847Y-124886086D01*
X167424778Y-125135000D01*
X168075222Y-125135000D01*
X168676153Y-124886086D01*
X169136086Y-124426153D01*
X169385000Y-123825222D01*
X169385000Y-123174778D01*
X169136086Y-122573847D01*
X168676153Y-122113914D01*
X168075222Y-121865000D01*
X167424778Y-121865000D01*
X166823847Y-122113914D01*
X166363914Y-122573847D01*
X166115000Y-123174778D01*
X153885000Y-123174778D01*
X153636086Y-122573847D01*
X153176153Y-122113914D01*
X152575222Y-121865000D01*
X151924778Y-121865000D01*
X151323847Y-122113914D01*
X150863914Y-122573847D01*
X150615000Y-123174778D01*
X129385000Y-123174778D01*
X129136086Y-122573847D01*
X128676153Y-122113914D01*
X128075222Y-121865000D01*
X127424778Y-121865000D01*
X126823847Y-122113914D01*
X126363914Y-122573847D01*
X126115000Y-123174778D01*
X113885000Y-123174778D01*
X113636086Y-122573847D01*
X113477716Y-122415477D01*
X113569146Y-122278642D01*
X113635000Y-121947570D01*
X113635000Y-121947569D01*
X113657235Y-121835788D01*
X113635000Y-121724006D01*
X113635000Y-120674778D01*
X130615000Y-120674778D01*
X130615000Y-121325222D01*
X130863914Y-121926153D01*
X131323847Y-122386086D01*
X131924778Y-122635000D01*
X132575222Y-122635000D01*
X133176153Y-122386086D01*
X133636086Y-121926153D01*
X133885000Y-121325222D01*
X133885000Y-120674778D01*
X146115000Y-120674778D01*
X146115000Y-121325222D01*
X146363914Y-121926153D01*
X146823847Y-122386086D01*
X147424778Y-122635000D01*
X148075222Y-122635000D01*
X148676153Y-122386086D01*
X149136086Y-121926153D01*
X149385000Y-121325222D01*
X149385000Y-120674778D01*
X170115000Y-120674778D01*
X170115000Y-121325222D01*
X170363914Y-121926153D01*
X170823847Y-122386086D01*
X171424778Y-122635000D01*
X172075222Y-122635000D01*
X172676153Y-122386086D01*
X173136086Y-121926153D01*
X173385000Y-121325222D01*
X173385000Y-120674778D01*
X185615000Y-120674778D01*
X185615000Y-121325222D01*
X185863914Y-121926153D01*
X186323847Y-122386086D01*
X186924778Y-122635000D01*
X187575222Y-122635000D01*
X188176153Y-122386086D01*
X188636086Y-121926153D01*
X188885000Y-121325222D01*
X188885000Y-120674778D01*
X188636086Y-120073847D01*
X188176153Y-119613914D01*
X187575222Y-119365000D01*
X186924778Y-119365000D01*
X186323847Y-119613914D01*
X185863914Y-120073847D01*
X185615000Y-120674778D01*
X173385000Y-120674778D01*
X173136086Y-120073847D01*
X172676153Y-119613914D01*
X172075222Y-119365000D01*
X171424778Y-119365000D01*
X170823847Y-119613914D01*
X170363914Y-120073847D01*
X170115000Y-120674778D01*
X149385000Y-120674778D01*
X149136086Y-120073847D01*
X148676153Y-119613914D01*
X148075222Y-119365000D01*
X147424778Y-119365000D01*
X146823847Y-119613914D01*
X146363914Y-120073847D01*
X146115000Y-120674778D01*
X133885000Y-120674778D01*
X133636086Y-120073847D01*
X133176153Y-119613914D01*
X132575222Y-119365000D01*
X131924778Y-119365000D01*
X131323847Y-119613914D01*
X130863914Y-120073847D01*
X130615000Y-120674778D01*
X113635000Y-120674778D01*
X113635000Y-117611781D01*
X113657235Y-117499999D01*
X113635000Y-117388217D01*
X113569146Y-117057145D01*
X113318289Y-116681711D01*
X113223521Y-116618389D01*
X113169478Y-116564346D01*
X177615000Y-116564346D01*
X177615000Y-118435655D01*
X177724370Y-118985490D01*
X178140992Y-119609009D01*
X178764511Y-120025631D01*
X179500000Y-120171929D01*
X180235490Y-120025631D01*
X180859009Y-119609009D01*
X181275631Y-118985490D01*
X181385000Y-118435655D01*
X181385000Y-116564345D01*
X181275631Y-116014510D01*
X180859009Y-115390991D01*
X180235489Y-114974369D01*
X179500000Y-114828071D01*
X178764510Y-114974369D01*
X178140991Y-115390991D01*
X177724369Y-116014511D01*
X177615000Y-116564346D01*
X113169478Y-116564346D01*
X109635000Y-113029869D01*
X109635000Y-90970131D01*
X109790000Y-90815131D01*
X109790001Y-111430069D01*
X109776091Y-111500000D01*
X109831195Y-111777028D01*
X109988119Y-112011881D01*
X110222972Y-112168805D01*
X110430074Y-112210000D01*
X110430075Y-112210000D01*
X110500000Y-112223909D01*
X110569926Y-112210000D01*
X131430074Y-112210000D01*
X131500000Y-112223909D01*
X131569925Y-112210000D01*
X131569926Y-112210000D01*
X131777028Y-112168805D01*
X132011881Y-112011881D01*
X132168805Y-111777028D01*
X132223909Y-111500000D01*
X132210000Y-111430074D01*
X132210000Y-90569926D01*
X132223909Y-90500000D01*
X146776091Y-90500000D01*
X146790000Y-90569926D01*
X146790001Y-111430069D01*
X146776091Y-111500000D01*
X146831195Y-111777028D01*
X146988119Y-112011881D01*
X147222972Y-112168805D01*
X147430074Y-112210000D01*
X147430075Y-112210000D01*
X147500000Y-112223909D01*
X147569926Y-112210000D01*
X168430074Y-112210000D01*
X168500000Y-112223909D01*
X168569925Y-112210000D01*
X168569926Y-112210000D01*
X168777028Y-112168805D01*
X169011881Y-112011881D01*
X169168805Y-111777028D01*
X169223909Y-111500000D01*
X169210000Y-111430074D01*
X169210000Y-94564346D01*
X177615000Y-94564346D01*
X177615000Y-96435655D01*
X177724370Y-96985490D01*
X178140992Y-97609009D01*
X178764511Y-98025631D01*
X179500000Y-98171929D01*
X180235490Y-98025631D01*
X180859009Y-97609009D01*
X181275631Y-96985490D01*
X181385000Y-96435655D01*
X181385000Y-94564345D01*
X181275631Y-94014510D01*
X180859009Y-93390991D01*
X180235489Y-92974369D01*
X179500000Y-92828071D01*
X178764510Y-92974369D01*
X178140991Y-93390991D01*
X177724369Y-94014511D01*
X177615000Y-94564346D01*
X169210000Y-94564346D01*
X169210000Y-90569926D01*
X169223909Y-90500000D01*
X169168805Y-90222972D01*
X169011881Y-89988119D01*
X168777028Y-89831195D01*
X168569926Y-89790000D01*
X168500000Y-89776091D01*
X168430075Y-89790000D01*
X147569925Y-89790000D01*
X147500000Y-89776091D01*
X147430074Y-89790000D01*
X147222972Y-89831195D01*
X146988119Y-89988119D01*
X146831195Y-90222972D01*
X146776091Y-90500000D01*
X132223909Y-90500000D01*
X132168805Y-90222972D01*
X132011881Y-89988119D01*
X131777028Y-89831195D01*
X131569926Y-89790000D01*
X131500000Y-89776091D01*
X131430075Y-89790000D01*
X110815132Y-89790000D01*
X112881608Y-87723525D01*
X112881612Y-87723519D01*
X117470132Y-83135000D01*
X123611783Y-83135000D01*
X123942855Y-83069146D01*
X124318289Y-82818289D01*
X124569146Y-82442855D01*
X124657235Y-82000000D01*
X124569146Y-81557145D01*
X124318289Y-81181711D01*
X123942855Y-80930854D01*
X123611783Y-80865000D01*
X117111783Y-80865000D01*
X117000000Y-80842765D01*
X116888217Y-80865000D01*
X116557145Y-80930854D01*
X116181711Y-81181711D01*
X116118389Y-81276479D01*
X114181460Y-83213409D01*
X114210000Y-83069926D01*
X114210000Y-83069925D01*
X114223909Y-83000000D01*
X114210000Y-82930074D01*
X114210000Y-62069926D01*
X114223909Y-62000000D01*
X127776091Y-62000000D01*
X127790001Y-62069931D01*
X127790000Y-82930074D01*
X127776091Y-83000000D01*
X127831195Y-83277028D01*
X127988119Y-83511881D01*
X128222972Y-83668805D01*
X128500000Y-83723909D01*
X128569925Y-83710000D01*
X149430075Y-83710000D01*
X149500000Y-83723909D01*
X149777028Y-83668805D01*
X150011881Y-83511881D01*
X150168805Y-83277028D01*
X150210000Y-83069926D01*
X150210000Y-83069925D01*
X150223909Y-83000000D01*
X150210000Y-82930074D01*
X150210000Y-62069926D01*
X150223909Y-62000000D01*
X165776091Y-62000000D01*
X165790000Y-62069926D01*
X165790001Y-82930069D01*
X165776091Y-83000000D01*
X165831195Y-83277028D01*
X165988119Y-83511881D01*
X166222972Y-83668805D01*
X166430074Y-83710000D01*
X166430075Y-83710000D01*
X166500000Y-83723909D01*
X166569926Y-83710000D01*
X187430074Y-83710000D01*
X187500000Y-83723909D01*
X187569925Y-83710000D01*
X187569926Y-83710000D01*
X187777028Y-83668805D01*
X188011881Y-83511881D01*
X188168805Y-83277028D01*
X188223909Y-83000000D01*
X188210000Y-82930074D01*
X188210000Y-62069926D01*
X188223909Y-62000000D01*
X188168805Y-61722972D01*
X188011881Y-61488119D01*
X187777028Y-61331195D01*
X187569926Y-61290000D01*
X187500000Y-61276091D01*
X187430075Y-61290000D01*
X166569925Y-61290000D01*
X166500000Y-61276091D01*
X166430074Y-61290000D01*
X166222972Y-61331195D01*
X165988119Y-61488119D01*
X165831195Y-61722972D01*
X165776091Y-62000000D01*
X150223909Y-62000000D01*
X150168805Y-61722972D01*
X150011881Y-61488119D01*
X149777028Y-61331195D01*
X149569926Y-61290000D01*
X149569925Y-61290000D01*
X149500000Y-61276091D01*
X149430074Y-61290000D01*
X128569926Y-61290000D01*
X128500000Y-61276091D01*
X128430075Y-61290000D01*
X128430074Y-61290000D01*
X128222972Y-61331195D01*
X127988119Y-61488119D01*
X127831195Y-61722972D01*
X127776091Y-62000000D01*
X114223909Y-62000000D01*
X114168805Y-61722972D01*
X114011881Y-61488119D01*
X113777028Y-61331195D01*
X113569926Y-61290000D01*
X113569925Y-61290000D01*
X113500000Y-61276091D01*
X113430074Y-61290000D01*
X92569926Y-61290000D01*
X92500000Y-61276091D01*
X92430075Y-61290000D01*
X92430074Y-61290000D01*
X92222972Y-61331195D01*
X91988119Y-61488119D01*
X91831195Y-61722972D01*
X91776091Y-62000000D01*
X90710000Y-62000000D01*
X90710000Y-60735880D01*
X118443725Y-60735880D01*
X118725421Y-61158564D01*
X119877892Y-61635294D01*
X121125072Y-61634705D01*
X122274579Y-61158564D01*
X122556275Y-60735880D01*
X155943725Y-60735880D01*
X156225421Y-61158564D01*
X157377892Y-61635294D01*
X158625072Y-61634705D01*
X159774579Y-61158564D01*
X160056275Y-60735880D01*
X158000000Y-58679605D01*
X155943725Y-60735880D01*
X122556275Y-60735880D01*
X120500000Y-58679605D01*
X118443725Y-60735880D01*
X90710000Y-60735880D01*
X90710000Y-57877892D01*
X117364706Y-57877892D01*
X117365295Y-59125072D01*
X117841436Y-60274579D01*
X118264120Y-60556275D01*
X120320395Y-58500000D01*
X120679605Y-58500000D01*
X122735880Y-60556275D01*
X123158564Y-60274579D01*
X123635294Y-59122108D01*
X123634707Y-57877892D01*
X154864706Y-57877892D01*
X154865295Y-59125072D01*
X155341436Y-60274579D01*
X155764120Y-60556275D01*
X157820395Y-58500000D01*
X158179605Y-58500000D01*
X160235880Y-60556275D01*
X160658564Y-60274579D01*
X161135294Y-59122108D01*
X161134705Y-57874928D01*
X160658564Y-56725421D01*
X160235880Y-56443725D01*
X158179605Y-58500000D01*
X157820395Y-58500000D01*
X155764120Y-56443725D01*
X155341436Y-56725421D01*
X154864706Y-57877892D01*
X123634707Y-57877892D01*
X123634705Y-57874928D01*
X123158564Y-56725421D01*
X122735880Y-56443725D01*
X120679605Y-58500000D01*
X120320395Y-58500000D01*
X118264120Y-56443725D01*
X117841436Y-56725421D01*
X117364706Y-57877892D01*
X90710000Y-57877892D01*
X90710000Y-55710000D01*
X119042736Y-55710000D01*
X118725421Y-55841436D01*
X118725421Y-55841436D01*
G37*
X118725421Y-55841436D02*
X118443725Y-56264120D01*
X120500000Y-58320395D01*
X122556275Y-56264120D01*
X122274579Y-55841436D01*
X121956839Y-55710000D01*
X156542736Y-55710000D01*
X156225421Y-55841436D01*
X155943725Y-56264120D01*
X158000000Y-58320395D01*
X160056275Y-56264120D01*
X159774579Y-55841436D01*
X159456839Y-55710000D01*
X189290001Y-55710000D01*
X189290000Y-154290000D01*
X182020207Y-154290000D01*
X182056275Y-154235880D01*
X180000000Y-152179605D01*
X177943725Y-154235880D01*
X177979793Y-154290000D01*
X102520207Y-154290000D01*
X102556275Y-154235880D01*
X100500000Y-152179605D01*
X98443725Y-154235880D01*
X98479793Y-154290000D01*
X90710000Y-154290000D01*
X90710000Y-151377892D01*
X97364706Y-151377892D01*
X97365295Y-152625072D01*
X97841436Y-153774579D01*
X98264120Y-154056275D01*
X100320395Y-152000000D01*
X100679605Y-152000000D01*
X102735880Y-154056275D01*
X103158564Y-153774579D01*
X103622708Y-152652532D01*
X111277073Y-152652532D01*
X111375736Y-152919387D01*
X111985461Y-153145908D01*
X112635460Y-153121856D01*
X113124264Y-152919387D01*
X113222927Y-152652532D01*
X112250000Y-151679605D01*
X111277073Y-152652532D01*
X103622708Y-152652532D01*
X103635294Y-152622108D01*
X103634705Y-151374928D01*
X103576936Y-151235461D01*
X110604092Y-151235461D01*
X110628144Y-151885460D01*
X110830613Y-152374264D01*
X111097468Y-152472927D01*
X112070395Y-151500000D01*
X112429605Y-151500000D01*
X113402532Y-152472927D01*
X113669387Y-152374264D01*
X113895908Y-151764539D01*
X113874085Y-151174778D01*
X126115000Y-151174778D01*
X126115000Y-151825222D01*
X126363914Y-152426153D01*
X126823847Y-152886086D01*
X127424778Y-153135000D01*
X128075222Y-153135000D01*
X128676153Y-152886086D01*
X128909707Y-152652532D01*
X151277073Y-152652532D01*
X151375736Y-152919387D01*
X151985461Y-153145908D01*
X152635460Y-153121856D01*
X153124264Y-152919387D01*
X153222927Y-152652532D01*
X152250000Y-151679605D01*
X151277073Y-152652532D01*
X128909707Y-152652532D01*
X129136086Y-152426153D01*
X129385000Y-151825222D01*
X129385000Y-151235461D01*
X150604092Y-151235461D01*
X150628144Y-151885460D01*
X150830613Y-152374264D01*
X151097468Y-152472927D01*
X152070395Y-151500000D01*
X152429605Y-151500000D01*
X153402532Y-152472927D01*
X153669387Y-152374264D01*
X153895908Y-151764539D01*
X153874085Y-151174778D01*
X166115000Y-151174778D01*
X166115000Y-151825222D01*
X166363914Y-152426153D01*
X166823847Y-152886086D01*
X167424778Y-153135000D01*
X168075222Y-153135000D01*
X168676153Y-152886086D01*
X169136086Y-152426153D01*
X169385000Y-151825222D01*
X169385000Y-151377892D01*
X176864706Y-151377892D01*
X176865295Y-152625072D01*
X177341436Y-153774579D01*
X177764120Y-154056275D01*
X179820395Y-152000000D01*
X180179605Y-152000000D01*
X182235880Y-154056275D01*
X182658564Y-153774579D01*
X183135294Y-152622108D01*
X183134705Y-151374928D01*
X182658564Y-150225421D01*
X182235880Y-149943725D01*
X180179605Y-152000000D01*
X179820395Y-152000000D01*
X177764120Y-149943725D01*
X177341436Y-150225421D01*
X176864706Y-151377892D01*
X169385000Y-151377892D01*
X169385000Y-151174778D01*
X169136086Y-150573847D01*
X168714771Y-150152532D01*
X170777073Y-150152532D01*
X170875736Y-150419387D01*
X171485461Y-150645908D01*
X172135460Y-150621856D01*
X172624264Y-150419387D01*
X172722927Y-150152532D01*
X171750000Y-149179605D01*
X170777073Y-150152532D01*
X168714771Y-150152532D01*
X168676153Y-150113914D01*
X168075222Y-149865000D01*
X167424778Y-149865000D01*
X166823847Y-150113914D01*
X166363914Y-150573847D01*
X166115000Y-151174778D01*
X153874085Y-151174778D01*
X153871856Y-151114540D01*
X153669387Y-150625736D01*
X153402532Y-150527073D01*
X152429605Y-151500000D01*
X152070395Y-151500000D01*
X151097468Y-150527073D01*
X150830613Y-150625736D01*
X150604092Y-151235461D01*
X129385000Y-151235461D01*
X129385000Y-151174778D01*
X129136086Y-150573847D01*
X128714771Y-150152532D01*
X131277073Y-150152532D01*
X131375736Y-150419387D01*
X131985461Y-150645908D01*
X132635460Y-150621856D01*
X133124264Y-150419387D01*
X133222927Y-150152532D01*
X132250000Y-149179605D01*
X131277073Y-150152532D01*
X128714771Y-150152532D01*
X128676153Y-150113914D01*
X128075222Y-149865000D01*
X127424778Y-149865000D01*
X126823847Y-150113914D01*
X126363914Y-150573847D01*
X126115000Y-151174778D01*
X113874085Y-151174778D01*
X113871856Y-151114540D01*
X113669387Y-150625736D01*
X113402532Y-150527073D01*
X112429605Y-151500000D01*
X112070395Y-151500000D01*
X111097468Y-150527073D01*
X110830613Y-150625736D01*
X110604092Y-151235461D01*
X103576936Y-151235461D01*
X103158564Y-150225421D01*
X102735880Y-149943725D01*
X100679605Y-152000000D01*
X100320395Y-152000000D01*
X98264120Y-149943725D01*
X97841436Y-150225421D01*
X97364706Y-151377892D01*
X90710000Y-151377892D01*
X90710000Y-150152532D01*
X91277073Y-150152532D01*
X91375736Y-150419387D01*
X91985461Y-150645908D01*
X92635460Y-150621856D01*
X93124264Y-150419387D01*
X93222927Y-150152532D01*
X92250000Y-149179605D01*
X91277073Y-150152532D01*
X90710000Y-150152532D01*
X90710000Y-149583078D01*
X90830613Y-149874264D01*
X91097468Y-149972927D01*
X92070395Y-149000000D01*
X92429605Y-149000000D01*
X93402532Y-149972927D01*
X93669387Y-149874264D01*
X93710306Y-149764120D01*
X98443725Y-149764120D01*
X100500000Y-151820395D01*
X102556275Y-149764120D01*
X102274579Y-149341436D01*
X101122108Y-148864706D01*
X99874928Y-148865295D01*
X98725421Y-149341436D01*
X98443725Y-149764120D01*
X93710306Y-149764120D01*
X93895908Y-149264539D01*
X93874085Y-148674778D01*
X106115000Y-148674778D01*
X106115000Y-149325222D01*
X106363914Y-149926153D01*
X106823847Y-150386086D01*
X107424778Y-150635000D01*
X108075222Y-150635000D01*
X108676153Y-150386086D01*
X108714771Y-150347468D01*
X111277073Y-150347468D01*
X112250000Y-151320395D01*
X113222927Y-150347468D01*
X113124264Y-150080613D01*
X112514539Y-149854092D01*
X111864540Y-149878144D01*
X111375736Y-150080613D01*
X111277073Y-150347468D01*
X108714771Y-150347468D01*
X109136086Y-149926153D01*
X109385000Y-149325222D01*
X109385000Y-148735461D01*
X130604092Y-148735461D01*
X130628144Y-149385460D01*
X130830613Y-149874264D01*
X131097468Y-149972927D01*
X132070395Y-149000000D01*
X132429605Y-149000000D01*
X133402532Y-149972927D01*
X133669387Y-149874264D01*
X133895908Y-149264539D01*
X133874085Y-148674778D01*
X146115000Y-148674778D01*
X146115000Y-149325222D01*
X146363914Y-149926153D01*
X146823847Y-150386086D01*
X147424778Y-150635000D01*
X148075222Y-150635000D01*
X148676153Y-150386086D01*
X148714771Y-150347468D01*
X151277073Y-150347468D01*
X152250000Y-151320395D01*
X153222927Y-150347468D01*
X153124264Y-150080613D01*
X152514539Y-149854092D01*
X151864540Y-149878144D01*
X151375736Y-150080613D01*
X151277073Y-150347468D01*
X148714771Y-150347468D01*
X149136086Y-149926153D01*
X149385000Y-149325222D01*
X149385000Y-148735461D01*
X170104092Y-148735461D01*
X170128144Y-149385460D01*
X170330613Y-149874264D01*
X170597468Y-149972927D01*
X171570395Y-149000000D01*
X171929605Y-149000000D01*
X172902532Y-149972927D01*
X173169387Y-149874264D01*
X173210306Y-149764120D01*
X177943725Y-149764120D01*
X180000000Y-151820395D01*
X182056275Y-149764120D01*
X181774579Y-149341436D01*
X180622108Y-148864706D01*
X179374928Y-148865295D01*
X178225421Y-149341436D01*
X177943725Y-149764120D01*
X173210306Y-149764120D01*
X173395908Y-149264539D01*
X173374085Y-148674778D01*
X185615000Y-148674778D01*
X185615000Y-149325222D01*
X185863914Y-149926153D01*
X186323847Y-150386086D01*
X186924778Y-150635000D01*
X187575222Y-150635000D01*
X188176153Y-150386086D01*
X188636086Y-149926153D01*
X188885000Y-149325222D01*
X188885000Y-148674778D01*
X188636086Y-148073847D01*
X188176153Y-147613914D01*
X187575222Y-147365000D01*
X186924778Y-147365000D01*
X186323847Y-147613914D01*
X185863914Y-148073847D01*
X185615000Y-148674778D01*
X173374085Y-148674778D01*
X173371856Y-148614540D01*
X173169387Y-148125736D01*
X172902532Y-148027073D01*
X171929605Y-149000000D01*
X171570395Y-149000000D01*
X170597468Y-148027073D01*
X170330613Y-148125736D01*
X170104092Y-148735461D01*
X149385000Y-148735461D01*
X149385000Y-148674778D01*
X149136086Y-148073847D01*
X148909707Y-147847468D01*
X170777073Y-147847468D01*
X171750000Y-148820395D01*
X172722927Y-147847468D01*
X172624264Y-147580613D01*
X172014539Y-147354092D01*
X171364540Y-147378144D01*
X170875736Y-147580613D01*
X170777073Y-147847468D01*
X148909707Y-147847468D01*
X148676153Y-147613914D01*
X148075222Y-147365000D01*
X147424778Y-147365000D01*
X146823847Y-147613914D01*
X146363914Y-148073847D01*
X146115000Y-148674778D01*
X133874085Y-148674778D01*
X133871856Y-148614540D01*
X133669387Y-148125736D01*
X133402532Y-148027073D01*
X132429605Y-149000000D01*
X132070395Y-149000000D01*
X131097468Y-148027073D01*
X130830613Y-148125736D01*
X130604092Y-148735461D01*
X109385000Y-148735461D01*
X109385000Y-148674778D01*
X109136086Y-148073847D01*
X108909707Y-147847468D01*
X131277073Y-147847468D01*
X132250000Y-148820395D01*
X133222927Y-147847468D01*
X133124264Y-147580613D01*
X132514539Y-147354092D01*
X131864540Y-147378144D01*
X131375736Y-147580613D01*
X131277073Y-147847468D01*
X108909707Y-147847468D01*
X108676153Y-147613914D01*
X108075222Y-147365000D01*
X107424778Y-147365000D01*
X106823847Y-147613914D01*
X106363914Y-148073847D01*
X106115000Y-148674778D01*
X93874085Y-148674778D01*
X93871856Y-148614540D01*
X93669387Y-148125736D01*
X93402532Y-148027073D01*
X92429605Y-149000000D01*
X92070395Y-149000000D01*
X91097468Y-148027073D01*
X90830613Y-148125736D01*
X90710000Y-148450389D01*
X90710000Y-147847468D01*
X91277073Y-147847468D01*
X92250000Y-148820395D01*
X93222927Y-147847468D01*
X93124264Y-147580613D01*
X92514539Y-147354092D01*
X91864540Y-147378144D01*
X91375736Y-147580613D01*
X91277073Y-147847468D01*
X90710000Y-147847468D01*
X90710000Y-126533334D01*
X109621778Y-126533334D01*
X109621778Y-143466667D01*
X109670495Y-143711584D01*
X109809230Y-143919215D01*
X110016861Y-144057950D01*
X110261778Y-144106667D01*
X168738222Y-144106667D01*
X168983139Y-144057950D01*
X169190770Y-143919215D01*
X169329505Y-143711584D01*
X169378222Y-143466667D01*
X169378222Y-126533334D01*
X169329505Y-126288417D01*
X169190770Y-126080786D01*
X168983139Y-125942051D01*
X168738222Y-125893334D01*
X110261778Y-125893334D01*
X110016861Y-125942051D01*
X109809230Y-126080786D01*
X109670495Y-126288417D01*
X109621778Y-126533334D01*
X90710000Y-126533334D01*
X90710000Y-121554572D01*
X90863914Y-121926153D01*
X91323847Y-122386086D01*
X91924778Y-122635000D01*
X92575222Y-122635000D01*
X93176153Y-122386086D01*
X93636086Y-121926153D01*
X93885000Y-121325222D01*
X93885000Y-120674778D01*
X106115000Y-120674778D01*
X106115000Y-121325222D01*
X106363914Y-121926153D01*
X106823847Y-122386086D01*
X107424778Y-122635000D01*
X108075222Y-122635000D01*
X108676153Y-122386086D01*
X109136086Y-121926153D01*
X109385000Y-121325222D01*
X109385000Y-120674778D01*
X109136086Y-120073847D01*
X108676153Y-119613914D01*
X108075222Y-119365000D01*
X107424778Y-119365000D01*
X106823847Y-119613914D01*
X106363914Y-120073847D01*
X106115000Y-120674778D01*
X93885000Y-120674778D01*
X93636086Y-120073847D01*
X93176153Y-119613914D01*
X92575222Y-119365000D01*
X91924778Y-119365000D01*
X91323847Y-119613914D01*
X90863914Y-120073847D01*
X90710000Y-120445428D01*
X90710000Y-105285750D01*
X95615000Y-105285750D01*
X95615000Y-106876310D01*
X95711673Y-107109699D01*
X95890302Y-107288327D01*
X96123691Y-107385000D01*
X97714250Y-107385000D01*
X97873000Y-107226250D01*
X97873000Y-105127000D01*
X98127000Y-105127000D01*
X98127000Y-107226250D01*
X98285750Y-107385000D01*
X98952612Y-107385000D01*
X98792191Y-107492191D01*
X98651843Y-107702235D01*
X98602560Y-107950000D01*
X98602560Y-111450000D01*
X98651843Y-111697765D01*
X98792191Y-111907809D01*
X99002235Y-112048157D01*
X99250000Y-112097440D01*
X102750000Y-112097440D01*
X102997765Y-112048157D01*
X103207809Y-111907809D01*
X103348157Y-111697765D01*
X103397440Y-111450000D01*
X103397440Y-107950000D01*
X103348157Y-107702235D01*
X103207809Y-107492191D01*
X103066005Y-107397440D01*
X105750000Y-107397440D01*
X105997765Y-107348157D01*
X106207809Y-107207809D01*
X106348157Y-106997765D01*
X106397440Y-106750000D01*
X106397440Y-103250000D01*
X106348157Y-103002235D01*
X106207809Y-102792191D01*
X105997765Y-102651843D01*
X105750000Y-102602560D01*
X102250000Y-102602560D01*
X102002235Y-102651843D01*
X101792191Y-102792191D01*
X101651843Y-103002235D01*
X101602560Y-103250000D01*
X101602560Y-106750000D01*
X101651843Y-106997765D01*
X101792191Y-107207809D01*
X101933995Y-107302560D01*
X100075337Y-107302560D01*
X100109698Y-107288327D01*
X100288327Y-107109699D01*
X100385000Y-106876310D01*
X100385000Y-105285750D01*
X100226250Y-105127000D01*
X98127000Y-105127000D01*
X97873000Y-105127000D01*
X95773750Y-105127000D01*
X95615000Y-105285750D01*
X90710000Y-105285750D01*
X90710000Y-103123690D01*
X95615000Y-103123690D01*
X95615000Y-104714250D01*
X95773750Y-104873000D01*
X97873000Y-104873000D01*
X97873000Y-102773750D01*
X98127000Y-102773750D01*
X98127000Y-104873000D01*
X100226250Y-104873000D01*
X100385000Y-104714250D01*
X100385000Y-103123690D01*
X100288327Y-102890301D01*
X100109698Y-102711673D01*
X99876309Y-102615000D01*
X98285750Y-102615000D01*
X98127000Y-102773750D01*
X97873000Y-102773750D01*
X97714250Y-102615000D01*
X96123691Y-102615000D01*
X95890302Y-102711673D01*
X95711673Y-102890301D01*
X95615000Y-103123690D01*
X90710000Y-103123690D01*
X90710000Y-88500000D01*
X95842765Y-88500000D01*
X95865000Y-88611782D01*
X95930854Y-88942854D01*
X96181711Y-89318289D01*
X96276482Y-89381613D01*
X99365001Y-92470134D01*
X99365000Y-94888216D01*
X99342765Y-95000000D01*
X99430854Y-95442855D01*
X99526688Y-95586280D01*
X99681711Y-95818289D01*
X100057145Y-96069146D01*
X100500000Y-96157235D01*
X100611783Y-96135000D01*
X103111783Y-96135000D01*
X103442855Y-96069146D01*
X103818289Y-95818289D01*
X104069146Y-95442855D01*
X104157235Y-95000000D01*
X104069146Y-94557145D01*
X103818289Y-94181711D01*
X103442855Y-93930854D01*
X103111783Y-93865000D01*
X101635000Y-93865000D01*
X101635000Y-92111781D01*
X101657235Y-91999999D01*
X101635000Y-91888217D01*
X101569146Y-91557145D01*
X101318289Y-91181711D01*
X101223524Y-91118391D01*
X98135000Y-88029869D01*
X98135000Y-85388217D01*
X98069146Y-85057145D01*
X97818289Y-84681711D01*
X97442855Y-84430854D01*
X97000000Y-84342765D01*
X96557146Y-84430854D01*
X96181712Y-84681711D01*
X95930854Y-85057145D01*
X95865000Y-85388217D01*
X95865000Y-88388217D01*
X95842765Y-88500000D01*
X90710000Y-88500000D01*
X90710000Y-62000000D01*
X91776091Y-62000000D01*
X91790001Y-62069931D01*
X91790000Y-82930074D01*
X91776091Y-83000000D01*
X91831195Y-83277028D01*
X91988119Y-83511881D01*
X92222972Y-83668805D01*
X92500000Y-83723909D01*
X92569925Y-83710000D01*
X113430075Y-83710000D01*
X113500000Y-83723909D01*
X113713409Y-83681460D01*
X111276481Y-86118388D01*
X111276475Y-86118392D01*
X107776480Y-89618389D01*
X107681712Y-89681711D01*
X107609356Y-89790000D01*
X107430854Y-90057146D01*
X107342765Y-90500000D01*
X107365001Y-90611788D01*
X107365000Y-113388217D01*
X107342765Y-113500000D01*
X107365000Y-113611782D01*
X107430854Y-113942854D01*
X107681711Y-114318289D01*
X107776482Y-114381613D01*
X111365001Y-117970133D01*
X111365000Y-121367339D01*
X111180854Y-121642932D01*
X111180854Y-121642933D01*
X111092765Y-122085787D01*
X111115000Y-122197570D01*
X111115000Y-122322761D01*
X110863914Y-122573847D01*
X110615000Y-123174778D01*
X110615000Y-123825222D01*
X110863914Y-124426153D01*
X111323847Y-124886086D01*
X111924778Y-125135000D01*
X112575222Y-125135000D01*
X113176153Y-124886086D01*
X113636086Y-124426153D01*
X113885000Y-123825222D01*
X113885000Y-123174778D01*
X126115000Y-123174778D01*
X126115000Y-123825222D01*
X126363914Y-124426153D01*
X126823847Y-124886086D01*
X127424778Y-125135000D01*
X128075222Y-125135000D01*
X128676153Y-124886086D01*
X129136086Y-124426153D01*
X129385000Y-123825222D01*
X129385000Y-123174778D01*
X150615000Y-123174778D01*
X150615000Y-123825222D01*
X150863914Y-124426153D01*
X151323847Y-124886086D01*
X151924778Y-125135000D01*
X152575222Y-125135000D01*
X153176153Y-124886086D01*
X153636086Y-124426153D01*
X153885000Y-123825222D01*
X153885000Y-123174778D01*
X166115000Y-123174778D01*
X166115000Y-123825222D01*
X166363914Y-124426153D01*
X166823847Y-124886086D01*
X167424778Y-125135000D01*
X168075222Y-125135000D01*
X168676153Y-124886086D01*
X169136086Y-124426153D01*
X169385000Y-123825222D01*
X169385000Y-123174778D01*
X169136086Y-122573847D01*
X168676153Y-122113914D01*
X168075222Y-121865000D01*
X167424778Y-121865000D01*
X166823847Y-122113914D01*
X166363914Y-122573847D01*
X166115000Y-123174778D01*
X153885000Y-123174778D01*
X153636086Y-122573847D01*
X153176153Y-122113914D01*
X152575222Y-121865000D01*
X151924778Y-121865000D01*
X151323847Y-122113914D01*
X150863914Y-122573847D01*
X150615000Y-123174778D01*
X129385000Y-123174778D01*
X129136086Y-122573847D01*
X128676153Y-122113914D01*
X128075222Y-121865000D01*
X127424778Y-121865000D01*
X126823847Y-122113914D01*
X126363914Y-122573847D01*
X126115000Y-123174778D01*
X113885000Y-123174778D01*
X113636086Y-122573847D01*
X113477716Y-122415477D01*
X113569146Y-122278642D01*
X113635000Y-121947570D01*
X113635000Y-121947569D01*
X113657235Y-121835788D01*
X113635000Y-121724006D01*
X113635000Y-120674778D01*
X130615000Y-120674778D01*
X130615000Y-121325222D01*
X130863914Y-121926153D01*
X131323847Y-122386086D01*
X131924778Y-122635000D01*
X132575222Y-122635000D01*
X133176153Y-122386086D01*
X133636086Y-121926153D01*
X133885000Y-121325222D01*
X133885000Y-120674778D01*
X146115000Y-120674778D01*
X146115000Y-121325222D01*
X146363914Y-121926153D01*
X146823847Y-122386086D01*
X147424778Y-122635000D01*
X148075222Y-122635000D01*
X148676153Y-122386086D01*
X149136086Y-121926153D01*
X149385000Y-121325222D01*
X149385000Y-120674778D01*
X170115000Y-120674778D01*
X170115000Y-121325222D01*
X170363914Y-121926153D01*
X170823847Y-122386086D01*
X171424778Y-122635000D01*
X172075222Y-122635000D01*
X172676153Y-122386086D01*
X173136086Y-121926153D01*
X173385000Y-121325222D01*
X173385000Y-120674778D01*
X185615000Y-120674778D01*
X185615000Y-121325222D01*
X185863914Y-121926153D01*
X186323847Y-122386086D01*
X186924778Y-122635000D01*
X187575222Y-122635000D01*
X188176153Y-122386086D01*
X188636086Y-121926153D01*
X188885000Y-121325222D01*
X188885000Y-120674778D01*
X188636086Y-120073847D01*
X188176153Y-119613914D01*
X187575222Y-119365000D01*
X186924778Y-119365000D01*
X186323847Y-119613914D01*
X185863914Y-120073847D01*
X185615000Y-120674778D01*
X173385000Y-120674778D01*
X173136086Y-120073847D01*
X172676153Y-119613914D01*
X172075222Y-119365000D01*
X171424778Y-119365000D01*
X170823847Y-119613914D01*
X170363914Y-120073847D01*
X170115000Y-120674778D01*
X149385000Y-120674778D01*
X149136086Y-120073847D01*
X148676153Y-119613914D01*
X148075222Y-119365000D01*
X147424778Y-119365000D01*
X146823847Y-119613914D01*
X146363914Y-120073847D01*
X146115000Y-120674778D01*
X133885000Y-120674778D01*
X133636086Y-120073847D01*
X133176153Y-119613914D01*
X132575222Y-119365000D01*
X131924778Y-119365000D01*
X131323847Y-119613914D01*
X130863914Y-120073847D01*
X130615000Y-120674778D01*
X113635000Y-120674778D01*
X113635000Y-117611781D01*
X113657235Y-117499999D01*
X113635000Y-117388217D01*
X113569146Y-117057145D01*
X113318289Y-116681711D01*
X113223521Y-116618389D01*
X113169478Y-116564346D01*
X177615000Y-116564346D01*
X177615000Y-118435655D01*
X177724370Y-118985490D01*
X178140992Y-119609009D01*
X178764511Y-120025631D01*
X179500000Y-120171929D01*
X180235490Y-120025631D01*
X180859009Y-119609009D01*
X181275631Y-118985490D01*
X181385000Y-118435655D01*
X181385000Y-116564345D01*
X181275631Y-116014510D01*
X180859009Y-115390991D01*
X180235489Y-114974369D01*
X179500000Y-114828071D01*
X178764510Y-114974369D01*
X178140991Y-115390991D01*
X177724369Y-116014511D01*
X177615000Y-116564346D01*
X113169478Y-116564346D01*
X109635000Y-113029869D01*
X109635000Y-90970131D01*
X109790000Y-90815131D01*
X109790001Y-111430069D01*
X109776091Y-111500000D01*
X109831195Y-111777028D01*
X109988119Y-112011881D01*
X110222972Y-112168805D01*
X110430074Y-112210000D01*
X110430075Y-112210000D01*
X110500000Y-112223909D01*
X110569926Y-112210000D01*
X131430074Y-112210000D01*
X131500000Y-112223909D01*
X131569925Y-112210000D01*
X131569926Y-112210000D01*
X131777028Y-112168805D01*
X132011881Y-112011881D01*
X132168805Y-111777028D01*
X132223909Y-111500000D01*
X132210000Y-111430074D01*
X132210000Y-90569926D01*
X132223909Y-90500000D01*
X146776091Y-90500000D01*
X146790000Y-90569926D01*
X146790001Y-111430069D01*
X146776091Y-111500000D01*
X146831195Y-111777028D01*
X146988119Y-112011881D01*
X147222972Y-112168805D01*
X147430074Y-112210000D01*
X147430075Y-112210000D01*
X147500000Y-112223909D01*
X147569926Y-112210000D01*
X168430074Y-112210000D01*
X168500000Y-112223909D01*
X168569925Y-112210000D01*
X168569926Y-112210000D01*
X168777028Y-112168805D01*
X169011881Y-112011881D01*
X169168805Y-111777028D01*
X169223909Y-111500000D01*
X169210000Y-111430074D01*
X169210000Y-94564346D01*
X177615000Y-94564346D01*
X177615000Y-96435655D01*
X177724370Y-96985490D01*
X178140992Y-97609009D01*
X178764511Y-98025631D01*
X179500000Y-98171929D01*
X180235490Y-98025631D01*
X180859009Y-97609009D01*
X181275631Y-96985490D01*
X181385000Y-96435655D01*
X181385000Y-94564345D01*
X181275631Y-94014510D01*
X180859009Y-93390991D01*
X180235489Y-92974369D01*
X179500000Y-92828071D01*
X178764510Y-92974369D01*
X178140991Y-93390991D01*
X177724369Y-94014511D01*
X177615000Y-94564346D01*
X169210000Y-94564346D01*
X169210000Y-90569926D01*
X169223909Y-90500000D01*
X169168805Y-90222972D01*
X169011881Y-89988119D01*
X168777028Y-89831195D01*
X168569926Y-89790000D01*
X168500000Y-89776091D01*
X168430075Y-89790000D01*
X147569925Y-89790000D01*
X147500000Y-89776091D01*
X147430074Y-89790000D01*
X147222972Y-89831195D01*
X146988119Y-89988119D01*
X146831195Y-90222972D01*
X146776091Y-90500000D01*
X132223909Y-90500000D01*
X132168805Y-90222972D01*
X132011881Y-89988119D01*
X131777028Y-89831195D01*
X131569926Y-89790000D01*
X131500000Y-89776091D01*
X131430075Y-89790000D01*
X110815132Y-89790000D01*
X112881608Y-87723525D01*
X112881612Y-87723519D01*
X117470132Y-83135000D01*
X123611783Y-83135000D01*
X123942855Y-83069146D01*
X124318289Y-82818289D01*
X124569146Y-82442855D01*
X124657235Y-82000000D01*
X124569146Y-81557145D01*
X124318289Y-81181711D01*
X123942855Y-80930854D01*
X123611783Y-80865000D01*
X117111783Y-80865000D01*
X117000000Y-80842765D01*
X116888217Y-80865000D01*
X116557145Y-80930854D01*
X116181711Y-81181711D01*
X116118389Y-81276479D01*
X114181460Y-83213409D01*
X114210000Y-83069926D01*
X114210000Y-83069925D01*
X114223909Y-83000000D01*
X114210000Y-82930074D01*
X114210000Y-62069926D01*
X114223909Y-62000000D01*
X127776091Y-62000000D01*
X127790001Y-62069931D01*
X127790000Y-82930074D01*
X127776091Y-83000000D01*
X127831195Y-83277028D01*
X127988119Y-83511881D01*
X128222972Y-83668805D01*
X128500000Y-83723909D01*
X128569925Y-83710000D01*
X149430075Y-83710000D01*
X149500000Y-83723909D01*
X149777028Y-83668805D01*
X150011881Y-83511881D01*
X150168805Y-83277028D01*
X150210000Y-83069926D01*
X150210000Y-83069925D01*
X150223909Y-83000000D01*
X150210000Y-82930074D01*
X150210000Y-62069926D01*
X150223909Y-62000000D01*
X165776091Y-62000000D01*
X165790000Y-62069926D01*
X165790001Y-82930069D01*
X165776091Y-83000000D01*
X165831195Y-83277028D01*
X165988119Y-83511881D01*
X166222972Y-83668805D01*
X166430074Y-83710000D01*
X166430075Y-83710000D01*
X166500000Y-83723909D01*
X166569926Y-83710000D01*
X187430074Y-83710000D01*
X187500000Y-83723909D01*
X187569925Y-83710000D01*
X187569926Y-83710000D01*
X187777028Y-83668805D01*
X188011881Y-83511881D01*
X188168805Y-83277028D01*
X188223909Y-83000000D01*
X188210000Y-82930074D01*
X188210000Y-62069926D01*
X188223909Y-62000000D01*
X188168805Y-61722972D01*
X188011881Y-61488119D01*
X187777028Y-61331195D01*
X187569926Y-61290000D01*
X187500000Y-61276091D01*
X187430075Y-61290000D01*
X166569925Y-61290000D01*
X166500000Y-61276091D01*
X166430074Y-61290000D01*
X166222972Y-61331195D01*
X165988119Y-61488119D01*
X165831195Y-61722972D01*
X165776091Y-62000000D01*
X150223909Y-62000000D01*
X150168805Y-61722972D01*
X150011881Y-61488119D01*
X149777028Y-61331195D01*
X149569926Y-61290000D01*
X149569925Y-61290000D01*
X149500000Y-61276091D01*
X149430074Y-61290000D01*
X128569926Y-61290000D01*
X128500000Y-61276091D01*
X128430075Y-61290000D01*
X128430074Y-61290000D01*
X128222972Y-61331195D01*
X127988119Y-61488119D01*
X127831195Y-61722972D01*
X127776091Y-62000000D01*
X114223909Y-62000000D01*
X114168805Y-61722972D01*
X114011881Y-61488119D01*
X113777028Y-61331195D01*
X113569926Y-61290000D01*
X113569925Y-61290000D01*
X113500000Y-61276091D01*
X113430074Y-61290000D01*
X92569926Y-61290000D01*
X92500000Y-61276091D01*
X92430075Y-61290000D01*
X92430074Y-61290000D01*
X92222972Y-61331195D01*
X91988119Y-61488119D01*
X91831195Y-61722972D01*
X91776091Y-62000000D01*
X90710000Y-62000000D01*
X90710000Y-60735880D01*
X118443725Y-60735880D01*
X118725421Y-61158564D01*
X119877892Y-61635294D01*
X121125072Y-61634705D01*
X122274579Y-61158564D01*
X122556275Y-60735880D01*
X155943725Y-60735880D01*
X156225421Y-61158564D01*
X157377892Y-61635294D01*
X158625072Y-61634705D01*
X159774579Y-61158564D01*
X160056275Y-60735880D01*
X158000000Y-58679605D01*
X155943725Y-60735880D01*
X122556275Y-60735880D01*
X120500000Y-58679605D01*
X118443725Y-60735880D01*
X90710000Y-60735880D01*
X90710000Y-57877892D01*
X117364706Y-57877892D01*
X117365295Y-59125072D01*
X117841436Y-60274579D01*
X118264120Y-60556275D01*
X120320395Y-58500000D01*
X120679605Y-58500000D01*
X122735880Y-60556275D01*
X123158564Y-60274579D01*
X123635294Y-59122108D01*
X123634707Y-57877892D01*
X154864706Y-57877892D01*
X154865295Y-59125072D01*
X155341436Y-60274579D01*
X155764120Y-60556275D01*
X157820395Y-58500000D01*
X158179605Y-58500000D01*
X160235880Y-60556275D01*
X160658564Y-60274579D01*
X161135294Y-59122108D01*
X161134705Y-57874928D01*
X160658564Y-56725421D01*
X160235880Y-56443725D01*
X158179605Y-58500000D01*
X157820395Y-58500000D01*
X155764120Y-56443725D01*
X155341436Y-56725421D01*
X154864706Y-57877892D01*
X123634707Y-57877892D01*
X123634705Y-57874928D01*
X123158564Y-56725421D01*
X122735880Y-56443725D01*
X120679605Y-58500000D01*
X120320395Y-58500000D01*
X118264120Y-56443725D01*
X117841436Y-56725421D01*
X117364706Y-57877892D01*
X90710000Y-57877892D01*
X90710000Y-55710000D01*
X119042736Y-55710000D01*
X118725421Y-55841436D01*
G04 #@! TD*
M02*
