G04 #@! TF.GenerationSoftware,KiCad,Pcbnew,(5.0.0)*
G04 #@! TF.CreationDate,2020-03-19T16:58:16-04:00*
G04 #@! TF.ProjectId,Grow_Lamp,47726F775F4C616D702E6B696361645F,rev?*
G04 #@! TF.SameCoordinates,Original*
G04 #@! TF.FileFunction,Copper,L1,Top,Signal*
G04 #@! TF.FilePolarity,Positive*
%FSLAX46Y46*%
G04 Gerber Fmt 4.6, Leading zero omitted, Abs format (unit mm)*
G04 Created by KiCad (PCBNEW (5.0.0)) date 03/19/20 16:58:16*
%MOMM*%
%LPD*%
G01*
G04 APERTURE LIST*
G04 #@! TA.AperFunction,NonConductor*
%ADD10C,0.375000*%
G04 #@! TD*
G04 #@! TA.AperFunction,SMDPad,CuDef*
%ADD11R,8.000000X5.000000*%
G04 #@! TD*
G04 #@! TA.AperFunction,ComponentPad*
%ADD12C,2.000000*%
G04 #@! TD*
G04 #@! TA.AperFunction,ComponentPad*
%ADD13O,2.500000X4.000000*%
G04 #@! TD*
G04 #@! TA.AperFunction,ComponentPad*
%ADD14R,3.500000X3.500000*%
G04 #@! TD*
G04 #@! TA.AperFunction,ComponentPad*
%ADD15C,5.000000*%
G04 #@! TD*
G04 #@! TA.AperFunction,ViaPad*
%ADD16C,0.800000*%
G04 #@! TD*
G04 #@! TA.AperFunction,Conductor*
%ADD17C,1.000000*%
G04 #@! TD*
G04 #@! TA.AperFunction,Conductor*
%ADD18C,2.000000*%
G04 #@! TD*
G04 #@! TA.AperFunction,Conductor*
%ADD19C,0.254000*%
G04 #@! TD*
G04 APERTURE END LIST*
D10*
X157678571Y-76964285D02*
X157678571Y-77821428D01*
X157678571Y-77392857D02*
X156178571Y-77392857D01*
X156392857Y-77535714D01*
X156535714Y-77678571D01*
X156607142Y-77821428D01*
X157678571Y-76250000D02*
X157678571Y-75964285D01*
X157607142Y-75821428D01*
X157535714Y-75750000D01*
X157321428Y-75607142D01*
X157035714Y-75535714D01*
X156464285Y-75535714D01*
X156321428Y-75607142D01*
X156250000Y-75678571D01*
X156178571Y-75821428D01*
X156178571Y-76107142D01*
X156250000Y-76250000D01*
X156321428Y-76321428D01*
X156464285Y-76392857D01*
X156821428Y-76392857D01*
X156964285Y-76321428D01*
X157035714Y-76250000D01*
X157107142Y-76107142D01*
X157107142Y-75821428D01*
X157035714Y-75678571D01*
X156964285Y-75607142D01*
X156821428Y-75535714D01*
X157678571Y-74892857D02*
X156178571Y-74892857D01*
X157250000Y-74392857D01*
X156178571Y-73892857D01*
X157678571Y-73892857D01*
X157250000Y-73250000D02*
X157250000Y-72535714D01*
X157678571Y-73392857D02*
X156178571Y-72892857D01*
X157678571Y-72392857D01*
X157678571Y-71035714D02*
X156964285Y-71535714D01*
X157678571Y-71892857D02*
X156178571Y-71892857D01*
X156178571Y-71321428D01*
X156250000Y-71178571D01*
X156321428Y-71107142D01*
X156464285Y-71035714D01*
X156678571Y-71035714D01*
X156821428Y-71107142D01*
X156892857Y-71178571D01*
X156964285Y-71321428D01*
X156964285Y-71892857D01*
X156321428Y-70464285D02*
X156250000Y-70392857D01*
X156178571Y-70250000D01*
X156178571Y-69892857D01*
X156250000Y-69750000D01*
X156321428Y-69678571D01*
X156464285Y-69607142D01*
X156607142Y-69607142D01*
X156821428Y-69678571D01*
X157678571Y-70535714D01*
X157678571Y-69607142D01*
X156178571Y-68678571D02*
X156178571Y-68535714D01*
X156250000Y-68392857D01*
X156321428Y-68321428D01*
X156464285Y-68250000D01*
X156750000Y-68178571D01*
X157107142Y-68178571D01*
X157392857Y-68250000D01*
X157535714Y-68321428D01*
X157607142Y-68392857D01*
X157678571Y-68535714D01*
X157678571Y-68678571D01*
X157607142Y-68821428D01*
X157535714Y-68892857D01*
X157392857Y-68964285D01*
X157107142Y-69035714D01*
X156750000Y-69035714D01*
X156464285Y-68964285D01*
X156321428Y-68892857D01*
X156250000Y-68821428D01*
X156178571Y-68678571D01*
D11*
G04 #@! TO.P,D1,2*
G04 #@! TO.N,Net-(D1-Pad2)*
X103000000Y-85500000D03*
G04 #@! TO.P,D1,1*
G04 #@! TO.N,Net-(D1-Pad1)*
X103000000Y-59500000D03*
G04 #@! TD*
G04 #@! TO.P,D2,1*
G04 #@! TO.N,Net-(D2-Pad1)*
X121000000Y-88000000D03*
G04 #@! TO.P,D2,2*
G04 #@! TO.N,Net-(D2-Pad2)*
X121000000Y-114000000D03*
G04 #@! TD*
G04 #@! TO.P,D3,2*
G04 #@! TO.N,Net-(D3-Pad2)*
X139000000Y-85500000D03*
G04 #@! TO.P,D3,1*
G04 #@! TO.N,Net-(D3-Pad1)*
X139000000Y-59500000D03*
G04 #@! TD*
G04 #@! TO.P,D4,1*
G04 #@! TO.N,Net-(D4-Pad1)*
X158000000Y-88000000D03*
G04 #@! TO.P,D4,2*
G04 #@! TO.N,Net-(D4-Pad2)*
X158000000Y-114000000D03*
G04 #@! TD*
D12*
G04 #@! TO.P,U1,4*
G04 #@! TO.N,Net-(D1-Pad1)*
X92250000Y-121000000D03*
G04 #@! TO.P,U1,3*
G04 #@! TO.N,Net-(D1-Pad2)*
X107750000Y-121000000D03*
G04 #@! TO.P,U1,2*
G04 #@! TO.N,+12V*
X107750000Y-149000000D03*
G04 #@! TO.P,U1,1*
G04 #@! TO.N,GND*
X92250000Y-149000000D03*
G04 #@! TD*
G04 #@! TO.P,U2,1*
G04 #@! TO.N,GND*
X112250000Y-151500000D03*
G04 #@! TO.P,U2,2*
G04 #@! TO.N,+12V*
X127750000Y-151500000D03*
G04 #@! TO.P,U2,3*
G04 #@! TO.N,Net-(D2-Pad2)*
X127750000Y-123500000D03*
G04 #@! TO.P,U2,4*
G04 #@! TO.N,Net-(D2-Pad1)*
X112250000Y-123500000D03*
G04 #@! TD*
G04 #@! TO.P,U3,4*
G04 #@! TO.N,Net-(D3-Pad1)*
X132250000Y-121000000D03*
G04 #@! TO.P,U3,3*
G04 #@! TO.N,Net-(D3-Pad2)*
X147750000Y-121000000D03*
G04 #@! TO.P,U3,2*
G04 #@! TO.N,+12V*
X147750000Y-149000000D03*
G04 #@! TO.P,U3,1*
G04 #@! TO.N,GND*
X132250000Y-149000000D03*
G04 #@! TD*
G04 #@! TO.P,U4,1*
G04 #@! TO.N,GND*
X152250000Y-151500000D03*
G04 #@! TO.P,U4,2*
G04 #@! TO.N,+12V*
X167750000Y-151500000D03*
G04 #@! TO.P,U4,3*
G04 #@! TO.N,Net-(D4-Pad2)*
X167750000Y-123500000D03*
G04 #@! TO.P,U4,4*
G04 #@! TO.N,Net-(D4-Pad1)*
X152250000Y-123500000D03*
G04 #@! TD*
D11*
G04 #@! TO.P,D5,2*
G04 #@! TO.N,Net-(D5-Pad2)*
X177000000Y-85500000D03*
G04 #@! TO.P,D5,1*
G04 #@! TO.N,Net-(D5-Pad1)*
X177000000Y-59500000D03*
G04 #@! TD*
D13*
G04 #@! TO.P,F1,1*
G04 #@! TO.N,+12V*
X179500000Y-117500000D03*
G04 #@! TO.P,F1,2*
G04 #@! TO.N,Net-(F1-Pad2)*
X179500000Y-95500000D03*
G04 #@! TD*
D14*
G04 #@! TO.P,J1,3*
G04 #@! TO.N,N/C*
X101000000Y-109700000D03*
G04 #@! TO.P,J1,2*
G04 #@! TO.N,GND*
X98000000Y-105000000D03*
G04 #@! TO.P,J1,1*
G04 #@! TO.N,Net-(F1-Pad2)*
X104000000Y-105000000D03*
G04 #@! TD*
D12*
G04 #@! TO.P,U5,4*
G04 #@! TO.N,Net-(D5-Pad1)*
X171750000Y-121000000D03*
G04 #@! TO.P,U5,3*
G04 #@! TO.N,Net-(D5-Pad2)*
X187250000Y-121000000D03*
G04 #@! TO.P,U5,2*
G04 #@! TO.N,+12V*
X187250000Y-149000000D03*
G04 #@! TO.P,U5,1*
G04 #@! TO.N,GND*
X171750000Y-149000000D03*
G04 #@! TD*
D15*
G04 #@! TO.P,MNT1,1*
G04 #@! TO.N,GND*
X100500000Y-152000000D03*
G04 #@! TD*
G04 #@! TO.P,MNT2,1*
G04 #@! TO.N,GND*
X180000000Y-152000000D03*
G04 #@! TD*
G04 #@! TO.P,MNT3,1*
G04 #@! TO.N,GND*
X158000000Y-58500000D03*
G04 #@! TD*
G04 #@! TO.P,MNT4,1*
G04 #@! TO.N,GND*
X120500000Y-58500000D03*
G04 #@! TD*
D16*
G04 #@! TO.N,Net-(D1-Pad2)*
X100500000Y-95000000D03*
X97000000Y-85500000D03*
X103000000Y-95000000D03*
X102000000Y-95000000D03*
X97000000Y-86500000D03*
X97000000Y-87500000D03*
G04 #@! TO.N,Net-(D2-Pad1)*
X123500000Y-82000000D03*
X122500000Y-82000000D03*
X121500000Y-82000000D03*
G04 #@! TD*
D17*
G04 #@! TO.N,Net-(D1-Pad2)*
X108749999Y-120000001D02*
X108749999Y-100749999D01*
X107750000Y-121000000D02*
X108749999Y-120000001D01*
X108749999Y-100749999D02*
X103000000Y-95000000D01*
X103000000Y-95000000D02*
X102000000Y-95000000D01*
X103000000Y-95000000D02*
X103000000Y-95000000D01*
X102000000Y-95000000D02*
X100500000Y-95000000D01*
X97000000Y-87500000D02*
X97000000Y-85500000D01*
X103000000Y-85500000D02*
X97000000Y-85500000D01*
G04 #@! TO.N,Net-(D1-Pad1)*
X115500000Y-59500000D02*
X103000000Y-59500000D01*
X117000000Y-61000000D02*
X115500000Y-59500000D01*
X117000000Y-82500000D02*
X117000000Y-61000000D01*
X92250000Y-121000000D02*
X92250000Y-95250000D01*
X92250000Y-95250000D02*
X97000000Y-90500000D01*
X97000000Y-90500000D02*
X107500000Y-90500000D01*
X107500000Y-90500000D02*
X111500000Y-86500000D01*
X111500000Y-86500000D02*
X113000000Y-86500000D01*
X113000000Y-86500000D02*
X117000000Y-82500000D01*
G04 #@! TO.N,Net-(D2-Pad1)*
X121000000Y-82500000D02*
X121500000Y-82000000D01*
X121000000Y-88000000D02*
X121000000Y-82500000D01*
X123500000Y-82000000D02*
X121500000Y-82000000D01*
G04 #@! TO.N,Net-(D2-Pad2)*
X127000000Y-123500000D02*
X127750000Y-123500000D01*
X121000000Y-117500000D02*
X127000000Y-123500000D01*
X121000000Y-114000000D02*
X121000000Y-117500000D01*
G04 #@! TO.N,Net-(D3-Pad2)*
X139000000Y-112250000D02*
X147750000Y-121000000D01*
X139000000Y-85500000D02*
X139000000Y-112250000D01*
G04 #@! TO.N,Net-(D3-Pad1)*
X132250000Y-119585787D02*
X135000000Y-116835787D01*
X132250000Y-121000000D02*
X132250000Y-119585787D01*
X135000000Y-116835787D02*
X135000000Y-91000000D01*
X135000000Y-91000000D02*
X130500000Y-86500000D01*
X130500000Y-86500000D02*
X129000000Y-86500000D01*
X129000000Y-86500000D02*
X126000000Y-83500000D01*
X126000000Y-83500000D02*
X126000000Y-60000000D01*
X126500000Y-59500000D02*
X139000000Y-59500000D01*
X126000000Y-60000000D02*
X126500000Y-59500000D01*
G04 #@! TO.N,Net-(D4-Pad1)*
X152250000Y-122085787D02*
X151000000Y-120835787D01*
X152250000Y-123500000D02*
X152250000Y-122085787D01*
X151000000Y-120835787D02*
X151000000Y-119500000D01*
X151000000Y-119500000D02*
X143000000Y-111500000D01*
X143000000Y-111500000D02*
X143000000Y-91000000D01*
X146000000Y-88000000D02*
X158000000Y-88000000D01*
X143000000Y-91000000D02*
X146000000Y-88000000D01*
G04 #@! TO.N,Net-(D4-Pad2)*
X158000000Y-114000000D02*
X159500000Y-114000000D01*
X159500000Y-115250000D02*
X167750000Y-123500000D01*
X159500000Y-114000000D02*
X159500000Y-115250000D01*
D18*
G04 #@! TO.N,+12V*
X187250000Y-149000000D02*
X181500000Y-143250000D01*
X107750000Y-147250000D02*
X107750000Y-149000000D01*
X111750000Y-143250000D02*
X107750000Y-147250000D01*
X127500000Y-149835787D02*
X127500000Y-143250000D01*
X127750000Y-150085787D02*
X127500000Y-149835787D01*
X127750000Y-151500000D02*
X127750000Y-150085787D01*
X127500000Y-143250000D02*
X111750000Y-143250000D01*
X147000000Y-146835787D02*
X147000000Y-143250000D01*
X147750000Y-147585787D02*
X147000000Y-146835787D01*
X147750000Y-149000000D02*
X147750000Y-147585787D01*
X167000000Y-149335787D02*
X167000000Y-143250000D01*
X167750000Y-150085787D02*
X167000000Y-149335787D01*
X167750000Y-151500000D02*
X167750000Y-150085787D01*
X181500000Y-143250000D02*
X167000000Y-143250000D01*
X167000000Y-143250000D02*
X147000000Y-143250000D01*
X179500000Y-141250000D02*
X181500000Y-143250000D01*
X179500000Y-117500000D02*
X179500000Y-141250000D01*
X143500000Y-143250000D02*
X143500000Y-153000000D01*
X143500000Y-143250000D02*
X127500000Y-143250000D01*
X147000000Y-143250000D02*
X143500000Y-143250000D01*
X143500000Y-153000000D02*
X145000000Y-153000000D01*
X145000000Y-144500000D02*
X145000000Y-153000000D01*
D17*
G04 #@! TO.N,Net-(D5-Pad2)*
X187250000Y-119585787D02*
X186500000Y-118835787D01*
X187250000Y-121000000D02*
X187250000Y-119585787D01*
X186500000Y-118835787D02*
X186500000Y-90000000D01*
X182000000Y-85500000D02*
X177000000Y-85500000D01*
X186500000Y-90000000D02*
X182000000Y-85500000D01*
G04 #@! TO.N,Net-(D5-Pad1)*
X164500000Y-59500000D02*
X177000000Y-59500000D01*
X171750000Y-89750000D02*
X169000000Y-87000000D01*
X171750000Y-121000000D02*
X171750000Y-89750000D01*
X169000000Y-87000000D02*
X166500000Y-87000000D01*
X166500000Y-87000000D02*
X163500000Y-84000000D01*
X163500000Y-84000000D02*
X163500000Y-60500000D01*
X163500000Y-60500000D02*
X164500000Y-59500000D01*
D18*
G04 #@! TO.N,Net-(F1-Pad2)*
X179500000Y-99500000D02*
X175500000Y-103500000D01*
X179500000Y-95500000D02*
X179500000Y-99500000D01*
X175500000Y-103500000D02*
X175500000Y-124500000D01*
X175500000Y-124500000D02*
X169500000Y-130500000D01*
X169500000Y-130500000D02*
X107000000Y-130500000D01*
X107000000Y-130500000D02*
X104000000Y-127500000D01*
X104000000Y-105000000D02*
X104500000Y-105000000D01*
X104500000Y-105000000D02*
X106500000Y-107000000D01*
X106500000Y-112500000D02*
X104000000Y-115000000D01*
X106500000Y-107000000D02*
X106500000Y-112500000D01*
X104000000Y-127500000D02*
X104000000Y-115000000D01*
G04 #@! TD*
D19*
G04 #@! TO.N,+12V*
G36*
X145373000Y-154290000D02*
X142127000Y-154290000D01*
X142127000Y-143127000D01*
X145373000Y-143127000D01*
X145373000Y-154290000D01*
X145373000Y-154290000D01*
G37*
X145373000Y-154290000D02*
X142127000Y-154290000D01*
X142127000Y-143127000D01*
X145373000Y-143127000D01*
X145373000Y-154290000D01*
G04 #@! TO.N,GND*
G36*
X138873000Y-154290000D02*
X131127000Y-154290000D01*
X131127000Y-150231020D01*
X131162794Y-150266814D01*
X131277074Y-150152534D01*
X131375736Y-150419387D01*
X131985461Y-150645908D01*
X132635460Y-150621856D01*
X133124264Y-150419387D01*
X133222927Y-150152532D01*
X132250000Y-149179605D01*
X132235858Y-149193748D01*
X132056253Y-149014143D01*
X132070395Y-149000000D01*
X132429605Y-149000000D01*
X133402532Y-149972927D01*
X133669387Y-149874264D01*
X133895908Y-149264539D01*
X133871856Y-148614540D01*
X133669387Y-148125736D01*
X133402532Y-148027073D01*
X132429605Y-149000000D01*
X132070395Y-149000000D01*
X132056253Y-148985858D01*
X132235858Y-148806253D01*
X132250000Y-148820395D01*
X133222927Y-147847468D01*
X133124264Y-147580613D01*
X132514539Y-147354092D01*
X131864540Y-147378144D01*
X131375736Y-147580613D01*
X131277074Y-147847466D01*
X131162794Y-147733186D01*
X131127000Y-147768980D01*
X131127000Y-147127000D01*
X138873000Y-147127000D01*
X138873000Y-154290000D01*
X138873000Y-154290000D01*
G37*
X138873000Y-154290000D02*
X131127000Y-154290000D01*
X131127000Y-150231020D01*
X131162794Y-150266814D01*
X131277074Y-150152534D01*
X131375736Y-150419387D01*
X131985461Y-150645908D01*
X132635460Y-150621856D01*
X133124264Y-150419387D01*
X133222927Y-150152532D01*
X132250000Y-149179605D01*
X132235858Y-149193748D01*
X132056253Y-149014143D01*
X132070395Y-149000000D01*
X132429605Y-149000000D01*
X133402532Y-149972927D01*
X133669387Y-149874264D01*
X133895908Y-149264539D01*
X133871856Y-148614540D01*
X133669387Y-148125736D01*
X133402532Y-148027073D01*
X132429605Y-149000000D01*
X132070395Y-149000000D01*
X132056253Y-148985858D01*
X132235858Y-148806253D01*
X132250000Y-148820395D01*
X133222927Y-147847468D01*
X133124264Y-147580613D01*
X132514539Y-147354092D01*
X131864540Y-147378144D01*
X131375736Y-147580613D01*
X131277074Y-147847466D01*
X131162794Y-147733186D01*
X131127000Y-147768980D01*
X131127000Y-147127000D01*
X138873000Y-147127000D01*
X138873000Y-154290000D01*
G04 #@! TD*
M02*
