G04 #@! TF.GenerationSoftware,KiCad,Pcbnew,(5.0.0)*
G04 #@! TF.CreationDate,2019-12-04T20:48:20-05:00*
G04 #@! TF.ProjectId,10W White LED,313057205768697465204C45442E6B69,rev?*
G04 #@! TF.SameCoordinates,Original*
G04 #@! TF.FileFunction,Profile,NP*
%FSLAX46Y46*%
G04 Gerber Fmt 4.6, Leading zero omitted, Abs format (unit mm)*
G04 Created by KiCad (PCBNEW (5.0.0)) date 12/04/19 20:48:20*
%MOMM*%
%LPD*%
G01*
G04 APERTURE LIST*
%ADD10C,0.150000*%
G04 APERTURE END LIST*
D10*
X178000000Y-64000000D02*
X196000000Y-64000000D01*
X177000000Y-65000000D02*
X178000000Y-64000000D01*
X139500000Y-89500000D02*
X139500000Y-110500000D01*
X160500000Y-89500000D02*
X139500000Y-89500000D01*
X160500000Y-110500000D02*
X160500000Y-89500000D01*
X139500000Y-110500000D02*
X160500000Y-110500000D01*
X196000000Y-135000000D02*
X160000000Y-135000000D01*
X206000000Y-74000000D02*
X206000000Y-125000000D01*
X160000000Y-65000000D02*
X177000000Y-65000000D01*
X125000000Y-65000000D02*
X140000000Y-65000000D01*
X140000000Y-135000000D02*
X125000000Y-135000000D01*
X140000001Y-65000001D02*
G75*
G02X159999999Y-65000001I9999999J-9999999D01*
G01*
X159999999Y-134999999D02*
G75*
G02X140000001Y-134999999I-9999999J9999999D01*
G01*
X115000001Y-109999999D02*
G75*
G02X115000001Y-90000001I9999999J9999999D01*
G01*
X115000000Y-75000000D02*
X115000000Y-90000000D01*
X115000000Y-125000000D02*
X115000000Y-110000000D01*
X125000000Y-135000000D02*
G75*
G02X115000000Y-125000000I0J10000000D01*
G01*
X115000000Y-75000000D02*
G75*
G02X125000000Y-65000000I10000000J0D01*
G01*
X196000000Y-64000000D02*
G75*
G02X206000000Y-74000000I0J-10000000D01*
G01*
X206000000Y-125000000D02*
G75*
G02X196000000Y-135000000I-10000000J0D01*
G01*
M02*
