G04 #@! TF.GenerationSoftware,KiCad,Pcbnew,(5.0.0)*
G04 #@! TF.CreationDate,2020-03-19T17:01:02-04:00*
G04 #@! TF.ProjectId,Grow_Lamp,47726F775F4C616D702E6B696361645F,rev?*
G04 #@! TF.SameCoordinates,Original*
G04 #@! TF.FileFunction,Legend,Top*
G04 #@! TF.FilePolarity,Positive*
%FSLAX46Y46*%
G04 Gerber Fmt 4.6, Leading zero omitted, Abs format (unit mm)*
G04 Created by KiCad (PCBNEW (5.0.0)) date 03/19/20 17:01:02*
%MOMM*%
%LPD*%
G01*
G04 APERTURE LIST*
%ADD10C,0.200000*%
%ADD11C,0.100000*%
%ADD12C,0.120000*%
%ADD13C,0.010000*%
%ADD14C,0.150000*%
G04 APERTURE END LIST*
D10*
G04 #@! TO.C,D1*
X107500000Y-88500000D02*
X107500000Y-83500000D01*
X99750000Y-88500000D02*
X107500000Y-88500000D01*
X98500000Y-88500000D02*
X99750000Y-88500000D01*
X98500000Y-84000000D02*
X98500000Y-88500000D01*
X98500000Y-83500000D02*
X98500000Y-84000000D01*
X93000000Y-83500000D02*
X98500000Y-83500000D01*
X92000000Y-83500000D02*
X93000000Y-83500000D01*
X92000000Y-62250000D02*
X92000000Y-83500000D01*
X92000000Y-61500000D02*
X92000000Y-62250000D01*
X98500000Y-61500000D02*
X92000000Y-61500000D01*
X98500000Y-57500000D02*
X98500000Y-61500000D01*
X98500000Y-56500000D02*
X98500000Y-57500000D01*
X107500000Y-56500000D02*
X98500000Y-56500000D01*
X107500000Y-61500000D02*
X107500000Y-56500000D01*
X114000000Y-61500000D02*
X107500000Y-61500000D01*
X114000000Y-83500000D02*
X114000000Y-61500000D01*
X107500000Y-83500000D02*
X114000000Y-83500000D01*
D11*
X106750000Y-88500000D02*
X107500000Y-88500000D01*
G04 #@! TO.C,D2*
X124750000Y-117000000D02*
X125500000Y-117000000D01*
D10*
X125500000Y-112000000D02*
X132000000Y-112000000D01*
X132000000Y-112000000D02*
X132000000Y-90000000D01*
X132000000Y-90000000D02*
X125500000Y-90000000D01*
X125500000Y-90000000D02*
X125500000Y-85000000D01*
X125500000Y-85000000D02*
X116500000Y-85000000D01*
X116500000Y-85000000D02*
X116500000Y-86000000D01*
X116500000Y-86000000D02*
X116500000Y-90000000D01*
X116500000Y-90000000D02*
X110000000Y-90000000D01*
X110000000Y-90000000D02*
X110000000Y-90750000D01*
X110000000Y-90750000D02*
X110000000Y-112000000D01*
X110000000Y-112000000D02*
X111000000Y-112000000D01*
X111000000Y-112000000D02*
X116500000Y-112000000D01*
X116500000Y-112000000D02*
X116500000Y-112500000D01*
X116500000Y-112500000D02*
X116500000Y-117000000D01*
X116500000Y-117000000D02*
X117750000Y-117000000D01*
X117750000Y-117000000D02*
X125500000Y-117000000D01*
X125500000Y-117000000D02*
X125500000Y-112000000D01*
G04 #@! TO.C,D3*
X143500000Y-88500000D02*
X143500000Y-83500000D01*
X135750000Y-88500000D02*
X143500000Y-88500000D01*
X134500000Y-88500000D02*
X135750000Y-88500000D01*
X134500000Y-84000000D02*
X134500000Y-88500000D01*
X134500000Y-83500000D02*
X134500000Y-84000000D01*
X129000000Y-83500000D02*
X134500000Y-83500000D01*
X128000000Y-83500000D02*
X129000000Y-83500000D01*
X128000000Y-62250000D02*
X128000000Y-83500000D01*
X128000000Y-61500000D02*
X128000000Y-62250000D01*
X134500000Y-61500000D02*
X128000000Y-61500000D01*
X134500000Y-57500000D02*
X134500000Y-61500000D01*
X134500000Y-56500000D02*
X134500000Y-57500000D01*
X143500000Y-56500000D02*
X134500000Y-56500000D01*
X143500000Y-61500000D02*
X143500000Y-56500000D01*
X150000000Y-61500000D02*
X143500000Y-61500000D01*
X150000000Y-83500000D02*
X150000000Y-61500000D01*
X143500000Y-83500000D02*
X150000000Y-83500000D01*
D11*
X142750000Y-88500000D02*
X143500000Y-88500000D01*
G04 #@! TO.C,D4*
X161750000Y-117000000D02*
X162500000Y-117000000D01*
D10*
X162500000Y-112000000D02*
X169000000Y-112000000D01*
X169000000Y-112000000D02*
X169000000Y-90000000D01*
X169000000Y-90000000D02*
X162500000Y-90000000D01*
X162500000Y-90000000D02*
X162500000Y-85000000D01*
X162500000Y-85000000D02*
X153500000Y-85000000D01*
X153500000Y-85000000D02*
X153500000Y-86000000D01*
X153500000Y-86000000D02*
X153500000Y-90000000D01*
X153500000Y-90000000D02*
X147000000Y-90000000D01*
X147000000Y-90000000D02*
X147000000Y-90750000D01*
X147000000Y-90750000D02*
X147000000Y-112000000D01*
X147000000Y-112000000D02*
X148000000Y-112000000D01*
X148000000Y-112000000D02*
X153500000Y-112000000D01*
X153500000Y-112000000D02*
X153500000Y-112500000D01*
X153500000Y-112500000D02*
X153500000Y-117000000D01*
X153500000Y-117000000D02*
X154750000Y-117000000D01*
X154750000Y-117000000D02*
X162500000Y-117000000D01*
X162500000Y-117000000D02*
X162500000Y-112000000D01*
G04 #@! TO.C,U1*
X107750000Y-122250000D02*
X107750000Y-122500000D01*
X92250000Y-122250000D02*
X92250000Y-122500000D01*
X92250000Y-148000000D02*
X92250000Y-147500000D01*
X107750000Y-148000000D02*
X107750000Y-147500000D01*
X107750000Y-122000000D02*
X107750000Y-122250000D01*
X91250000Y-135000000D02*
X91250000Y-148000000D01*
X91250000Y-148000000D02*
X100000000Y-148000000D01*
X108750000Y-135000000D02*
X108750000Y-148000000D01*
X100000000Y-148000000D02*
X108750000Y-148000000D01*
X108750000Y-122000000D02*
X108750000Y-135000000D01*
X100000000Y-122000000D02*
X108750000Y-122000000D01*
X92250000Y-122000000D02*
X92250000Y-122250000D01*
X91250000Y-122000000D02*
X100000000Y-122000000D01*
X91250000Y-122000000D02*
X91250000Y-135000000D01*
X91250000Y-135000000D02*
X91250000Y-134500000D01*
G04 #@! TO.C,U2*
X111250000Y-137500000D02*
X111250000Y-137000000D01*
X111250000Y-124500000D02*
X111250000Y-137500000D01*
X111250000Y-124500000D02*
X120000000Y-124500000D01*
X112250000Y-124500000D02*
X112250000Y-124750000D01*
X120000000Y-124500000D02*
X128750000Y-124500000D01*
X128750000Y-124500000D02*
X128750000Y-137500000D01*
X120000000Y-150500000D02*
X128750000Y-150500000D01*
X128750000Y-137500000D02*
X128750000Y-150500000D01*
X111250000Y-150500000D02*
X120000000Y-150500000D01*
X111250000Y-137500000D02*
X111250000Y-150500000D01*
X127750000Y-124500000D02*
X127750000Y-124750000D01*
X127750000Y-150500000D02*
X127750000Y-150000000D01*
X112250000Y-150500000D02*
X112250000Y-150000000D01*
X112250000Y-124750000D02*
X112250000Y-125000000D01*
X127750000Y-124750000D02*
X127750000Y-125000000D01*
G04 #@! TO.C,U3*
X147750000Y-122250000D02*
X147750000Y-122500000D01*
X132250000Y-122250000D02*
X132250000Y-122500000D01*
X132250000Y-148000000D02*
X132250000Y-147500000D01*
X147750000Y-148000000D02*
X147750000Y-147500000D01*
X147750000Y-122000000D02*
X147750000Y-122250000D01*
X131250000Y-135000000D02*
X131250000Y-148000000D01*
X131250000Y-148000000D02*
X140000000Y-148000000D01*
X148750000Y-135000000D02*
X148750000Y-148000000D01*
X140000000Y-148000000D02*
X148750000Y-148000000D01*
X148750000Y-122000000D02*
X148750000Y-135000000D01*
X140000000Y-122000000D02*
X148750000Y-122000000D01*
X132250000Y-122000000D02*
X132250000Y-122250000D01*
X131250000Y-122000000D02*
X140000000Y-122000000D01*
X131250000Y-122000000D02*
X131250000Y-135000000D01*
X131250000Y-135000000D02*
X131250000Y-134500000D01*
G04 #@! TO.C,U4*
X151250000Y-137500000D02*
X151250000Y-137000000D01*
X151250000Y-124500000D02*
X151250000Y-137500000D01*
X151250000Y-124500000D02*
X160000000Y-124500000D01*
X152250000Y-124500000D02*
X152250000Y-124750000D01*
X160000000Y-124500000D02*
X168750000Y-124500000D01*
X168750000Y-124500000D02*
X168750000Y-137500000D01*
X160000000Y-150500000D02*
X168750000Y-150500000D01*
X168750000Y-137500000D02*
X168750000Y-150500000D01*
X151250000Y-150500000D02*
X160000000Y-150500000D01*
X151250000Y-137500000D02*
X151250000Y-150500000D01*
X167750000Y-124500000D02*
X167750000Y-124750000D01*
X167750000Y-150500000D02*
X167750000Y-150000000D01*
X152250000Y-150500000D02*
X152250000Y-150000000D01*
X152250000Y-124750000D02*
X152250000Y-125000000D01*
X167750000Y-124750000D02*
X167750000Y-125000000D01*
G04 #@! TO.C,D5*
X181500000Y-88500000D02*
X181500000Y-83500000D01*
X173750000Y-88500000D02*
X181500000Y-88500000D01*
X172500000Y-88500000D02*
X173750000Y-88500000D01*
X172500000Y-84000000D02*
X172500000Y-88500000D01*
X172500000Y-83500000D02*
X172500000Y-84000000D01*
X167000000Y-83500000D02*
X172500000Y-83500000D01*
X166000000Y-83500000D02*
X167000000Y-83500000D01*
X166000000Y-62250000D02*
X166000000Y-83500000D01*
X166000000Y-61500000D02*
X166000000Y-62250000D01*
X172500000Y-61500000D02*
X166000000Y-61500000D01*
X172500000Y-57500000D02*
X172500000Y-61500000D01*
X172500000Y-56500000D02*
X172500000Y-57500000D01*
X181500000Y-56500000D02*
X172500000Y-56500000D01*
X181500000Y-61500000D02*
X181500000Y-56500000D01*
X188000000Y-61500000D02*
X181500000Y-61500000D01*
X188000000Y-83500000D02*
X188000000Y-61500000D01*
X181500000Y-83500000D02*
X188000000Y-83500000D01*
D11*
X180750000Y-88500000D02*
X181500000Y-88500000D01*
D12*
G04 #@! TO.C,F1*
X174500000Y-118500000D02*
X177600000Y-118500000D01*
X174500000Y-94500000D02*
X174500000Y-118500000D01*
X184500000Y-94500000D02*
X181400000Y-94500000D01*
X184500000Y-118500000D02*
X184500000Y-94500000D01*
X181400000Y-118500000D02*
X184500000Y-118500000D01*
X177600000Y-94500000D02*
X174500000Y-94500000D01*
X177000000Y-116500000D02*
X177600000Y-116500000D01*
X177000000Y-96500000D02*
X177000000Y-116500000D01*
X182000000Y-96500000D02*
X181400000Y-96500000D01*
X182000000Y-116500000D02*
X182000000Y-96500000D01*
X181400000Y-116500000D02*
X182000000Y-116500000D01*
X177600000Y-96500000D02*
X177000000Y-96500000D01*
X177000000Y-102000000D02*
X182000000Y-102000000D01*
X177000000Y-111000000D02*
X182000000Y-111000000D01*
X179500000Y-111000000D02*
X179500000Y-102000000D01*
X174500000Y-100500000D02*
X177000000Y-100500000D01*
X184500000Y-100500000D02*
X182000000Y-100500000D01*
X184500000Y-112500000D02*
X182000000Y-112500000D01*
X177000000Y-112500000D02*
X174500000Y-112500000D01*
G04 #@! TO.C,J1*
X104900000Y-100400000D02*
X104900000Y-103000000D01*
X90200000Y-100400000D02*
X104900000Y-100400000D01*
X104900000Y-109600000D02*
X103000000Y-109600000D01*
X104900000Y-106900000D02*
X104900000Y-109600000D01*
X90200000Y-109600000D02*
X90200000Y-100400000D01*
X99000000Y-109600000D02*
X90200000Y-109600000D01*
D10*
G04 #@! TO.C,U5*
X187250000Y-122250000D02*
X187250000Y-122500000D01*
X171750000Y-122250000D02*
X171750000Y-122500000D01*
X171750000Y-148000000D02*
X171750000Y-147500000D01*
X187250000Y-148000000D02*
X187250000Y-147500000D01*
X187250000Y-122000000D02*
X187250000Y-122250000D01*
X170750000Y-135000000D02*
X170750000Y-148000000D01*
X170750000Y-148000000D02*
X179500000Y-148000000D01*
X188250000Y-135000000D02*
X188250000Y-148000000D01*
X179500000Y-148000000D02*
X188250000Y-148000000D01*
X188250000Y-122000000D02*
X188250000Y-135000000D01*
X179500000Y-122000000D02*
X188250000Y-122000000D01*
X171750000Y-122000000D02*
X171750000Y-122250000D01*
X170750000Y-122000000D02*
X179500000Y-122000000D01*
X170750000Y-122000000D02*
X170750000Y-135000000D01*
X170750000Y-135000000D02*
X170750000Y-134500000D01*
D13*
G04 #@! TO.C,G\002A\002A\002A*
G36*
X138974224Y-106096614D02*
X139074693Y-106045907D01*
X139254371Y-105989481D01*
X139336129Y-105968013D01*
X139536023Y-105917344D01*
X139735465Y-105866795D01*
X139901486Y-105824722D01*
X139950645Y-105812266D01*
X140100163Y-105774834D01*
X140195621Y-105762072D01*
X140249102Y-105786030D01*
X140272690Y-105858755D01*
X140278470Y-105992295D01*
X140278387Y-106139034D01*
X140274616Y-106309056D01*
X140264494Y-106446341D01*
X140249805Y-106531575D01*
X140240489Y-106549232D01*
X140177142Y-106553231D01*
X140107344Y-106533867D01*
X140060776Y-106516306D01*
X139991942Y-106493184D01*
X139890581Y-106461374D01*
X139746430Y-106417748D01*
X139549230Y-106359180D01*
X139288719Y-106282542D01*
X139131290Y-106236404D01*
X139004200Y-106189664D01*
X138951285Y-106143800D01*
X138974224Y-106096614D01*
X138974224Y-106096614D01*
G37*
X138974224Y-106096614D02*
X139074693Y-106045907D01*
X139254371Y-105989481D01*
X139336129Y-105968013D01*
X139536023Y-105917344D01*
X139735465Y-105866795D01*
X139901486Y-105824722D01*
X139950645Y-105812266D01*
X140100163Y-105774834D01*
X140195621Y-105762072D01*
X140249102Y-105786030D01*
X140272690Y-105858755D01*
X140278470Y-105992295D01*
X140278387Y-106139034D01*
X140274616Y-106309056D01*
X140264494Y-106446341D01*
X140249805Y-106531575D01*
X140240489Y-106549232D01*
X140177142Y-106553231D01*
X140107344Y-106533867D01*
X140060776Y-106516306D01*
X139991942Y-106493184D01*
X139890581Y-106461374D01*
X139746430Y-106417748D01*
X139549230Y-106359180D01*
X139288719Y-106282542D01*
X139131290Y-106236404D01*
X139004200Y-106189664D01*
X138951285Y-106143800D01*
X138974224Y-106096614D01*
G36*
X135895008Y-99756749D02*
X135895516Y-98614011D01*
X135896363Y-97551433D01*
X135897547Y-96569146D01*
X135899068Y-95667280D01*
X135900926Y-94845965D01*
X135903120Y-94105333D01*
X135905650Y-93445513D01*
X135908514Y-92866636D01*
X135911713Y-92368833D01*
X135915246Y-91952233D01*
X135919112Y-91616967D01*
X135923311Y-91363166D01*
X135927842Y-91190960D01*
X135932704Y-91100480D01*
X135935806Y-91085473D01*
X136177037Y-91083954D01*
X136473309Y-91082831D01*
X136817700Y-91082081D01*
X137203286Y-91081685D01*
X137623144Y-91081620D01*
X138070352Y-91081866D01*
X138537987Y-91082403D01*
X139019124Y-91083208D01*
X139506842Y-91084260D01*
X139994217Y-91085540D01*
X140474327Y-91087025D01*
X140940247Y-91088695D01*
X141385056Y-91090528D01*
X141801829Y-91092503D01*
X142183645Y-91094600D01*
X142523579Y-91096797D01*
X142814710Y-91099073D01*
X143050113Y-91101408D01*
X143222867Y-91103780D01*
X143326047Y-91106167D01*
X143353799Y-91108041D01*
X143357770Y-91150809D01*
X143361525Y-91271192D01*
X143365066Y-91464869D01*
X143368391Y-91727521D01*
X143371501Y-92054828D01*
X143374397Y-92442468D01*
X143377077Y-92886122D01*
X143379543Y-93381469D01*
X143381793Y-93924190D01*
X143383828Y-94509964D01*
X143385649Y-95134471D01*
X143387254Y-95793390D01*
X143388644Y-96482401D01*
X143389819Y-97197185D01*
X143390779Y-97933420D01*
X143391525Y-98686787D01*
X143392055Y-99452965D01*
X143392370Y-100227634D01*
X143392470Y-101006474D01*
X143392355Y-101785165D01*
X143392025Y-102559386D01*
X143391480Y-103324817D01*
X143390720Y-104077138D01*
X143389745Y-104812029D01*
X143388555Y-105525169D01*
X143387150Y-106212238D01*
X143385530Y-106868916D01*
X143383694Y-107490882D01*
X143381644Y-108073817D01*
X143379379Y-108613400D01*
X143376899Y-109105312D01*
X143374204Y-109545230D01*
X143371293Y-109928837D01*
X143368168Y-110251810D01*
X143364828Y-110509830D01*
X143361272Y-110698577D01*
X143357502Y-110813731D01*
X143353799Y-110850993D01*
X143310137Y-110853378D01*
X143191463Y-110855764D01*
X143004699Y-110858130D01*
X142756769Y-110860453D01*
X142454595Y-110862715D01*
X142105101Y-110864892D01*
X141715210Y-110866965D01*
X141384516Y-110868485D01*
X141384516Y-109686071D01*
X141384516Y-106909296D01*
X141271855Y-106868531D01*
X141170872Y-106834793D01*
X141027261Y-106790067D01*
X140913387Y-106756148D01*
X140779418Y-106711465D01*
X140678561Y-106667390D01*
X140637482Y-106638314D01*
X140620134Y-106570852D01*
X140609433Y-106446028D01*
X140604970Y-106284335D01*
X140606337Y-106106269D01*
X140613126Y-105932322D01*
X140624928Y-105782988D01*
X140641334Y-105678762D01*
X140657339Y-105641751D01*
X140746694Y-105598493D01*
X140914748Y-105543457D01*
X141159226Y-105477370D01*
X141210403Y-105464548D01*
X141384516Y-105421359D01*
X141384516Y-104954226D01*
X141381538Y-104766850D01*
X141373450Y-104611216D01*
X141361526Y-104504612D01*
X141348519Y-104464847D01*
X141296377Y-104466392D01*
X141184261Y-104488232D01*
X141030458Y-104526389D01*
X140908116Y-104560583D01*
X140702625Y-104619897D01*
X140451562Y-104691413D01*
X140188366Y-104765650D01*
X139971129Y-104826293D01*
X139757654Y-104885541D01*
X139557863Y-104941054D01*
X139392684Y-104987012D01*
X139283044Y-105017597D01*
X139274677Y-105019940D01*
X139026824Y-105089258D01*
X138837247Y-105141923D01*
X138685390Y-105183618D01*
X138557742Y-105218134D01*
X138396369Y-105266152D01*
X138226292Y-105323479D01*
X138189032Y-105337195D01*
X138004677Y-105406779D01*
X138004677Y-104502742D01*
X138291452Y-104502742D01*
X138311935Y-104093065D01*
X138332419Y-103683388D01*
X139807258Y-103673883D01*
X140148341Y-103671674D01*
X140464374Y-103669606D01*
X140745786Y-103667744D01*
X140983009Y-103666151D01*
X141166475Y-103664892D01*
X141286613Y-103664031D01*
X141333306Y-103663641D01*
X141356051Y-103640614D01*
X141371522Y-103566151D01*
X141380641Y-103431022D01*
X141384330Y-103226001D01*
X141384516Y-103151306D01*
X141384516Y-102639707D01*
X141384516Y-94486130D01*
X141384516Y-92064087D01*
X141077258Y-92089517D01*
X141056774Y-92785968D01*
X141036290Y-93482420D01*
X139643387Y-93482420D01*
X139602419Y-92499194D01*
X139315645Y-92499194D01*
X139274677Y-93482420D01*
X138332419Y-93482420D01*
X138311935Y-92888388D01*
X138291452Y-92294355D01*
X138004677Y-92294355D01*
X137993766Y-93390242D01*
X137982855Y-94486130D01*
X141384516Y-94486130D01*
X141384516Y-102639707D01*
X140338290Y-102632344D01*
X140338290Y-100009663D01*
X140639587Y-100009428D01*
X140898035Y-100008217D01*
X141104594Y-100006080D01*
X141250221Y-100003067D01*
X141325874Y-99999225D01*
X141333859Y-99997818D01*
X141349322Y-99974722D01*
X141361177Y-99913863D01*
X141369671Y-99807907D01*
X141375050Y-99649521D01*
X141377561Y-99431371D01*
X141377450Y-99146125D01*
X141374966Y-98786448D01*
X141374895Y-98778548D01*
X141364032Y-97579194D01*
X141077258Y-97579194D01*
X141065987Y-98273864D01*
X141060262Y-98504125D01*
X141051497Y-98704798D01*
X141040603Y-98861989D01*
X141028492Y-98961804D01*
X141018942Y-98990799D01*
X140967792Y-98997084D01*
X140849298Y-99000186D01*
X140677988Y-99000069D01*
X140468394Y-98996696D01*
X140313277Y-98992581D01*
X139684355Y-98973350D01*
X139684355Y-97232431D01*
X140041445Y-97232413D01*
X140373311Y-97232362D01*
X140670926Y-97232282D01*
X140925261Y-97232176D01*
X141127287Y-97232049D01*
X141267977Y-97231904D01*
X141338301Y-97231746D01*
X141344167Y-97231700D01*
X141357509Y-97190661D01*
X141367422Y-97068711D01*
X141373882Y-96866801D01*
X141376864Y-96585884D01*
X141376344Y-96226913D01*
X141374893Y-96032662D01*
X141364032Y-94834355D01*
X141077258Y-94834355D01*
X141066045Y-95542012D01*
X141054831Y-96249669D01*
X139643387Y-96227259D01*
X139602419Y-95244033D01*
X139315645Y-95244033D01*
X139304142Y-95745888D01*
X139292639Y-96247742D01*
X138314126Y-96247742D01*
X138291452Y-95039194D01*
X138004677Y-95039194D01*
X137993766Y-96135081D01*
X137991577Y-96510525D01*
X137993228Y-96808777D01*
X137998686Y-97028738D01*
X138007922Y-97169306D01*
X138020904Y-97229382D01*
X138024492Y-97231700D01*
X138073390Y-97231861D01*
X138195195Y-97232009D01*
X138380877Y-97232142D01*
X138621409Y-97232254D01*
X138907760Y-97232342D01*
X139230904Y-97232402D01*
X139581809Y-97232430D01*
X139684355Y-97232431D01*
X139684355Y-98973350D01*
X139643387Y-98972097D01*
X139631849Y-98491182D01*
X139626322Y-98286497D01*
X139619244Y-98149184D01*
X139607363Y-98064693D01*
X139587427Y-98018478D01*
X139556187Y-97995990D01*
X139518656Y-97984752D01*
X139431217Y-97972916D01*
X139369517Y-97995300D01*
X139329329Y-98062156D01*
X139306423Y-98183732D01*
X139296570Y-98370278D01*
X139295161Y-98526468D01*
X139291710Y-98733870D01*
X139281962Y-98887177D01*
X139266830Y-98975985D01*
X139254193Y-98994220D01*
X139197909Y-98994915D01*
X139079422Y-98995464D01*
X138918466Y-98995794D01*
X138803548Y-98995859D01*
X138625904Y-98995703D01*
X138478235Y-98995284D01*
X138380274Y-98994673D01*
X138352903Y-98994220D01*
X138335817Y-98953875D01*
X138322908Y-98839726D01*
X138314755Y-98659828D01*
X138311935Y-98424049D01*
X138309679Y-98172321D01*
X138300587Y-97991766D01*
X138281176Y-97871689D01*
X138247963Y-97801397D01*
X138197465Y-97770195D01*
X138126198Y-97767389D01*
X138099110Y-97770646D01*
X138004677Y-97784033D01*
X138004677Y-99996291D01*
X139643319Y-100007012D01*
X140003187Y-100008874D01*
X140338290Y-100009663D01*
X140338290Y-102632344D01*
X139858468Y-102628967D01*
X138332419Y-102618226D01*
X138311935Y-102208549D01*
X138291452Y-101798871D01*
X138004677Y-101798871D01*
X138004677Y-104502742D01*
X138004677Y-105406779D01*
X138004677Y-106257527D01*
X138168548Y-106308093D01*
X138285313Y-106343683D01*
X138449982Y-106393326D01*
X138631903Y-106447791D01*
X138680645Y-106462316D01*
X138857108Y-106514986D01*
X139083447Y-106582746D01*
X139331091Y-106657034D01*
X139571468Y-106729286D01*
X139581935Y-106732437D01*
X139885689Y-106823791D01*
X140128994Y-106896772D01*
X140329827Y-106956737D01*
X140506164Y-107009040D01*
X140675981Y-107059037D01*
X140807695Y-107097604D01*
X141070713Y-107174482D01*
X141060930Y-107907483D01*
X141056124Y-108145077D01*
X141048796Y-108354146D01*
X141039678Y-108520964D01*
X141029501Y-108631803D01*
X141020137Y-108672259D01*
X140970660Y-108682251D01*
X140853648Y-108689567D01*
X140683470Y-108693789D01*
X140474497Y-108694501D01*
X140316257Y-108692743D01*
X139643387Y-108681452D01*
X139602419Y-107698226D01*
X139315645Y-107698226D01*
X139274677Y-108681452D01*
X138332419Y-108681452D01*
X138311935Y-108087420D01*
X138291452Y-107493388D01*
X138004677Y-107493388D01*
X138004677Y-109664678D01*
X139694597Y-109675374D01*
X141384516Y-109686071D01*
X141384516Y-110868485D01*
X141291845Y-110868911D01*
X140841929Y-110870711D01*
X140372385Y-110872343D01*
X139890135Y-110873786D01*
X139402104Y-110875018D01*
X138915213Y-110876020D01*
X138436387Y-110876769D01*
X137972548Y-110877245D01*
X137530618Y-110877426D01*
X137117522Y-110877292D01*
X136740183Y-110876822D01*
X136405522Y-110875994D01*
X136120464Y-110874788D01*
X135935806Y-110873560D01*
X135930743Y-110832572D01*
X135926011Y-110709779D01*
X135921611Y-110505313D01*
X135917544Y-110219303D01*
X135913810Y-109851879D01*
X135910409Y-109403173D01*
X135907342Y-108873315D01*
X135904610Y-108262435D01*
X135902213Y-107570664D01*
X135900152Y-106798132D01*
X135898427Y-105944969D01*
X135897039Y-105011307D01*
X135895988Y-103997274D01*
X135895275Y-102903003D01*
X135894901Y-101728623D01*
X135894839Y-100979517D01*
X135895008Y-99756749D01*
X135895008Y-99756749D01*
G37*
X135895008Y-99756749D02*
X135895516Y-98614011D01*
X135896363Y-97551433D01*
X135897547Y-96569146D01*
X135899068Y-95667280D01*
X135900926Y-94845965D01*
X135903120Y-94105333D01*
X135905650Y-93445513D01*
X135908514Y-92866636D01*
X135911713Y-92368833D01*
X135915246Y-91952233D01*
X135919112Y-91616967D01*
X135923311Y-91363166D01*
X135927842Y-91190960D01*
X135932704Y-91100480D01*
X135935806Y-91085473D01*
X136177037Y-91083954D01*
X136473309Y-91082831D01*
X136817700Y-91082081D01*
X137203286Y-91081685D01*
X137623144Y-91081620D01*
X138070352Y-91081866D01*
X138537987Y-91082403D01*
X139019124Y-91083208D01*
X139506842Y-91084260D01*
X139994217Y-91085540D01*
X140474327Y-91087025D01*
X140940247Y-91088695D01*
X141385056Y-91090528D01*
X141801829Y-91092503D01*
X142183645Y-91094600D01*
X142523579Y-91096797D01*
X142814710Y-91099073D01*
X143050113Y-91101408D01*
X143222867Y-91103780D01*
X143326047Y-91106167D01*
X143353799Y-91108041D01*
X143357770Y-91150809D01*
X143361525Y-91271192D01*
X143365066Y-91464869D01*
X143368391Y-91727521D01*
X143371501Y-92054828D01*
X143374397Y-92442468D01*
X143377077Y-92886122D01*
X143379543Y-93381469D01*
X143381793Y-93924190D01*
X143383828Y-94509964D01*
X143385649Y-95134471D01*
X143387254Y-95793390D01*
X143388644Y-96482401D01*
X143389819Y-97197185D01*
X143390779Y-97933420D01*
X143391525Y-98686787D01*
X143392055Y-99452965D01*
X143392370Y-100227634D01*
X143392470Y-101006474D01*
X143392355Y-101785165D01*
X143392025Y-102559386D01*
X143391480Y-103324817D01*
X143390720Y-104077138D01*
X143389745Y-104812029D01*
X143388555Y-105525169D01*
X143387150Y-106212238D01*
X143385530Y-106868916D01*
X143383694Y-107490882D01*
X143381644Y-108073817D01*
X143379379Y-108613400D01*
X143376899Y-109105312D01*
X143374204Y-109545230D01*
X143371293Y-109928837D01*
X143368168Y-110251810D01*
X143364828Y-110509830D01*
X143361272Y-110698577D01*
X143357502Y-110813731D01*
X143353799Y-110850993D01*
X143310137Y-110853378D01*
X143191463Y-110855764D01*
X143004699Y-110858130D01*
X142756769Y-110860453D01*
X142454595Y-110862715D01*
X142105101Y-110864892D01*
X141715210Y-110866965D01*
X141384516Y-110868485D01*
X141384516Y-109686071D01*
X141384516Y-106909296D01*
X141271855Y-106868531D01*
X141170872Y-106834793D01*
X141027261Y-106790067D01*
X140913387Y-106756148D01*
X140779418Y-106711465D01*
X140678561Y-106667390D01*
X140637482Y-106638314D01*
X140620134Y-106570852D01*
X140609433Y-106446028D01*
X140604970Y-106284335D01*
X140606337Y-106106269D01*
X140613126Y-105932322D01*
X140624928Y-105782988D01*
X140641334Y-105678762D01*
X140657339Y-105641751D01*
X140746694Y-105598493D01*
X140914748Y-105543457D01*
X141159226Y-105477370D01*
X141210403Y-105464548D01*
X141384516Y-105421359D01*
X141384516Y-104954226D01*
X141381538Y-104766850D01*
X141373450Y-104611216D01*
X141361526Y-104504612D01*
X141348519Y-104464847D01*
X141296377Y-104466392D01*
X141184261Y-104488232D01*
X141030458Y-104526389D01*
X140908116Y-104560583D01*
X140702625Y-104619897D01*
X140451562Y-104691413D01*
X140188366Y-104765650D01*
X139971129Y-104826293D01*
X139757654Y-104885541D01*
X139557863Y-104941054D01*
X139392684Y-104987012D01*
X139283044Y-105017597D01*
X139274677Y-105019940D01*
X139026824Y-105089258D01*
X138837247Y-105141923D01*
X138685390Y-105183618D01*
X138557742Y-105218134D01*
X138396369Y-105266152D01*
X138226292Y-105323479D01*
X138189032Y-105337195D01*
X138004677Y-105406779D01*
X138004677Y-104502742D01*
X138291452Y-104502742D01*
X138311935Y-104093065D01*
X138332419Y-103683388D01*
X139807258Y-103673883D01*
X140148341Y-103671674D01*
X140464374Y-103669606D01*
X140745786Y-103667744D01*
X140983009Y-103666151D01*
X141166475Y-103664892D01*
X141286613Y-103664031D01*
X141333306Y-103663641D01*
X141356051Y-103640614D01*
X141371522Y-103566151D01*
X141380641Y-103431022D01*
X141384330Y-103226001D01*
X141384516Y-103151306D01*
X141384516Y-102639707D01*
X141384516Y-94486130D01*
X141384516Y-92064087D01*
X141077258Y-92089517D01*
X141056774Y-92785968D01*
X141036290Y-93482420D01*
X139643387Y-93482420D01*
X139602419Y-92499194D01*
X139315645Y-92499194D01*
X139274677Y-93482420D01*
X138332419Y-93482420D01*
X138311935Y-92888388D01*
X138291452Y-92294355D01*
X138004677Y-92294355D01*
X137993766Y-93390242D01*
X137982855Y-94486130D01*
X141384516Y-94486130D01*
X141384516Y-102639707D01*
X140338290Y-102632344D01*
X140338290Y-100009663D01*
X140639587Y-100009428D01*
X140898035Y-100008217D01*
X141104594Y-100006080D01*
X141250221Y-100003067D01*
X141325874Y-99999225D01*
X141333859Y-99997818D01*
X141349322Y-99974722D01*
X141361177Y-99913863D01*
X141369671Y-99807907D01*
X141375050Y-99649521D01*
X141377561Y-99431371D01*
X141377450Y-99146125D01*
X141374966Y-98786448D01*
X141374895Y-98778548D01*
X141364032Y-97579194D01*
X141077258Y-97579194D01*
X141065987Y-98273864D01*
X141060262Y-98504125D01*
X141051497Y-98704798D01*
X141040603Y-98861989D01*
X141028492Y-98961804D01*
X141018942Y-98990799D01*
X140967792Y-98997084D01*
X140849298Y-99000186D01*
X140677988Y-99000069D01*
X140468394Y-98996696D01*
X140313277Y-98992581D01*
X139684355Y-98973350D01*
X139684355Y-97232431D01*
X140041445Y-97232413D01*
X140373311Y-97232362D01*
X140670926Y-97232282D01*
X140925261Y-97232176D01*
X141127287Y-97232049D01*
X141267977Y-97231904D01*
X141338301Y-97231746D01*
X141344167Y-97231700D01*
X141357509Y-97190661D01*
X141367422Y-97068711D01*
X141373882Y-96866801D01*
X141376864Y-96585884D01*
X141376344Y-96226913D01*
X141374893Y-96032662D01*
X141364032Y-94834355D01*
X141077258Y-94834355D01*
X141066045Y-95542012D01*
X141054831Y-96249669D01*
X139643387Y-96227259D01*
X139602419Y-95244033D01*
X139315645Y-95244033D01*
X139304142Y-95745888D01*
X139292639Y-96247742D01*
X138314126Y-96247742D01*
X138291452Y-95039194D01*
X138004677Y-95039194D01*
X137993766Y-96135081D01*
X137991577Y-96510525D01*
X137993228Y-96808777D01*
X137998686Y-97028738D01*
X138007922Y-97169306D01*
X138020904Y-97229382D01*
X138024492Y-97231700D01*
X138073390Y-97231861D01*
X138195195Y-97232009D01*
X138380877Y-97232142D01*
X138621409Y-97232254D01*
X138907760Y-97232342D01*
X139230904Y-97232402D01*
X139581809Y-97232430D01*
X139684355Y-97232431D01*
X139684355Y-98973350D01*
X139643387Y-98972097D01*
X139631849Y-98491182D01*
X139626322Y-98286497D01*
X139619244Y-98149184D01*
X139607363Y-98064693D01*
X139587427Y-98018478D01*
X139556187Y-97995990D01*
X139518656Y-97984752D01*
X139431217Y-97972916D01*
X139369517Y-97995300D01*
X139329329Y-98062156D01*
X139306423Y-98183732D01*
X139296570Y-98370278D01*
X139295161Y-98526468D01*
X139291710Y-98733870D01*
X139281962Y-98887177D01*
X139266830Y-98975985D01*
X139254193Y-98994220D01*
X139197909Y-98994915D01*
X139079422Y-98995464D01*
X138918466Y-98995794D01*
X138803548Y-98995859D01*
X138625904Y-98995703D01*
X138478235Y-98995284D01*
X138380274Y-98994673D01*
X138352903Y-98994220D01*
X138335817Y-98953875D01*
X138322908Y-98839726D01*
X138314755Y-98659828D01*
X138311935Y-98424049D01*
X138309679Y-98172321D01*
X138300587Y-97991766D01*
X138281176Y-97871689D01*
X138247963Y-97801397D01*
X138197465Y-97770195D01*
X138126198Y-97767389D01*
X138099110Y-97770646D01*
X138004677Y-97784033D01*
X138004677Y-99996291D01*
X139643319Y-100007012D01*
X140003187Y-100008874D01*
X140338290Y-100009663D01*
X140338290Y-102632344D01*
X139858468Y-102628967D01*
X138332419Y-102618226D01*
X138311935Y-102208549D01*
X138291452Y-101798871D01*
X138004677Y-101798871D01*
X138004677Y-104502742D01*
X138004677Y-105406779D01*
X138004677Y-106257527D01*
X138168548Y-106308093D01*
X138285313Y-106343683D01*
X138449982Y-106393326D01*
X138631903Y-106447791D01*
X138680645Y-106462316D01*
X138857108Y-106514986D01*
X139083447Y-106582746D01*
X139331091Y-106657034D01*
X139571468Y-106729286D01*
X139581935Y-106732437D01*
X139885689Y-106823791D01*
X140128994Y-106896772D01*
X140329827Y-106956737D01*
X140506164Y-107009040D01*
X140675981Y-107059037D01*
X140807695Y-107097604D01*
X141070713Y-107174482D01*
X141060930Y-107907483D01*
X141056124Y-108145077D01*
X141048796Y-108354146D01*
X141039678Y-108520964D01*
X141029501Y-108631803D01*
X141020137Y-108672259D01*
X140970660Y-108682251D01*
X140853648Y-108689567D01*
X140683470Y-108693789D01*
X140474497Y-108694501D01*
X140316257Y-108692743D01*
X139643387Y-108681452D01*
X139602419Y-107698226D01*
X139315645Y-107698226D01*
X139274677Y-108681452D01*
X138332419Y-108681452D01*
X138311935Y-108087420D01*
X138291452Y-107493388D01*
X138004677Y-107493388D01*
X138004677Y-109664678D01*
X139694597Y-109675374D01*
X141384516Y-109686071D01*
X141384516Y-110868485D01*
X141291845Y-110868911D01*
X140841929Y-110870711D01*
X140372385Y-110872343D01*
X139890135Y-110873786D01*
X139402104Y-110875018D01*
X138915213Y-110876020D01*
X138436387Y-110876769D01*
X137972548Y-110877245D01*
X137530618Y-110877426D01*
X137117522Y-110877292D01*
X136740183Y-110876822D01*
X136405522Y-110875994D01*
X136120464Y-110874788D01*
X135935806Y-110873560D01*
X135930743Y-110832572D01*
X135926011Y-110709779D01*
X135921611Y-110505313D01*
X135917544Y-110219303D01*
X135913810Y-109851879D01*
X135910409Y-109403173D01*
X135907342Y-108873315D01*
X135904610Y-108262435D01*
X135902213Y-107570664D01*
X135900152Y-106798132D01*
X135898427Y-105944969D01*
X135897039Y-105011307D01*
X135895988Y-103997274D01*
X135895275Y-102903003D01*
X135894901Y-101728623D01*
X135894839Y-100979517D01*
X135895008Y-99756749D01*
G36*
X145030645Y-89529033D02*
X145030645Y-112430000D01*
X141756070Y-112430000D01*
X141756070Y-111439478D01*
X142215358Y-111439162D01*
X142629989Y-111438479D01*
X142994487Y-111437440D01*
X143303372Y-111436058D01*
X143551166Y-111434344D01*
X143732390Y-111432308D01*
X143841566Y-111429964D01*
X143873386Y-111427860D01*
X143878927Y-111411419D01*
X143884048Y-111364785D01*
X143888758Y-111285414D01*
X143893068Y-111170762D01*
X143896988Y-111018282D01*
X143900527Y-110825432D01*
X143903695Y-110589666D01*
X143906503Y-110308440D01*
X143908960Y-109979210D01*
X143911077Y-109599431D01*
X143912863Y-109166557D01*
X143914328Y-108678046D01*
X143915483Y-108131352D01*
X143916337Y-107523930D01*
X143916899Y-106853237D01*
X143917182Y-106116727D01*
X143917193Y-105311856D01*
X143916943Y-104436080D01*
X143916443Y-103486854D01*
X143915701Y-102461633D01*
X143914729Y-101357873D01*
X143914353Y-100970530D01*
X143904032Y-90532742D01*
X135341774Y-90532742D01*
X135341774Y-111426291D01*
X139581935Y-111436847D01*
X140165060Y-111438112D01*
X140725443Y-111438965D01*
X141257606Y-111439416D01*
X141756070Y-111439478D01*
X141756070Y-112430000D01*
X134010323Y-112430000D01*
X134010323Y-89529033D01*
X145030645Y-89529033D01*
X145030645Y-89529033D01*
G37*
X145030645Y-89529033D02*
X145030645Y-112430000D01*
X141756070Y-112430000D01*
X141756070Y-111439478D01*
X142215358Y-111439162D01*
X142629989Y-111438479D01*
X142994487Y-111437440D01*
X143303372Y-111436058D01*
X143551166Y-111434344D01*
X143732390Y-111432308D01*
X143841566Y-111429964D01*
X143873386Y-111427860D01*
X143878927Y-111411419D01*
X143884048Y-111364785D01*
X143888758Y-111285414D01*
X143893068Y-111170762D01*
X143896988Y-111018282D01*
X143900527Y-110825432D01*
X143903695Y-110589666D01*
X143906503Y-110308440D01*
X143908960Y-109979210D01*
X143911077Y-109599431D01*
X143912863Y-109166557D01*
X143914328Y-108678046D01*
X143915483Y-108131352D01*
X143916337Y-107523930D01*
X143916899Y-106853237D01*
X143917182Y-106116727D01*
X143917193Y-105311856D01*
X143916943Y-104436080D01*
X143916443Y-103486854D01*
X143915701Y-102461633D01*
X143914729Y-101357873D01*
X143914353Y-100970530D01*
X143904032Y-90532742D01*
X135341774Y-90532742D01*
X135341774Y-111426291D01*
X139581935Y-111436847D01*
X140165060Y-111438112D01*
X140725443Y-111438965D01*
X141257606Y-111439416D01*
X141756070Y-111439478D01*
X141756070Y-112430000D01*
X134010323Y-112430000D01*
X134010323Y-89529033D01*
X145030645Y-89529033D01*
G04 #@! TO.C,D1*
D14*
X93261904Y-60702380D02*
X93261904Y-59702380D01*
X93500000Y-59702380D01*
X93642857Y-59750000D01*
X93738095Y-59845238D01*
X93785714Y-59940476D01*
X93833333Y-60130952D01*
X93833333Y-60273809D01*
X93785714Y-60464285D01*
X93738095Y-60559523D01*
X93642857Y-60654761D01*
X93500000Y-60702380D01*
X93261904Y-60702380D01*
X94785714Y-60702380D02*
X94214285Y-60702380D01*
X94500000Y-60702380D02*
X94500000Y-59702380D01*
X94404761Y-59845238D01*
X94309523Y-59940476D01*
X94214285Y-59988095D01*
X108607142Y-59214285D02*
X110892857Y-59214285D01*
X108607142Y-85464285D02*
X110892857Y-85464285D01*
X109750000Y-86607142D02*
X109750000Y-84321428D01*
G04 #@! TO.C,D2*
X111261904Y-89202380D02*
X111261904Y-88202380D01*
X111500000Y-88202380D01*
X111642857Y-88250000D01*
X111738095Y-88345238D01*
X111785714Y-88440476D01*
X111833333Y-88630952D01*
X111833333Y-88773809D01*
X111785714Y-88964285D01*
X111738095Y-89059523D01*
X111642857Y-89154761D01*
X111500000Y-89202380D01*
X111261904Y-89202380D01*
X112214285Y-88297619D02*
X112261904Y-88250000D01*
X112357142Y-88202380D01*
X112595238Y-88202380D01*
X112690476Y-88250000D01*
X112738095Y-88297619D01*
X112785714Y-88392857D01*
X112785714Y-88488095D01*
X112738095Y-88630952D01*
X112166666Y-89202380D01*
X112785714Y-89202380D01*
X126607142Y-113964285D02*
X128892857Y-113964285D01*
X127750000Y-115107142D02*
X127750000Y-112821428D01*
X126607142Y-87714285D02*
X128892857Y-87714285D01*
G04 #@! TO.C,D3*
X129261904Y-60702380D02*
X129261904Y-59702380D01*
X129500000Y-59702380D01*
X129642857Y-59750000D01*
X129738095Y-59845238D01*
X129785714Y-59940476D01*
X129833333Y-60130952D01*
X129833333Y-60273809D01*
X129785714Y-60464285D01*
X129738095Y-60559523D01*
X129642857Y-60654761D01*
X129500000Y-60702380D01*
X129261904Y-60702380D01*
X130166666Y-59702380D02*
X130785714Y-59702380D01*
X130452380Y-60083333D01*
X130595238Y-60083333D01*
X130690476Y-60130952D01*
X130738095Y-60178571D01*
X130785714Y-60273809D01*
X130785714Y-60511904D01*
X130738095Y-60607142D01*
X130690476Y-60654761D01*
X130595238Y-60702380D01*
X130309523Y-60702380D01*
X130214285Y-60654761D01*
X130166666Y-60607142D01*
X144607142Y-59214285D02*
X146892857Y-59214285D01*
X144607142Y-85464285D02*
X146892857Y-85464285D01*
X145750000Y-86607142D02*
X145750000Y-84321428D01*
G04 #@! TO.C,D4*
X148261904Y-89202380D02*
X148261904Y-88202380D01*
X148500000Y-88202380D01*
X148642857Y-88250000D01*
X148738095Y-88345238D01*
X148785714Y-88440476D01*
X148833333Y-88630952D01*
X148833333Y-88773809D01*
X148785714Y-88964285D01*
X148738095Y-89059523D01*
X148642857Y-89154761D01*
X148500000Y-89202380D01*
X148261904Y-89202380D01*
X149690476Y-88535714D02*
X149690476Y-89202380D01*
X149452380Y-88154761D02*
X149214285Y-88869047D01*
X149833333Y-88869047D01*
X163607142Y-113964285D02*
X165892857Y-113964285D01*
X164750000Y-115107142D02*
X164750000Y-112821428D01*
X163607142Y-87714285D02*
X165892857Y-87714285D01*
G04 #@! TO.C,U1*
X89702380Y-135761904D02*
X90511904Y-135761904D01*
X90607142Y-135714285D01*
X90654761Y-135666666D01*
X90702380Y-135571428D01*
X90702380Y-135380952D01*
X90654761Y-135285714D01*
X90607142Y-135238095D01*
X90511904Y-135190476D01*
X89702380Y-135190476D01*
X90702380Y-134190476D02*
X90702380Y-134761904D01*
X90702380Y-134476190D02*
X89702380Y-134476190D01*
X89845238Y-134571428D01*
X89940476Y-134666666D01*
X89988095Y-134761904D01*
X104452380Y-127619047D02*
X104452380Y-127428571D01*
X104500000Y-127333333D01*
X104595238Y-127238095D01*
X104785714Y-127190476D01*
X105119047Y-127190476D01*
X105309523Y-127238095D01*
X105404761Y-127333333D01*
X105452380Y-127428571D01*
X105452380Y-127619047D01*
X105404761Y-127714285D01*
X105309523Y-127809523D01*
X105119047Y-127857142D01*
X104785714Y-127857142D01*
X104595238Y-127809523D01*
X104500000Y-127714285D01*
X104452380Y-127619047D01*
X104452380Y-126761904D02*
X105261904Y-126761904D01*
X105357142Y-126714285D01*
X105404761Y-126666666D01*
X105452380Y-126571428D01*
X105452380Y-126380952D01*
X105404761Y-126285714D01*
X105357142Y-126238095D01*
X105261904Y-126190476D01*
X104452380Y-126190476D01*
X104452380Y-125857142D02*
X104452380Y-125285714D01*
X105452380Y-125571428D02*
X104452380Y-125571428D01*
X105071428Y-124952380D02*
X105071428Y-124190476D01*
X105452380Y-124571428D02*
X104690476Y-124571428D01*
X94452380Y-126869047D02*
X94452380Y-126678571D01*
X94500000Y-126583333D01*
X94595238Y-126488095D01*
X94785714Y-126440476D01*
X95119047Y-126440476D01*
X95309523Y-126488095D01*
X95404761Y-126583333D01*
X95452380Y-126678571D01*
X95452380Y-126869047D01*
X95404761Y-126964285D01*
X95309523Y-127059523D01*
X95119047Y-127107142D01*
X94785714Y-127107142D01*
X94595238Y-127059523D01*
X94500000Y-126964285D01*
X94452380Y-126869047D01*
X94452380Y-126011904D02*
X95261904Y-126011904D01*
X95357142Y-125964285D01*
X95404761Y-125916666D01*
X95452380Y-125821428D01*
X95452380Y-125630952D01*
X95404761Y-125535714D01*
X95357142Y-125488095D01*
X95261904Y-125440476D01*
X94452380Y-125440476D01*
X94452380Y-125107142D02*
X94452380Y-124535714D01*
X95452380Y-124821428D02*
X94452380Y-124821428D01*
X95071428Y-124202380D02*
X95071428Y-123440476D01*
X94500000Y-145761904D02*
X94452380Y-145857142D01*
X94452380Y-146000000D01*
X94500000Y-146142857D01*
X94595238Y-146238095D01*
X94690476Y-146285714D01*
X94880952Y-146333333D01*
X95023809Y-146333333D01*
X95214285Y-146285714D01*
X95309523Y-146238095D01*
X95404761Y-146142857D01*
X95452380Y-146000000D01*
X95452380Y-145904761D01*
X95404761Y-145761904D01*
X95357142Y-145714285D01*
X95023809Y-145714285D01*
X95023809Y-145904761D01*
X95452380Y-145285714D02*
X94452380Y-145285714D01*
X95452380Y-144714285D01*
X94452380Y-144714285D01*
X95452380Y-144238095D02*
X94452380Y-144238095D01*
X94452380Y-144000000D01*
X94500000Y-143857142D01*
X94595238Y-143761904D01*
X94690476Y-143714285D01*
X94880952Y-143666666D01*
X95023809Y-143666666D01*
X95214285Y-143714285D01*
X95309523Y-143761904D01*
X95404761Y-143857142D01*
X95452380Y-144000000D01*
X95452380Y-144238095D01*
X105452380Y-146142857D02*
X104452380Y-146142857D01*
X105452380Y-145666666D02*
X104452380Y-145666666D01*
X105452380Y-145095238D01*
X104452380Y-145095238D01*
X105071428Y-144619047D02*
X105071428Y-143857142D01*
X105452380Y-144238095D02*
X104690476Y-144238095D01*
G04 #@! TO.C,U2*
X109702380Y-138261904D02*
X110511904Y-138261904D01*
X110607142Y-138214285D01*
X110654761Y-138166666D01*
X110702380Y-138071428D01*
X110702380Y-137880952D01*
X110654761Y-137785714D01*
X110607142Y-137738095D01*
X110511904Y-137690476D01*
X109702380Y-137690476D01*
X109797619Y-137261904D02*
X109750000Y-137214285D01*
X109702380Y-137119047D01*
X109702380Y-136880952D01*
X109750000Y-136785714D01*
X109797619Y-136738095D01*
X109892857Y-136690476D01*
X109988095Y-136690476D01*
X110130952Y-136738095D01*
X110702380Y-137309523D01*
X110702380Y-136690476D01*
X125452380Y-148642857D02*
X124452380Y-148642857D01*
X125452380Y-148166666D02*
X124452380Y-148166666D01*
X125452380Y-147595238D01*
X124452380Y-147595238D01*
X125071428Y-147119047D02*
X125071428Y-146357142D01*
X125452380Y-146738095D02*
X124690476Y-146738095D01*
X114500000Y-148261904D02*
X114452380Y-148357142D01*
X114452380Y-148500000D01*
X114500000Y-148642857D01*
X114595238Y-148738095D01*
X114690476Y-148785714D01*
X114880952Y-148833333D01*
X115023809Y-148833333D01*
X115214285Y-148785714D01*
X115309523Y-148738095D01*
X115404761Y-148642857D01*
X115452380Y-148500000D01*
X115452380Y-148404761D01*
X115404761Y-148261904D01*
X115357142Y-148214285D01*
X115023809Y-148214285D01*
X115023809Y-148404761D01*
X115452380Y-147785714D02*
X114452380Y-147785714D01*
X115452380Y-147214285D01*
X114452380Y-147214285D01*
X115452380Y-146738095D02*
X114452380Y-146738095D01*
X114452380Y-146500000D01*
X114500000Y-146357142D01*
X114595238Y-146261904D01*
X114690476Y-146214285D01*
X114880952Y-146166666D01*
X115023809Y-146166666D01*
X115214285Y-146214285D01*
X115309523Y-146261904D01*
X115404761Y-146357142D01*
X115452380Y-146500000D01*
X115452380Y-146738095D01*
X114452380Y-129369047D02*
X114452380Y-129178571D01*
X114500000Y-129083333D01*
X114595238Y-128988095D01*
X114785714Y-128940476D01*
X115119047Y-128940476D01*
X115309523Y-128988095D01*
X115404761Y-129083333D01*
X115452380Y-129178571D01*
X115452380Y-129369047D01*
X115404761Y-129464285D01*
X115309523Y-129559523D01*
X115119047Y-129607142D01*
X114785714Y-129607142D01*
X114595238Y-129559523D01*
X114500000Y-129464285D01*
X114452380Y-129369047D01*
X114452380Y-128511904D02*
X115261904Y-128511904D01*
X115357142Y-128464285D01*
X115404761Y-128416666D01*
X115452380Y-128321428D01*
X115452380Y-128130952D01*
X115404761Y-128035714D01*
X115357142Y-127988095D01*
X115261904Y-127940476D01*
X114452380Y-127940476D01*
X114452380Y-127607142D02*
X114452380Y-127035714D01*
X115452380Y-127321428D02*
X114452380Y-127321428D01*
X115071428Y-126702380D02*
X115071428Y-125940476D01*
X124452380Y-130119047D02*
X124452380Y-129928571D01*
X124500000Y-129833333D01*
X124595238Y-129738095D01*
X124785714Y-129690476D01*
X125119047Y-129690476D01*
X125309523Y-129738095D01*
X125404761Y-129833333D01*
X125452380Y-129928571D01*
X125452380Y-130119047D01*
X125404761Y-130214285D01*
X125309523Y-130309523D01*
X125119047Y-130357142D01*
X124785714Y-130357142D01*
X124595238Y-130309523D01*
X124500000Y-130214285D01*
X124452380Y-130119047D01*
X124452380Y-129261904D02*
X125261904Y-129261904D01*
X125357142Y-129214285D01*
X125404761Y-129166666D01*
X125452380Y-129071428D01*
X125452380Y-128880952D01*
X125404761Y-128785714D01*
X125357142Y-128738095D01*
X125261904Y-128690476D01*
X124452380Y-128690476D01*
X124452380Y-128357142D02*
X124452380Y-127785714D01*
X125452380Y-128071428D02*
X124452380Y-128071428D01*
X125071428Y-127452380D02*
X125071428Y-126690476D01*
X125452380Y-127071428D02*
X124690476Y-127071428D01*
G04 #@! TO.C,U3*
X129702380Y-135761904D02*
X130511904Y-135761904D01*
X130607142Y-135714285D01*
X130654761Y-135666666D01*
X130702380Y-135571428D01*
X130702380Y-135380952D01*
X130654761Y-135285714D01*
X130607142Y-135238095D01*
X130511904Y-135190476D01*
X129702380Y-135190476D01*
X129702380Y-134809523D02*
X129702380Y-134190476D01*
X130083333Y-134523809D01*
X130083333Y-134380952D01*
X130130952Y-134285714D01*
X130178571Y-134238095D01*
X130273809Y-134190476D01*
X130511904Y-134190476D01*
X130607142Y-134238095D01*
X130654761Y-134285714D01*
X130702380Y-134380952D01*
X130702380Y-134666666D01*
X130654761Y-134761904D01*
X130607142Y-134809523D01*
X144452380Y-127619047D02*
X144452380Y-127428571D01*
X144500000Y-127333333D01*
X144595238Y-127238095D01*
X144785714Y-127190476D01*
X145119047Y-127190476D01*
X145309523Y-127238095D01*
X145404761Y-127333333D01*
X145452380Y-127428571D01*
X145452380Y-127619047D01*
X145404761Y-127714285D01*
X145309523Y-127809523D01*
X145119047Y-127857142D01*
X144785714Y-127857142D01*
X144595238Y-127809523D01*
X144500000Y-127714285D01*
X144452380Y-127619047D01*
X144452380Y-126761904D02*
X145261904Y-126761904D01*
X145357142Y-126714285D01*
X145404761Y-126666666D01*
X145452380Y-126571428D01*
X145452380Y-126380952D01*
X145404761Y-126285714D01*
X145357142Y-126238095D01*
X145261904Y-126190476D01*
X144452380Y-126190476D01*
X144452380Y-125857142D02*
X144452380Y-125285714D01*
X145452380Y-125571428D02*
X144452380Y-125571428D01*
X145071428Y-124952380D02*
X145071428Y-124190476D01*
X145452380Y-124571428D02*
X144690476Y-124571428D01*
X134452380Y-126869047D02*
X134452380Y-126678571D01*
X134500000Y-126583333D01*
X134595238Y-126488095D01*
X134785714Y-126440476D01*
X135119047Y-126440476D01*
X135309523Y-126488095D01*
X135404761Y-126583333D01*
X135452380Y-126678571D01*
X135452380Y-126869047D01*
X135404761Y-126964285D01*
X135309523Y-127059523D01*
X135119047Y-127107142D01*
X134785714Y-127107142D01*
X134595238Y-127059523D01*
X134500000Y-126964285D01*
X134452380Y-126869047D01*
X134452380Y-126011904D02*
X135261904Y-126011904D01*
X135357142Y-125964285D01*
X135404761Y-125916666D01*
X135452380Y-125821428D01*
X135452380Y-125630952D01*
X135404761Y-125535714D01*
X135357142Y-125488095D01*
X135261904Y-125440476D01*
X134452380Y-125440476D01*
X134452380Y-125107142D02*
X134452380Y-124535714D01*
X135452380Y-124821428D02*
X134452380Y-124821428D01*
X135071428Y-124202380D02*
X135071428Y-123440476D01*
X134500000Y-145761904D02*
X134452380Y-145857142D01*
X134452380Y-146000000D01*
X134500000Y-146142857D01*
X134595238Y-146238095D01*
X134690476Y-146285714D01*
X134880952Y-146333333D01*
X135023809Y-146333333D01*
X135214285Y-146285714D01*
X135309523Y-146238095D01*
X135404761Y-146142857D01*
X135452380Y-146000000D01*
X135452380Y-145904761D01*
X135404761Y-145761904D01*
X135357142Y-145714285D01*
X135023809Y-145714285D01*
X135023809Y-145904761D01*
X135452380Y-145285714D02*
X134452380Y-145285714D01*
X135452380Y-144714285D01*
X134452380Y-144714285D01*
X135452380Y-144238095D02*
X134452380Y-144238095D01*
X134452380Y-144000000D01*
X134500000Y-143857142D01*
X134595238Y-143761904D01*
X134690476Y-143714285D01*
X134880952Y-143666666D01*
X135023809Y-143666666D01*
X135214285Y-143714285D01*
X135309523Y-143761904D01*
X135404761Y-143857142D01*
X135452380Y-144000000D01*
X135452380Y-144238095D01*
X145452380Y-146142857D02*
X144452380Y-146142857D01*
X145452380Y-145666666D02*
X144452380Y-145666666D01*
X145452380Y-145095238D01*
X144452380Y-145095238D01*
X145071428Y-144619047D02*
X145071428Y-143857142D01*
X145452380Y-144238095D02*
X144690476Y-144238095D01*
G04 #@! TO.C,U4*
X149702380Y-138261904D02*
X150511904Y-138261904D01*
X150607142Y-138214285D01*
X150654761Y-138166666D01*
X150702380Y-138071428D01*
X150702380Y-137880952D01*
X150654761Y-137785714D01*
X150607142Y-137738095D01*
X150511904Y-137690476D01*
X149702380Y-137690476D01*
X150035714Y-136785714D02*
X150702380Y-136785714D01*
X149654761Y-137023809D02*
X150369047Y-137261904D01*
X150369047Y-136642857D01*
X165452380Y-148642857D02*
X164452380Y-148642857D01*
X165452380Y-148166666D02*
X164452380Y-148166666D01*
X165452380Y-147595238D01*
X164452380Y-147595238D01*
X165071428Y-147119047D02*
X165071428Y-146357142D01*
X165452380Y-146738095D02*
X164690476Y-146738095D01*
X154500000Y-148261904D02*
X154452380Y-148357142D01*
X154452380Y-148500000D01*
X154500000Y-148642857D01*
X154595238Y-148738095D01*
X154690476Y-148785714D01*
X154880952Y-148833333D01*
X155023809Y-148833333D01*
X155214285Y-148785714D01*
X155309523Y-148738095D01*
X155404761Y-148642857D01*
X155452380Y-148500000D01*
X155452380Y-148404761D01*
X155404761Y-148261904D01*
X155357142Y-148214285D01*
X155023809Y-148214285D01*
X155023809Y-148404761D01*
X155452380Y-147785714D02*
X154452380Y-147785714D01*
X155452380Y-147214285D01*
X154452380Y-147214285D01*
X155452380Y-146738095D02*
X154452380Y-146738095D01*
X154452380Y-146500000D01*
X154500000Y-146357142D01*
X154595238Y-146261904D01*
X154690476Y-146214285D01*
X154880952Y-146166666D01*
X155023809Y-146166666D01*
X155214285Y-146214285D01*
X155309523Y-146261904D01*
X155404761Y-146357142D01*
X155452380Y-146500000D01*
X155452380Y-146738095D01*
X154452380Y-129369047D02*
X154452380Y-129178571D01*
X154500000Y-129083333D01*
X154595238Y-128988095D01*
X154785714Y-128940476D01*
X155119047Y-128940476D01*
X155309523Y-128988095D01*
X155404761Y-129083333D01*
X155452380Y-129178571D01*
X155452380Y-129369047D01*
X155404761Y-129464285D01*
X155309523Y-129559523D01*
X155119047Y-129607142D01*
X154785714Y-129607142D01*
X154595238Y-129559523D01*
X154500000Y-129464285D01*
X154452380Y-129369047D01*
X154452380Y-128511904D02*
X155261904Y-128511904D01*
X155357142Y-128464285D01*
X155404761Y-128416666D01*
X155452380Y-128321428D01*
X155452380Y-128130952D01*
X155404761Y-128035714D01*
X155357142Y-127988095D01*
X155261904Y-127940476D01*
X154452380Y-127940476D01*
X154452380Y-127607142D02*
X154452380Y-127035714D01*
X155452380Y-127321428D02*
X154452380Y-127321428D01*
X155071428Y-126702380D02*
X155071428Y-125940476D01*
X164452380Y-130119047D02*
X164452380Y-129928571D01*
X164500000Y-129833333D01*
X164595238Y-129738095D01*
X164785714Y-129690476D01*
X165119047Y-129690476D01*
X165309523Y-129738095D01*
X165404761Y-129833333D01*
X165452380Y-129928571D01*
X165452380Y-130119047D01*
X165404761Y-130214285D01*
X165309523Y-130309523D01*
X165119047Y-130357142D01*
X164785714Y-130357142D01*
X164595238Y-130309523D01*
X164500000Y-130214285D01*
X164452380Y-130119047D01*
X164452380Y-129261904D02*
X165261904Y-129261904D01*
X165357142Y-129214285D01*
X165404761Y-129166666D01*
X165452380Y-129071428D01*
X165452380Y-128880952D01*
X165404761Y-128785714D01*
X165357142Y-128738095D01*
X165261904Y-128690476D01*
X164452380Y-128690476D01*
X164452380Y-128357142D02*
X164452380Y-127785714D01*
X165452380Y-128071428D02*
X164452380Y-128071428D01*
X165071428Y-127452380D02*
X165071428Y-126690476D01*
X165452380Y-127071428D02*
X164690476Y-127071428D01*
G04 #@! TO.C,D5*
X167261904Y-60702380D02*
X167261904Y-59702380D01*
X167500000Y-59702380D01*
X167642857Y-59750000D01*
X167738095Y-59845238D01*
X167785714Y-59940476D01*
X167833333Y-60130952D01*
X167833333Y-60273809D01*
X167785714Y-60464285D01*
X167738095Y-60559523D01*
X167642857Y-60654761D01*
X167500000Y-60702380D01*
X167261904Y-60702380D01*
X168738095Y-59702380D02*
X168261904Y-59702380D01*
X168214285Y-60178571D01*
X168261904Y-60130952D01*
X168357142Y-60083333D01*
X168595238Y-60083333D01*
X168690476Y-60130952D01*
X168738095Y-60178571D01*
X168785714Y-60273809D01*
X168785714Y-60511904D01*
X168738095Y-60607142D01*
X168690476Y-60654761D01*
X168595238Y-60702380D01*
X168357142Y-60702380D01*
X168261904Y-60654761D01*
X168214285Y-60607142D01*
X182607142Y-59214285D02*
X184892857Y-59214285D01*
X182607142Y-85464285D02*
X184892857Y-85464285D01*
X183750000Y-86607142D02*
X183750000Y-84321428D01*
G04 #@! TO.C,F1*
X171808571Y-106833333D02*
X171808571Y-107166666D01*
X172332380Y-107166666D02*
X171332380Y-107166666D01*
X171332380Y-106690476D01*
X172332380Y-105785714D02*
X172332380Y-106357142D01*
X172332380Y-106071428D02*
X171332380Y-106071428D01*
X171475238Y-106166666D01*
X171570476Y-106261904D01*
X171618095Y-106357142D01*
G04 #@! TO.C,J1*
X95216666Y-110202380D02*
X95216666Y-110916666D01*
X95169047Y-111059523D01*
X95073809Y-111154761D01*
X94930952Y-111202380D01*
X94835714Y-111202380D01*
X96216666Y-111202380D02*
X95645238Y-111202380D01*
X95930952Y-111202380D02*
X95930952Y-110202380D01*
X95835714Y-110345238D01*
X95740476Y-110440476D01*
X95645238Y-110488095D01*
G04 #@! TO.C,U5*
X169202380Y-135761904D02*
X170011904Y-135761904D01*
X170107142Y-135714285D01*
X170154761Y-135666666D01*
X170202380Y-135571428D01*
X170202380Y-135380952D01*
X170154761Y-135285714D01*
X170107142Y-135238095D01*
X170011904Y-135190476D01*
X169202380Y-135190476D01*
X169202380Y-134238095D02*
X169202380Y-134714285D01*
X169678571Y-134761904D01*
X169630952Y-134714285D01*
X169583333Y-134619047D01*
X169583333Y-134380952D01*
X169630952Y-134285714D01*
X169678571Y-134238095D01*
X169773809Y-134190476D01*
X170011904Y-134190476D01*
X170107142Y-134238095D01*
X170154761Y-134285714D01*
X170202380Y-134380952D01*
X170202380Y-134619047D01*
X170154761Y-134714285D01*
X170107142Y-134761904D01*
X183952380Y-127619047D02*
X183952380Y-127428571D01*
X184000000Y-127333333D01*
X184095238Y-127238095D01*
X184285714Y-127190476D01*
X184619047Y-127190476D01*
X184809523Y-127238095D01*
X184904761Y-127333333D01*
X184952380Y-127428571D01*
X184952380Y-127619047D01*
X184904761Y-127714285D01*
X184809523Y-127809523D01*
X184619047Y-127857142D01*
X184285714Y-127857142D01*
X184095238Y-127809523D01*
X184000000Y-127714285D01*
X183952380Y-127619047D01*
X183952380Y-126761904D02*
X184761904Y-126761904D01*
X184857142Y-126714285D01*
X184904761Y-126666666D01*
X184952380Y-126571428D01*
X184952380Y-126380952D01*
X184904761Y-126285714D01*
X184857142Y-126238095D01*
X184761904Y-126190476D01*
X183952380Y-126190476D01*
X183952380Y-125857142D02*
X183952380Y-125285714D01*
X184952380Y-125571428D02*
X183952380Y-125571428D01*
X184571428Y-124952380D02*
X184571428Y-124190476D01*
X184952380Y-124571428D02*
X184190476Y-124571428D01*
X173952380Y-126869047D02*
X173952380Y-126678571D01*
X174000000Y-126583333D01*
X174095238Y-126488095D01*
X174285714Y-126440476D01*
X174619047Y-126440476D01*
X174809523Y-126488095D01*
X174904761Y-126583333D01*
X174952380Y-126678571D01*
X174952380Y-126869047D01*
X174904761Y-126964285D01*
X174809523Y-127059523D01*
X174619047Y-127107142D01*
X174285714Y-127107142D01*
X174095238Y-127059523D01*
X174000000Y-126964285D01*
X173952380Y-126869047D01*
X173952380Y-126011904D02*
X174761904Y-126011904D01*
X174857142Y-125964285D01*
X174904761Y-125916666D01*
X174952380Y-125821428D01*
X174952380Y-125630952D01*
X174904761Y-125535714D01*
X174857142Y-125488095D01*
X174761904Y-125440476D01*
X173952380Y-125440476D01*
X173952380Y-125107142D02*
X173952380Y-124535714D01*
X174952380Y-124821428D02*
X173952380Y-124821428D01*
X174571428Y-124202380D02*
X174571428Y-123440476D01*
X174000000Y-145761904D02*
X173952380Y-145857142D01*
X173952380Y-146000000D01*
X174000000Y-146142857D01*
X174095238Y-146238095D01*
X174190476Y-146285714D01*
X174380952Y-146333333D01*
X174523809Y-146333333D01*
X174714285Y-146285714D01*
X174809523Y-146238095D01*
X174904761Y-146142857D01*
X174952380Y-146000000D01*
X174952380Y-145904761D01*
X174904761Y-145761904D01*
X174857142Y-145714285D01*
X174523809Y-145714285D01*
X174523809Y-145904761D01*
X174952380Y-145285714D02*
X173952380Y-145285714D01*
X174952380Y-144714285D01*
X173952380Y-144714285D01*
X174952380Y-144238095D02*
X173952380Y-144238095D01*
X173952380Y-144000000D01*
X174000000Y-143857142D01*
X174095238Y-143761904D01*
X174190476Y-143714285D01*
X174380952Y-143666666D01*
X174523809Y-143666666D01*
X174714285Y-143714285D01*
X174809523Y-143761904D01*
X174904761Y-143857142D01*
X174952380Y-144000000D01*
X174952380Y-144238095D01*
X184952380Y-146142857D02*
X183952380Y-146142857D01*
X184952380Y-145666666D02*
X183952380Y-145666666D01*
X184952380Y-145095238D01*
X183952380Y-145095238D01*
X184571428Y-144619047D02*
X184571428Y-143857142D01*
X184952380Y-144238095D02*
X184190476Y-144238095D01*
G04 #@! TO.C,MNT1*
X97452380Y-153714285D02*
X96452380Y-153714285D01*
X97166666Y-153380952D01*
X96452380Y-153047619D01*
X97452380Y-153047619D01*
X97452380Y-152571428D02*
X96452380Y-152571428D01*
X97452380Y-152000000D01*
X96452380Y-152000000D01*
X96452380Y-151666666D02*
X96452380Y-151095238D01*
X97452380Y-151380952D02*
X96452380Y-151380952D01*
X97452380Y-150238095D02*
X97452380Y-150809523D01*
X97452380Y-150523809D02*
X96452380Y-150523809D01*
X96595238Y-150619047D01*
X96690476Y-150714285D01*
X96738095Y-150809523D01*
G04 #@! TO.C,MNT2*
X183952380Y-153714285D02*
X182952380Y-153714285D01*
X183666666Y-153380952D01*
X182952380Y-153047619D01*
X183952380Y-153047619D01*
X183952380Y-152571428D02*
X182952380Y-152571428D01*
X183952380Y-152000000D01*
X182952380Y-152000000D01*
X182952380Y-151666666D02*
X182952380Y-151095238D01*
X183952380Y-151380952D02*
X182952380Y-151380952D01*
X183047619Y-150809523D02*
X183000000Y-150761904D01*
X182952380Y-150666666D01*
X182952380Y-150428571D01*
X183000000Y-150333333D01*
X183047619Y-150285714D01*
X183142857Y-150238095D01*
X183238095Y-150238095D01*
X183380952Y-150285714D01*
X183952380Y-150857142D01*
X183952380Y-150238095D01*
G04 #@! TO.C,MNT3*
X156785714Y-62452380D02*
X156785714Y-61452380D01*
X157119047Y-62166666D01*
X157452380Y-61452380D01*
X157452380Y-62452380D01*
X157928571Y-62452380D02*
X157928571Y-61452380D01*
X158500000Y-62452380D01*
X158500000Y-61452380D01*
X158833333Y-61452380D02*
X159404761Y-61452380D01*
X159119047Y-62452380D02*
X159119047Y-61452380D01*
X159642857Y-61452380D02*
X160261904Y-61452380D01*
X159928571Y-61833333D01*
X160071428Y-61833333D01*
X160166666Y-61880952D01*
X160214285Y-61928571D01*
X160261904Y-62023809D01*
X160261904Y-62261904D01*
X160214285Y-62357142D01*
X160166666Y-62404761D01*
X160071428Y-62452380D01*
X159785714Y-62452380D01*
X159690476Y-62404761D01*
X159642857Y-62357142D01*
G04 #@! TO.C,MNT4*
X119285714Y-62452380D02*
X119285714Y-61452380D01*
X119619047Y-62166666D01*
X119952380Y-61452380D01*
X119952380Y-62452380D01*
X120428571Y-62452380D02*
X120428571Y-61452380D01*
X121000000Y-62452380D01*
X121000000Y-61452380D01*
X121333333Y-61452380D02*
X121904761Y-61452380D01*
X121619047Y-62452380D02*
X121619047Y-61452380D01*
X122666666Y-61785714D02*
X122666666Y-62452380D01*
X122428571Y-61404761D02*
X122190476Y-62119047D01*
X122809523Y-62119047D01*
G04 #@! TO.C,MNT5*
X166285714Y-120452380D02*
X166285714Y-119452380D01*
X166619047Y-120166666D01*
X166952380Y-119452380D01*
X166952380Y-120452380D01*
X167428571Y-120452380D02*
X167428571Y-119452380D01*
X168000000Y-120452380D01*
X168000000Y-119452380D01*
X168333333Y-119452380D02*
X168904761Y-119452380D01*
X168619047Y-120452380D02*
X168619047Y-119452380D01*
X169714285Y-119452380D02*
X169238095Y-119452380D01*
X169190476Y-119928571D01*
X169238095Y-119880952D01*
X169333333Y-119833333D01*
X169571428Y-119833333D01*
X169666666Y-119880952D01*
X169714285Y-119928571D01*
X169761904Y-120023809D01*
X169761904Y-120261904D01*
X169714285Y-120357142D01*
X169666666Y-120404761D01*
X169571428Y-120452380D01*
X169333333Y-120452380D01*
X169238095Y-120404761D01*
X169190476Y-120357142D01*
G04 #@! TO.C,MNT6*
X96285714Y-120452380D02*
X96285714Y-119452380D01*
X96619047Y-120166666D01*
X96952380Y-119452380D01*
X96952380Y-120452380D01*
X97428571Y-120452380D02*
X97428571Y-119452380D01*
X98000000Y-120452380D01*
X98000000Y-119452380D01*
X98333333Y-119452380D02*
X98904761Y-119452380D01*
X98619047Y-120452380D02*
X98619047Y-119452380D01*
X99666666Y-119452380D02*
X99476190Y-119452380D01*
X99380952Y-119500000D01*
X99333333Y-119547619D01*
X99238095Y-119690476D01*
X99190476Y-119880952D01*
X99190476Y-120261904D01*
X99238095Y-120357142D01*
X99285714Y-120404761D01*
X99380952Y-120452380D01*
X99571428Y-120452380D01*
X99666666Y-120404761D01*
X99714285Y-120357142D01*
X99761904Y-120261904D01*
X99761904Y-120023809D01*
X99714285Y-119928571D01*
X99666666Y-119880952D01*
X99571428Y-119833333D01*
X99380952Y-119833333D01*
X99285714Y-119880952D01*
X99238095Y-119928571D01*
X99190476Y-120023809D01*
G04 #@! TD*
M02*
