G04 #@! TF.GenerationSoftware,KiCad,Pcbnew,(5.0.0)*
G04 #@! TF.CreationDate,2020-03-19T17:01:02-04:00*
G04 #@! TF.ProjectId,Grow_Lamp,47726F775F4C616D702E6B696361645F,rev?*
G04 #@! TF.SameCoordinates,Original*
G04 #@! TF.FileFunction,Profile,NP*
%FSLAX46Y46*%
G04 Gerber Fmt 4.6, Leading zero omitted, Abs format (unit mm)*
G04 Created by KiCad (PCBNEW (5.0.0)) date 03/19/20 17:01:02*
%MOMM*%
%LPD*%
G01*
G04 APERTURE LIST*
%ADD10C,0.150000*%
G04 APERTURE END LIST*
D10*
X113500000Y-62000000D02*
X113500000Y-83000000D01*
X92500000Y-62000000D02*
X113500000Y-62000000D01*
X92500000Y-83000000D02*
X92500000Y-62000000D01*
X113500000Y-83000000D02*
X92500000Y-83000000D01*
X149500000Y-62000000D02*
X149500000Y-83000000D01*
X128500000Y-62000000D02*
X149500000Y-62000000D01*
X128500000Y-83000000D02*
X128500000Y-62000000D01*
X149500000Y-83000000D02*
X128500000Y-83000000D01*
X166500000Y-62000000D02*
X166500000Y-83000000D01*
X187500000Y-62000000D02*
X166500000Y-62000000D01*
X187500000Y-83000000D02*
X187500000Y-62000000D01*
X166500000Y-83000000D02*
X187500000Y-83000000D01*
X147500000Y-90500000D02*
X147500000Y-111500000D01*
X168500000Y-90500000D02*
X147500000Y-90500000D01*
X168500000Y-111500000D02*
X168500000Y-90500000D01*
X147500000Y-111500000D02*
X168500000Y-111500000D01*
X110500000Y-90500000D02*
X110500000Y-111500000D01*
X131500000Y-90500000D02*
X110500000Y-90500000D01*
X131500000Y-111500000D02*
X131500000Y-90500000D01*
X110500000Y-111500000D02*
X131500000Y-111500000D01*
X90000000Y-55000000D02*
X90000000Y-155000000D01*
X190000000Y-55000000D02*
X90000000Y-55000000D01*
X190000000Y-155000000D02*
X190000000Y-55000000D01*
X90000000Y-155000000D02*
X190000000Y-155000000D01*
M02*
